999
dxfrw 0.6.3
  0
SECTION
  2
HEADER
  9
$ACADVER
  1
AC1021
  9
$DWGCODEPAGE
  3
ANSI_1252
  9
$INSBASE
 10
0
 20
0
 30
0
  9
$EXTMIN
 10
-35.5
 20
-15.65
 30
0
  9
$EXTMAX
 10
45.58830935251859
 20
14.75
 30
0
  9
$LIMMIN
 10
0
 20
0
  9
$LIMMAX
 10
420
 20
297
  9
$ORTHOMODE
 70
    0
  9
$REGENMODE
 70
    1
  9
$FILLMODE
 70
    1
  9
$QTEXTMODE
 70
    0
  9
$MIRRTEXT
 70
    0
  9
$LTSCALE
 40
1
  9
$ATTMODE
 70
    0
  9
$TEXTSIZE
 40
2.5
  9
$TRACEWID
 40
15.68
  9
$TEXTSTYLE
  7
STANDARD
  9
$CLAYER
  8
dimensioning
  9
$CELTYPE
  6
BYLAYER
  9
$CECOLOR
 62
  256
  9
$CELTSCALE
 40
1
  9
$DISPSILH
 70
    0
  9
$DIMSCALE
 40
1
  9
$DIMASZ
 40
1
  9
$DIMEXO
 40
0.625
  9
$DIMDLI
 40
3.75
  9
$DIMRND
 40
0
  9
$DIMDLE
 40
0
  9
$DIMEXE
 40
1.25
  9
$DIMTP
 40
0
  9
$DIMTM
 40
0
  9
$DIMTXT
 40
1
  9
$DIMCEN
 40
2.5
  9
$DIMTSZ
 40
0
  9
$DIMTOL
 70
    0
  9
$DIMLIM
 70
    0
  9
$DIMTIH
 70
    0
  9
$DIMTOH
 70
    0
  9
$DIMSE1
 70
    0
  9
$DIMSE2
 70
    0
  9
$DIMTAD
 70
    1
  9
$DIMZIN
 70
    1
  9
$DIMBLK
  1

  9
$DIMASO
 70
    1
  9
$DIMSHO
 70
    1
  9
$DIMPOST
  1

  9
$DIMAPOST
  1

  9
$DIMALT
 70
    0
  9
$DIMALTD
 70
    3
  9
$DIMALTF
 40
0.03937
  9
$DIMLFAC
 40
1
  9
$DIMTOFL
 70
    1
  9
$DIMTVP
 40
0
  9
$DIMTIX
 70
    0
  9
$DIMSOXD
 70
    0
  9
$DIMSAH
 70
    0
  9
$DIMBLK1
  1

  9
$DIMBLK2
  1

  9
$DIMSTYLE
  2
STANDARD
  9
$DIMCLRD
 70
    0
  9
$DIMCLRE
 70
    0
  9
$DIMCLRT
 70
    0
  9
$DIMTFAC
 40
1
  9
$DIMGAP
 40
0.625
  9
$DIMJUST
 70
    0
  9
$DIMSD1
 70
    0
  9
$DIMSD2
 70
    0
  9
$DIMTOLJ
 70
    0
  9
$DIMTZIN
 70
    8
  9
$DIMALTZ
 70
    0
  9
$DIMALTTZ
 70
    0
  9
$DIMUPT
 70
    0
  9
$DIMDEC
 70
    3
  9
$DIMTDEC
 70
    2
  9
$DIMALTU
 70
    2
  9
$DIMALTTD
 70
    3
  9
$DIMTXSTY
  7
standard
  9
$DIMAUNIT
 70
    0
  9
$DIMADEC
 70
    2
  9
$DIMALTRND
 40
0
  9
$DIMAZIN
 70
    0
  9
$DIMDSEP
 70
    0
  9
$DIMATFIT
 70
    3
  9
$DIMFRAC
 70
    0
  9
$DIMLDRBLK
  1
STANDARD
  9
$DIMLUNIT
 70
    2
  9
$DIMLWD
 70
   -2
  9
$DIMLWE
 70
   -2
  9
$DIMTMOVE
 70
    0
  9
$DIMFXL
 40
1
  9
$DIMFXLON
 70
    0
  9
$DIMJOGANG
 40
0.7854
  9
$DIMTFILL
 70
    0
  9
$DIMTFILLCLR
 70
    0
  9
$DIMARCSYM
 70
    0
  9
$DIMLTYPE
  6

  9
$DIMLTEX1
  6

  9
$DIMLTEX2
  6

  9
$LUNITS
 70
    2
  9
$LUPREC
 70
    4
  9
$SKETCHINC
 40
1
  9
$FILLETRAD
 40
0
  9
$AUNITS
 70
    0
  9
$AUPREC
 70
    2
  9
$MENU
  1
.
  9
$ELEVATION
 40
0
  9
$PELEVATION
 40
0
  9
$THICKNESS
 40
0
  9
$LIMCHECK
 70
    0
  9
$CHAMFERA
 40
0
  9
$CHAMFERB
 40
0
  9
$CHAMFERC
 40
0
  9
$CHAMFERD
 40
0
  9
$SKPOLY
 70
    0
  9
$USRTIMER
 70
    1
  9
$ANGBASE
 50
0
  9
$ANGDIR
 70
    0
  9
$PDMODE
 70
   34
  9
$PDSIZE
 40
0
  9
$PLINEWID
 40
0
  9
$SPLFRAME
 70
    0
  9
$SPLINETYPE
 70
    2
  9
$SPLINESEGS
 70
    8
  9
$HANDSEED
  5
20000
  9
$SURFTAB1
 70
    6
  9
$SURFTAB2
 70
    6
  9
$SURFTYPE
 70
    6
  9
$SURFU
 70
    6
  9
$SURFV
 70
    6
  9
$UCSBASE
  2

  9
$UCSNAME
  2

  9
$UCSORG
 10
0
 20
0
 30
0
  9
$UCSXDIR
 10
1
 20
0
 30
0
  9
$UCSYDIR
 10
0
 20
1
 30
0
  9
$UCSORTHOREF
  2

  9
$UCSORTHOVIEW
 70
    0
  9
$UCSORGTOP
 10
0
 20
0
 30
0
  9
$UCSORGBOTTOM
 10
0
 20
0
 30
0
  9
$UCSORGLEFT
 10
0
 20
0
 30
0
  9
$UCSORGRIGHT
 10
0
 20
0
 30
0
  9
$UCSORGFRONT
 10
0
 20
0
 30
0
  9
$UCSORGBACK
 10
0
 20
0
 30
0
  9
$PUCSBASE
  2

  9
$PUCSNAME
  2

  9
$PUCSORG
 10
0
 20
0
 30
0
  9
$PUCSXDIR
 10
1
 20
0
 30
0
  9
$PUCSYDIR
 10
0
 20
1
 30
0
  9
$PUCSORTHOREF
  2

  9
$PUCSORTHOVIEW
 70
    0
  9
$PUCSORGTOP
 10
0
 20
0
 30
0
  9
$PUCSORGBOTTOM
 10
0
 20
0
 30
0
  9
$PUCSORGLEFT
 10
0
 20
0
 30
0
  9
$PUCSORGRIGHT
 10
0
 20
0
 30
0
  9
$PUCSORGFRONT
 10
0
 20
0
 30
0
  9
$PUCSORGBACK
 10
0
 20
0
 30
0
  9
$USERI1
 70
    0
  9
$USERI2
 70
    0
  9
$USERI3
 70
    0
  9
$USERI4
 70
    0
  9
$USERI5
 70
    0
  9
$USERR1
 40
0
  9
$USERR2
 40
0
  9
$USERR3
 40
0
  9
$USERR4
 40
0
  9
$USERR5
 40
0
  9
$WORLDVIEW
 70
    1
  9
$SHADEDGE
 70
    3
  9
$SHADEDIF
 70
   70
  9
$TILEMODE
 70
    1
  9
$MAXACTVP
 70
   64
  9
$PINSBASE
 10
105
 20
148.5
 30
0
  9
$PLIMCHECK
 70
    0
  9
$PEXTMIN
 10
0
 20
0
 30
0
  9
$PEXTMAX
 10
0
 20
0
 30
0
  9
$GRIDMODE
 70
    1
  9
$SNAPSTYLE
 70
    0
  9
$GRIDUNIT
 10
1
 20
1
  9
$PLIMMIN
 10
0
 20
0
  9
$PLIMMAX
 10
210
 20
297
  9
$UNITMODE
 70
    0
  9
$VISRETAIN
 70
    1
  9
$PLINEGEN
 70
    0
  9
$PSLTSCALE
 70
    1
  9
$TREEDEPTH
 70
 3020
  9
$CMLSTYLE
  2
Standard
  9
$CMLJUST
 70
    0
  9
$CMLSCALE
 40
20
  9
$PROXYGRAPHICS
 70
    1
  9
$MEASUREMENT
 70
    1
  9
$CELWEIGHT
370
   -1
  9
$ENDCAPS
280
    0
  9
$JOINSTYLE
280
    0
  9
$LWDISPLAY
290
    0
  9
$INSUNITS
 70
    4
  9
$HYPERLINKBASE
  1

  9
$STYLESHEET
  1

  9
$XEDIT
290
    1
  9
$CEPSNTYPE
380
    0
  9
$PSTYLEMODE
290
    1
  9
$EXTNAMES
290
    1
  9
$PSVPSCALE
 40
1
  9
$OLESTARTUP
290
    0
  9
$SORTENTS
280
  127
  9
$INDEXCTL
280
    0
  9
$HIDETEXT
280
    1
  9
$XCLIPFRAME
290
    0
  9
$HALOGAP
280
    0
  9
$OBSCOLOR
 70
  257
  9
$OBSLTYPE
280
    0
  9
$INTERSECTIONDISPLAY
280
    0
  9
$INTERSECTIONCOLOR
 70
  257
  9
$DIMASSOC
280
    1
  9
$PROJECTNAME
  1

  9
$CAMERADISPLAY
290
    0
  9
$LENSLENGTH
 40
50
  9
$CAMERAHEIGHT
 40
0
  9
$STEPSPERSEC
 40
2
  9
$STEPSIZE
 40
50
  9
$3DDWFPREC
 40
2
  9
$PSOLWIDTH
 40
5
  9
$PSOLHEIGHT
 40
80
  9
$LOFTANG1
 40
1.570796326794897
  9
$LOFTANG2
 40
1.570796326794897
  9
$LOFTMAG1
 40
0
  9
$LOFTMAG2
 40
0
  9
$LOFTPARAM
 70
    7
  9
$LOFTNORMALS
280
    1
  9
$LATITUDE
 40
1
  9
$LONGITUDE
 40
1
  9
$NORTHDIRECTION
 40
0
  9
$TIMEZONE
 70
-8000
  9
$LIGHTGLYPHDISPLAY
280
    1
  9
$TILEMODELIGHTSYNCH
280
    1
  9
$SOLIDHIST
280
    1
  9
$SHOWHIST
280
    1
  9
$DWFFRAME
280
    2
  9
$DGNFRAME
280
    0
  9
$REALWORLDSCALE
290
    1
  9
$INTERFERECOLOR
 62
    1
  9
$CSHADOW
280
    0
  9
$SHADOWPLANELOCATION
 40
0
  0
ENDSEC
  0
SECTION
  2
CLASSES
  0
ENDSEC
  0
SECTION
  2
TABLES
  0
TABLE
  2
VPORT
  5
8
330
0
100
AcDbSymbolTable
 70
    1
  0
VPORT
  5
31
330
2
100
AcDbSymbolTableRecord
100
AcDbViewportTableRecord
  2
*ACTIVE
 70
    0
 10
0
 20
0
 11
1
 21
1
 12
23.18892299829219
 22
9.370366683272158
 13
0
 23
0
 14
10
 24
10
 15
1
 25
1
 16
0
 26
0
 36
1
 17
0
 27
0
 37
0
 40
38.35652043113739
 41
2.152091254752852
 42
50
 43
0
 44
0
 50
0
 51
0
 71
    0
 72
  100
 73
    1
 74
    3
 75
    0
 76
    1
 77
    0
 78
    0
281
    0
 65
    1
110
0
120
0
130
0
111
1
121
0
131
0
112
0
122
1
132
0
 79
    0
146
0
348
10020
 60
    3
 61
    5
292
1
282
    1
141
0
142
0
 63
  250
421
3358443
  0
ENDTAB
  0
TABLE
  2
LTYPE
  5
5
330
0
100
AcDbSymbolTable
 70
    4
  0
LTYPE
  5
14
330
5
100
AcDbSymbolTableRecord
100
AcDbLinetypeTableRecord
  2
ByBlock
 70
    0
  3

 72
   65
 73
    0
 40
0
  0
LTYPE
  5
15
330
5
100
AcDbSymbolTableRecord
100
AcDbLinetypeTableRecord
  2
ByLayer
 70
    0
  3

 72
   65
 73
    0
 40
0
  0
LTYPE
  5
16
330
5
100
AcDbSymbolTableRecord
100
AcDbLinetypeTableRecord
  2
Continuous
 70
    0
  3
Solid line
 72
   65
 73
    0
 40
0
  0
LTYPE
  5
32
330
5
100
AcDbSymbolTableRecord
100
AcDbLinetypeTableRecord
  2
DOT
 70
    0
  3
Dot . . . . . . . . . . . . . . . . . . . . . .
 72
   65
 73
    2
 40
6.35
 49
0
 74
    0
 49
-6.35
 74
    0
  0
LTYPE
  5
33
330
5
100
AcDbSymbolTableRecord
100
AcDbLinetypeTableRecord
  2
DOTTINY
 70
    0
  3
Dot (.15x) .....................................
 72
   65
 73
    2
 40
0.9525
 49
0
 74
    0
 49
-0.9525
 74
    0
  0
LTYPE
  5
34
330
5
100
AcDbSymbolTableRecord
100
AcDbLinetypeTableRecord
  2
DOT2
 70
    0
  3
Dot (.5x) .....................................
 72
   65
 73
    2
 40
3.175
 49
0
 74
    0
 49
-3.175
 74
    0
  0
LTYPE
  5
35
330
5
100
AcDbSymbolTableRecord
100
AcDbLinetypeTableRecord
  2
DOTX2
 70
    0
  3
Dot (2x) .  .  .  .  .  .  .  .  .  .  .  .  .
 72
   65
 73
    2
 40
12.7
 49
0
 74
    0
 49
-12.7
 74
    0
  0
LTYPE
  5
36
330
5
100
AcDbSymbolTableRecord
100
AcDbLinetypeTableRecord
  2
DASHED
 70
    0
  3
Dashed _ _ _ _ _ _ _ _ _ _ _ _ _ _ _ _ _
 72
   65
 73
    2
 40
19.05
 49
12.7
 74
    0
 49
-6.35
 74
    0
  0
LTYPE
  5
37
330
5
100
AcDbSymbolTableRecord
100
AcDbLinetypeTableRecord
  2
DASHEDTINY
 70
    0
  3
Dashed (.15x) _ _ _ _ _ _ _ _ _ _ _ _ _ _ _ _ _
 72
   65
 73
    2
 40
2.8575
 49
1.905
 74
    0
 49
-0.9525
 74
    0
  0
LTYPE
  5
38
330
5
100
AcDbSymbolTableRecord
100
AcDbLinetypeTableRecord
  2
DASHED2
 70
    0
  3
Dashed (.5x) _ _ _ _ _ _ _ _ _ _ _ _ _ _ _ _ _
 72
   65
 73
    2
 40
9.524999999999999
 49
6.35
 74
    0
 49
-3.175
 74
    0
  0
LTYPE
  5
39
330
5
100
AcDbSymbolTableRecord
100
AcDbLinetypeTableRecord
  2
DASHEDX2
 70
    0
  3
Dashed (2x) ____  ____  ____  ____  ____  ___
 72
   65
 73
    2
 40
38.09999999999999
 49
25.4
 74
    0
 49
-12.7
 74
    0
  0
LTYPE
  5
3A
330
5
100
AcDbSymbolTableRecord
100
AcDbLinetypeTableRecord
  2
DASHDOT
 70
    0
  3
Dash dot __ . __ . __ . __ . __ . __ . __ . __
 72
   65
 73
    4
 40
25.4
 49
12.7
 74
    0
 49
-6.35
 74
    0
 49
0
 74
    0
 49
-6.35
 74
    0
  0
LTYPE
  5
3B
330
5
100
AcDbSymbolTableRecord
100
AcDbLinetypeTableRecord
  2
DASHDOTTINY
 70
    0
  3
Dash dot (.15x) _._._._._._._._._._._._._._._.
 72
   65
 73
    4
 40
3.81
 49
1.905
 74
    0
 49
-0.9525
 74
    0
 49
0
 74
    0
 49
-0.9525
 74
    0
  0
LTYPE
  5
3C
330
5
100
AcDbSymbolTableRecord
100
AcDbLinetypeTableRecord
  2
DASHDOT2
 70
    0
  3
Dash dot (.5x) _._._._._._._._._._._._._._._.
 72
   65
 73
    4
 40
12.7
 49
6.35
 74
    0
 49
-3.175
 74
    0
 49
0
 74
    0
 49
-3.175
 74
    0
  0
LTYPE
  5
3D
330
5
100
AcDbSymbolTableRecord
100
AcDbLinetypeTableRecord
  2
DASHDOTX2
 70
    0
  3
Dash dot (2x) ____  .  ____  .  ____  .  ___
 72
   65
 73
    4
 40
50.8
 49
25.4
 74
    0
 49
-12.7
 74
    0
 49
0
 74
    0
 49
-12.7
 74
    0
  0
LTYPE
  5
3E
330
5
100
AcDbSymbolTableRecord
100
AcDbLinetypeTableRecord
  2
DIVIDE
 70
    0
  3
Divide ____ . . ____ . . ____ . . ____ . . ____
 72
   65
 73
    6
 40
31.75
 49
12.7
 74
    0
 49
-6.35
 74
    0
 49
0
 74
    0
 49
-6.35
 74
    0
 49
0
 74
    0
 49
-6.35
 74
    0
  0
LTYPE
  5
3F
330
5
100
AcDbSymbolTableRecord
100
AcDbLinetypeTableRecord
  2
DIVIDETINY
 70
    0
  3
Divide (.15x) __..__..__..__..__..__..__..__.._
 72
   65
 73
    6
 40
4.7625
 49
1.905
 74
    0
 49
-0.9525
 74
    0
 49
0
 74
    0
 49
-0.9525
 74
    0
 49
0
 74
    0
 49
-0.9525
 74
    0
  0
LTYPE
  5
40
330
5
100
AcDbSymbolTableRecord
100
AcDbLinetypeTableRecord
  2
DIVIDE2
 70
    0
  3
Divide (.5x) __..__..__..__..__..__..__..__.._
 72
   65
 73
    6
 40
15.875
 49
6.35
 74
    0
 49
-3.175
 74
    0
 49
0
 74
    0
 49
-3.175
 74
    0
 49
0
 74
    0
 49
-3.175
 74
    0
  0
LTYPE
  5
41
330
5
100
AcDbSymbolTableRecord
100
AcDbLinetypeTableRecord
  2
DIVIDEX2
 70
    0
  3
Divide (2x) ________  .  .  ________  .  .  _
 72
   65
 73
    6
 40
63.5
 49
25.4
 74
    0
 49
-12.7
 74
    0
 49
0
 74
    0
 49
-12.7
 74
    0
 49
0
 74
    0
 49
-12.7
 74
    0
  0
LTYPE
  5
42
330
5
100
AcDbSymbolTableRecord
100
AcDbLinetypeTableRecord
  2
BORDER
 70
    0
  3
Border __ __ . __ __ . __ __ . __ __ . __ __ .
 72
   65
 73
    6
 40
44.45
 49
12.7
 74
    0
 49
-6.35
 74
    0
 49
12.7
 74
    0
 49
-6.35
 74
    0
 49
0
 74
    0
 49
-6.35
 74
    0
  0
LTYPE
  5
43
330
5
100
AcDbSymbolTableRecord
100
AcDbLinetypeTableRecord
  2
BORDERTINY
 70
    0
  3
Border (.15x) __.__.__.__.__.__.__.__.__.__.__.
 72
   65
 73
    6
 40
6.6675
 49
1.905
 74
    0
 49
-0.9525
 74
    0
 49
1.905
 74
    0
 49
-0.9525
 74
    0
 49
0
 74
    0
 49
-0.9525
 74
    0
  0
LTYPE
  5
44
330
5
100
AcDbSymbolTableRecord
100
AcDbLinetypeTableRecord
  2
BORDER2
 70
    0
  3
Border (.5x) __.__.__.__.__.__.__.__.__.__.__.
 72
   65
 73
    6
 40
22.225
 49
6.35
 74
    0
 49
-3.175
 74
    0
 49
6.35
 74
    0
 49
-3.175
 74
    0
 49
0
 74
    0
 49
-3.175
 74
    0
  0
LTYPE
  5
45
330
5
100
AcDbSymbolTableRecord
100
AcDbLinetypeTableRecord
  2
BORDERX2
 70
    0
  3
Border (2x) ____  ____  .  ____  ____  .  ___
 72
   65
 73
    6
 40
88.89999999999999
 49
25.4
 74
    0
 49
-12.7
 74
    0
 49
25.4
 74
    0
 49
-12.7
 74
    0
 49
0
 74
    0
 49
-12.7
 74
    0
  0
LTYPE
  5
46
330
5
100
AcDbSymbolTableRecord
100
AcDbLinetypeTableRecord
  2
CENTER
 70
    0
  3
Center ____ _ ____ _ ____ _ ____ _ ____ _ ____
 72
   65
 73
    4
 40
50.8
 49
31.75
 74
    0
 49
-6.35
 74
    0
 49
6.35
 74
    0
 49
-6.35
 74
    0
  0
LTYPE
  5
47
330
5
100
AcDbSymbolTableRecord
100
AcDbLinetypeTableRecord
  2
CENTERTINY
 70
    0
  3
Center (.15x) ___ _ ___ _ ___ _ ___ _ ___ _ ___
 72
   65
 73
    4
 40
7.619999999999999
 49
4.7625
 74
    0
 49
-0.9525
 74
    0
 49
0.9525
 74
    0
 49
-0.9525
 74
    0
  0
LTYPE
  5
48
330
5
100
AcDbSymbolTableRecord
100
AcDbLinetypeTableRecord
  2
CENTER2
 70
    0
  3
Center (.5x) ___ _ ___ _ ___ _ ___ _ ___ _ ___
 72
   65
 73
    4
 40
28.575
 49
19.05
 74
    0
 49
-3.175
 74
    0
 49
3.175
 74
    0
 49
-3.175
 74
    0
  0
LTYPE
  5
49
330
5
100
AcDbSymbolTableRecord
100
AcDbLinetypeTableRecord
  2
CENTERX2
 70
    0
  3
Center (2x) ________  __  ________  __  _____
 72
   65
 73
    4
 40
101.6
 49
63.5
 74
    0
 49
-12.7
 74
    0
 49
12.7
 74
    0
 49
-12.7
 74
    0
  0
ENDTAB
  0
TABLE
  2
LAYER
  5
2
330
0
100
AcDbSymbolTable
 70
    1
  0
LAYER
  5
10
330
2
100
AcDbSymbolTableRecord
100
AcDbLayerTableRecord
  2
0
 70
    0
 62
    7
  6
CONTINUOUS
370
    0
390
F
  0
LAYER
  5
4A
330
2
100
AcDbSymbolTableRecord
100
AcDbLayerTableRecord
  2
LED components
 70
    0
 62
    7
  6
CONTINUOUS
370
    0
390
F
  0
LAYER
  5
4B
330
2
100
AcDbSymbolTableRecord
100
AcDbLayerTableRecord
  2
dimensioning
 70
    0
 62
    7
  6
CONTINUOUS
370
   -3
390
F
  0
ENDTAB
  0
TABLE
  2
STYLE
  5
3
330
0
100
AcDbSymbolTable
 70
    3
  0
STYLE
  5
4C
330
2
100
AcDbSymbolTableRecord
100
AcDbTextStyleTableRecord
  2
Standard
 70
    0
 40
0
 41
1
 50
0
 71
    0
 42
1
  3
txt
  4

  0
ENDTAB
  0
TABLE
  2
VIEW
  5
6
330
0
100
AcDbSymbolTable
 70
    0
  0
ENDTAB
  0
TABLE
  2
UCS
  5
7
330
0
100
AcDbSymbolTable
 70
    0
  0
ENDTAB
  0
TABLE
  2
APPID
  5
9
330
0
100
AcDbSymbolTable
 70
    1
  0
APPID
  5
12
330
9
100
AcDbSymbolTableRecord
100
AcDbRegAppTableRecord
  2
ACAD
 70
    0
  0
APPID
  5
4D
330
9
100
AcDbSymbolTableRecord
100
AcDbRegAppTableRecord
  2
LibreCad
 70
    0
  0
ENDTAB
  0
TABLE
  2
DIMSTYLE
  5
A
330
0
100
AcDbSymbolTable
 70
    1
100
AcDbDimStyleTable
 71
    1
  0
DIMSTYLE
105
4E
330
A
100
AcDbSymbolTableRecord
100
AcDbDimStyleTableRecord
  2
Standard
 70
    0
 40
1
 41
1
 42
0.625
 43
0.38
 44
1.25
 45
0
 46
0
 47
0
 48
0
140
1
141
0.09
142
0
143
25.4
144
1
145
0
146
1
147
0.625
148
0
 71
    0
 72
    0
 73
    0
 74
    1
 75
    0
 76
    0
 77
    0
 78
    1
 79
    0
170
    0
171
    2
172
    0
173
    0
174
    0
175
    0
176
    0
177
    0
178
    0
179
    2
271
    3
272
    4
273
    2
274
    2
275
    0
276
    0
277
    2
278
    0
279
    0
280
    0
281
    0
282
    0
283
    1
284
    0
285
    0
286
    0
288
    0
289
    3
340
standard
341

371
   -2
372
   -2
  0
ENDTAB
  0
TABLE
  2
BLOCK_RECORD
  5
1
330
0
100
AcDbSymbolTable
 70
    2
  0
BLOCK_RECORD
  5
1F
330
1
100
AcDbSymbolTableRecord
100
AcDbBlockTableRecord
  2
*Model_Space
 70
    0
280
    1
281
    0
  0
BLOCK_RECORD
  5
1E
330
1
100
AcDbSymbolTableRecord
100
AcDbBlockTableRecord
  2
*Paper_Space
 70
    0
280
    1
281
    0
  0
BLOCK_RECORD
  5
4F
330
1
100
AcDbSymbolTableRecord
100
AcDbBlockTableRecord
  2
*D6
 70
    0
280
    1
281
    0
  0
BLOCK_RECORD
  5
52
330
1
100
AcDbSymbolTableRecord
100
AcDbBlockTableRecord
  2
*D1
 70
    0
280
    1
281
    0
  0
BLOCK_RECORD
  5
55
330
1
100
AcDbSymbolTableRecord
100
AcDbBlockTableRecord
  2
*D4
 70
    0
280
    1
281
    0
  0
BLOCK_RECORD
  5
58
330
1
100
AcDbSymbolTableRecord
100
AcDbBlockTableRecord
  2
*D7
 70
    0
280
    1
281
    0
  0
BLOCK_RECORD
  5
5B
330
1
100
AcDbSymbolTableRecord
100
AcDbBlockTableRecord
  2
*D5
 70
    0
280
    1
281
    0
  0
BLOCK_RECORD
  5
5E
330
1
100
AcDbSymbolTableRecord
100
AcDbBlockTableRecord
  2
*D8
 70
    0
280
    1
281
    0
  0
BLOCK_RECORD
  5
61
330
1
100
AcDbSymbolTableRecord
100
AcDbBlockTableRecord
  2
*D12
 70
    0
280
    1
281
    0
  0
BLOCK_RECORD
  5
64
330
1
100
AcDbSymbolTableRecord
100
AcDbBlockTableRecord
  2
*D3
 70
    0
280
    1
281
    0
  0
BLOCK_RECORD
  5
67
330
1
100
AcDbSymbolTableRecord
100
AcDbBlockTableRecord
  2
*D9
 70
    0
280
    1
281
    0
  0
BLOCK_RECORD
  5
6A
330
1
100
AcDbSymbolTableRecord
100
AcDbBlockTableRecord
  2
*D11
 70
    0
280
    1
281
    0
  0
BLOCK_RECORD
  5
6D
330
1
100
AcDbSymbolTableRecord
100
AcDbBlockTableRecord
  2
*D2
 70
    0
280
    1
281
    0
  0
BLOCK_RECORD
  5
70
330
1
100
AcDbSymbolTableRecord
100
AcDbBlockTableRecord
  2
*D10
 70
    0
280
    1
281
    0
  0
BLOCK_RECORD
  5
73
330
1
100
AcDbSymbolTableRecord
100
AcDbBlockTableRecord
  2
Front Panel
 70
    0
280
    1
281
    0
  0
BLOCK_RECORD
  5
76
330
1
100
AcDbSymbolTableRecord
100
AcDbBlockTableRecord
  2
Rear Panel
 70
    0
280
    1
281
    0
  0
BLOCK_RECORD
  5
79
330
1
100
AcDbSymbolTableRecord
100
AcDbBlockTableRecord
  2
Front Panel-2
 70
    0
280
    1
281
    0
  0
BLOCK_RECORD
  5
7C
330
1
100
AcDbSymbolTableRecord
100
AcDbBlockTableRecord
  2
Front Panel-0
 70
    0
280
    1
281
    0
  0
BLOCK_RECORD
  5
7F
330
1
100
AcDbSymbolTableRecord
100
AcDbBlockTableRecord
  2
Rear Panel-0
 70
    0
280
    1
281
    0
  0
BLOCK_RECORD
  5
82
330
1
100
AcDbSymbolTableRecord
100
AcDbBlockTableRecord
  2
Front Panel-1
 70
    0
280
    1
281
    0
  0
BLOCK_RECORD
  5
85
330
1
100
AcDbSymbolTableRecord
100
AcDbBlockTableRecord
  2
Rear Panel-1
 70
    0
280
    1
281
    0
  0
ENDTAB
  0
ENDSEC
  0
SECTION
  2
BLOCKS
  0
BLOCK
  5
20
330
1F
100
AcDbEntity
  8
0
100
AcDbBlockBegin
  2
*Model_Space
 70
    0
 10
0
 20
0
 30
0
  3
*Model_Space
  1

  0
ENDBLK
  5
21
330
1F
100
AcDbEntity
  8
0
100
AcDbBlockEnd
  0
BLOCK
  5
1C
330
1B
100
AcDbEntity
  8
0
100
AcDbBlockBegin
  2
*Paper_Space
 70
    0
 10
0
 20
0
 30
0
  3
*Paper_Space
  1

  0
ENDBLK
  5
1D
330
1F
100
AcDbEntity
  8
0
100
AcDbBlockEnd
  0
BLOCK
  5
50
330
4F
100
AcDbEntity
  8
0
100
AcDbBlockBegin
  2
*D6
 70
    1
 10
0
 20
0
  3
*D6
  1

  0
LINE
  5
88
100
AcDbEntity
  8
dimensioning
  6
ByBlock
 62
    0
370
   -2
100
AcDbLine
 10
44.33830935251859
 20
14.75
 11
44.33830935251859
 21
-9.550000000000001
  0
SOLID
  5
89
100
AcDbEntity
  8
dimensioning
  6
ByBlock
 62
    0
370
   -2
100
AcDbTrace
 10
44.33830935251859
 20
14.75
 30
0
 11
44.50482321562773
 21
13.75
 31
0
 12
44.17179548940945
 22
13.75
 32
0
 13
44.17179548940945
 23
13.75
 33
0
  0
SOLID
  5
8A
100
AcDbEntity
  8
dimensioning
  6
ByBlock
 62
    0
370
   -2
100
AcDbTrace
 10
44.33830935251859
 20
-9.550000000000001
 30
0
 11
44.17179548940945
 21
-8.550000000000001
 31
0
 12
44.50482321562773
 22
-8.550000000000001
 32
0
 13
44.50482321562773
 23
-8.550000000000001
 33
0
  0
MTEXT
  5
8B
100
AcDbEntity
  8
dimensioning
  6
CONTINUOUS
 62
    0
370
   -2
100
AcDbMText
 10
43.21330935251859
 20
2.600000000000001
 30
0
 40
1
 41
4.000000000000061
 71
    5
 72
    1
  1
24.300
  7
standard
210
0
220
0
230
1
 50
90
 73
    2
 44
1
  0
LINE
  5
8C
100
AcDbEntity
  8
dimensioning
  6
ByBlock
 62
    0
370
   -2
100
AcDbLine
 10
35.125
 20
14.75
 11
45.58830935251859
 21
14.75
  0
LINE
  5
8D
100
AcDbEntity
  8
dimensioning
  6
ByBlock
 62
    0
370
   -2
100
AcDbLine
 10
35.125
 20
-9.550000000000001
 11
45.58830935251859
 21
-9.550000000000001
  0
ENDBLK
  5
51
330
4F
100
AcDbEntity
  8
0
100
AcDbBlockEnd
  0
BLOCK
  5
53
330
52
100
AcDbEntity
  8
0
100
AcDbBlockBegin
  2
*D1
 70
    1
 10
0
 20
0
  3
*D1
  1

  0
LINE
  5
8E
100
AcDbEntity
  8
dimensioning
  6
ByBlock
 62
    0
370
   -2
100
AcDbLine
 10
-35.5
 20
-14.4
 11
35.5
 21
-14.4
  0
SOLID
  5
8F
100
AcDbEntity
  8
dimensioning
  6
ByBlock
 62
    0
370
   -2
100
AcDbTrace
 10
-35.5
 20
-14.4
 30
0
 11
-34.5
 21
-14.23348613689086
 31
0
 12
-34.5
 22
-14.56651386310914
 32
0
 13
-34.5
 23
-14.56651386310914
 33
0
  0
SOLID
  5
90
100
AcDbEntity
  8
dimensioning
  6
ByBlock
 62
    0
370
   -2
100
AcDbTrace
 10
35.5
 20
-14.4
 30
0
 11
34.5
 21
-14.56651386310914
 31
0
 12
34.5
 22
-14.23348613689086
 32
0
 13
34.5
 23
-14.23348613689086
 33
0
  0
MTEXT
  5
91
100
AcDbEntity
  8
dimensioning
  6
CONTINUOUS
 62
    0
370
   -2
100
AcDbMText
 10
6.888638245203862e-17
 20
-13.275
 30
0
 40
1
 41
3.666666666666667
 71
    5
 72
    1
  1
71.000
  7
standard
210
0
220
0
230
1
 50
0
 73
    2
 44
1
  0
LINE
  5
92
100
AcDbEntity
  8
dimensioning
  6
ByBlock
 62
    0
370
   -2
100
AcDbLine
 10
-35.5
 20
-9.174999046325706
 11
-35.5
 21
-15.65
  0
LINE
  5
93
100
AcDbEntity
  8
dimensioning
  6
ByBlock
 62
    0
370
   -2
100
AcDbLine
 10
35.5
 20
-9.174999662825225
 11
35.5
 21
-15.65
  0
ENDBLK
  5
54
330
52
100
AcDbEntity
  8
0
100
AcDbBlockEnd
  0
BLOCK
  5
56
330
55
100
AcDbEntity
  8
0
100
AcDbBlockBegin
  2
*D4
 70
    1
 10
0
 20
0
  3
*D4
  1

  0
LINE
  5
94
100
AcDbEntity
  8
dimensioning
  6
ByBlock
 62
    0
370
   -2
100
AcDbLine
 10
-16.16719424460446
 20
4.050000000000001
 11
-16.16719424460446
 21
-0.3999999999999989
  0
SOLID
  5
95
100
AcDbEntity
  8
dimensioning
  6
ByBlock
 62
    0
370
   -2
100
AcDbTrace
 10
-16.16719424460446
 20
4.050000000000001
 30
0
 11
-16.00068038149532
 21
3.050000000000001
 31
0
 12
-16.33370810771359
 22
3.050000000000001
 32
0
 13
-16.33370810771359
 23
3.050000000000001
 33
0
  0
SOLID
  5
96
100
AcDbEntity
  8
dimensioning
  6
ByBlock
 62
    0
370
   -2
100
AcDbTrace
 10
-16.16719424460446
 20
-0.3999999999999989
 30
0
 11
-16.33370810771359
 21
0.6000000000000011
 31
0
 12
-16.00068038149532
 22
0.6000000000000011
 32
0
 13
-16.00068038149532
 23
0.6000000000000011
 33
0
  0
MTEXT
  5
97
100
AcDbEntity
  8
dimensioning
  6
CONTINUOUS
 62
    0
370
   -2
100
AcDbMText
 10
-17.29219424460446
 20
1.825000000000001
 30
0
 40
1
 41
3.333333333333395
 71
    5
 72
    1
  1
4.450
  7
standard
210
0
220
0
230
1
 50
90
 73
    2
 44
1
  0
LINE
  5
98
100
AcDbEntity
  8
dimensioning
  6
ByBlock
 62
    0
370
   -2
100
AcDbLine
 10
-13.279
 20
4.050000000000001
 11
-17.41719424460446
 21
4.050000000000001
  0
LINE
  5
99
100
AcDbEntity
  8
dimensioning
  6
ByBlock
 62
    0
370
   -2
100
AcDbLine
 10
-13.279
 20
-0.3999999999999991
 11
-17.41719424460446
 21
-0.3999999999999987
  0
ENDBLK
  5
57
330
55
100
AcDbEntity
  8
0
100
AcDbBlockEnd
  0
BLOCK
  5
59
330
58
100
AcDbEntity
  8
0
100
AcDbBlockBegin
  2
*D7
 70
    1
 10
0
 20
0
  3
*D7
  1

  0
LINE
  5
9A
100
AcDbEntity
  8
dimensioning
  6
ByBlock
 62
    0
370
   -2
100
AcDbLine
 10
1.848999999999997
 20
-4.300000000000001
 11
35.5
 21
-4.300000000000001
  0
SOLID
  5
9B
100
AcDbEntity
  8
dimensioning
  6
ByBlock
 62
    0
370
   -2
100
AcDbTrace
 10
1.848999999999997
 20
-4.300000000000001
 30
0
 11
2.848999999999997
 21
-4.133486136890864
 31
0
 12
2.848999999999997
 22
-4.466513863109137
 32
0
 13
2.848999999999997
 23
-4.466513863109137
 33
0
  0
SOLID
  5
9C
100
AcDbEntity
  8
dimensioning
  6
ByBlock
 62
    0
370
   -2
100
AcDbTrace
 10
35.5
 20
-4.300000000000001
 30
0
 11
34.5
 21
-4.466513863109137
 31
0
 12
34.5
 22
-4.133486136890864
 32
0
 13
34.5
 23
-4.133486136890864
 33
0
  0
MTEXT
  5
9D
100
AcDbEntity
  8
dimensioning
  6
CONTINUOUS
 62
    0
370
   -2
100
AcDbMText
 10
18.6745
 20
-3.175
 30
0
 40
1
 41
3.666666666666915
 71
    5
 72
    1
  1
33.651
  7
standard
210
0
220
0
230
1
 50
0
 73
    2
 44
1
  0
LINE
  5
9E
100
AcDbEntity
  8
dimensioning
  6
ByBlock
 62
    0
370
   -2
100
AcDbLine
 10
1.849
 20
4.224999999999998
 11
1.848999999999996
 21
-5.550000000000001
  0
LINE
  5
9F
100
AcDbEntity
  8
dimensioning
  6
ByBlock
 62
    0
370
   -2
100
AcDbLine
 10
35.5
 20
4.233547854784558
 11
35.5
 21
-5.550000000000001
  0
ENDBLK
  5
5A
330
58
100
AcDbEntity
  8
0
100
AcDbBlockEnd
  0
BLOCK
  5
5C
330
5B
100
AcDbEntity
  8
0
100
AcDbBlockBegin
  2
*D5
 70
    1
 10
0
 20
0
  3
*D5
  1

  0
LINE
  5
A0
100
AcDbEntity
  8
dimensioning
  6
ByBlock
 62
    0
370
   -2
100
AcDbLine
 10
-2.306873093525212
 20
-0.3999999999999986
 11
-2.306873093525212
 21
-9.550000000000001
  0
SOLID
  5
A1
100
AcDbEntity
  8
dimensioning
  6
ByBlock
 62
    0
370
   -2
100
AcDbTrace
 10
-2.306873093525212
 20
-0.3999999999999986
 30
0
 11
-2.140359230416075
 21
-1.399999999999999
 31
0
 12
-2.473386956634348
 22
-1.399999999999999
 32
0
 13
-2.473386956634348
 23
-1.399999999999999
 33
0
  0
SOLID
  5
A2
100
AcDbEntity
  8
dimensioning
  6
ByBlock
 62
    0
370
   -2
100
AcDbTrace
 10
-2.306873093525212
 20
-9.550000000000001
 30
0
 11
-2.473386956634348
 21
-8.550000000000001
 31
0
 12
-2.140359230416076
 22
-8.550000000000001
 32
0
 13
-2.140359230416076
 23
-8.550000000000001
 33
0
  0
MTEXT
  5
A3
100
AcDbEntity
  8
dimensioning
  6
CONTINUOUS
 62
    0
370
   -2
100
AcDbMText
 10
-3.431873093525212
 20
-4.975
 30
0
 40
1
 41
2.888888888889013
 71
    5
 72
    1
  1
9.150
  7
standard
210
0
220
0
230
1
 50
90
 73
    2
 44
1
  0
LINE
  5
A4
100
AcDbEntity
  8
dimensioning
  6
ByBlock
 62
    0
370
   -2
100
AcDbLine
 10
-3.828999999999999
 20
-0.3999999999999989
 11
-1.056873093525212
 21
-0.399999999999998
  0
LINE
  5
A5
100
AcDbEntity
  8
dimensioning
  6
ByBlock
 62
    0
370
   -2
100
AcDbLine
 10
-3.830431366906527
 20
-9.550000000000001
 11
-1.056873093525212
 21
-9.550000000000001
  0
ENDBLK
  5
5D
330
5B
100
AcDbEntity
  8
0
100
AcDbBlockEnd
  0
BLOCK
  5
5F
330
5E
100
AcDbEntity
  8
0
100
AcDbBlockBegin
  2
*D8
 70
    1
 10
0
 20
0
  3
*D8
  1

  0
LINE
  5
A6
100
AcDbEntity
  8
dimensioning
  6
ByBlock
 62
    0
370
   -2
100
AcDbLine
 10
10.402
 20
-1.433003300330042
 11
35.5
 21
-1.433003300330042
  0
SOLID
  5
A7
100
AcDbEntity
  8
dimensioning
  6
ByBlock
 62
    0
370
   -2
100
AcDbTrace
 10
10.402
 20
-1.433003300330042
 30
0
 11
11.402
 21
-1.266489437220906
 31
0
 12
11.402
 22
-1.599517163439179
 32
0
 13
11.402
 23
-1.599517163439179
 33
0
  0
SOLID
  5
A8
100
AcDbEntity
  8
dimensioning
  6
ByBlock
 62
    0
370
   -2
100
AcDbTrace
 10
35.5
 20
-1.433003300330042
 30
0
 11
34.5
 21
-1.599517163439178
 31
0
 12
34.5
 22
-1.266489437220906
 32
0
 13
34.5
 23
-1.266489437220906
 33
0
  0
MTEXT
  5
A9
100
AcDbEntity
  8
dimensioning
  6
CONTINUOUS
 62
    0
370
   -2
100
AcDbMText
 10
22.951
 20
-0.3080033003300424
 30
0
 40
1
 41
3.888888888888951
 71
    5
 72
    1
  1
25.098
  7
standard
210
0
220
0
230
1
 50
0
 73
    2
 44
1
  0
LINE
  5
AA
100
AcDbEntity
  8
dimensioning
  6
ByBlock
 62
    0
370
   -2
100
AcDbLine
 10
10.402
 20
4.224999999999998
 11
10.402
 21
-2.683003300330042
  0
LINE
  5
AB
100
AcDbEntity
  8
dimensioning
  6
ByBlock
 62
    0
370
   -2
100
AcDbLine
 10
35.5
 20
4.236003300330044
 11
35.5
 21
-2.683003300330042
  0
ENDBLK
  5
60
330
5E
100
AcDbEntity
  8
0
100
AcDbBlockEnd
  0
BLOCK
  5
62
330
61
100
AcDbEntity
  8
0
100
AcDbBlockBegin
  2
*D12
 70
    1
 10
0
 20
0
  3
*D12
  1

  0
LINE
  5
AC
100
AcDbEntity
  8
dimensioning
  6
ByBlock
 62
    0
370
   -2
100
AcDbLine
 10
39.72005755395743
 20
4.849999999999996
 11
39.72005755395743
 21
-9.550000000000002
  0
SOLID
  5
AD
100
AcDbEntity
  8
dimensioning
  6
ByBlock
 62
    0
370
   -2
100
AcDbTrace
 10
39.72005755395743
 20
4.849999999999996
 30
0
 11
39.88657141706657
 21
3.849999999999996
 31
0
 12
39.55354369084829
 22
3.849999999999996
 32
0
 13
39.55354369084829
 23
3.849999999999996
 33
0
  0
SOLID
  5
AE
100
AcDbEntity
  8
dimensioning
  6
ByBlock
 62
    0
370
   -2
100
AcDbTrace
 10
39.72005755395743
 20
-9.550000000000002
 30
0
 11
39.55354369084829
 21
-8.550000000000002
 31
0
 12
39.88657141706657
 22
-8.550000000000002
 32
0
 13
39.88657141706657
 23
-8.550000000000002
 33
0
  0
MTEXT
  5
AF
100
AcDbEntity
  8
dimensioning
  6
CONTINUOUS
 62
    0
370
   -2
100
AcDbMText
 10
38.59505755395743
 20
-2.350000000000003
 30
0
 40
1
 41
3.888888888888889
 71
    5
 72
    1
  1
14.400
  7
standard
210
0
220
0
230
1
 50
90
 73
    2
 44
1
  0
LINE
  5
B0
100
AcDbEntity
  8
dimensioning
  6
ByBlock
 62
    0
370
   -2
100
AcDbLine
 10
11.027
 20
4.849999999999998
 11
40.97005755395743
 21
4.849999999999996
  0
LINE
  5
B1
100
AcDbEntity
  8
dimensioning
  6
ByBlock
 62
    0
370
   -2
100
AcDbLine
 10
11.02854532374116
 20
-9.550000000000001
 11
40.97005755395743
 21
-9.550000000000002
  0
ENDBLK
  5
63
330
61
100
AcDbEntity
  8
0
100
AcDbBlockEnd
  0
BLOCK
  5
65
330
64
100
AcDbEntity
  8
0
100
AcDbBlockBegin
  2
*D3
 70
    1
 10
0
 20
0
  3
*D3
  1

  0
LINE
  5
B2
100
AcDbEntity
  8
dimensioning
  6
ByBlock
 62
    0
370
   -2
100
AcDbLine
 10
-12.654
 20
8.924000000000072
 11
-4.453999999999999
 21
8.924000000000072
  0
SOLID
  5
B3
100
AcDbEntity
  8
dimensioning
  6
ByBlock
 62
    0
370
   -2
100
AcDbTrace
 10
-12.654
 20
8.924000000000072
 30
0
 11
-11.654
 21
9.090513863109209
 31
0
 12
-11.654
 22
8.757486136890936
 32
0
 13
-11.654
 23
8.757486136890936
 33
0
  0
SOLID
  5
B4
100
AcDbEntity
  8
dimensioning
  6
ByBlock
 62
    0
370
   -2
100
AcDbTrace
 10
-4.453999999999999
 20
8.924000000000072
 30
0
 11
-5.453999999999999
 21
8.757486136890936
 31
0
 12
-5.453999999999999
 22
9.090513863109209
 32
0
 13
-5.453999999999999
 23
9.090513863109209
 33
0
  0
MTEXT
  5
B5
100
AcDbEntity
  8
dimensioning
  6
CONTINUOUS
 62
    0
370
   -2
100
AcDbMText
 10
-8.553999999999998
 20
10.04900000000007
 30
0
 40
1
 41
3.111111111111111
 71
    5
 72
    1
  1
8.200
  7
standard
210
0
220
0
230
1
 50
0
 73
    2
 44
1
  0
LINE
  5
B6
100
AcDbEntity
  8
dimensioning
  6
ByBlock
 62
    0
370
   -2
100
AcDbLine
 10
-12.654
 20
4.675000000000001
 11
-12.654
 21
10.17400000000007
  0
LINE
  5
B7
100
AcDbEntity
  8
dimensioning
  6
ByBlock
 62
    0
370
   -2
100
AcDbLine
 10
-4.453999999999999
 20
4.675000000000001
 11
-4.453999999999999
 21
10.17400000000007
  0
ENDBLK
  5
66
330
64
100
AcDbEntity
  8
0
100
AcDbBlockEnd
  0
BLOCK
  5
68
330
67
100
AcDbEntity
  8
0
100
AcDbBlockBegin
  2
*D9
 70
    1
 10
0
 20
0
  3
*D9
  1

  0
LINE
  5
B8
100
AcDbEntity
  8
dimensioning
  6
ByBlock
 62
    0
370
   -2
100
AcDbLine
 10
10.402
 20
10.92805280528056
 11
1.849
 21
10.92805280528056
  0
SOLID
  5
B9
100
AcDbEntity
  8
dimensioning
  6
ByBlock
 62
    0
370
   -2
100
AcDbTrace
 10
10.402
 20
10.92805280528056
 30
0
 11
9.402000000000001
 21
10.76153894217142
 31
0
 12
9.402000000000001
 22
11.09456666838969
 32
0
 13
9.402000000000001
 23
11.09456666838969
 33
0
  0
SOLID
  5
BA
100
AcDbEntity
  8
dimensioning
  6
ByBlock
 62
    0
370
   -2
100
AcDbTrace
 10
1.849
 20
10.92805280528056
 30
0
 11
2.849
 21
11.09456666838969
 31
0
 12
2.849
 22
10.76153894217142
 32
0
 13
2.849
 23
10.76153894217142
 33
0
  0
MTEXT
  5
BB
100
AcDbEntity
  8
dimensioning
  6
CONTINUOUS
 62
    0
370
   -2
100
AcDbMText
 10
6.125500000000001
 20
12.05305280528056
 30
0
 40
1
 41
3.111111111111297
 71
    5
 72
    1
  1
8.553
  7
standard
210
0
220
0
230
1
 50
360
 73
    2
 44
1
  0
LINE
  5
BC
100
AcDbEntity
  8
dimensioning
  6
ByBlock
 62
    0
370
   -2
100
AcDbLine
 10
10.402
 20
5.474999999999998
 11
10.402
 21
12.17805280528056
  0
LINE
  5
BD
100
AcDbEntity
  8
dimensioning
  6
ByBlock
 62
    0
370
   -2
100
AcDbLine
 10
1.849
 20
5.474999999999998
 11
1.849
 21
12.17805280528056
  0
ENDBLK
  5
69
330
67
100
AcDbEntity
  8
0
100
AcDbBlockEnd
  0
BLOCK
  5
6B
330
6A
100
AcDbEntity
  8
0
100
AcDbBlockBegin
  2
*D11
 70
    1
 10
0
 20
0
  3
*D11
  1

  0
SOLID
  5
BE
100
AcDbEntity
  8
dimensioning
  6
ByBlock
 62
    0
370
   -2
100
AcDbTrace
 10
11.46266017177982
 20
5.910660171779819
 30
0
 11
12.05202387120033
 21
6.735510034732405
 31
0
 12
12.28751003473241
 22
6.500023871200328
 32
0
 13
12.28751003473241
 23
6.500023871200328
 33
0
  0
LINE
  5
BF
100
AcDbEntity
  8
dimensioning
  6
ByBlock
 62
    0
370
   -2
100
AcDbLine
 10
10.402
 20
4.849999999999998
 11
14.91962665758076
 21
9.367626657580761
  0
MTEXT
  5
C0
100
AcDbEntity
  8
dimensioning
  6
CONTINUOUS
 62
    0
370
   -2
100
AcDbMText
 10
12.39564828584543
 20
8.434638543515156
 30
0
 40
1
 41
2.888888888888951
 71
    5
 72
    1
  1
1.500
  7
standard
210
0
220
0
230
1
 50
45
 73
    2
 44
1
  0
ENDBLK
  5
6C
330
6A
100
AcDbEntity
  8
0
100
AcDbBlockEnd
  0
BLOCK
  5
6E
330
6D
100
AcDbEntity
  8
0
100
AcDbBlockBegin
  2
*D2
 70
    1
 10
0
 20
0
  3
*D2
  1

  0
LINE
  5
C1
100
AcDbEntity
  8
dimensioning
  6
ByBlock
 62
    0
370
   -2
100
AcDbLine
 10
-8.553999999999998
 20
-6.296726062846662
 11
-35.5
 21
-6.296726062846662
  0
SOLID
  5
C2
100
AcDbEntity
  8
dimensioning
  6
ByBlock
 62
    0
370
   -2
100
AcDbTrace
 10
-8.553999999999998
 20
-6.296726062846662
 30
0
 11
-9.553999999999998
 21
-6.463239925955798
 31
0
 12
-9.553999999999998
 22
-6.130212199737525
 32
0
 13
-9.553999999999998
 23
-6.130212199737525
 33
0
  0
SOLID
  5
C3
100
AcDbEntity
  8
dimensioning
  6
ByBlock
 62
    0
370
   -2
100
AcDbTrace
 10
-35.5
 20
-6.296726062846662
 30
0
 11
-34.5
 21
-6.130212199737525
 31
0
 12
-34.5
 22
-6.463239925955798
 32
0
 13
-34.5
 23
-6.463239925955798
 33
0
  0
MTEXT
  5
C4
100
AcDbEntity
  8
dimensioning
  6
CONTINUOUS
 62
    0
370
   -2
100
AcDbMText
 10
-22.027
 20
-5.171726062846662
 30
0
 40
1
 41
4.000000000000124
 71
    5
 72
    1
  1
26.946
  7
standard
210
0
220
0
230
1
 50
360
 73
    2
 44
1
  0
LINE
  5
C5
100
AcDbEntity
  8
dimensioning
  6
ByBlock
 62
    0
370
   -2
100
AcDbLine
 10
-8.554
 20
-1.275000000000002
 11
-8.553999999999998
 21
-7.546726062846662
  0
LINE
  5
C6
100
AcDbEntity
  8
dimensioning
  6
ByBlock
 62
    0
370
   -2
100
AcDbLine
 10
-35.5
 20
-1.258495009242139
 11
-35.5
 21
-7.546726062846662
  0
ENDBLK
  5
6F
330
6D
100
AcDbEntity
  8
0
100
AcDbBlockEnd
  0
BLOCK
  5
71
330
70
100
AcDbEntity
  8
0
100
AcDbBlockBegin
  2
*D10
 70
    1
 10
0
 20
0
  3
*D10
  1

  0
SOLID
  5
C7
100
AcDbEntity
  8
dimensioning
  6
ByBlock
 62
    0
370
   -2
100
AcDbTrace
 10
2.909660171779821
 20
5.910660171779819
 30
0
 11
3.49902387120033
 21
6.735510034732405
 31
0
 12
3.734510034732407
 22
6.500023871200328
 32
0
 13
3.734510034732407
 23
6.500023871200328
 33
0
  0
LINE
  5
C8
100
AcDbEntity
  8
dimensioning
  6
ByBlock
 62
    0
370
   -2
100
AcDbLine
 10
1.849
 20
4.849999999999998
 11
6.366626657580765
 21
9.367626657580761
  0
MTEXT
  5
C9
100
AcDbEntity
  8
dimensioning
  6
CONTINUOUS
 62
    0
370
   -2
100
AcDbMText
 10
3.842648285845427
 20
8.434638543515156
 30
0
 40
1
 41
2.888888888888951
 71
    5
 72
    1
  1
1.500
  7
standard
210
0
220
0
230
1
 50
45
 73
    2
 44
1
  0
ENDBLK
  5
72
330
70
100
AcDbEntity
  8
0
100
AcDbBlockEnd
  0
BLOCK
  5
74
330
73
100
AcDbEntity
  8
0
100
AcDbBlockBegin
  2
Front Panel
 70
    0
 10
0
 20
0
  3
Front Panel
  1

  0
ARC
  5
CA
100
AcDbEntity
  8
0
  6
ByBlock
 62
  256
370
   -1
100
AcDbCircle
 10
-29.5
 20
11.15
 40
1
100
AcDbArc
 50
90
 51
180
  0
ARC
  5
CB
100
AcDbEntity
  8
0
  6
ByBlock
 62
  256
370
   -1
100
AcDbCircle
 10
29.5
 20
11.15
 40
1
100
AcDbArc
 50
2.035554996136651e-13
 51
90
  0
ARC
  5
CC
100
AcDbEntity
  8
0
  6
ByBlock
 62
  256
370
   -1
100
AcDbCircle
 10
29.5
 20
-11.15
 40
1
100
AcDbArc
 50
270
 51
0
  0
ARC
  5
CD
100
AcDbEntity
  8
0
  6
ByBlock
 62
  256
370
   -1
100
AcDbCircle
 10
-29.5
 20
-11.15
 40
1
100
AcDbArc
 50
180.0000000000002
 51
270
  0
LINE
  5
CE
100
AcDbEntity
  8
0
  6
ByBlock
 62
  256
370
   -1
100
AcDbLine
 10
-30.5
 20
11.15
 11
-30.5
 21
-11.15
  0
LINE
  5
CF
100
AcDbEntity
  8
0
  6
ByBlock
 62
  256
370
   -1
100
AcDbLine
 10
29.5
 20
12.15
 11
-29.5
 21
12.15
  0
LINE
  5
D0
100
AcDbEntity
  8
0
  6
ByBlock
 62
  256
370
   -1
100
AcDbLine
 10
30.5
 20
-11.14999976158142
 11
30.5
 21
11.14999952316284
  0
LINE
  5
D1
100
AcDbEntity
  8
0
  6
ByBlock
 62
  256
370
   -1
100
AcDbLine
 10
30.5
 20
-11.14999952316285
 11
30.5
 21
11.15
  0
LINE
  5
D2
100
AcDbEntity
  8
0
  6
ByBlock
 62
  256
370
   -1
100
AcDbLine
 10
30.5
 20
-11.14999976158142
 11
30.5
 21
11.14999952316284
  0
LINE
  5
D3
100
AcDbEntity
  8
0
  6
ByBlock
 62
  256
370
   -1
100
AcDbLine
 10
29.5
 20
12.15
 11
-29.49999966282522
 21
12.15
  0
LINE
  5
D4
100
AcDbEntity
  8
0
  6
ByBlock
 62
  256
370
   -1
100
AcDbLine
 10
29.49999952316284
 20
12.15
 11
-29.49999976158142
 21
12.15
  0
LINE
  5
D5
100
AcDbEntity
  8
0
  6
ByBlock
 62
  256
370
   -1
100
AcDbLine
 10
-30.5
 20
11.14999928474426
 11
-30.5
 21
-11.15
  0
LINE
  5
D6
100
AcDbEntity
  8
0
  6
ByBlock
 62
  256
370
   -1
100
AcDbLine
 10
-30.5
 20
11.14999976158142
 11
-30.5
 21
-11.14999952316284
  0
LINE
  5
D7
100
AcDbEntity
  8
0
  6
ByBlock
 62
  256
370
   -1
100
AcDbLine
 10
-29.49999952316285
 20
-12.15000000000001
 11
29.49999976158141
 21
-12.15
  0
LINE
  5
D8
100
AcDbEntity
  8
0
  6
ByBlock
 62
  256
370
   -1
100
AcDbLine
 10
-29.49999952316285
 20
-12.15
 11
29.49999936920377
 21
-12.15
  0
LINE
  5
D9
100
AcDbEntity
  8
0
  6
ByBlock
 62
  256
370
   -1
100
AcDbLine
 10
-12.904
 20
-0.5500000000000007
 11
-4.204
 21
-0.5500000000000007
  0
LINE
  5
DA
100
AcDbEntity
  8
0
  6
ByBlock
 62
  256
370
   -1
100
AcDbLine
 10
-4.204
 20
-0.5500000000000007
 11
-4.204
 21
4.400000000000002
  0
LINE
  5
DB
100
AcDbEntity
  8
0
  6
ByBlock
 62
  256
370
   -1
100
AcDbLine
 10
-4.204
 20
4.400000000000002
 11
-12.904
 21
4.400000000000002
  0
LINE
  5
DC
100
AcDbEntity
  8
0
  6
ByBlock
 62
  256
370
   -1
100
AcDbLine
 10
-12.904
 20
4.400000000000002
 11
-12.904
 21
-0.5500000000000007
  0
LINE
  5
DD
100
AcDbEntity
  8
0
  6
ByLayer
 62
  256
370
   -1
100
AcDbLine
 10
4.349
 20
-2.350000000000001
 11
8.349
 21
-2.350000000000001
  0
LINE
  5
DE
100
AcDbEntity
  8
0
  6
ByLayer
 62
  256
370
   -1
100
AcDbLine
 10
8.349
 20
-2.350000000000001
 11
8.349
 21
3.150000000000002
  0
LINE
  5
DF
100
AcDbEntity
  8
0
  6
ByLayer
 62
  256
370
   -1
100
AcDbLine
 10
8.349
 20
3.150000000000002
 11
4.349
 21
3.150000000000002
  0
LINE
  5
E0
100
AcDbEntity
  8
0
  6
ByLayer
 62
  256
370
   -1
100
AcDbLine
 10
4.349
 20
3.150000000000002
 11
4.349
 21
-2.350000000000001
  0
LINE
  5
E1
100
AcDbEntity
  8
0
  6
ByLayer
 62
  256
370
   -1
100
AcDbLine
 10
8.901999999999999
 20
-2.350000000000001
 11
12.902
 21
-2.350000000000001
  0
LINE
  5
E2
100
AcDbEntity
  8
0
  6
ByLayer
 62
  256
370
   -1
100
AcDbLine
 10
12.902
 20
-2.350000000000001
 11
12.902
 21
3.150000000000002
  0
LINE
  5
E3
100
AcDbEntity
  8
0
  6
ByLayer
 62
  256
370
   -1
100
AcDbLine
 10
12.902
 20
3.150000000000002
 11
8.901999999999999
 21
3.150000000000002
  0
LINE
  5
E4
100
AcDbEntity
  8
0
  6
ByLayer
 62
  256
370
   -1
100
AcDbLine
 10
8.901999999999999
 20
3.150000000000002
 11
8.901999999999999
 21
-2.350000000000001
  0
ENDBLK
  5
75
330
73
100
AcDbEntity
  8
0
100
AcDbBlockEnd
  0
BLOCK
  5
77
330
76
100
AcDbEntity
  8
0
100
AcDbBlockBegin
  2
Rear Panel
 70
    0
 10
0
 20
0
  3
Rear Panel
  1

  0
LINE
  5
E5
100
AcDbEntity
  8
0
  6
ByBlock
 62
  256
370
   -1
100
AcDbLine
 10
-14.755
 20
-2.6
 11
-0.965
 21
-2.6
  0
LINE
  5
E6
100
AcDbEntity
  8
0
  6
ByBlock
 62
  256
370
   -1
100
AcDbLine
 10
-0.965
 20
-2.6
 11
-0.965
 21
10.67
  0
LINE
  5
E7
100
AcDbEntity
  8
0
  6
ByBlock
 62
  256
370
   -1
100
AcDbLine
 10
-0.965
 20
10.67
 11
-14.755
 21
10.67
  0
LINE
  5
E8
100
AcDbEntity
  8
0
  6
ByBlock
 62
  256
370
   -1
100
AcDbLine
 10
-14.755
 20
10.67
 11
-14.755
 21
-2.6
  0
LINE
  5
E9
100
AcDbEntity
  8
0
  6
ByBlock
 62
  256
370
   -1
100
AcDbLine
 10
4.41
 20
-2.35
 11
15.57
 21
-2.35
  0
LINE
  5
EA
100
AcDbEntity
  8
0
  6
ByBlock
 62
  256
370
   -1
100
AcDbLine
 10
15.57
 20
-2.35
 11
15.57
 21
3.73
  0
LINE
  5
EB
100
AcDbEntity
  8
0
  6
ByBlock
 62
  256
370
   -1
100
AcDbLine
 10
15.57
 20
3.73
 11
4.41
 21
3.73
  0
LINE
  5
EC
100
AcDbEntity
  8
0
  6
ByBlock
 62
  256
370
   -1
100
AcDbLine
 10
4.41
 20
3.73
 11
4.41
 21
-2.35
  0
ARC
  5
ED
100
AcDbEntity
  8
0
  6
ByLayer
 62
  256
370
   -1
100
AcDbCircle
 10
34.5
 20
11.15
 40
1
100
AcDbArc
 50
2.035554996136651e-13
 51
90
  0
ARC
  5
EE
100
AcDbEntity
  8
0
  6
ByLayer
 62
  256
370
   -1
100
AcDbCircle
 10
34.5
 20
-11.15
 40
1
100
AcDbArc
 50
270
 51
0
  0
ARC
  5
EF
100
AcDbEntity
  8
0
  6
ByLayer
 62
  256
370
   -1
100
AcDbCircle
 10
-34.5
 20
11.15
 40
1
100
AcDbArc
 50
90
 51
180
  0
ARC
  5
F0
100
AcDbEntity
  8
0
  6
ByLayer
 62
  256
370
   -1
100
AcDbCircle
 10
-34.5
 20
-11.15
 40
1
100
AcDbArc
 50
180.0000000000002
 51
269.9999613626156
  0
LINE
  5
F1
100
AcDbEntity
  8
0
  6
ByLayer
 62
  256
370
   -1
100
AcDbLine
 10
34.49999932565042
 20
12.15
 11
-34.5
 21
12.15
  0
LINE
  5
F2
100
AcDbEntity
  8
0
  6
ByLayer
 62
  256
370
   -1
100
AcDbLine
 10
35.5
 20
-11.14999966282521
 11
35.5
 21
11.15000067434958
  0
LINE
  5
F3
100
AcDbEntity
  8
0
  6
ByLayer
 62
  256
370
   -1
100
AcDbLine
 10
-34.5
 20
-12.15
 11
34.49999941599614
 21
-12.15
  0
LINE
  5
F4
100
AcDbEntity
  8
0
  6
ByLayer
 62
  256
370
   -1
100
AcDbLine
 10
-35.5
 20
11.15
 11
-35.5
 21
-11.14999932565044
  0
ENDBLK
  5
78
330
76
100
AcDbEntity
  8
0
100
AcDbBlockEnd
  0
BLOCK
  5
7A
330
79
100
AcDbEntity
  8
0
100
AcDbBlockBegin
  2
Front Panel-2
 70
    0
 10
0
 20
0
  3
Front Panel-2
  1

  0
ARC
  5
F5
100
AcDbEntity
  8
0
  6
ByBlock
 62
  256
370
   -1
100
AcDbCircle
 10
-29.5
 20
11.15
 40
1
100
AcDbArc
 50
90
 51
180
  0
ARC
  5
F6
100
AcDbEntity
  8
0
  6
ByBlock
 62
  256
370
   -1
100
AcDbCircle
 10
29.5
 20
11.15
 40
1
100
AcDbArc
 50
2.035554996136651e-13
 51
90
  0
ARC
  5
F7
100
AcDbEntity
  8
0
  6
ByBlock
 62
  256
370
   -1
100
AcDbCircle
 10
29.5
 20
-11.15
 40
1
100
AcDbArc
 50
270
 51
0
  0
ARC
  5
F8
100
AcDbEntity
  8
0
  6
ByBlock
 62
  256
370
   -1
100
AcDbCircle
 10
-29.5
 20
-11.15
 40
1
100
AcDbArc
 50
180.0000000000002
 51
270
  0
LINE
  5
F9
100
AcDbEntity
  8
0
  6
ByBlock
 62
  256
370
   -1
100
AcDbLine
 10
-30.5
 20
11.15
 11
-30.5
 21
-11.15
  0
LINE
  5
FA
100
AcDbEntity
  8
0
  6
ByBlock
 62
  256
370
   -1
100
AcDbLine
 10
29.5
 20
12.15
 11
-29.5
 21
12.15
  0
LINE
  5
FB
100
AcDbEntity
  8
0
  6
ByBlock
 62
  256
370
   -1
100
AcDbLine
 10
30.5
 20
-11.14999976158142
 11
30.5
 21
11.14999952316284
  0
LINE
  5
FC
100
AcDbEntity
  8
0
  6
ByBlock
 62
  256
370
   -1
100
AcDbLine
 10
30.5
 20
-11.14999952316285
 11
30.5
 21
11.15
  0
LINE
  5
FD
100
AcDbEntity
  8
0
  6
ByBlock
 62
  256
370
   -1
100
AcDbLine
 10
30.5
 20
-11.14999976158142
 11
30.5
 21
11.14999952316284
  0
LINE
  5
FE
100
AcDbEntity
  8
0
  6
ByBlock
 62
  256
370
   -1
100
AcDbLine
 10
29.5
 20
12.15
 11
-29.49999966282522
 21
12.15
  0
LINE
  5
FF
100
AcDbEntity
  8
0
  6
ByBlock
 62
  256
370
   -1
100
AcDbLine
 10
29.49999952316284
 20
12.15
 11
-29.49999976158142
 21
12.15
  0
LINE
  5
100
100
AcDbEntity
  8
0
  6
ByBlock
 62
  256
370
   -1
100
AcDbLine
 10
-30.5
 20
11.14999928474426
 11
-30.5
 21
-11.15
  0
LINE
  5
101
100
AcDbEntity
  8
0
  6
ByBlock
 62
  256
370
   -1
100
AcDbLine
 10
-30.5
 20
11.14999976158142
 11
-30.5
 21
-11.14999952316284
  0
LINE
  5
102
100
AcDbEntity
  8
0
  6
ByBlock
 62
  256
370
   -1
100
AcDbLine
 10
-29.49999952316285
 20
-12.15000000000001
 11
29.49999976158141
 21
-12.15
  0
LINE
  5
103
100
AcDbEntity
  8
0
  6
ByBlock
 62
  256
370
   -1
100
AcDbLine
 10
-29.49999952316285
 20
-12.15
 11
29.49999936920377
 21
-12.15
  0
LINE
  5
104
100
AcDbEntity
  8
0
  6
ByBlock
 62
  256
370
   -1
100
AcDbLine
 10
-12.904
 20
-0.5500000000000007
 11
-4.204
 21
-0.5500000000000007
  0
LINE
  5
105
100
AcDbEntity
  8
0
  6
ByBlock
 62
  256
370
   -1
100
AcDbLine
 10
-4.204
 20
-0.5500000000000007
 11
-4.204
 21
4.400000000000002
  0
LINE
  5
106
100
AcDbEntity
  8
0
  6
ByBlock
 62
  256
370
   -1
100
AcDbLine
 10
-4.204
 20
4.400000000000002
 11
-12.904
 21
4.400000000000002
  0
LINE
  5
107
100
AcDbEntity
  8
0
  6
ByBlock
 62
  256
370
   -1
100
AcDbLine
 10
-12.904
 20
4.400000000000002
 11
-12.904
 21
-0.5500000000000007
  0
LINE
  5
108
100
AcDbEntity
  8
0
  6
ByLayer
 62
  256
370
   -1
100
AcDbLine
 10
4.349
 20
-2.350000000000001
 11
8.349
 21
-2.350000000000001
  0
LINE
  5
109
100
AcDbEntity
  8
0
  6
ByLayer
 62
  256
370
   -1
100
AcDbLine
 10
8.349
 20
-2.350000000000001
 11
8.349
 21
3.150000000000002
  0
LINE
  5
10A
100
AcDbEntity
  8
0
  6
ByLayer
 62
  256
370
   -1
100
AcDbLine
 10
8.349
 20
3.150000000000002
 11
4.349
 21
3.150000000000002
  0
LINE
  5
10B
100
AcDbEntity
  8
0
  6
ByLayer
 62
  256
370
   -1
100
AcDbLine
 10
4.349
 20
3.150000000000002
 11
4.349
 21
-2.350000000000001
  0
LINE
  5
10C
100
AcDbEntity
  8
0
  6
ByLayer
 62
  256
370
   -1
100
AcDbLine
 10
8.901999999999999
 20
-2.350000000000001
 11
12.902
 21
-2.350000000000001
  0
LINE
  5
10D
100
AcDbEntity
  8
0
  6
ByLayer
 62
  256
370
   -1
100
AcDbLine
 10
12.902
 20
-2.350000000000001
 11
12.902
 21
3.150000000000002
  0
LINE
  5
10E
100
AcDbEntity
  8
0
  6
ByLayer
 62
  256
370
   -1
100
AcDbLine
 10
12.902
 20
3.150000000000002
 11
8.901999999999999
 21
3.150000000000002
  0
LINE
  5
10F
100
AcDbEntity
  8
0
  6
ByLayer
 62
  256
370
   -1
100
AcDbLine
 10
8.901999999999999
 20
3.150000000000002
 11
8.901999999999999
 21
-2.350000000000001
  0
ENDBLK
  5
7B
330
79
100
AcDbEntity
  8
0
100
AcDbBlockEnd
  0
BLOCK
  5
7D
330
7C
100
AcDbEntity
  8
0
100
AcDbBlockBegin
  2
Front Panel-0
 70
    0
 10
0
 20
0
  3
Front Panel-0
  1

  0
ARC
  5
110
100
AcDbEntity
  8
0
  6
ByBlock
 62
  256
370
   -1
100
AcDbCircle
 10
-29.5
 20
11.15
 40
1
100
AcDbArc
 50
90
 51
180
  0
ARC
  5
111
100
AcDbEntity
  8
0
  6
ByBlock
 62
  256
370
   -1
100
AcDbCircle
 10
29.5
 20
11.15
 40
1
100
AcDbArc
 50
2.035554996136651e-13
 51
90
  0
ARC
  5
112
100
AcDbEntity
  8
0
  6
ByBlock
 62
  256
370
   -1
100
AcDbCircle
 10
29.5
 20
-11.15
 40
1
100
AcDbArc
 50
270
 51
0
  0
ARC
  5
113
100
AcDbEntity
  8
0
  6
ByBlock
 62
  256
370
   -1
100
AcDbCircle
 10
-29.5
 20
-11.15
 40
1
100
AcDbArc
 50
180.0000000000002
 51
270
  0
LINE
  5
114
100
AcDbEntity
  8
0
  6
ByBlock
 62
  256
370
   -1
100
AcDbLine
 10
-30.5
 20
11.15
 11
-30.5
 21
-11.15
  0
LINE
  5
115
100
AcDbEntity
  8
0
  6
ByBlock
 62
  256
370
   -1
100
AcDbLine
 10
29.5
 20
12.15
 11
-29.5
 21
12.15
  0
LINE
  5
116
100
AcDbEntity
  8
0
  6
ByBlock
 62
  256
370
   -1
100
AcDbLine
 10
30.5
 20
-11.14999976158142
 11
30.5
 21
11.14999952316284
  0
LINE
  5
117
100
AcDbEntity
  8
0
  6
ByBlock
 62
  256
370
   -1
100
AcDbLine
 10
30.5
 20
-11.14999952316285
 11
30.5
 21
11.15
  0
LINE
  5
118
100
AcDbEntity
  8
0
  6
ByBlock
 62
  256
370
   -1
100
AcDbLine
 10
30.5
 20
-11.14999976158142
 11
30.5
 21
11.14999952316284
  0
LINE
  5
119
100
AcDbEntity
  8
0
  6
ByBlock
 62
  256
370
   -1
100
AcDbLine
 10
29.5
 20
12.15
 11
-29.49999966282522
 21
12.15
  0
LINE
  5
11A
100
AcDbEntity
  8
0
  6
ByBlock
 62
  256
370
   -1
100
AcDbLine
 10
29.49999952316284
 20
12.15
 11
-29.49999976158142
 21
12.15
  0
LINE
  5
11B
100
AcDbEntity
  8
0
  6
ByBlock
 62
  256
370
   -1
100
AcDbLine
 10
-30.5
 20
11.14999928474426
 11
-30.5
 21
-11.15
  0
LINE
  5
11C
100
AcDbEntity
  8
0
  6
ByBlock
 62
  256
370
   -1
100
AcDbLine
 10
-30.5
 20
11.14999976158142
 11
-30.5
 21
-11.14999952316284
  0
LINE
  5
11D
100
AcDbEntity
  8
0
  6
ByBlock
 62
  256
370
   -1
100
AcDbLine
 10
-29.49999952316285
 20
-12.15000000000001
 11
29.49999976158141
 21
-12.15
  0
LINE
  5
11E
100
AcDbEntity
  8
0
  6
ByBlock
 62
  256
370
   -1
100
AcDbLine
 10
-29.49999952316285
 20
-12.15
 11
29.49999936920377
 21
-12.15
  0
LINE
  5
11F
100
AcDbEntity
  8
0
  6
ByBlock
 62
  256
370
   -1
100
AcDbLine
 10
-12.904
 20
-0.5500000000000007
 11
-4.204
 21
-0.5500000000000007
  0
LINE
  5
120
100
AcDbEntity
  8
0
  6
ByBlock
 62
  256
370
   -1
100
AcDbLine
 10
-4.204
 20
-0.5500000000000007
 11
-4.204
 21
4.400000000000002
  0
LINE
  5
121
100
AcDbEntity
  8
0
  6
ByBlock
 62
  256
370
   -1
100
AcDbLine
 10
-4.204
 20
4.400000000000002
 11
-12.904
 21
4.400000000000002
  0
LINE
  5
122
100
AcDbEntity
  8
0
  6
ByBlock
 62
  256
370
   -1
100
AcDbLine
 10
-12.904
 20
4.400000000000002
 11
-12.904
 21
-0.5500000000000007
  0
LINE
  5
123
100
AcDbEntity
  8
0
  6
ByLayer
 62
  256
370
   -1
100
AcDbLine
 10
4.349
 20
-2.350000000000001
 11
8.349
 21
-2.350000000000001
  0
LINE
  5
124
100
AcDbEntity
  8
0
  6
ByLayer
 62
  256
370
   -1
100
AcDbLine
 10
8.349
 20
-2.350000000000001
 11
8.349
 21
3.150000000000002
  0
LINE
  5
125
100
AcDbEntity
  8
0
  6
ByLayer
 62
  256
370
   -1
100
AcDbLine
 10
8.349
 20
3.150000000000002
 11
4.349
 21
3.150000000000002
  0
LINE
  5
126
100
AcDbEntity
  8
0
  6
ByLayer
 62
  256
370
   -1
100
AcDbLine
 10
4.349
 20
3.150000000000002
 11
4.349
 21
-2.350000000000001
  0
LINE
  5
127
100
AcDbEntity
  8
0
  6
ByLayer
 62
  256
370
   -1
100
AcDbLine
 10
8.901999999999999
 20
-2.350000000000001
 11
12.902
 21
-2.350000000000001
  0
LINE
  5
128
100
AcDbEntity
  8
0
  6
ByLayer
 62
  256
370
   -1
100
AcDbLine
 10
12.902
 20
-2.350000000000001
 11
12.902
 21
3.150000000000002
  0
LINE
  5
129
100
AcDbEntity
  8
0
  6
ByLayer
 62
  256
370
   -1
100
AcDbLine
 10
12.902
 20
3.150000000000002
 11
8.901999999999999
 21
3.150000000000002
  0
LINE
  5
12A
100
AcDbEntity
  8
0
  6
ByLayer
 62
  256
370
   -1
100
AcDbLine
 10
8.901999999999999
 20
3.150000000000002
 11
8.901999999999999
 21
-2.350000000000001
  0
ENDBLK
  5
7E
330
7C
100
AcDbEntity
  8
0
100
AcDbBlockEnd
  0
BLOCK
  5
80
330
7F
100
AcDbEntity
  8
0
100
AcDbBlockBegin
  2
Rear Panel-0
 70
    0
 10
0
 20
0
  3
Rear Panel-0
  1

  0
LINE
  5
12B
100
AcDbEntity
  8
0
  6
ByBlock
 62
  256
370
   -1
100
AcDbLine
 10
-14.755
 20
-2.6
 11
-0.965
 21
-2.6
  0
LINE
  5
12C
100
AcDbEntity
  8
0
  6
ByBlock
 62
  256
370
   -1
100
AcDbLine
 10
-0.965
 20
-2.6
 11
-0.965
 21
10.67
  0
LINE
  5
12D
100
AcDbEntity
  8
0
  6
ByBlock
 62
  256
370
   -1
100
AcDbLine
 10
-0.965
 20
10.67
 11
-14.755
 21
10.67
  0
LINE
  5
12E
100
AcDbEntity
  8
0
  6
ByBlock
 62
  256
370
   -1
100
AcDbLine
 10
-14.755
 20
10.67
 11
-14.755
 21
-2.6
  0
LINE
  5
12F
100
AcDbEntity
  8
0
  6
ByBlock
 62
  256
370
   -1
100
AcDbLine
 10
4.41
 20
-2.35
 11
15.57
 21
-2.35
  0
LINE
  5
130
100
AcDbEntity
  8
0
  6
ByBlock
 62
  256
370
   -1
100
AcDbLine
 10
15.57
 20
-2.35
 11
15.57
 21
3.73
  0
LINE
  5
131
100
AcDbEntity
  8
0
  6
ByBlock
 62
  256
370
   -1
100
AcDbLine
 10
15.57
 20
3.73
 11
4.41
 21
3.73
  0
LINE
  5
132
100
AcDbEntity
  8
0
  6
ByBlock
 62
  256
370
   -1
100
AcDbLine
 10
4.41
 20
3.73
 11
4.41
 21
-2.35
  0
ARC
  5
133
100
AcDbEntity
  8
0
  6
ByLayer
 62
  256
370
   -1
100
AcDbCircle
 10
34.5
 20
11.15
 40
1
100
AcDbArc
 50
2.035554996136651e-13
 51
90
  0
ARC
  5
134
100
AcDbEntity
  8
0
  6
ByLayer
 62
  256
370
   -1
100
AcDbCircle
 10
34.5
 20
-11.15
 40
1
100
AcDbArc
 50
270
 51
0
  0
ARC
  5
135
100
AcDbEntity
  8
0
  6
ByLayer
 62
  256
370
   -1
100
AcDbCircle
 10
-34.5
 20
11.15
 40
1
100
AcDbArc
 50
90
 51
180
  0
ARC
  5
136
100
AcDbEntity
  8
0
  6
ByLayer
 62
  256
370
   -1
100
AcDbCircle
 10
-34.5
 20
-11.15
 40
1
100
AcDbArc
 50
180.0000000000002
 51
269.9999613626156
  0
LINE
  5
137
100
AcDbEntity
  8
0
  6
ByLayer
 62
  256
370
   -1
100
AcDbLine
 10
34.49999932565042
 20
12.15
 11
-34.5
 21
12.15
  0
LINE
  5
138
100
AcDbEntity
  8
0
  6
ByLayer
 62
  256
370
   -1
100
AcDbLine
 10
35.5
 20
-11.14999966282521
 11
35.5
 21
11.15000067434958
  0
LINE
  5
139
100
AcDbEntity
  8
0
  6
ByLayer
 62
  256
370
   -1
100
AcDbLine
 10
-34.5
 20
-12.15
 11
34.49999941599614
 21
-12.15
  0
LINE
  5
13A
100
AcDbEntity
  8
0
  6
ByLayer
 62
  256
370
   -1
100
AcDbLine
 10
-35.5
 20
11.15
 11
-35.5
 21
-11.14999932565044
  0
ENDBLK
  5
81
330
7F
100
AcDbEntity
  8
0
100
AcDbBlockEnd
  0
BLOCK
  5
83
330
82
100
AcDbEntity
  8
0
100
AcDbBlockBegin
  2
Front Panel-1
 70
    0
 10
0
 20
0
  3
Front Panel-1
  1

  0
LINE
  5
13B
100
AcDbEntity
  8
0
  6
ByBlock
 62
  256
370
   -1
100
AcDbLine
 10
-12.904
 20
-0.5499999999999972
 11
-4.204
 21
-0.5499999999999972
  0
LINE
  5
13C
100
AcDbEntity
  8
0
  6
ByBlock
 62
  256
370
   -1
100
AcDbLine
 10
-4.204
 20
-0.5499999999999972
 11
-4.204
 21
4.399999999999999
  0
LINE
  5
13D
100
AcDbEntity
  8
0
  6
ByBlock
 62
  256
370
   -1
100
AcDbLine
 10
-4.204
 20
4.399999999999999
 11
-12.904
 21
4.399999999999999
  0
LINE
  5
13E
100
AcDbEntity
  8
0
  6
ByBlock
 62
  256
370
   -1
100
AcDbLine
 10
-12.904
 20
4.399999999999999
 11
-12.904
 21
-0.5499999999999972
  0
LINE
  5
13F
100
AcDbEntity
  8
0
  6
ByLayer
 62
  256
370
   -1
100
AcDbLine
 10
4.349
 20
-2.350000000000001
 11
8.349
 21
-2.350000000000001
  0
LINE
  5
140
100
AcDbEntity
  8
0
  6
ByLayer
 62
  256
370
   -1
100
AcDbLine
 10
8.901999999999999
 20
-2.350000000000001
 11
12.902
 21
-2.350000000000001
  0
ARC
  5
141
100
AcDbEntity
  8
0
  6
ByLayer
 62
  256
370
   -1
100
AcDbCircle
 10
34.5
 20
-11.15
 40
1
100
AcDbArc
 50
270
 51
0
  0
ARC
  5
142
100
AcDbEntity
  8
0
  6
ByLayer
 62
  256
370
   -1
100
AcDbCircle
 10
-34.5
 20
11.15
 40
1
100
AcDbArc
 50
90
 51
180
  0
ARC
  5
143
100
AcDbEntity
  8
0
  6
ByLayer
 62
  256
370
   -1
100
AcDbCircle
 10
-34.5
 20
-11.15
 40
1
100
AcDbArc
 50
180.0000000000002
 51
270
  0
ARC
  5
144
100
AcDbEntity
  8
0
  6
ByLayer
 62
  256
370
   -1
100
AcDbCircle
 10
34.5
 20
11.15
 40
1
100
AcDbArc
 50
2.035554996136651e-13
 51
90
  0
LINE
  5
145
100
AcDbEntity
  8
0
  6
ByLayer
 62
  256
370
   -1
100
AcDbLine
 10
35.5
 20
-11.14999966282522
 11
35.5
 21
11.1499990463257
  0
LINE
  5
146
100
AcDbEntity
  8
0
  6
ByLayer
 62
  256
370
   -1
100
AcDbLine
 10
-34.5
 20
-12.15
 11
34.49999976158142
 21
-12.15
  0
LINE
  5
147
100
AcDbEntity
  8
0
  6
ByLayer
 62
  256
370
   -1
100
AcDbLine
 10
-35.5
 20
11.14999966282522
 11
-35.5
 21
-11.1499990463257
  0
LINE
  5
148
100
AcDbEntity
  8
0
  6
ByLayer
 62
  256
370
   -1
100
AcDbLine
 10
34.49999932565042
 20
12.15
 11
-34.49999976158142
 21
12.15
  0
LINE
  5
149
100
AcDbEntity
  8
0
  6
ByLayer
 62
  256
370
   -1
100
AcDbLine
 10
4.199
 20
-2.350000000000001
 11
8.499000000000001
 21
-2.350000000000001
  0
LINE
  5
14A
100
AcDbEntity
  8
0
  6
ByLayer
 62
  256
370
   -1
100
AcDbLine
 10
8.499000000000001
 20
-2.350000000000001
 11
8.499000000000001
 21
3.450000000000003
  0
LINE
  5
14B
100
AcDbEntity
  8
0
  6
ByLayer
 62
  256
370
   -1
100
AcDbLine
 10
8.499000000000001
 20
3.450000000000003
 11
4.199
 21
3.450000000000003
  0
LINE
  5
14C
100
AcDbEntity
  8
0
  6
ByLayer
 62
  256
370
   -1
100
AcDbLine
 10
4.199
 20
3.450000000000003
 11
4.199
 21
-2.350000000000001
  0
LINE
  5
14D
100
AcDbEntity
  8
0
  6
ByLayer
 62
  256
370
   -1
100
AcDbLine
 10
8.752000000000001
 20
-2.350000000000001
 11
13.052
 21
-2.350000000000001
  0
LINE
  5
14E
100
AcDbEntity
  8
0
  6
ByLayer
 62
  256
370
   -1
100
AcDbLine
 10
13.052
 20
-2.350000000000001
 11
13.052
 21
3.450000000000003
  0
LINE
  5
14F
100
AcDbEntity
  8
0
  6
ByLayer
 62
  256
370
   -1
100
AcDbLine
 10
13.052
 20
3.450000000000003
 11
8.752000000000001
 21
3.450000000000003
  0
LINE
  5
150
100
AcDbEntity
  8
0
  6
ByLayer
 62
  256
370
   -1
100
AcDbLine
 10
8.752000000000001
 20
3.450000000000003
 11
8.752000000000001
 21
-2.350000000000001
  0
ENDBLK
  5
84
330
82
100
AcDbEntity
  8
0
100
AcDbBlockEnd
  0
BLOCK
  5
86
330
85
100
AcDbEntity
  8
0
100
AcDbBlockBegin
  2
Rear Panel-1
 70
    0
 10
0
 20
0
  3
Rear Panel-1
  1

  0
LINE
  5
151
100
AcDbEntity
  8
0
  6
ByBlock
 62
  256
370
   -1
100
AcDbLine
 10
-14.755
 20
-2.600000000000001
 11
-0.965
 21
-2.600000000000001
  0
LINE
  5
152
100
AcDbEntity
  8
0
  6
ByBlock
 62
  256
370
   -1
100
AcDbLine
 10
-0.965
 20
-2.600000000000001
 11
-0.965
 21
10.67
  0
LINE
  5
153
100
AcDbEntity
  8
0
  6
ByBlock
 62
  256
370
   -1
100
AcDbLine
 10
-0.965
 20
10.67
 11
-14.755
 21
10.67
  0
LINE
  5
154
100
AcDbEntity
  8
0
  6
ByBlock
 62
  256
370
   -1
100
AcDbLine
 10
-14.755
 20
10.67
 11
-14.755
 21
-2.600000000000001
  0
LINE
  5
155
100
AcDbEntity
  8
0
  6
ByBlock
 62
  256
370
   -1
100
AcDbLine
 10
4.41
 20
-2.350000000000001
 11
15.57
 21
-2.350000000000001
  0
LINE
  5
156
100
AcDbEntity
  8
0
  6
ByBlock
 62
  256
370
   -1
100
AcDbLine
 10
15.57
 20
-2.350000000000001
 11
15.57
 21
3.73
  0
LINE
  5
157
100
AcDbEntity
  8
0
  6
ByBlock
 62
  256
370
   -1
100
AcDbLine
 10
15.57
 20
3.73
 11
4.41
 21
3.73
  0
LINE
  5
158
100
AcDbEntity
  8
0
  6
ByBlock
 62
  256
370
   -1
100
AcDbLine
 10
4.41
 20
3.73
 11
4.41
 21
-2.350000000000001
  0
ARC
  5
159
100
AcDbEntity
  8
0
  6
ByLayer
 62
  256
370
   -1
100
AcDbCircle
 10
34.5
 20
11.15
 40
1
100
AcDbArc
 50
2.035554996136651e-13
 51
90
  0
ARC
  5
15A
100
AcDbEntity
  8
0
  6
ByLayer
 62
  256
370
   -1
100
AcDbCircle
 10
34.5
 20
-11.15
 40
1
100
AcDbArc
 50
270
 51
0
  0
ARC
  5
15B
100
AcDbEntity
  8
0
  6
ByLayer
 62
  256
370
   -1
100
AcDbCircle
 10
-34.5
 20
11.15
 40
1
100
AcDbArc
 50
90
 51
180
  0
ARC
  5
15C
100
AcDbEntity
  8
0
  6
ByLayer
 62
  256
370
   -1
100
AcDbCircle
 10
-34.5
 20
-11.15
 40
1
100
AcDbArc
 50
180.0000000000002
 51
269.9999613626156
  0
LINE
  5
15D
100
AcDbEntity
  8
0
  6
ByLayer
 62
  256
370
   -1
100
AcDbLine
 10
34.49999932565042
 20
12.15
 11
-34.5
 21
12.15
  0
LINE
  5
15E
100
AcDbEntity
  8
0
  6
ByLayer
 62
  256
370
   -1
100
AcDbLine
 10
35.5
 20
-11.14999966282521
 11
35.5
 21
11.15000067434958
  0
LINE
  5
15F
100
AcDbEntity
  8
0
  6
ByLayer
 62
  256
370
   -1
100
AcDbLine
 10
-34.5
 20
-12.15
 11
34.49999941599614
 21
-12.15
  0
LINE
  5
160
100
AcDbEntity
  8
0
  6
ByLayer
 62
  256
370
   -1
100
AcDbLine
 10
-35.5
 20
11.15
 11
-35.5
 21
-11.14999932565044
  0
ENDBLK
  5
87
330
85
100
AcDbEntity
  8
0
100
AcDbBlockEnd
  0
ENDSEC
  0
SECTION
  2
ENTITIES
  0
ARC
  5
161
100
AcDbEntity
  8
0
  6
ByLayer
 62
  256
370
   -1
100
AcDbCircle
 10
34.5
 20
-8.550000000000001
 40
1
100
AcDbArc
 50
270
 51
0
  0
ARC
  5
162
100
AcDbEntity
  8
0
  6
ByLayer
 62
  256
370
   -1
100
AcDbCircle
 10
-34.5
 20
13.75
 40
1
100
AcDbArc
 50
90
 51
180
  0
ARC
  5
163
100
AcDbEntity
  8
0
  6
ByLayer
 62
  256
370
   -1
100
AcDbCircle
 10
-34.5
 20
-8.550000000000001
 40
1
100
AcDbArc
 50
180.0000000000002
 51
270
  0
ARC
  5
164
100
AcDbEntity
  8
0
  6
ByLayer
 62
  256
370
   -1
100
AcDbCircle
 10
34.5
 20
13.75
 40
1
100
AcDbArc
 50
2.035554996136651e-13
 51
90
  0
LINE
  5
165
100
AcDbEntity
  8
0
  6
ByLayer
 62
  256
370
   -1
100
AcDbLine
 10
35.5
 20
-8.549999662825225
 11
35.5
 21
13.7499990463257
  0
LINE
  5
166
100
AcDbEntity
  8
0
  6
ByLayer
 62
  256
370
   -1
100
AcDbLine
 10
-34.5
 20
-9.550000000000001
 11
34.49999976158142
 21
-9.550000000000001
  0
LINE
  5
167
100
AcDbEntity
  8
0
  6
ByLayer
 62
  256
370
   -1
100
AcDbLine
 10
-35.5
 20
13.74999966282522
 11
-35.5
 21
-8.549999046325706
  0
LINE
  5
168
100
AcDbEntity
  8
0
  6
ByLayer
 62
  256
370
   -1
100
AcDbLine
 10
34.49999932565042
 20
14.75
 11
-34.49999976158142
 21
14.75
  0
DIMENSION
  5
169
100
AcDbEntity
  8
dimensioning
  6
ByLayer
 62
  256
370
   -1
100
AcDbDimension
  2
*D1
 10
35.5
 20
-14.4
 30
0
 11
6.888638245203862e-17
 21
-13.275
 31
0
 70
   32
 71
    5
 72
    0
  3
Standard
 53
0
210
0
220
0
230
1
100
AcDbAlignedDimension
 13
-35.5
 23
-8.549999046325706
 33
0
 14
35.5
 24
-8.549999662825225
 34
0
100
AcDbRotatedDimension
  0
DIMENSION
  5
16A
100
AcDbEntity
  8
dimensioning
  6
ByLayer
 62
  256
370
   -1
100
AcDbDimension
  2
*D2
 10
-35.5
 20
-6.296726062846662
 30
0
 11
-22.027
 21
-5.171726062846662
 31
0
 70
   32
 71
    5
 72
    0
  3
Standard
 53
0
210
0
220
0
230
1
100
AcDbAlignedDimension
 13
-8.554
 23
-0.6500000000000018
 33
0
 14
-35.5
 24
-0.6334950092421392
 34
0
100
AcDbRotatedDimension
  0
LINE
  5
16B
100
AcDbEntity
  8
0
  6
ByLayer
 62
  256
370
   -1
100
AcDbLine
 10
-8.553999999999998
 20
4.050000000000001
 11
-4.453999999999999
 21
4.050000000000001
  0
LINE
  5
16C
100
AcDbEntity
  8
0
  6
ByLayer
 62
  256
370
   -1
100
AcDbLine
 10
-4.453999999999999
 20
4.050000000000001
 11
-4.453999999999999
 21
-0.3999999999999991
  0
LINE
  5
16D
100
AcDbEntity
  8
0
  6
ByLayer
 62
  256
370
   -1
100
AcDbLine
 10
-4.453999999999999
 20
-0.3999999999999991
 11
-12.654
 21
-0.3999999999999991
  0
LINE
  5
16E
100
AcDbEntity
  8
0
  6
ByLayer
 62
  256
370
   -1
100
AcDbLine
 10
-12.654
 20
-0.3999999999999991
 11
-12.654
 21
4.050000000000001
  0
LINE
  5
16F
100
AcDbEntity
  8
0
  6
ByLayer
 62
  256
370
   -1
100
AcDbLine
 10
-8.553999999999998
 20
4.050000000000001
 11
-12.654
 21
4.050000000000001
  0
DIMENSION
  5
170
100
AcDbEntity
  8
dimensioning
  6
ByLayer
 62
  256
370
   -1
100
AcDbDimension
  2
*D3
 10
-4.453999999999999
 20
8.924000000000072
 30
0
 11
-8.553999999999998
 21
10.04900000000007
 31
0
 70
   32
 71
    5
  3
Standard
 53
0
210
0
220
0
230
1
100
AcDbAlignedDimension
 13
-12.654
 23
4.050000000000001
 33
0
 14
-4.453999999999999
 24
4.050000000000001
 34
0
100
AcDbRotatedDimension
  0
DIMENSION
  5
171
100
AcDbEntity
  8
dimensioning
  6
ByLayer
 62
  256
370
   -1
100
AcDbDimension
  2
*D4
 10
-16.16719424460446
 20
-0.3999999999999987
 30
0
 11
-17.29219424460446
 21
1.825000000000001
 31
0
 70
   32
 71
    5
  3
Standard
 53
0
210
0
220
0
230
1
100
AcDbAlignedDimension
 13
-12.654
 23
4.050000000000001
 33
0
 14
-12.654
 24
-0.3999999999999991
 34
0
 50
90
100
AcDbRotatedDimension
  0
DIMENSION
  5
172
100
AcDbEntity
  8
dimensioning
  6
ByLayer
 62
  256
370
   -1
100
AcDbDimension
  2
*D5
 10
-2.306873093525212
 20
-9.550000000000001
 30
0
 11
-3.431873093525212
 21
-4.975
 31
0
 70
   32
 71
    5
  3
Standard
 53
0
210
0
220
0
230
1
100
AcDbAlignedDimension
 13
-4.453999999999999
 23
-0.3999999999999991
 33
0
 14
-4.455431366906527
 24
-9.550000000000001
 34
0
 50
90
100
AcDbRotatedDimension
  0
DIMENSION
  5
173
100
AcDbEntity
  8
dimensioning
  6
ByLayer
 62
  256
370
   -1
100
AcDbDimension
  2
*D6
 10
44.33830935251859
 20
-9.550000000000002
 30
0
 11
43.21330935251859
 21
2.600000000000001
 31
0
 70
   32
 71
    5
  3
Standard
 53
0
210
0
220
0
230
1
100
AcDbAlignedDimension
 13
34.5
 23
14.75
 33
0
 14
34.5
 24
-9.550000000000001
 34
0
 50
90
100
AcDbRotatedDimension
  0
DIMENSION
  5
174
100
AcDbEntity
  8
dimensioning
  6
ByLayer
 62
  256
370
   -1
100
AcDbDimension
  2
*D7
 10
35.5
 20
-4.300000000000001
 30
0
 11
18.6745
 21
-3.175
 31
0
 70
   32
 71
    5
 72
    0
  3
Standard
 53
0
210
0
220
0
230
1
100
AcDbAlignedDimension
 13
1.849
 23
4.849999999999998
 33
0
 14
35.5
 24
4.858547854784558
 34
0
100
AcDbRotatedDimension
  0
DIMENSION
  5
175
100
AcDbEntity
  8
dimensioning
  6
ByLayer
 62
  256
370
   -1
100
AcDbDimension
  2
*D8
 10
35.5
 20
-1.433003300330042
 30
0
 11
22.951
 21
-0.3080033003300424
 31
0
 70
   32
 71
    5
  3
Standard
 53
0
210
0
220
0
230
1
100
AcDbAlignedDimension
 13
10.402
 23
4.849999999999998
 33
0
 14
35.5
 24
4.861003300330044
 34
0
100
AcDbRotatedDimension
  0
DIMENSION
  5
176
100
AcDbEntity
  8
dimensioning
  6
ByLayer
 62
  256
370
   -1
100
AcDbDimension
  2
*D9
 10
1.849
 20
10.92805280528056
 30
0
 11
6.125500000000001
 21
12.05305280528056
 31
0
 70
   32
 71
    5
  3
Standard
 53
0
210
0
220
0
230
1
100
AcDbAlignedDimension
 13
10.402
 23
4.849999999999998
 33
0
 14
1.849
 24
4.849999999999998
 34
0
100
AcDbRotatedDimension
  0
CIRCLE
  5
177
100
AcDbEntity
  8
0
  6
ByLayer
 62
  256
370
   -1
100
AcDbCircle
 10
1.849
 20
4.849999999999998
 40
1.5
  0
CIRCLE
  5
178
100
AcDbEntity
  8
0
  6
ByLayer
 62
  256
370
   -1
100
AcDbCircle
 10
10.402
 20
4.849999999999998
 40
1.5
  0
DIMENSION
  5
179
100
AcDbEntity
  8
dimensioning
  6
ByLayer
 62
  256
370
   -1
100
AcDbDimension
  2
*D10
 10
1.849
 20
4.849999999999998
 30
0
 11
3.842648285845427
 21
8.434638543515156
 31
0
 70
   36
 71
    5
  3
Standard
 53
0
210
0
220
0
230
1
100
AcDbRadialDimension
 15
2.909660171779821
 25
5.910660171779819
 35
0
 40
0
  0
DIMENSION
  5
17A
100
AcDbEntity
  8
dimensioning
  6
ByLayer
 62
  256
370
   -1
100
AcDbDimension
  2
*D11
 10
10.402
 20
4.849999999999998
 30
0
 11
12.39564828584543
 21
8.434638543515156
 31
0
 70
   36
 71
    5
  3
Standard
 53
0
210
0
220
0
230
1
100
AcDbRadialDimension
 15
11.46266017177982
 25
5.910660171779819
 35
0
 40
0
  0
LINE
  5
17B
100
AcDbEntity
  8
LED components
  6
ByLayer
 62
  256
370
   -1
100
AcDbLine
 10
1.849
 20
7.15
 11
4.149
 21
7.15
  0
LINE
  5
17C
100
AcDbEntity
  8
LED components
  6
ByLayer
 62
  256
370
   -1
100
AcDbLine
 10
4.149
 20
7.15
 11
4.149
 21
-0.1499999999999999
  0
LINE
  5
17D
100
AcDbEntity
  8
LED components
  6
ByLayer
 62
  256
370
   -1
100
AcDbLine
 10
4.149
 20
-0.1499999999999999
 11
-0.4509999999999996
 21
-0.1499999999999999
  0
LINE
  5
17E
100
AcDbEntity
  8
LED components
  6
ByLayer
 62
  256
370
   -1
100
AcDbLine
 10
-0.4509999999999996
 20
-0.1499999999999999
 11
-0.4509999999999996
 21
7.15
  0
LINE
  5
17F
100
AcDbEntity
  8
LED components
  6
ByLayer
 62
  256
370
   -1
100
AcDbLine
 10
-0.4509999999999996
 20
7.15
 11
1.849
 21
7.15
  0
LINE
  5
180
100
AcDbEntity
  8
LED components
  6
ByLayer
 62
  256
370
   -1
100
AcDbLine
 10
10.402
 20
-0.1499999999999999
 11
12.702
 21
-0.1499999999999999
  0
LINE
  5
181
100
AcDbEntity
  8
LED components
  6
ByLayer
 62
  256
370
   -1
100
AcDbLine
 10
12.702
 20
-0.1499999999999999
 11
12.702
 21
7.15
  0
LINE
  5
182
100
AcDbEntity
  8
LED components
  6
ByLayer
 62
  256
370
   -1
100
AcDbLine
 10
12.702
 20
7.15
 11
8.101999999999999
 21
7.15
  0
LINE
  5
183
100
AcDbEntity
  8
LED components
  6
ByLayer
 62
  256
370
   -1
100
AcDbLine
 10
8.101999999999999
 20
7.15
 11
8.101999999999999
 21
-0.1499999999999999
  0
LINE
  5
184
100
AcDbEntity
  8
LED components
  6
ByLayer
 62
  256
370
   -1
100
AcDbLine
 10
8.101999999999999
 20
-0.1499999999999999
 11
10.402
 21
-0.1499999999999999
  0
DIMENSION
  5
185
100
AcDbEntity
  8
dimensioning
  6
ByLayer
 62
  256
370
   -1
100
AcDbDimension
  2
*D12
 10
39.72005755395743
 20
-9.550000000000004
 30
0
 11
38.59505755395743
 21
-2.350000000000003
 31
0
 70
   32
 71
    5
  3
Standard
 53
0
210
0
220
0
230
1
100
AcDbAlignedDimension
 13
10.402
 23
4.849999999999998
 33
0
 14
10.40354532374116
 24
-9.550000000000001
 34
0
 50
90
100
AcDbRotatedDimension
  0
ENDSEC
  0
SECTION
  2
OBJECTS
  0
DICTIONARY
  5
C
330
0
100
AcDbDictionary
281
    1
  3
ACAD_GROUP
350
D
  0
DICTIONARY
  5
D
330
C
100
AcDbDictionary
281
    1
  0
ENDSEC
  0
EOF
