999
dxfrw 0.6.3
  0
SECTION
  2
HEADER
  9
$ACADVER
  1
AC1021
  9
$DWGCODEPAGE
  3
ANSI_1252
  9
$INSBASE
 10
0
 20
0
 30
0
  9
$EXTMIN
 10
-42.03646067731795
 20
-18.25
 30
0
  9
$EXTMAX
 10
42.55902606225322
 20
15.29140316205555
 30
0
  9
$LIMMIN
 10
0
 20
0
  9
$LIMMAX
 10
420
 20
297
  9
$ORTHOMODE
 70
    0
  9
$REGENMODE
 70
    1
  9
$FILLMODE
 70
    1
  9
$QTEXTMODE
 70
    0
  9
$MIRRTEXT
 70
    0
  9
$LTSCALE
 40
1
  9
$ATTMODE
 70
    0
  9
$TEXTSIZE
 40
2.5
  9
$TRACEWID
 40
15.68
  9
$TEXTSTYLE
  7
STANDARD
  9
$CLAYER
  8
0
  9
$CELTYPE
  6
BYLAYER
  9
$CECOLOR
 62
  256
  9
$CELTSCALE
 40
1
  9
$DISPSILH
 70
    0
  9
$DIMSCALE
 40
1
  9
$DIMASZ
 40
1
  9
$DIMEXO
 40
0.625
  9
$DIMDLI
 40
3.75
  9
$DIMRND
 40
0
  9
$DIMDLE
 40
0
  9
$DIMEXE
 40
1.25
  9
$DIMTP
 40
0
  9
$DIMTM
 40
0
  9
$DIMTXT
 40
1
  9
$DIMCEN
 40
2.5
  9
$DIMTSZ
 40
0
  9
$DIMTOL
 70
    0
  9
$DIMLIM
 70
    0
  9
$DIMTIH
 70
    0
  9
$DIMTOH
 70
    0
  9
$DIMSE1
 70
    0
  9
$DIMSE2
 70
    0
  9
$DIMTAD
 70
    1
  9
$DIMZIN
 70
    1
  9
$DIMBLK
  1

  9
$DIMASO
 70
    1
  9
$DIMSHO
 70
    1
  9
$DIMPOST
  1

  9
$DIMAPOST
  1

  9
$DIMALT
 70
    0
  9
$DIMALTD
 70
    3
  9
$DIMALTF
 40
0.03937
  9
$DIMLFAC
 40
1
  9
$DIMTOFL
 70
    1
  9
$DIMTVP
 40
0
  9
$DIMTIX
 70
    0
  9
$DIMSOXD
 70
    0
  9
$DIMSAH
 70
    0
  9
$DIMBLK1
  1

  9
$DIMBLK2
  1

  9
$DIMSTYLE
  2
STANDARD
  9
$DIMCLRD
 70
    0
  9
$DIMCLRE
 70
    0
  9
$DIMCLRT
 70
    0
  9
$DIMTFAC
 40
1
  9
$DIMGAP
 40
0.625
  9
$DIMJUST
 70
    0
  9
$DIMSD1
 70
    0
  9
$DIMSD2
 70
    0
  9
$DIMTOLJ
 70
    0
  9
$DIMTZIN
 70
    8
  9
$DIMALTZ
 70
    0
  9
$DIMALTTZ
 70
    0
  9
$DIMUPT
 70
    0
  9
$DIMDEC
 70
    2
  9
$DIMTDEC
 70
    2
  9
$DIMALTU
 70
    2
  9
$DIMALTTD
 70
    3
  9
$DIMTXSTY
  7
standard
  9
$DIMAUNIT
 70
    0
  9
$DIMADEC
 70
    2
  9
$DIMALTRND
 40
0
  9
$DIMAZIN
 70
    0
  9
$DIMDSEP
 70
    0
  9
$DIMATFIT
 70
    3
  9
$DIMFRAC
 70
    0
  9
$DIMLDRBLK
  1
STANDARD
  9
$DIMLUNIT
 70
    2
  9
$DIMLWD
 70
   -2
  9
$DIMLWE
 70
   -2
  9
$DIMTMOVE
 70
    0
  9
$DIMFXL
 40
1
  9
$DIMFXLON
 70
    0
  9
$DIMJOGANG
 40
0.7854
  9
$DIMTFILL
 70
    0
  9
$DIMTFILLCLR
 70
    0
  9
$DIMARCSYM
 70
    0
  9
$DIMLTYPE
  6

  9
$DIMLTEX1
  6

  9
$DIMLTEX2
  6

  9
$LUNITS
 70
    2
  9
$LUPREC
 70
    4
  9
$SKETCHINC
 40
1
  9
$FILLETRAD
 40
0
  9
$AUNITS
 70
    0
  9
$AUPREC
 70
    3
  9
$MENU
  1
.
  9
$ELEVATION
 40
0
  9
$PELEVATION
 40
0
  9
$THICKNESS
 40
0
  9
$LIMCHECK
 70
    0
  9
$CHAMFERA
 40
0
  9
$CHAMFERB
 40
0
  9
$CHAMFERC
 40
0
  9
$CHAMFERD
 40
0
  9
$SKPOLY
 70
    0
  9
$USRTIMER
 70
    1
  9
$ANGBASE
 50
0
  9
$ANGDIR
 70
    0
  9
$PDMODE
 70
   34
  9
$PDSIZE
 40
0
  9
$PLINEWID
 40
0
  9
$SPLFRAME
 70
    0
  9
$SPLINETYPE
 70
    2
  9
$SPLINESEGS
 70
    8
  9
$HANDSEED
  5
20000
  9
$SURFTAB1
 70
    6
  9
$SURFTAB2
 70
    6
  9
$SURFTYPE
 70
    6
  9
$SURFU
 70
    6
  9
$SURFV
 70
    6
  9
$UCSBASE
  2

  9
$UCSNAME
  2

  9
$UCSORG
 10
0
 20
0
 30
0
  9
$UCSXDIR
 10
1
 20
0
 30
0
  9
$UCSYDIR
 10
0
 20
1
 30
0
  9
$UCSORTHOREF
  2

  9
$UCSORTHOVIEW
 70
    0
  9
$UCSORGTOP
 10
0
 20
0
 30
0
  9
$UCSORGBOTTOM
 10
0
 20
0
 30
0
  9
$UCSORGLEFT
 10
0
 20
0
 30
0
  9
$UCSORGRIGHT
 10
0
 20
0
 30
0
  9
$UCSORGFRONT
 10
0
 20
0
 30
0
  9
$UCSORGBACK
 10
0
 20
0
 30
0
  9
$PUCSBASE
  2

  9
$PUCSNAME
  2

  9
$PUCSORG
 10
0
 20
0
 30
0
  9
$PUCSXDIR
 10
1
 20
0
 30
0
  9
$PUCSYDIR
 10
0
 20
1
 30
0
  9
$PUCSORTHOREF
  2

  9
$PUCSORTHOVIEW
 70
    0
  9
$PUCSORGTOP
 10
0
 20
0
 30
0
  9
$PUCSORGBOTTOM
 10
0
 20
0
 30
0
  9
$PUCSORGLEFT
 10
0
 20
0
 30
0
  9
$PUCSORGRIGHT
 10
0
 20
0
 30
0
  9
$PUCSORGFRONT
 10
0
 20
0
 30
0
  9
$PUCSORGBACK
 10
0
 20
0
 30
0
  9
$USERI1
 70
    0
  9
$USERI2
 70
    0
  9
$USERI3
 70
    0
  9
$USERI4
 70
    0
  9
$USERI5
 70
    0
  9
$USERR1
 40
0
  9
$USERR2
 40
0
  9
$USERR3
 40
0
  9
$USERR4
 40
0
  9
$USERR5
 40
0
  9
$WORLDVIEW
 70
    1
  9
$SHADEDGE
 70
    3
  9
$SHADEDIF
 70
   70
  9
$TILEMODE
 70
    1
  9
$MAXACTVP
 70
   64
  9
$PINSBASE
 10
104.4286061054964
 20
151.735048126482
 30
0
  9
$PLIMCHECK
 70
    0
  9
$PEXTMIN
 10
0
 20
0
 30
0
  9
$PEXTMAX
 10
0
 20
0
 30
0
  9
$GRIDMODE
 70
    1
  9
$SNAPSTYLE
 70
    0
  9
$GRIDUNIT
 10
1
 20
1
  9
$PLIMMIN
 10
0
 20
0
  9
$PLIMMAX
 10
210
 20
297
  9
$UNITMODE
 70
    0
  9
$VISRETAIN
 70
    1
  9
$PLINEGEN
 70
    0
  9
$PSLTSCALE
 70
    1
  9
$TREEDEPTH
 70
 3020
  9
$CMLSTYLE
  2
Standard
  9
$CMLJUST
 70
    0
  9
$CMLSCALE
 40
20
  9
$PROXYGRAPHICS
 70
    1
  9
$MEASUREMENT
 70
    1
  9
$CELWEIGHT
370
   -1
  9
$ENDCAPS
280
    0
  9
$JOINSTYLE
280
    0
  9
$LWDISPLAY
290
    0
  9
$INSUNITS
 70
    4
  9
$HYPERLINKBASE
  1

  9
$STYLESHEET
  1

  9
$XEDIT
290
    1
  9
$CEPSNTYPE
380
    0
  9
$PSTYLEMODE
290
    1
  9
$EXTNAMES
290
    1
  9
$PSVPSCALE
 40
1
  9
$OLESTARTUP
290
    0
  9
$SORTENTS
280
  127
  9
$INDEXCTL
280
    0
  9
$HIDETEXT
280
    1
  9
$XCLIPFRAME
290
    0
  9
$HALOGAP
280
    0
  9
$OBSCOLOR
 70
  257
  9
$OBSLTYPE
280
    0
  9
$INTERSECTIONDISPLAY
280
    0
  9
$INTERSECTIONCOLOR
 70
  257
  9
$DIMASSOC
280
    1
  9
$PROJECTNAME
  1

  9
$CAMERADISPLAY
290
    0
  9
$LENSLENGTH
 40
50
  9
$CAMERAHEIGHT
 40
0
  9
$STEPSPERSEC
 40
2
  9
$STEPSIZE
 40
50
  9
$3DDWFPREC
 40
2
  9
$PSOLWIDTH
 40
5
  9
$PSOLHEIGHT
 40
80
  9
$LOFTANG1
 40
1.570796326794897
  9
$LOFTANG2
 40
1.570796326794897
  9
$LOFTMAG1
 40
0
  9
$LOFTMAG2
 40
0
  9
$LOFTPARAM
 70
    7
  9
$LOFTNORMALS
280
    1
  9
$LATITUDE
 40
1
  9
$LONGITUDE
 40
1
  9
$NORTHDIRECTION
 40
0
  9
$TIMEZONE
 70
-8000
  9
$LIGHTGLYPHDISPLAY
280
    1
  9
$TILEMODELIGHTSYNCH
280
    1
  9
$SOLIDHIST
280
    1
  9
$SHOWHIST
280
    1
  9
$DWFFRAME
280
    2
  9
$DGNFRAME
280
    0
  9
$REALWORLDSCALE
290
    1
  9
$INTERFERECOLOR
 62
    1
  9
$CSHADOW
280
    0
  9
$SHADOWPLANELOCATION
 40
0
  0
ENDSEC
  0
SECTION
  2
CLASSES
  0
ENDSEC
  0
SECTION
  2
TABLES
  0
TABLE
  2
VPORT
  5
8
330
0
100
AcDbSymbolTable
 70
    1
  0
VPORT
  5
31
330
2
100
AcDbSymbolTableRecord
100
AcDbViewportTableRecord
  2
*ACTIVE
 70
    0
 10
0
 20
0
 11
1
 21
1
 12
21.63745947959328
 22
8.89927768918756
 13
0
 23
0
 14
10
 24
10
 15
1
 25
1
 16
0
 26
0
 36
1
 17
0
 27
0
 37
0
 40
38.45883926856742
 41
2.235934664246824
 42
50
 43
0
 44
0
 50
0
 51
0
 71
    0
 72
  100
 73
    1
 74
    3
 75
    0
 76
    1
 77
    0
 78
    0
281
    0
 65
    1
110
0
120
0
130
0
111
1
121
0
131
0
112
0
122
1
132
0
 79
    0
146
0
348
10020
 60
    3
 61
    5
292
1
282
    1
141
0
142
0
 63
  250
421
3358443
  0
ENDTAB
  0
TABLE
  2
LTYPE
  5
5
330
0
100
AcDbSymbolTable
 70
    4
  0
LTYPE
  5
14
330
5
100
AcDbSymbolTableRecord
100
AcDbLinetypeTableRecord
  2
ByBlock
 70
    0
  3

 72
   65
 73
    0
 40
0
  0
LTYPE
  5
15
330
5
100
AcDbSymbolTableRecord
100
AcDbLinetypeTableRecord
  2
ByLayer
 70
    0
  3

 72
   65
 73
    0
 40
0
  0
LTYPE
  5
16
330
5
100
AcDbSymbolTableRecord
100
AcDbLinetypeTableRecord
  2
Continuous
 70
    0
  3
Solid line
 72
   65
 73
    0
 40
0
  0
LTYPE
  5
32
330
5
100
AcDbSymbolTableRecord
100
AcDbLinetypeTableRecord
  2
DOT
 70
    0
  3
Dot . . . . . . . . . . . . . . . . . . . . . .
 72
   65
 73
    2
 40
6.35
 49
0
 74
    0
 49
-6.35
 74
    0
  0
LTYPE
  5
33
330
5
100
AcDbSymbolTableRecord
100
AcDbLinetypeTableRecord
  2
DOTTINY
 70
    0
  3
Dot (.15x) .....................................
 72
   65
 73
    2
 40
0.9525
 49
0
 74
    0
 49
-0.9525
 74
    0
  0
LTYPE
  5
34
330
5
100
AcDbSymbolTableRecord
100
AcDbLinetypeTableRecord
  2
DOT2
 70
    0
  3
Dot (.5x) .....................................
 72
   65
 73
    2
 40
3.175
 49
0
 74
    0
 49
-3.175
 74
    0
  0
LTYPE
  5
35
330
5
100
AcDbSymbolTableRecord
100
AcDbLinetypeTableRecord
  2
DOTX2
 70
    0
  3
Dot (2x) .  .  .  .  .  .  .  .  .  .  .  .  .
 72
   65
 73
    2
 40
12.7
 49
0
 74
    0
 49
-12.7
 74
    0
  0
LTYPE
  5
36
330
5
100
AcDbSymbolTableRecord
100
AcDbLinetypeTableRecord
  2
DASHED
 70
    0
  3
Dashed _ _ _ _ _ _ _ _ _ _ _ _ _ _ _ _ _
 72
   65
 73
    2
 40
19.05
 49
12.7
 74
    0
 49
-6.35
 74
    0
  0
LTYPE
  5
37
330
5
100
AcDbSymbolTableRecord
100
AcDbLinetypeTableRecord
  2
DASHEDTINY
 70
    0
  3
Dashed (.15x) _ _ _ _ _ _ _ _ _ _ _ _ _ _ _ _ _
 72
   65
 73
    2
 40
2.8575
 49
1.905
 74
    0
 49
-0.9525
 74
    0
  0
LTYPE
  5
38
330
5
100
AcDbSymbolTableRecord
100
AcDbLinetypeTableRecord
  2
DASHED2
 70
    0
  3
Dashed (.5x) _ _ _ _ _ _ _ _ _ _ _ _ _ _ _ _ _
 72
   65
 73
    2
 40
9.524999999999999
 49
6.35
 74
    0
 49
-3.175
 74
    0
  0
LTYPE
  5
39
330
5
100
AcDbSymbolTableRecord
100
AcDbLinetypeTableRecord
  2
DASHEDX2
 70
    0
  3
Dashed (2x) ____  ____  ____  ____  ____  ___
 72
   65
 73
    2
 40
38.09999999999999
 49
25.4
 74
    0
 49
-12.7
 74
    0
  0
LTYPE
  5
3A
330
5
100
AcDbSymbolTableRecord
100
AcDbLinetypeTableRecord
  2
DASHDOT
 70
    0
  3
Dash dot __ . __ . __ . __ . __ . __ . __ . __
 72
   65
 73
    4
 40
25.4
 49
12.7
 74
    0
 49
-6.35
 74
    0
 49
0
 74
    0
 49
-6.35
 74
    0
  0
LTYPE
  5
3B
330
5
100
AcDbSymbolTableRecord
100
AcDbLinetypeTableRecord
  2
DASHDOTTINY
 70
    0
  3
Dash dot (.15x) _._._._._._._._._._._._._._._.
 72
   65
 73
    4
 40
3.81
 49
1.905
 74
    0
 49
-0.9525
 74
    0
 49
0
 74
    0
 49
-0.9525
 74
    0
  0
LTYPE
  5
3C
330
5
100
AcDbSymbolTableRecord
100
AcDbLinetypeTableRecord
  2
DASHDOT2
 70
    0
  3
Dash dot (.5x) _._._._._._._._._._._._._._._.
 72
   65
 73
    4
 40
12.7
 49
6.35
 74
    0
 49
-3.175
 74
    0
 49
0
 74
    0
 49
-3.175
 74
    0
  0
LTYPE
  5
3D
330
5
100
AcDbSymbolTableRecord
100
AcDbLinetypeTableRecord
  2
DASHDOTX2
 70
    0
  3
Dash dot (2x) ____  .  ____  .  ____  .  ___
 72
   65
 73
    4
 40
50.8
 49
25.4
 74
    0
 49
-12.7
 74
    0
 49
0
 74
    0
 49
-12.7
 74
    0
  0
LTYPE
  5
3E
330
5
100
AcDbSymbolTableRecord
100
AcDbLinetypeTableRecord
  2
DIVIDE
 70
    0
  3
Divide ____ . . ____ . . ____ . . ____ . . ____
 72
   65
 73
    6
 40
31.75
 49
12.7
 74
    0
 49
-6.35
 74
    0
 49
0
 74
    0
 49
-6.35
 74
    0
 49
0
 74
    0
 49
-6.35
 74
    0
  0
LTYPE
  5
3F
330
5
100
AcDbSymbolTableRecord
100
AcDbLinetypeTableRecord
  2
DIVIDETINY
 70
    0
  3
Divide (.15x) __..__..__..__..__..__..__..__.._
 72
   65
 73
    6
 40
4.7625
 49
1.905
 74
    0
 49
-0.9525
 74
    0
 49
0
 74
    0
 49
-0.9525
 74
    0
 49
0
 74
    0
 49
-0.9525
 74
    0
  0
LTYPE
  5
40
330
5
100
AcDbSymbolTableRecord
100
AcDbLinetypeTableRecord
  2
DIVIDE2
 70
    0
  3
Divide (.5x) __..__..__..__..__..__..__..__.._
 72
   65
 73
    6
 40
15.875
 49
6.35
 74
    0
 49
-3.175
 74
    0
 49
0
 74
    0
 49
-3.175
 74
    0
 49
0
 74
    0
 49
-3.175
 74
    0
  0
LTYPE
  5
41
330
5
100
AcDbSymbolTableRecord
100
AcDbLinetypeTableRecord
  2
DIVIDEX2
 70
    0
  3
Divide (2x) ________  .  .  ________  .  .  _
 72
   65
 73
    6
 40
63.5
 49
25.4
 74
    0
 49
-12.7
 74
    0
 49
0
 74
    0
 49
-12.7
 74
    0
 49
0
 74
    0
 49
-12.7
 74
    0
  0
LTYPE
  5
42
330
5
100
AcDbSymbolTableRecord
100
AcDbLinetypeTableRecord
  2
BORDER
 70
    0
  3
Border __ __ . __ __ . __ __ . __ __ . __ __ .
 72
   65
 73
    6
 40
44.45
 49
12.7
 74
    0
 49
-6.35
 74
    0
 49
12.7
 74
    0
 49
-6.35
 74
    0
 49
0
 74
    0
 49
-6.35
 74
    0
  0
LTYPE
  5
43
330
5
100
AcDbSymbolTableRecord
100
AcDbLinetypeTableRecord
  2
BORDERTINY
 70
    0
  3
Border (.15x) __.__.__.__.__.__.__.__.__.__.__.
 72
   65
 73
    6
 40
6.6675
 49
1.905
 74
    0
 49
-0.9525
 74
    0
 49
1.905
 74
    0
 49
-0.9525
 74
    0
 49
0
 74
    0
 49
-0.9525
 74
    0
  0
LTYPE
  5
44
330
5
100
AcDbSymbolTableRecord
100
AcDbLinetypeTableRecord
  2
BORDER2
 70
    0
  3
Border (.5x) __.__.__.__.__.__.__.__.__.__.__.
 72
   65
 73
    6
 40
22.225
 49
6.35
 74
    0
 49
-3.175
 74
    0
 49
6.35
 74
    0
 49
-3.175
 74
    0
 49
0
 74
    0
 49
-3.175
 74
    0
  0
LTYPE
  5
45
330
5
100
AcDbSymbolTableRecord
100
AcDbLinetypeTableRecord
  2
BORDERX2
 70
    0
  3
Border (2x) ____  ____  .  ____  ____  .  ___
 72
   65
 73
    6
 40
88.89999999999999
 49
25.4
 74
    0
 49
-12.7
 74
    0
 49
25.4
 74
    0
 49
-12.7
 74
    0
 49
0
 74
    0
 49
-12.7
 74
    0
  0
LTYPE
  5
46
330
5
100
AcDbSymbolTableRecord
100
AcDbLinetypeTableRecord
  2
CENTER
 70
    0
  3
Center ____ _ ____ _ ____ _ ____ _ ____ _ ____
 72
   65
 73
    4
 40
50.8
 49
31.75
 74
    0
 49
-6.35
 74
    0
 49
6.35
 74
    0
 49
-6.35
 74
    0
  0
LTYPE
  5
47
330
5
100
AcDbSymbolTableRecord
100
AcDbLinetypeTableRecord
  2
CENTERTINY
 70
    0
  3
Center (.15x) ___ _ ___ _ ___ _ ___ _ ___ _ ___
 72
   65
 73
    4
 40
7.619999999999999
 49
4.7625
 74
    0
 49
-0.9525
 74
    0
 49
0.9525
 74
    0
 49
-0.9525
 74
    0
  0
LTYPE
  5
48
330
5
100
AcDbSymbolTableRecord
100
AcDbLinetypeTableRecord
  2
CENTER2
 70
    0
  3
Center (.5x) ___ _ ___ _ ___ _ ___ _ ___ _ ___
 72
   65
 73
    4
 40
28.575
 49
19.05
 74
    0
 49
-3.175
 74
    0
 49
3.175
 74
    0
 49
-3.175
 74
    0
  0
LTYPE
  5
49
330
5
100
AcDbSymbolTableRecord
100
AcDbLinetypeTableRecord
  2
CENTERX2
 70
    0
  3
Center (2x) ________  __  ________  __  _____
 72
   65
 73
    4
 40
101.6
 49
63.5
 74
    0
 49
-12.7
 74
    0
 49
12.7
 74
    0
 49
-12.7
 74
    0
  0
ENDTAB
  0
TABLE
  2
LAYER
  5
2
330
0
100
AcDbSymbolTable
 70
    1
  0
LAYER
  5
10
330
2
100
AcDbSymbolTableRecord
100
AcDbLayerTableRecord
  2
0
 70
    0
 62
    7
  6
CONTINUOUS
370
    0
390
F
  0
LAYER
  5
4A
330
2
100
AcDbSymbolTableRecord
100
AcDbLayerTableRecord
  2
dimensioning
 70
    0
 62
    7
  6
CONTINUOUS
370
   -3
390
F
  0
LAYER
  5
4B
330
2
100
AcDbSymbolTableRecord
100
AcDbLayerTableRecord
  2
v1.0
 70
    1
 62
    7
  6
CONTINUOUS
370
    0
390
F
  0
ENDTAB
  0
TABLE
  2
STYLE
  5
3
330
0
100
AcDbSymbolTable
 70
    3
  0
STYLE
  5
4C
330
2
100
AcDbSymbolTableRecord
100
AcDbTextStyleTableRecord
  2
Standard
 70
    0
 40
0
 41
1
 50
0
 71
    0
 42
1
  3
txt
  4

  0
ENDTAB
  0
TABLE
  2
VIEW
  5
6
330
0
100
AcDbSymbolTable
 70
    0
  0
ENDTAB
  0
TABLE
  2
UCS
  5
7
330
0
100
AcDbSymbolTable
 70
    0
  0
ENDTAB
  0
TABLE
  2
APPID
  5
9
330
0
100
AcDbSymbolTable
 70
    1
  0
APPID
  5
12
330
9
100
AcDbSymbolTableRecord
100
AcDbRegAppTableRecord
  2
ACAD
 70
    0
  0
APPID
  5
4D
330
9
100
AcDbSymbolTableRecord
100
AcDbRegAppTableRecord
  2
LibreCad
 70
    0
  0
ENDTAB
  0
TABLE
  2
DIMSTYLE
  5
A
330
0
100
AcDbSymbolTable
 70
    1
100
AcDbDimStyleTable
 71
    1
  0
DIMSTYLE
105
4E
330
A
100
AcDbSymbolTableRecord
100
AcDbDimStyleTableRecord
  2
Standard
 70
    0
 40
1
 41
1
 42
0.625
 43
0.38
 44
1.25
 45
0
 46
0
 47
0
 48
0
140
1
141
0.09
142
0
143
25.4
144
1
145
0
146
1
147
0.625
148
0
 71
    0
 72
    0
 73
    0
 74
    1
 75
    0
 76
    0
 77
    0
 78
    1
 79
    0
170
    0
171
    2
172
    0
173
    0
174
    0
175
    0
176
    0
177
    0
178
    0
179
    2
271
    2
272
    4
273
    2
274
    2
275
    0
276
    0
277
    2
278
    0
279
    0
280
    0
281
    0
282
    0
283
    1
284
    0
285
    0
286
    0
288
    0
289
    3
340
standard
341

371
   -2
372
   -2
  0
ENDTAB
  0
TABLE
  2
BLOCK_RECORD
  5
1
330
0
100
AcDbSymbolTable
 70
    2
  0
BLOCK_RECORD
  5
1F
330
1
100
AcDbSymbolTableRecord
100
AcDbBlockTableRecord
  2
*Model_Space
 70
    0
280
    1
281
    0
  0
BLOCK_RECORD
  5
1E
330
1
100
AcDbSymbolTableRecord
100
AcDbBlockTableRecord
  2
*Paper_Space
 70
    0
280
    1
281
    0
  0
BLOCK_RECORD
  5
4F
330
1
100
AcDbSymbolTableRecord
100
AcDbBlockTableRecord
  2
*D1
 70
    0
280
    1
281
    0
  0
BLOCK_RECORD
  5
52
330
1
100
AcDbSymbolTableRecord
100
AcDbBlockTableRecord
  2
*D14
 70
    0
280
    1
281
    0
  0
BLOCK_RECORD
  5
55
330
1
100
AcDbSymbolTableRecord
100
AcDbBlockTableRecord
  2
*D6
 70
    0
280
    1
281
    0
  0
BLOCK_RECORD
  5
58
330
1
100
AcDbSymbolTableRecord
100
AcDbBlockTableRecord
  2
*D2
 70
    0
280
    1
281
    0
  0
BLOCK_RECORD
  5
5B
330
1
100
AcDbSymbolTableRecord
100
AcDbBlockTableRecord
  2
*D7
 70
    0
280
    1
281
    0
  0
BLOCK_RECORD
  5
5E
330
1
100
AcDbSymbolTableRecord
100
AcDbBlockTableRecord
  2
*D9
 70
    0
280
    1
281
    0
  0
BLOCK_RECORD
  5
61
330
1
100
AcDbSymbolTableRecord
100
AcDbBlockTableRecord
  2
*D3
 70
    0
280
    1
281
    0
  0
BLOCK_RECORD
  5
64
330
1
100
AcDbSymbolTableRecord
100
AcDbBlockTableRecord
  2
*D11
 70
    0
280
    1
281
    0
  0
BLOCK_RECORD
  5
67
330
1
100
AcDbSymbolTableRecord
100
AcDbBlockTableRecord
  2
*D5
 70
    0
280
    1
281
    0
  0
BLOCK_RECORD
  5
6A
330
1
100
AcDbSymbolTableRecord
100
AcDbBlockTableRecord
  2
*D13
 70
    0
280
    1
281
    0
  0
BLOCK_RECORD
  5
6D
330
1
100
AcDbSymbolTableRecord
100
AcDbBlockTableRecord
  2
*D4
 70
    0
280
    1
281
    0
  0
BLOCK_RECORD
  5
70
330
1
100
AcDbSymbolTableRecord
100
AcDbBlockTableRecord
  2
*D8
 70
    0
280
    1
281
    0
  0
BLOCK_RECORD
  5
73
330
1
100
AcDbSymbolTableRecord
100
AcDbBlockTableRecord
  2
*D10
 70
    0
280
    1
281
    0
  0
BLOCK_RECORD
  5
76
330
1
100
AcDbSymbolTableRecord
100
AcDbBlockTableRecord
  2
*D12
 70
    0
280
    1
281
    0
  0
BLOCK_RECORD
  5
79
330
1
100
AcDbSymbolTableRecord
100
AcDbBlockTableRecord
  2
Front Panel
 70
    0
280
    1
281
    0
  0
BLOCK_RECORD
  5
7C
330
1
100
AcDbSymbolTableRecord
100
AcDbBlockTableRecord
  2
Front Panel-0
 70
    0
280
    1
281
    0
  0
BLOCK_RECORD
  5
7F
330
1
100
AcDbSymbolTableRecord
100
AcDbBlockTableRecord
  2
Rear Panel
 70
    0
280
    1
281
    0
  0
BLOCK_RECORD
  5
82
330
1
100
AcDbSymbolTableRecord
100
AcDbBlockTableRecord
  2
Front Panel-1
 70
    0
280
    1
281
    0
  0
ENDTAB
  0
ENDSEC
  0
SECTION
  2
BLOCKS
  0
BLOCK
  5
20
330
1F
100
AcDbEntity
  8
0
100
AcDbBlockBegin
  2
*Model_Space
 70
    0
 10
0
 20
0
 30
0
  3
*Model_Space
  1

  0
ENDBLK
  5
21
330
1F
100
AcDbEntity
  8
0
100
AcDbBlockEnd
  0
BLOCK
  5
1C
330
1B
100
AcDbEntity
  8
0
100
AcDbBlockBegin
  2
*Paper_Space
 70
    0
 10
0
 20
0
 30
0
  3
*Paper_Space
  1

  0
ENDBLK
  5
1D
330
1F
100
AcDbEntity
  8
0
100
AcDbBlockEnd
  0
BLOCK
  5
50
330
4F
100
AcDbEntity
  8
0
100
AcDbBlockBegin
  2
*D1
 70
    1
 10
0
 20
0
  3
*D1
  1

  0
LINE
  5
85
100
AcDbEntity
  8
dimensioning
  6
ByBlock
 62
    0
370
   -2
100
AcDbLine
 10
-35.5
 20
-17
 11
35.5
 21
-17
  0
SOLID
  5
86
100
AcDbEntity
  8
dimensioning
  6
ByBlock
 62
    0
370
   -2
100
AcDbTrace
 10
-35.5
 20
-17
 30
0
 11
-34.5
 21
-16.83348613689087
 31
0
 12
-34.5
 22
-17.16651386310914
 32
0
 13
-34.5
 23
-17.16651386310914
 33
0
  0
SOLID
  5
87
100
AcDbEntity
  8
dimensioning
  6
ByBlock
 62
    0
370
   -2
100
AcDbTrace
 10
35.5
 20
-17
 30
0
 11
34.5
 21
-17.16651386310913
 31
0
 12
34.5
 22
-16.83348613689087
 32
0
 13
34.5
 23
-16.83348613689087
 33
0
  0
MTEXT
  5
88
100
AcDbEntity
  8
dimensioning
  6
CONTINUOUS
 62
    0
370
   -2
100
AcDbMText
 10
6.888638245203862e-17
 20
-15.875
 30
0
 40
1
 41
2.888888888888889
 71
    5
 72
    1
  1
71.00
  7
standard
210
0
220
0
230
1
 50
0
 73
    2
 44
1
  0
LINE
  5
89
100
AcDbEntity
  8
dimensioning
  6
ByBlock
 62
    0
370
   -2
100
AcDbLine
 10
-35.5
 20
-11.775
 11
-35.5
 21
-18.25
  0
LINE
  5
8A
100
AcDbEntity
  8
dimensioning
  6
ByBlock
 62
    0
370
   -2
100
AcDbLine
 10
35.5
 20
-11.77499966282521
 11
35.5
 21
-18.25
  0
ENDBLK
  5
51
330
4F
100
AcDbEntity
  8
0
100
AcDbBlockEnd
  0
BLOCK
  5
53
330
52
100
AcDbEntity
  8
0
100
AcDbBlockBegin
  2
*D14
 70
    1
 10
0
 20
0
  3
*D14
  1

  0
LINE
  5
8B
100
AcDbEntity
  8
dimensioning
  6
ByBlock
 62
    0
370
   -2
100
AcDbLine
 10
12.63
 20
9.769200804681386
 11
6.349999999999999
 21
9.769200804681386
  0
SOLID
  5
8C
100
AcDbEntity
  8
dimensioning
  6
ByBlock
 62
    0
370
   -2
100
AcDbTrace
 10
12.63
 20
9.769200804681386
 30
0
 11
11.63
 21
9.60268694157225
 31
0
 12
11.63
 22
9.935714667790522
 32
0
 13
11.63
 23
9.935714667790522
 33
0
  0
SOLID
  5
8D
100
AcDbEntity
  8
dimensioning
  6
ByBlock
 62
    0
370
   -2
100
AcDbTrace
 10
6.349999999999999
 20
9.769200804681386
 30
0
 11
7.349999999999999
 21
9.935714667790522
 31
0
 12
7.349999999999999
 22
9.60268694157225
 32
0
 13
7.349999999999999
 23
9.60268694157225
 33
0
  0
MTEXT
  5
8E
100
AcDbEntity
  8
dimensioning
  6
CONTINUOUS
 62
    0
370
   -2
100
AcDbMText
 10
9.489999999999998
 20
10.89420080468139
 30
0
 40
1
 41
2.333333333333395
 71
    5
 72
    1
  1
6.28
  7
standard
210
0
220
0
230
1
 50
360
 73
    2
 44
1
  0
LINE
  5
8F
100
AcDbEntity
  8
dimensioning
  6
ByBlock
 62
    0
370
   -2
100
AcDbLine
 10
12.63
 20
7.475000000000001
 11
12.63
 21
11.01920080468139
  0
LINE
  5
90
100
AcDbEntity
  8
dimensioning
  6
ByBlock
 62
    0
370
   -2
100
AcDbLine
 10
6.349999999999999
 20
7.475000000000001
 11
6.349999999999999
 21
11.01920080468139
  0
ENDBLK
  5
54
330
52
100
AcDbEntity
  8
0
100
AcDbBlockEnd
  0
BLOCK
  5
56
330
55
100
AcDbEntity
  8
0
100
AcDbBlockBegin
  2
*D6
 70
    1
 10
0
 20
0
  3
*D6
  1

  0
LINE
  5
91
100
AcDbEntity
  8
dimensioning
  6
ByBlock
 62
    0
370
   -2
100
AcDbLine
 10
-17.41284584980264
 20
10.08
 11
-17.41284584980264
 21
-3
  0
SOLID
  5
92
100
AcDbEntity
  8
dimensioning
  6
ByBlock
 62
    0
370
   -2
100
AcDbTrace
 10
-17.41284584980264
 20
10.08
 30
0
 11
-17.24633198669351
 21
9.079999999999998
 31
0
 12
-17.57935971291177
 22
9.079999999999998
 32
0
 13
-17.57935971291177
 23
9.079999999999998
 33
0
  0
SOLID
  5
93
100
AcDbEntity
  8
dimensioning
  6
ByBlock
 62
    0
370
   -2
100
AcDbTrace
 10
-17.41284584980264
 20
-3
 30
0
 11
-17.57935971291177
 21
-2
 31
0
 12
-17.2463319866935
 22
-2
 32
0
 13
-17.2463319866935
 23
-2
 33
0
  0
MTEXT
  5
94
100
AcDbEntity
  8
dimensioning
  6
CONTINUOUS
 62
    0
370
   -2
100
AcDbMText
 10
-18.53784584980264
 20
3.539999999999999
 30
0
 40
1
 41
2.888888888888951
 71
    5
 72
    1
  1
13.08
  7
standard
210
0
220
0
230
1
 50
90
 73
    2
 44
1
  0
LINE
  5
95
100
AcDbEntity
  8
dimensioning
  6
ByBlock
 62
    0
370
   -2
100
AcDbLine
 10
-15.285
 20
10.08
 11
-18.66284584980264
 21
10.08
  0
LINE
  5
96
100
AcDbEntity
  8
dimensioning
  6
ByBlock
 62
    0
370
   -2
100
AcDbLine
 10
-15.285
 20
-3
 11
-18.66284584980264
 21
-3
  0
ENDBLK
  5
57
330
55
100
AcDbEntity
  8
0
100
AcDbBlockEnd
  0
BLOCK
  5
59
330
58
100
AcDbEntity
  8
0
100
AcDbBlockBegin
  2
*D2
 70
    1
 10
0
 20
0
  3
*D2
  1

  0
LINE
  5
97
100
AcDbEntity
  8
v1.0
  6
ByBlock
 62
    0
370
   -2
100
AcDbLine
 10
4.41
 20
8
 11
15.57
 21
8
  0
SOLID
  5
98
100
AcDbEntity
  8
v1.0
  6
ByBlock
 62
    0
370
   -2
100
AcDbTrace
 10
4.41
 20
8
 30
0
 11
5.41
 21
8.166513863109136
 31
0
 12
5.41
 22
7.833486136890864
 32
0
 13
5.41
 23
7.833486136890864
 33
0
  0
SOLID
  5
99
100
AcDbEntity
  8
v1.0
  6
ByBlock
 62
    0
370
   -2
100
AcDbTrace
 10
15.57
 20
8
 30
0
 11
14.57
 21
7.833486136890864
 31
0
 12
14.57
 22
8.166513863109136
 32
0
 13
14.57
 23
8.166513863109136
 33
0
  0
MTEXT
  5
9A
100
AcDbEntity
  8
v1.0
  6
CONTINUOUS
 62
    0
370
   -2
100
AcDbMText
 10
9.99
 20
9.125
 30
0
 40
1
 41
2.444444444444506
 71
    5
 72
    1
  1
11.16
  7
standard
210
0
220
0
230
1
 50
0
 73
    2
 44
1
  0
LINE
  5
9B
100
AcDbEntity
  8
v1.0
  6
ByBlock
 62
    0
370
   -2
100
AcDbLine
 10
4.41
 20
4.355
 11
4.41
 21
9.25
  0
LINE
  5
9C
100
AcDbEntity
  8
v1.0
  6
ByBlock
 62
    0
370
   -2
100
AcDbLine
 10
15.57
 20
4.355
 11
15.57
 21
9.25
  0
ENDBLK
  5
5A
330
58
100
AcDbEntity
  8
0
100
AcDbBlockEnd
  0
BLOCK
  5
5C
330
5B
100
AcDbEntity
  8
0
100
AcDbBlockBegin
  2
*D7
 70
    1
 10
0
 20
0
  3
*D7
  1

  0
LINE
  5
9D
100
AcDbEntity
  8
dimensioning
  6
ByBlock
 62
    0
370
   -2
100
AcDbLine
 10
9.490000000000002
 20
-9.712206156085459
 11
-35.49648998163695
 21
-9.712206156085459
  0
SOLID
  5
9E
100
AcDbEntity
  8
dimensioning
  6
ByBlock
 62
    0
370
   -2
100
AcDbTrace
 10
9.490000000000002
 20
-9.712206156085459
 30
0
 11
8.490000000000002
 21
-9.878720019194596
 31
0
 12
8.490000000000002
 22
-9.545692292976323
 32
0
 13
8.490000000000002
 23
-9.545692292976323
 33
0
  0
SOLID
  5
9F
100
AcDbEntity
  8
dimensioning
  6
ByBlock
 62
    0
370
   -2
100
AcDbTrace
 10
-35.49648998163695
 20
-9.712206156085459
 30
0
 11
-34.49648998163695
 21
-9.545692292976323
 31
0
 12
-34.49648998163695
 22
-9.878720019194596
 32
0
 13
-34.49648998163695
 23
-9.878720019194596
 33
0
  0
MTEXT
  5
A0
100
AcDbEntity
  8
dimensioning
  6
CONTINUOUS
 62
    0
370
   -2
100
AcDbMText
 10
-13.00324499081847
 20
-8.587206156085459
 30
0
 40
1
 41
3.333333333333333
 71
    5
 72
    1
  1
44.99
  7
standard
210
0
220
0
230
1
 50
360
 73
    2
 44
1
  0
LINE
  5
A1
100
AcDbEntity
  8
dimensioning
  6
ByBlock
 62
    0
370
   -2
100
AcDbLine
 10
9.49
 20
-3.575
 11
9.490000000000002
 21
-10.96220615608546
  0
LINE
  5
A2
100
AcDbEntity
  8
dimensioning
  6
ByBlock
 62
    0
370
   -2
100
AcDbLine
 10
-35.49648998163695
 20
-3.573850389388925
 11
-35.49648998163695
 21
-10.96220615608546
  0
ENDBLK
  5
5D
330
5B
100
AcDbEntity
  8
0
100
AcDbBlockEnd
  0
BLOCK
  5
5F
330
5E
100
AcDbEntity
  8
0
100
AcDbBlockBegin
  2
*D9
 70
    1
 10
0
 20
0
  3
*D9
  1

  0
LINE
  5
A3
100
AcDbEntity
  8
dimensioning
  6
ByBlock
 62
    0
370
   -2
100
AcDbLine
 10
19.01142525730847
 20
-2.950000000000003
 11
19.01142525730847
 21
-12.15
  0
SOLID
  5
A4
100
AcDbEntity
  8
dimensioning
  6
ByBlock
 62
    0
370
   -2
100
AcDbTrace
 10
19.01142525730847
 20
-2.950000000000003
 30
0
 11
19.17793912041761
 21
-3.950000000000003
 31
0
 12
18.84491139419934
 22
-3.950000000000003
 32
0
 13
18.84491139419934
 23
-3.950000000000003
 33
0
  0
SOLID
  5
A5
100
AcDbEntity
  8
dimensioning
  6
ByBlock
 62
    0
370
   -2
100
AcDbTrace
 10
19.01142525730847
 20
-12.15
 30
0
 11
18.84491139419934
 21
-11.15
 31
0
 12
19.17793912041761
 22
-11.15
 32
0
 13
19.17793912041761
 23
-11.15
 33
0
  0
MTEXT
  5
A6
100
AcDbEntity
  8
dimensioning
  6
CONTINUOUS
 62
    0
370
   -2
100
AcDbMText
 10
17.88642525730847
 20
-7.550000000000002
 30
0
 40
1
 41
2.333333333333395
 71
    5
 72
    1
  1
9.20
  7
standard
210
0
220
0
230
1
 50
90
 73
    2
 44
1
  0
LINE
  5
A7
100
AcDbEntity
  8
dimensioning
  6
ByBlock
 62
    0
370
   -2
100
AcDbLine
 10
10.115
 20
-2.95
 11
20.26142525730847
 21
-2.950000000000003
  0
LINE
  5
A8
100
AcDbEntity
  8
dimensioning
  6
ByBlock
 62
    0
370
   -2
100
AcDbLine
 10
10.13633509274847
 20
-12.15
 11
20.26142525730847
 21
-12.15
  0
ENDBLK
  5
60
330
5E
100
AcDbEntity
  8
0
100
AcDbBlockEnd
  0
BLOCK
  5
62
330
61
100
AcDbEntity
  8
0
100
AcDbBlockBegin
  2
*D3
 70
    1
 10
0
 20
0
  3
*D3
  1

  0
LINE
  5
A9
100
AcDbEntity
  8
v1.0
  6
ByBlock
 62
    0
370
   -2
100
AcDbLine
 10
19
 20
3.730000000000001
 11
19
 21
-2.350000000000001
  0
SOLID
  5
AA
100
AcDbEntity
  8
v1.0
  6
ByBlock
 62
    0
370
   -2
100
AcDbTrace
 10
19
 20
3.730000000000001
 30
0
 11
19.16651386310913
 21
2.730000000000001
 31
0
 12
18.83348613689087
 22
2.730000000000001
 32
0
 13
18.83348613689087
 23
2.730000000000001
 33
0
  0
SOLID
  5
AB
100
AcDbEntity
  8
v1.0
  6
ByBlock
 62
    0
370
   -2
100
AcDbTrace
 10
19
 20
-2.350000000000001
 30
0
 11
18.83348613689087
 21
-1.350000000000001
 31
0
 12
19.16651386310914
 22
-1.350000000000001
 32
0
 13
19.16651386310914
 23
-1.350000000000001
 33
0
  0
MTEXT
  5
AC
100
AcDbEntity
  8
v1.0
  6
CONTINUOUS
 62
    0
370
   -2
100
AcDbMText
 10
17.875
 20
0.6900000000000003
 30
0
 40
1
 41
2.333333333333395
 71
    5
 72
    1
  1
6.08
  7
standard
210
0
220
0
230
1
 50
90
 73
    2
 44
1
  0
LINE
  5
AD
100
AcDbEntity
  8
v1.0
  6
ByBlock
 62
    0
370
   -2
100
AcDbLine
 10
16.195
 20
3.73
 11
20.25
 21
3.730000000000001
  0
LINE
  5
AE
100
AcDbEntity
  8
v1.0
  6
ByBlock
 62
    0
370
   -2
100
AcDbLine
 10
16.195
 20
-2.35
 11
20.25
 21
-2.350000000000001
  0
ENDBLK
  5
63
330
61
100
AcDbEntity
  8
0
100
AcDbBlockEnd
  0
BLOCK
  5
65
330
64
100
AcDbEntity
  8
0
100
AcDbBlockBegin
  2
*D11
 70
    1
 10
0
 20
0
  3
*D11
  1

  0
LINE
  5
AF
100
AcDbEntity
  8
v1.0
  6
ByBlock
 62
    0
370
   -2
100
AcDbLine
 10
19.02544148710538
 20
2.529999999999999
 11
19.02544148710538
 21
-2.950000000000001
  0
SOLID
  5
B0
100
AcDbEntity
  8
v1.0
  6
ByBlock
 62
    0
370
   -2
100
AcDbTrace
 10
19.02544148710538
 20
2.529999999999999
 30
0
 11
19.19195535021451
 21
1.529999999999999
 31
0
 12
18.85892762399624
 22
1.529999999999999
 32
0
 13
18.85892762399624
 23
1.529999999999999
 33
0
  0
SOLID
  5
B1
100
AcDbEntity
  8
v1.0
  6
ByBlock
 62
    0
370
   -2
100
AcDbTrace
 10
19.02544148710538
 20
-2.950000000000001
 30
0
 11
18.85892762399624
 21
-1.950000000000001
 31
0
 12
19.19195535021452
 22
-1.950000000000001
 32
0
 13
19.19195535021452
 23
-1.950000000000001
 33
0
  0
MTEXT
  5
B2
100
AcDbEntity
  8
v1.0
  6
CONTINUOUS
 62
    0
370
   -2
100
AcDbMText
 10
17.90044148710538
 20
-0.2100000000000005
 30
0
 40
1
 41
2.444444444444507
 71
    5
 72
    1
  1
5.48
  7
standard
210
0
220
0
230
1
 50
90
 73
    2
 44
1
  0
LINE
  5
B3
100
AcDbEntity
  8
v1.0
  6
ByBlock
 62
    0
370
   -2
100
AcDbLine
 10
15.295
 20
2.53
 11
20.27544148710538
 21
2.529999999999999
  0
LINE
  5
B4
100
AcDbEntity
  8
v1.0
  6
ByBlock
 62
    0
370
   -2
100
AcDbLine
 10
15.295
 20
-2.95
 11
20.27544148710538
 21
-2.950000000000001
  0
ENDBLK
  5
66
330
64
100
AcDbEntity
  8
0
100
AcDbBlockEnd
  0
BLOCK
  5
68
330
67
100
AcDbEntity
  8
0
100
AcDbBlockBegin
  2
*D5
 70
    1
 10
0
 20
0
  3
*D5
  1

  0
LINE
  5
B5
100
AcDbEntity
  8
dimensioning
  6
ByBlock
 62
    0
370
   -2
100
AcDbLine
 10
-14.66
 20
13.66640316205555
 11
-1.06
 21
13.66640316205555
  0
SOLID
  5
B6
100
AcDbEntity
  8
dimensioning
  6
ByBlock
 62
    0
370
   -2
100
AcDbTrace
 10
-14.66
 20
13.66640316205555
 30
0
 11
-13.66
 21
13.83291702516469
 31
0
 12
-13.66
 22
13.49988929894641
 32
0
 13
-13.66
 23
13.49988929894641
 33
0
  0
SOLID
  5
B7
100
AcDbEntity
  8
dimensioning
  6
ByBlock
 62
    0
370
   -2
100
AcDbTrace
 10
-1.06
 20
13.66640316205555
 30
0
 11
-2.06
 21
13.49988929894641
 31
0
 12
-2.06
 22
13.83291702516469
 32
0
 13
-2.06
 23
13.83291702516469
 33
0
  0
MTEXT
  5
B8
100
AcDbEntity
  8
dimensioning
  6
CONTINUOUS
 62
    0
370
   -2
100
AcDbMText
 10
-7.86
 20
14.79140316205555
 30
0
 40
1
 41
2.888888888889013
 71
    5
 72
    1
  1
13.60
  7
standard
210
0
220
0
230
1
 50
0
 73
    2
 44
1
  0
LINE
  5
B9
100
AcDbEntity
  8
dimensioning
  6
ByBlock
 62
    0
370
   -2
100
AcDbLine
 10
-14.66
 20
10.705
 11
-14.66
 21
14.91640316205555
  0
LINE
  5
BA
100
AcDbEntity
  8
dimensioning
  6
ByBlock
 62
    0
370
   -2
100
AcDbLine
 10
-1.06
 20
10.705
 11
-1.06
 21
14.91640316205555
  0
ENDBLK
  5
69
330
67
100
AcDbEntity
  8
0
100
AcDbBlockEnd
  0
BLOCK
  5
6B
330
6A
100
AcDbEntity
  8
0
100
AcDbBlockBegin
  2
*D13
 70
    1
 10
0
 20
0
  3
*D13
  1

  0
LINE
  5
BB
100
AcDbEntity
  8
dimensioning
  6
ByBlock
 62
    0
370
   -2
100
AcDbLine
 10
18.99059595676382
 20
6.850000000000001
 11
18.99059595676382
 21
-2.950000000000001
  0
SOLID
  5
BC
100
AcDbEntity
  8
dimensioning
  6
ByBlock
 62
    0
370
   -2
100
AcDbTrace
 10
18.99059595676382
 20
6.850000000000001
 30
0
 11
19.15710981987295
 21
5.850000000000001
 31
0
 12
18.82408209365468
 22
5.850000000000001
 32
0
 13
18.82408209365468
 23
5.850000000000001
 33
0
  0
SOLID
  5
BD
100
AcDbEntity
  8
dimensioning
  6
ByBlock
 62
    0
370
   -2
100
AcDbTrace
 10
18.99059595676382
 20
-2.950000000000001
 30
0
 11
18.82408209365468
 21
-1.950000000000001
 31
0
 12
19.15710981987296
 22
-1.950000000000001
 32
0
 13
19.15710981987296
 23
-1.950000000000001
 33
0
  0
MTEXT
  5
BE
100
AcDbEntity
  8
dimensioning
  6
CONTINUOUS
 62
    0
370
   -2
100
AcDbMText
 10
17.86559595676382
 20
1.95
 30
0
 40
1
 41
2.333333333333395
 71
    5
 72
    1
  1
9.80
  7
standard
210
0
220
0
230
1
 50
90
 73
    2
 44
1
  0
LINE
  5
BF
100
AcDbEntity
  8
dimensioning
  6
ByBlock
 62
    0
370
   -2
100
AcDbLine
 10
13.255
 20
6.850000000000001
 11
20.24059595676382
 21
6.850000000000001
  0
LINE
  5
C0
100
AcDbEntity
  8
dimensioning
  6
ByBlock
 62
    0
370
   -2
100
AcDbLine
 10
13.255
 20
-2.95
 11
20.24059595676382
 21
-2.950000000000001
  0
ENDBLK
  5
6C
330
6A
100
AcDbEntity
  8
0
100
AcDbBlockEnd
  0
BLOCK
  5
6E
330
6D
100
AcDbEntity
  8
0
100
AcDbBlockBegin
  2
*D4
 70
    1
 10
0
 20
0
  3
*D4
  1

  0
LINE
  5
C1
100
AcDbEntity
  8
dimensioning
  6
ByBlock
 62
    0
370
   -2
100
AcDbLine
 10
-7.859999999999996
 20
-6.4
 11
-35.50000000000001
 21
-6.4
  0
SOLID
  5
C2
100
AcDbEntity
  8
dimensioning
  6
ByBlock
 62
    0
370
   -2
100
AcDbTrace
 10
-7.859999999999996
 20
-6.4
 30
0
 11
-8.859999999999996
 21
-6.566513863109137
 31
0
 12
-8.859999999999996
 22
-6.233486136890864
 32
0
 13
-8.859999999999996
 23
-6.233486136890864
 33
0
  0
SOLID
  5
C3
100
AcDbEntity
  8
dimensioning
  6
ByBlock
 62
    0
370
   -2
100
AcDbTrace
 10
-35.50000000000001
 20
-6.4
 30
0
 11
-34.50000000000001
 21
-6.233486136890864
 31
0
 12
-34.50000000000001
 22
-6.566513863109137
 32
0
 13
-34.50000000000001
 23
-6.566513863109137
 33
0
  0
MTEXT
  5
C4
100
AcDbEntity
  8
dimensioning
  6
CONTINUOUS
 62
    0
370
   -2
100
AcDbMText
 10
-21.68
 20
-5.275
 30
0
 40
1
 41
3.222222222222284
 71
    5
 72
    1
  1
27.64
  7
standard
210
0
220
0
230
1
 50
360
 73
    2
 44
1
  0
LINE
  5
C5
100
AcDbEntity
  8
dimensioning
  6
ByBlock
 62
    0
370
   -2
100
AcDbLine
 10
-7.859999999999999
 20
-3.625
 11
-7.859999999999994
 21
-7.65
  0
LINE
  5
C6
100
AcDbEntity
  8
dimensioning
  6
ByBlock
 62
    0
370
   -2
100
AcDbLine
 10
-35.50000000000001
 20
-3.625
 11
-35.50000000000001
 21
-7.65
  0
ENDBLK
  5
6F
330
6D
100
AcDbEntity
  8
0
100
AcDbBlockEnd
  0
BLOCK
  5
71
330
70
100
AcDbEntity
  8
0
100
AcDbBlockBegin
  2
*D8
 70
    1
 10
0
 20
0
  3
*D8
  1

  0
LINE
  5
C7
100
AcDbEntity
  8
dimensioning
  6
ByBlock
 62
    0
370
   -2
100
AcDbLine
 10
-40.41146067731795
 20
-2.999999999999998
 11
-40.41146067731795
 21
-12.15
  0
SOLID
  5
C8
100
AcDbEntity
  8
dimensioning
  6
ByBlock
 62
    0
370
   -2
100
AcDbTrace
 10
-40.41146067731795
 20
-2.999999999999998
 30
0
 11
-40.24494681420881
 21
-3.999999999999998
 31
0
 12
-40.57797454042709
 22
-3.999999999999998
 32
0
 13
-40.57797454042709
 23
-3.999999999999998
 33
0
  0
SOLID
  5
C9
100
AcDbEntity
  8
dimensioning
  6
ByBlock
 62
    0
370
   -2
100
AcDbTrace
 10
-40.41146067731795
 20
-12.15
 30
0
 11
-40.57797454042709
 21
-11.15
 31
0
 12
-40.24494681420881
 22
-11.15
 32
0
 13
-40.24494681420881
 23
-11.15
 33
0
  0
MTEXT
  5
CA
100
AcDbEntity
  8
dimensioning
  6
CONTINUOUS
 62
    0
370
   -2
100
AcDbMText
 10
-41.53646067731795
 20
-7.574999999999998
 30
0
 40
1
 41
2.111111111111235
 71
    5
 72
    1
  1
9.15
  7
standard
210
0
220
0
230
1
 50
90
 73
    2
 44
1
  0
LINE
  5
CB
100
AcDbEntity
  8
dimensioning
  6
ByBlock
 62
    0
370
   -2
100
AcDbLine
 10
-8.484999999999999
 20
-3
 11
-41.66146067731795
 21
-2.999999999999998
  0
LINE
  5
CC
100
AcDbEntity
  8
dimensioning
  6
ByBlock
 62
    0
370
   -2
100
AcDbLine
 10
-8.493451084412822
 20
-12.15
 11
-41.66146067731795
 21
-12.15
  0
ENDBLK
  5
72
330
70
100
AcDbEntity
  8
0
100
AcDbBlockEnd
  0
BLOCK
  5
74
330
73
100
AcDbEntity
  8
0
100
AcDbBlockBegin
  2
*D10
 70
    1
 10
0
 20
0
  3
*D10
  1

  0
LINE
  5
CD
100
AcDbEntity
  8
dimensioning
  6
ByBlock
 62
    0
370
   -2
100
AcDbLine
 10
41.30902606225322
 20
-12.15
 11
41.30902606225322
 21
12.15
  0
SOLID
  5
CE
100
AcDbEntity
  8
dimensioning
  6
ByBlock
 62
    0
370
   -2
100
AcDbTrace
 10
41.30902606225322
 20
-12.15
 30
0
 11
41.14251219914408
 21
-11.15
 31
0
 12
41.47553992536236
 22
-11.15
 32
0
 13
41.47553992536236
 23
-11.15
 33
0
  0
SOLID
  5
CF
100
AcDbEntity
  8
dimensioning
  6
ByBlock
 62
    0
370
   -2
100
AcDbTrace
 10
41.30902606225322
 20
12.15
 30
0
 11
41.47553992536236
 21
11.15
 31
0
 12
41.14251219914408
 22
11.15
 32
0
 13
41.14251219914408
 23
11.15
 33
0
  0
MTEXT
  5
D0
100
AcDbEntity
  8
dimensioning
  6
CONTINUOUS
 62
    0
370
   -2
100
AcDbMText
 10
40.18402606225322
 20
1.377727649040772e-16
 30
0
 40
1
 41
3.222222222222284
 71
    5
 72
    1
  1
24.30
  7
standard
210
0
220
0
230
1
 50
90
 73
    2
 44
1
  0
LINE
  5
D1
100
AcDbEntity
  8
dimensioning
  6
ByBlock
 62
    0
370
   -2
100
AcDbLine
 10
31.12499936920374
 20
-12.15
 11
42.55902606225322
 21
-12.15
  0
LINE
  5
D2
100
AcDbEntity
  8
dimensioning
  6
ByBlock
 62
    0
370
   -2
100
AcDbLine
 10
31.12499932565042
 20
12.15
 11
42.55902606225322
 21
12.15
  0
ENDBLK
  5
75
330
73
100
AcDbEntity
  8
0
100
AcDbBlockEnd
  0
BLOCK
  5
77
330
76
100
AcDbEntity
  8
0
100
AcDbBlockBegin
  2
*D12
 70
    1
 10
0
 20
0
  3
*D12
  1

  0
LINE
  5
D3
100
AcDbEntity
  8
v1.0
  6
ByBlock
 62
    0
370
   -2
100
AcDbLine
 10
4.31
 20
5.347497906312407
 11
14.67
 21
5.347497906312407
  0
SOLID
  5
D4
100
AcDbEntity
  8
v1.0
  6
ByBlock
 62
    0
370
   -2
100
AcDbTrace
 10
4.31
 20
5.347497906312407
 30
0
 11
5.31
 21
5.514011769421543
 31
0
 12
5.31
 22
5.180984043203271
 32
0
 13
5.31
 23
5.180984043203271
 33
0
  0
SOLID
  5
D5
100
AcDbEntity
  8
v1.0
  6
ByBlock
 62
    0
370
   -2
100
AcDbTrace
 10
14.67
 20
5.347497906312407
 30
0
 11
13.67
 21
5.180984043203271
 31
0
 12
13.67
 22
5.514011769421543
 32
0
 13
13.67
 23
5.514011769421543
 33
0
  0
MTEXT
  5
D6
100
AcDbEntity
  8
v1.0
  6
CONTINUOUS
 62
    0
370
   -2
100
AcDbMText
 10
9.49
 20
6.472497906312407
 30
0
 40
1
 41
2.888888888889013
 71
    5
 72
    1
  1
10.36
  7
standard
210
0
220
0
230
1
 50
0
 73
    2
 44
1
  0
LINE
  5
D7
100
AcDbEntity
  8
v1.0
  6
ByBlock
 62
    0
370
   -2
100
AcDbLine
 10
4.31
 20
3.155
 11
4.31
 21
6.597497906312407
  0
LINE
  5
D8
100
AcDbEntity
  8
v1.0
  6
ByBlock
 62
    0
370
   -2
100
AcDbLine
 10
14.67
 20
3.155
 11
14.67
 21
6.597497906312407
  0
ENDBLK
  5
78
330
76
100
AcDbEntity
  8
0
100
AcDbBlockEnd
  0
BLOCK
  5
7A
330
79
100
AcDbEntity
  8
0
100
AcDbBlockBegin
  2
Front Panel
 70
    0
 10
0
 20
0
  3
Front Panel
  1

  0
ARC
  5
D9
100
AcDbEntity
  8
0
  6
ByBlock
 62
  256
370
   -1
100
AcDbCircle
 10
-29.5
 20
11.15
 40
1
100
AcDbArc
 50
90
 51
180
  0
ARC
  5
DA
100
AcDbEntity
  8
0
  6
ByBlock
 62
  256
370
   -1
100
AcDbCircle
 10
29.5
 20
11.15
 40
1
100
AcDbArc
 50
2.035554996136651e-13
 51
90
  0
ARC
  5
DB
100
AcDbEntity
  8
0
  6
ByBlock
 62
  256
370
   -1
100
AcDbCircle
 10
29.5
 20
-11.15
 40
1
100
AcDbArc
 50
270
 51
0
  0
ARC
  5
DC
100
AcDbEntity
  8
0
  6
ByBlock
 62
  256
370
   -1
100
AcDbCircle
 10
-29.5
 20
-11.15
 40
1
100
AcDbArc
 50
180.0000000000002
 51
270
  0
LINE
  5
DD
100
AcDbEntity
  8
0
  6
ByBlock
 62
  256
370
   -1
100
AcDbLine
 10
-30.5
 20
11.15
 11
-30.5
 21
-11.15
  0
LINE
  5
DE
100
AcDbEntity
  8
0
  6
ByBlock
 62
  256
370
   -1
100
AcDbLine
 10
29.5
 20
12.15
 11
-29.5
 21
12.15
  0
LINE
  5
DF
100
AcDbEntity
  8
0
  6
ByBlock
 62
  256
370
   -1
100
AcDbLine
 10
30.5
 20
-11.14999976158142
 11
30.5
 21
11.14999952316284
  0
LINE
  5
E0
100
AcDbEntity
  8
0
  6
ByBlock
 62
  256
370
   -1
100
AcDbLine
 10
30.5
 20
-11.14999952316285
 11
30.5
 21
11.15
  0
LINE
  5
E1
100
AcDbEntity
  8
0
  6
ByBlock
 62
  256
370
   -1
100
AcDbLine
 10
30.5
 20
-11.14999976158142
 11
30.5
 21
11.14999952316284
  0
LINE
  5
E2
100
AcDbEntity
  8
0
  6
ByBlock
 62
  256
370
   -1
100
AcDbLine
 10
29.5
 20
12.15
 11
-29.49999966282522
 21
12.15
  0
LINE
  5
E3
100
AcDbEntity
  8
0
  6
ByBlock
 62
  256
370
   -1
100
AcDbLine
 10
29.49999952316284
 20
12.15
 11
-29.49999976158142
 21
12.15
  0
LINE
  5
E4
100
AcDbEntity
  8
0
  6
ByBlock
 62
  256
370
   -1
100
AcDbLine
 10
-30.5
 20
11.14999928474426
 11
-30.5
 21
-11.15
  0
LINE
  5
E5
100
AcDbEntity
  8
0
  6
ByBlock
 62
  256
370
   -1
100
AcDbLine
 10
-30.5
 20
11.14999976158142
 11
-30.5
 21
-11.14999952316284
  0
LINE
  5
E6
100
AcDbEntity
  8
0
  6
ByBlock
 62
  256
370
   -1
100
AcDbLine
 10
-29.49999952316285
 20
-12.15000000000001
 11
29.49999976158141
 21
-12.15
  0
LINE
  5
E7
100
AcDbEntity
  8
0
  6
ByBlock
 62
  256
370
   -1
100
AcDbLine
 10
-29.49999952316285
 20
-12.15
 11
29.49999936920377
 21
-12.15
  0
LINE
  5
E8
100
AcDbEntity
  8
0
  6
ByBlock
 62
  256
370
   -1
100
AcDbLine
 10
-12.904
 20
-0.5500000000000007
 11
-4.204
 21
-0.5500000000000007
  0
LINE
  5
E9
100
AcDbEntity
  8
0
  6
ByBlock
 62
  256
370
   -1
100
AcDbLine
 10
-4.204
 20
-0.5500000000000007
 11
-4.204
 21
4.400000000000002
  0
LINE
  5
EA
100
AcDbEntity
  8
0
  6
ByBlock
 62
  256
370
   -1
100
AcDbLine
 10
-4.204
 20
4.400000000000002
 11
-12.904
 21
4.400000000000002
  0
LINE
  5
EB
100
AcDbEntity
  8
0
  6
ByBlock
 62
  256
370
   -1
100
AcDbLine
 10
-12.904
 20
4.400000000000002
 11
-12.904
 21
-0.5500000000000007
  0
LINE
  5
EC
100
AcDbEntity
  8
0
  6
ByLayer
 62
  256
370
   -1
100
AcDbLine
 10
4.349
 20
-2.350000000000001
 11
8.349
 21
-2.350000000000001
  0
LINE
  5
ED
100
AcDbEntity
  8
0
  6
ByLayer
 62
  256
370
   -1
100
AcDbLine
 10
8.349
 20
-2.350000000000001
 11
8.349
 21
3.150000000000002
  0
LINE
  5
EE
100
AcDbEntity
  8
0
  6
ByLayer
 62
  256
370
   -1
100
AcDbLine
 10
8.349
 20
3.150000000000002
 11
4.349
 21
3.150000000000002
  0
LINE
  5
EF
100
AcDbEntity
  8
0
  6
ByLayer
 62
  256
370
   -1
100
AcDbLine
 10
4.349
 20
3.150000000000002
 11
4.349
 21
-2.350000000000001
  0
LINE
  5
F0
100
AcDbEntity
  8
0
  6
ByLayer
 62
  256
370
   -1
100
AcDbLine
 10
8.901999999999999
 20
-2.350000000000001
 11
12.902
 21
-2.350000000000001
  0
LINE
  5
F1
100
AcDbEntity
  8
0
  6
ByLayer
 62
  256
370
   -1
100
AcDbLine
 10
12.902
 20
-2.350000000000001
 11
12.902
 21
3.150000000000002
  0
LINE
  5
F2
100
AcDbEntity
  8
0
  6
ByLayer
 62
  256
370
   -1
100
AcDbLine
 10
12.902
 20
3.150000000000002
 11
8.901999999999999
 21
3.150000000000002
  0
LINE
  5
F3
100
AcDbEntity
  8
0
  6
ByLayer
 62
  256
370
   -1
100
AcDbLine
 10
8.901999999999999
 20
3.150000000000002
 11
8.901999999999999
 21
-2.350000000000001
  0
ENDBLK
  5
7B
330
79
100
AcDbEntity
  8
0
100
AcDbBlockEnd
  0
BLOCK
  5
7D
330
7C
100
AcDbEntity
  8
0
100
AcDbBlockBegin
  2
Front Panel-0
 70
    0
 10
0
 20
0
  3
Front Panel-0
  1

  0
ARC
  5
F4
100
AcDbEntity
  8
0
  6
ByBlock
 62
  256
370
   -1
100
AcDbCircle
 10
-29.5
 20
11.15
 40
1
100
AcDbArc
 50
90
 51
180
  0
ARC
  5
F5
100
AcDbEntity
  8
0
  6
ByBlock
 62
  256
370
   -1
100
AcDbCircle
 10
29.5
 20
11.15
 40
1
100
AcDbArc
 50
2.035554996136651e-13
 51
90
  0
ARC
  5
F6
100
AcDbEntity
  8
0
  6
ByBlock
 62
  256
370
   -1
100
AcDbCircle
 10
29.5
 20
-11.15
 40
1
100
AcDbArc
 50
270
 51
0
  0
ARC
  5
F7
100
AcDbEntity
  8
0
  6
ByBlock
 62
  256
370
   -1
100
AcDbCircle
 10
-29.5
 20
-11.15
 40
1
100
AcDbArc
 50
180.0000000000002
 51
270
  0
LINE
  5
F8
100
AcDbEntity
  8
0
  6
ByBlock
 62
  256
370
   -1
100
AcDbLine
 10
-30.5
 20
11.15
 11
-30.5
 21
-11.15
  0
LINE
  5
F9
100
AcDbEntity
  8
0
  6
ByBlock
 62
  256
370
   -1
100
AcDbLine
 10
29.5
 20
12.15
 11
-29.5
 21
12.15
  0
LINE
  5
FA
100
AcDbEntity
  8
0
  6
ByBlock
 62
  256
370
   -1
100
AcDbLine
 10
30.5
 20
-11.14999976158142
 11
30.5
 21
11.14999952316284
  0
LINE
  5
FB
100
AcDbEntity
  8
0
  6
ByBlock
 62
  256
370
   -1
100
AcDbLine
 10
30.5
 20
-11.14999952316285
 11
30.5
 21
11.15
  0
LINE
  5
FC
100
AcDbEntity
  8
0
  6
ByBlock
 62
  256
370
   -1
100
AcDbLine
 10
30.5
 20
-11.14999976158142
 11
30.5
 21
11.14999952316284
  0
LINE
  5
FD
100
AcDbEntity
  8
0
  6
ByBlock
 62
  256
370
   -1
100
AcDbLine
 10
29.5
 20
12.15
 11
-29.49999966282522
 21
12.15
  0
LINE
  5
FE
100
AcDbEntity
  8
0
  6
ByBlock
 62
  256
370
   -1
100
AcDbLine
 10
29.49999952316284
 20
12.15
 11
-29.49999976158142
 21
12.15
  0
LINE
  5
FF
100
AcDbEntity
  8
0
  6
ByBlock
 62
  256
370
   -1
100
AcDbLine
 10
-30.5
 20
11.14999928474426
 11
-30.5
 21
-11.15
  0
LINE
  5
100
100
AcDbEntity
  8
0
  6
ByBlock
 62
  256
370
   -1
100
AcDbLine
 10
-30.5
 20
11.14999976158142
 11
-30.5
 21
-11.14999952316284
  0
LINE
  5
101
100
AcDbEntity
  8
0
  6
ByBlock
 62
  256
370
   -1
100
AcDbLine
 10
-29.49999952316285
 20
-12.15000000000001
 11
29.49999976158141
 21
-12.15
  0
LINE
  5
102
100
AcDbEntity
  8
0
  6
ByBlock
 62
  256
370
   -1
100
AcDbLine
 10
-29.49999952316285
 20
-12.15
 11
29.49999936920377
 21
-12.15
  0
LINE
  5
103
100
AcDbEntity
  8
0
  6
ByBlock
 62
  256
370
   -1
100
AcDbLine
 10
-12.904
 20
-0.5500000000000007
 11
-4.204
 21
-0.5500000000000007
  0
LINE
  5
104
100
AcDbEntity
  8
0
  6
ByBlock
 62
  256
370
   -1
100
AcDbLine
 10
-4.204
 20
-0.5500000000000007
 11
-4.204
 21
4.400000000000002
  0
LINE
  5
105
100
AcDbEntity
  8
0
  6
ByBlock
 62
  256
370
   -1
100
AcDbLine
 10
-4.204
 20
4.400000000000002
 11
-12.904
 21
4.400000000000002
  0
LINE
  5
106
100
AcDbEntity
  8
0
  6
ByBlock
 62
  256
370
   -1
100
AcDbLine
 10
-12.904
 20
4.400000000000002
 11
-12.904
 21
-0.5500000000000007
  0
LINE
  5
107
100
AcDbEntity
  8
0
  6
ByLayer
 62
  256
370
   -1
100
AcDbLine
 10
4.349
 20
-2.350000000000001
 11
8.349
 21
-2.350000000000001
  0
LINE
  5
108
100
AcDbEntity
  8
0
  6
ByLayer
 62
  256
370
   -1
100
AcDbLine
 10
8.349
 20
-2.350000000000001
 11
8.349
 21
3.150000000000002
  0
LINE
  5
109
100
AcDbEntity
  8
0
  6
ByLayer
 62
  256
370
   -1
100
AcDbLine
 10
8.349
 20
3.150000000000002
 11
4.349
 21
3.150000000000002
  0
LINE
  5
10A
100
AcDbEntity
  8
0
  6
ByLayer
 62
  256
370
   -1
100
AcDbLine
 10
4.349
 20
3.150000000000002
 11
4.349
 21
-2.350000000000001
  0
LINE
  5
10B
100
AcDbEntity
  8
0
  6
ByLayer
 62
  256
370
   -1
100
AcDbLine
 10
8.901999999999999
 20
-2.350000000000001
 11
12.902
 21
-2.350000000000001
  0
LINE
  5
10C
100
AcDbEntity
  8
0
  6
ByLayer
 62
  256
370
   -1
100
AcDbLine
 10
12.902
 20
-2.350000000000001
 11
12.902
 21
3.150000000000002
  0
LINE
  5
10D
100
AcDbEntity
  8
0
  6
ByLayer
 62
  256
370
   -1
100
AcDbLine
 10
12.902
 20
3.150000000000002
 11
8.901999999999999
 21
3.150000000000002
  0
LINE
  5
10E
100
AcDbEntity
  8
0
  6
ByLayer
 62
  256
370
   -1
100
AcDbLine
 10
8.901999999999999
 20
3.150000000000002
 11
8.901999999999999
 21
-2.350000000000001
  0
ENDBLK
  5
7E
330
7C
100
AcDbEntity
  8
0
100
AcDbBlockEnd
  0
BLOCK
  5
80
330
7F
100
AcDbEntity
  8
0
100
AcDbBlockBegin
  2
Rear Panel
 70
    0
 10
0
 20
0
  3
Rear Panel
  1

  0
LINE
  5
10F
100
AcDbEntity
  8
0
  6
ByBlock
 62
  256
370
   -1
100
AcDbLine
 10
-14.755
 20
-2.6
 11
-0.965
 21
-2.6
  0
LINE
  5
110
100
AcDbEntity
  8
0
  6
ByBlock
 62
  256
370
   -1
100
AcDbLine
 10
-0.965
 20
-2.6
 11
-0.965
 21
10.67
  0
LINE
  5
111
100
AcDbEntity
  8
0
  6
ByBlock
 62
  256
370
   -1
100
AcDbLine
 10
-0.965
 20
10.67
 11
-14.755
 21
10.67
  0
LINE
  5
112
100
AcDbEntity
  8
0
  6
ByBlock
 62
  256
370
   -1
100
AcDbLine
 10
-14.755
 20
10.67
 11
-14.755
 21
-2.6
  0
LINE
  5
113
100
AcDbEntity
  8
0
  6
ByBlock
 62
  256
370
   -1
100
AcDbLine
 10
4.41
 20
-2.35
 11
15.57
 21
-2.35
  0
LINE
  5
114
100
AcDbEntity
  8
0
  6
ByBlock
 62
  256
370
   -1
100
AcDbLine
 10
15.57
 20
-2.35
 11
15.57
 21
3.73
  0
LINE
  5
115
100
AcDbEntity
  8
0
  6
ByBlock
 62
  256
370
   -1
100
AcDbLine
 10
15.57
 20
3.73
 11
4.41
 21
3.73
  0
LINE
  5
116
100
AcDbEntity
  8
0
  6
ByBlock
 62
  256
370
   -1
100
AcDbLine
 10
4.41
 20
3.73
 11
4.41
 21
-2.35
  0
ARC
  5
117
100
AcDbEntity
  8
0
  6
ByLayer
 62
  256
370
   -1
100
AcDbCircle
 10
34.5
 20
11.15
 40
1
100
AcDbArc
 50
2.035554996136651e-13
 51
90
  0
ARC
  5
118
100
AcDbEntity
  8
0
  6
ByLayer
 62
  256
370
   -1
100
AcDbCircle
 10
34.5
 20
-11.15
 40
1
100
AcDbArc
 50
270
 51
0
  0
ARC
  5
119
100
AcDbEntity
  8
0
  6
ByLayer
 62
  256
370
   -1
100
AcDbCircle
 10
-34.5
 20
11.15
 40
1
100
AcDbArc
 50
90
 51
180
  0
ARC
  5
11A
100
AcDbEntity
  8
0
  6
ByLayer
 62
  256
370
   -1
100
AcDbCircle
 10
-34.5
 20
-11.15
 40
1
100
AcDbArc
 50
180.0000000000002
 51
269.9999613626156
  0
LINE
  5
11B
100
AcDbEntity
  8
0
  6
ByLayer
 62
  256
370
   -1
100
AcDbLine
 10
34.49999932565042
 20
12.15
 11
-34.5
 21
12.15
  0
LINE
  5
11C
100
AcDbEntity
  8
0
  6
ByLayer
 62
  256
370
   -1
100
AcDbLine
 10
35.5
 20
-11.14999966282521
 11
35.5
 21
11.15000067434958
  0
LINE
  5
11D
100
AcDbEntity
  8
0
  6
ByLayer
 62
  256
370
   -1
100
AcDbLine
 10
-34.5
 20
-12.15
 11
34.49999941599614
 21
-12.15
  0
LINE
  5
11E
100
AcDbEntity
  8
0
  6
ByLayer
 62
  256
370
   -1
100
AcDbLine
 10
-35.5
 20
11.15
 11
-35.5
 21
-11.14999932565044
  0
ENDBLK
  5
81
330
7F
100
AcDbEntity
  8
0
100
AcDbBlockEnd
  0
BLOCK
  5
83
330
82
100
AcDbEntity
  8
0
100
AcDbBlockBegin
  2
Front Panel-1
 70
    0
 10
0
 20
0
  3
Front Panel-1
  1

  0
LINE
  5
11F
100
AcDbEntity
  8
0
  6
ByBlock
 62
  256
370
   -1
100
AcDbLine
 10
-12.904
 20
-0.5499999999999972
 11
-4.204
 21
-0.5499999999999972
  0
LINE
  5
120
100
AcDbEntity
  8
0
  6
ByBlock
 62
  256
370
   -1
100
AcDbLine
 10
-4.204
 20
-0.5499999999999972
 11
-4.204
 21
4.399999999999999
  0
LINE
  5
121
100
AcDbEntity
  8
0
  6
ByBlock
 62
  256
370
   -1
100
AcDbLine
 10
-4.204
 20
4.399999999999999
 11
-12.904
 21
4.399999999999999
  0
LINE
  5
122
100
AcDbEntity
  8
0
  6
ByBlock
 62
  256
370
   -1
100
AcDbLine
 10
-12.904
 20
4.399999999999999
 11
-12.904
 21
-0.5499999999999972
  0
LINE
  5
123
100
AcDbEntity
  8
0
  6
ByLayer
 62
  256
370
   -1
100
AcDbLine
 10
4.349
 20
-2.350000000000001
 11
8.349
 21
-2.350000000000001
  0
LINE
  5
124
100
AcDbEntity
  8
0
  6
ByLayer
 62
  256
370
   -1
100
AcDbLine
 10
8.901999999999999
 20
-2.350000000000001
 11
12.902
 21
-2.350000000000001
  0
ARC
  5
125
100
AcDbEntity
  8
0
  6
ByLayer
 62
  256
370
   -1
100
AcDbCircle
 10
34.5
 20
-11.15
 40
1
100
AcDbArc
 50
270
 51
0
  0
ARC
  5
126
100
AcDbEntity
  8
0
  6
ByLayer
 62
  256
370
   -1
100
AcDbCircle
 10
-34.5
 20
11.15
 40
1
100
AcDbArc
 50
90
 51
180
  0
ARC
  5
127
100
AcDbEntity
  8
0
  6
ByLayer
 62
  256
370
   -1
100
AcDbCircle
 10
-34.5
 20
-11.15
 40
1
100
AcDbArc
 50
180.0000000000002
 51
270
  0
ARC
  5
128
100
AcDbEntity
  8
0
  6
ByLayer
 62
  256
370
   -1
100
AcDbCircle
 10
34.5
 20
11.15
 40
1
100
AcDbArc
 50
2.035554996136651e-13
 51
90
  0
LINE
  5
129
100
AcDbEntity
  8
0
  6
ByLayer
 62
  256
370
   -1
100
AcDbLine
 10
35.5
 20
-11.14999966282522
 11
35.5
 21
11.1499990463257
  0
LINE
  5
12A
100
AcDbEntity
  8
0
  6
ByLayer
 62
  256
370
   -1
100
AcDbLine
 10
-34.5
 20
-12.15
 11
34.49999976158142
 21
-12.15
  0
LINE
  5
12B
100
AcDbEntity
  8
0
  6
ByLayer
 62
  256
370
   -1
100
AcDbLine
 10
-35.5
 20
11.14999966282522
 11
-35.5
 21
-11.1499990463257
  0
LINE
  5
12C
100
AcDbEntity
  8
0
  6
ByLayer
 62
  256
370
   -1
100
AcDbLine
 10
34.49999932565042
 20
12.15
 11
-34.49999976158142
 21
12.15
  0
LINE
  5
12D
100
AcDbEntity
  8
0
  6
ByLayer
 62
  256
370
   -1
100
AcDbLine
 10
4.199
 20
-2.350000000000001
 11
8.499000000000001
 21
-2.350000000000001
  0
LINE
  5
12E
100
AcDbEntity
  8
0
  6
ByLayer
 62
  256
370
   -1
100
AcDbLine
 10
8.499000000000001
 20
-2.350000000000001
 11
8.499000000000001
 21
3.450000000000003
  0
LINE
  5
12F
100
AcDbEntity
  8
0
  6
ByLayer
 62
  256
370
   -1
100
AcDbLine
 10
8.499000000000001
 20
3.450000000000003
 11
4.199
 21
3.450000000000003
  0
LINE
  5
130
100
AcDbEntity
  8
0
  6
ByLayer
 62
  256
370
   -1
100
AcDbLine
 10
4.199
 20
3.450000000000003
 11
4.199
 21
-2.350000000000001
  0
LINE
  5
131
100
AcDbEntity
  8
0
  6
ByLayer
 62
  256
370
   -1
100
AcDbLine
 10
8.752000000000001
 20
-2.350000000000001
 11
13.052
 21
-2.350000000000001
  0
LINE
  5
132
100
AcDbEntity
  8
0
  6
ByLayer
 62
  256
370
   -1
100
AcDbLine
 10
13.052
 20
-2.350000000000001
 11
13.052
 21
3.450000000000003
  0
LINE
  5
133
100
AcDbEntity
  8
0
  6
ByLayer
 62
  256
370
   -1
100
AcDbLine
 10
13.052
 20
3.450000000000003
 11
8.752000000000001
 21
3.450000000000003
  0
LINE
  5
134
100
AcDbEntity
  8
0
  6
ByLayer
 62
  256
370
   -1
100
AcDbLine
 10
8.752000000000001
 20
3.450000000000003
 11
8.752000000000001
 21
-2.350000000000001
  0
ENDBLK
  5
84
330
82
100
AcDbEntity
  8
0
100
AcDbBlockEnd
  0
ENDSEC
  0
SECTION
  2
ENTITIES
  0
ARC
  5
135
100
AcDbEntity
  8
0
  6
ByLayer
 62
  256
370
   -1
100
AcDbCircle
 10
34.5
 20
11.15
 40
1
100
AcDbArc
 50
2.035554996136651e-13
 51
90
  0
ARC
  5
136
100
AcDbEntity
  8
0
  6
ByLayer
 62
  256
370
   -1
100
AcDbCircle
 10
34.5
 20
-11.15
 40
1
100
AcDbArc
 50
270
 51
0
  0
ARC
  5
137
100
AcDbEntity
  8
0
  6
ByLayer
 62
  256
370
   -1
100
AcDbCircle
 10
-34.5
 20
11.15
 40
1
100
AcDbArc
 50
90
 51
180
  0
ARC
  5
138
100
AcDbEntity
  8
0
  6
ByLayer
 62
  256
370
   -1
100
AcDbCircle
 10
-34.5
 20
-11.15
 40
1
100
AcDbArc
 50
180.0000000000002
 51
269.9999613626156
  0
LINE
  5
139
100
AcDbEntity
  8
0
  6
ByLayer
 62
  256
370
   -1
100
AcDbLine
 10
34.49999932565042
 20
12.15
 11
-34.5
 21
12.15
  0
LINE
  5
13A
100
AcDbEntity
  8
0
  6
ByLayer
 62
  256
370
   -1
100
AcDbLine
 10
35.5
 20
-11.14999966282521
 11
35.5
 21
11.15000067434958
  0
LINE
  5
13B
100
AcDbEntity
  8
0
  6
ByLayer
 62
  256
370
   -1
100
AcDbLine
 10
-34.5
 20
-12.15
 11
34.49999941599614
 21
-12.15
  0
LINE
  5
13C
100
AcDbEntity
  8
0
  6
ByLayer
 62
  256
370
   -1
100
AcDbLine
 10
-35.5
 20
11.15
 11
-35.5
 21
-11.14999932565044
  0
DIMENSION
  5
13D
100
AcDbEntity
  8
dimensioning
  6
ByLayer
 62
  256
370
   -1
100
AcDbDimension
  2
*D1
 10
35.5
 20
-17
 30
0
 11
6.888638245203862e-17
 21
-15.875
 31
0
 70
   32
 71
    5
 72
    0
  3
Standard
 53
0
210
0
220
0
230
1
100
AcDbAlignedDimension
 13
-35.5
 23
-11.15
 33
0
 14
35.5
 24
-11.14999966282521
 34
0
100
AcDbRotatedDimension
  0
LINE
  5
13E
100
AcDbEntity
  8
v1.0
  6
ByBlock
 62
  256
370
   -1
100
AcDbLine
 10
4.41
 20
-2.35
 11
15.57
 21
-2.35
  0
LINE
  5
13F
100
AcDbEntity
  8
v1.0
  6
ByBlock
 62
  256
370
   -1
100
AcDbLine
 10
15.57
 20
-2.35
 11
15.57
 21
3.73
  0
LINE
  5
140
100
AcDbEntity
  8
v1.0
  6
ByBlock
 62
  256
370
   -1
100
AcDbLine
 10
15.57
 20
3.73
 11
4.41
 21
3.73
  0
LINE
  5
141
100
AcDbEntity
  8
v1.0
  6
ByBlock
 62
  256
370
   -1
100
AcDbLine
 10
4.41
 20
3.73
 11
4.41
 21
-2.35
  0
DIMENSION
  5
142
100
AcDbEntity
  8
v1.0
  6
ByLayer
 62
  256
370
   -1
100
AcDbDimension
  2
*D2
 10
15.57
 20
8
 30
0
 11
9.99
 21
9.125
 31
0
 70
   32
 71
    5
 72
    0
  3
Standard
 53
0
210
0
220
0
230
1
100
AcDbAlignedDimension
 13
4.41
 23
3.73
 33
0
 14
15.57
 24
3.73
 34
0
100
AcDbRotatedDimension
  0
DIMENSION
  5
143
100
AcDbEntity
  8
v1.0
  6
ByLayer
 62
  256
370
   -1
100
AcDbDimension
  2
*D3
 10
19
 20
-2.350000000000001
 30
0
 11
17.875
 21
0.6900000000000003
 31
0
 70
   32
 71
    5
 72
    0
  3
Standard
 53
0
210
0
220
0
230
1
100
AcDbAlignedDimension
 13
15.57
 23
3.73
 33
0
 14
15.57
 24
-2.35
 34
0
 50
90
100
AcDbRotatedDimension
  0
DIMENSION
  5
144
100
AcDbEntity
  8
dimensioning
  6
ByLayer
 62
  256
370
   -1
100
AcDbDimension
  2
*D4
 10
-35.50000000000001
 20
-6.4
 30
0
 11
-21.68
 21
-5.275
 31
0
 70
   32
 71
    5
 72
    0
  3
Standard
 53
0
210
0
220
0
230
1
100
AcDbAlignedDimension
 13
-7.86
 23
-3
 33
0
 14
-35.50000000000001
 24
-3
 34
0
100
AcDbRotatedDimension
  0
LINE
  5
145
100
AcDbEntity
  8
0
  6
ByLayer
 62
  256
370
   -1
100
AcDbLine
 10
-1.06
 20
-3
 11
-1.06
 21
10.08
  0
LINE
  5
146
100
AcDbEntity
  8
0
  6
ByLayer
 62
  256
370
   -1
100
AcDbLine
 10
-1.06
 20
10.08
 11
-14.66
 21
10.08
  0
LINE
  5
147
100
AcDbEntity
  8
0
  6
ByLayer
 62
  256
370
   -1
100
AcDbLine
 10
-14.66
 20
10.08
 11
-14.66
 21
-3
  0
LINE
  5
148
100
AcDbEntity
  8
0
  6
ByLayer
 62
  256
370
   -1
100
AcDbLine
 10
-14.66
 20
-3
 11
-7.86
 21
-3
  0
DIMENSION
  5
149
100
AcDbEntity
  8
dimensioning
  6
ByLayer
 62
  256
370
   -1
100
AcDbDimension
  2
*D5
 10
-1.06
 20
13.66640316205555
 30
0
 11
-7.86
 21
14.79140316205555
 31
0
 70
   32
 71
    5
 72
    0
  3
Standard
 53
0
210
0
220
0
230
1
100
AcDbAlignedDimension
 13
-14.66
 23
10.08
 33
0
 14
-1.06
 24
10.08
 34
0
100
AcDbRotatedDimension
  0
DIMENSION
  5
14A
100
AcDbEntity
  8
dimensioning
  6
ByLayer
 62
  256
370
   -1
100
AcDbDimension
  2
*D6
 10
-17.41284584980264
 20
-2.999999999999999
 30
0
 11
-18.53784584980264
 21
3.539999999999999
 31
0
 70
   32
 71
    5
 72
    0
  3
Standard
 53
0
210
0
220
0
230
1
100
AcDbAlignedDimension
 13
-14.66
 23
10.08
 33
0
 14
-14.66
 24
-3
 34
0
 50
90
100
AcDbRotatedDimension
  0
DIMENSION
  5
14B
100
AcDbEntity
  8
dimensioning
  6
ByLayer
 62
  256
370
   -1
100
AcDbDimension
  2
*D7
 10
-35.49648998163695
 20
-9.712206156085459
 30
0
 11
-13.00324499081847
 21
-8.587206156085459
 31
0
 70
   32
 71
    5
  3
Standard
 53
0
210
0
220
0
230
1
100
AcDbAlignedDimension
 13
9.49
 23
-2.95
 33
0
 14
-35.49648998163695
 24
-2.948850389388925
 34
0
100
AcDbRotatedDimension
  0
DIMENSION
  5
14C
100
AcDbEntity
  8
dimensioning
  6
ByLayer
 62
  256
370
   -1
100
AcDbDimension
  2
*D8
 10
-40.41146067731795
 20
-12.15
 30
0
 11
-41.53646067731795
 21
-7.574999999999998
 31
0
 70
   32
 71
    5
 72
    0
  3
Standard
 53
0
210
0
220
0
230
1
100
AcDbAlignedDimension
 13
-7.86
 23
-3
 33
0
 14
-7.868451084412822
 24
-12.15
 34
0
 50
90
100
AcDbRotatedDimension
  0
DIMENSION
  5
14D
100
AcDbEntity
  8
dimensioning
  6
ByLayer
 62
  256
370
   -1
100
AcDbDimension
  2
*D9
 10
19.01142525730847
 20
-12.15
 30
0
 11
17.88642525730847
 21
-7.550000000000002
 31
0
 70
   32
 71
    5
 72
    0
  3
Standard
 53
0
210
0
220
0
230
1
100
AcDbAlignedDimension
 13
9.489999999999998
 23
-2.95
 33
0
 14
9.511335092748467
 24
-12.15
 34
0
 50
90
100
AcDbRotatedDimension
  0
LINE
  5
14E
100
AcDbEntity
  8
0
  6
ByLayer
 62
  256
370
   -1
100
AcDbLine
 10
-1.06
 20
-3
 11
-7.86
 21
-3
  0
DIMENSION
  5
14F
100
AcDbEntity
  8
dimensioning
  6
ByLayer
 62
  256
370
   -1
100
AcDbDimension
  2
*D10
 10
41.30902606225322
 20
12.15
 30
0
 11
40.18402606225322
 21
1.377727649040772e-16
 31
0
 70
   32
 71
    5
 72
    0
  3
Standard
 53
0
210
0
220
0
230
1
100
AcDbAlignedDimension
 13
30.49999936920374
 23
-12.15
 33
0
 14
30.49999932565042
 24
12.15
 34
0
 50
90
100
AcDbRotatedDimension
  0
DIMENSION
  5
150
100
AcDbEntity
  8
v1.0
  6
ByLayer
 62
  256
370
   -1
100
AcDbDimension
  2
*D11
 10
19.02544148710538
 20
-2.950000000000001
 30
0
 11
17.90044148710538
 21
-0.2100000000000005
 31
0
 70
   32
 71
    5
  3
Standard
 53
0
210
0
220
0
230
1
100
AcDbAlignedDimension
 13
14.67
 23
2.53
 33
0
 14
14.67
 24
-2.95
 34
0
 50
90
100
AcDbRotatedDimension
  0
LINE
  5
151
100
AcDbEntity
  8
v1.0
  6
ByLayer
 62
  256
370
   -1
100
AcDbLine
 10
4.31
 20
2.53
 11
14.67
 21
2.53
  0
LINE
  5
152
100
AcDbEntity
  8
v1.0
  6
ByLayer
 62
  256
370
   -1
100
AcDbLine
 10
4.31
 20
-2.95
 11
14.67
 21
-2.95
  0
LINE
  5
153
100
AcDbEntity
  8
v1.0
  6
ByLayer
 62
  256
370
   -1
100
AcDbLine
 10
4.31
 20
2.53
 11
4.31
 21
-2.95
  0
LINE
  5
154
100
AcDbEntity
  8
v1.0
  6
ByLayer
 62
  256
370
   -1
100
AcDbLine
 10
14.67
 20
2.53
 11
14.67
 21
-2.95
  0
DIMENSION
  5
155
100
AcDbEntity
  8
v1.0
  6
ByLayer
 62
  256
370
   -1
100
AcDbDimension
  2
*D12
 10
14.67
 20
5.347497906312407
 30
0
 11
9.49
 21
6.472497906312407
 31
0
 70
   32
 71
    5
  3
Standard
 53
0
210
0
220
0
230
1
100
AcDbAlignedDimension
 13
4.31
 23
2.53
 33
0
 14
14.67
 24
2.53
 34
0
100
AcDbRotatedDimension
  0
DIMENSION
  5
156
100
AcDbEntity
  8
dimensioning
  6
ByLayer
 62
  256
370
   -1
100
AcDbDimension
  2
*D13
 10
18.99059595676382
 20
-2.950000000000001
 30
0
 11
17.86559595676382
 21
1.95
 31
0
 70
   32
 71
    5
 72
    0
  3
Standard
 53
0
210
0
220
0
230
1
100
AcDbAlignedDimension
 13
12.63
 23
6.850000000000001
 33
0
 14
12.63
 24
-2.95
 34
0
 50
90
100
AcDbRotatedDimension
  0
DIMENSION
  5
157
100
AcDbEntity
  8
dimensioning
  6
ByLayer
 62
  256
370
   -1
100
AcDbDimension
  2
*D14
 10
6.349999999999999
 20
9.769200804681386
 30
0
 11
9.489999999999998
 21
10.89420080468139
 31
0
 70
   32
 71
    5
 72
    0
  3
Standard
 53
0
210
0
220
0
230
1
100
AcDbAlignedDimension
 13
12.63
 23
6.850000000000001
 33
0
 14
6.349999999999999
 24
6.850000000000001
 34
0
100
AcDbRotatedDimension
  0
LINE
  5
158
100
AcDbEntity
  8
0
  6
ByLayer
 62
  256
370
   -1
100
AcDbLine
 10
9.489999999999998
 20
-2.95
 11
12.63
 21
-2.95
  0
LINE
  5
159
100
AcDbEntity
  8
0
  6
ByLayer
 62
  256
370
   -1
100
AcDbLine
 10
12.63
 20
-2.95
 11
12.63
 21
6.850000000000001
  0
LINE
  5
15A
100
AcDbEntity
  8
0
  6
ByLayer
 62
  256
370
   -1
100
AcDbLine
 10
12.63
 20
6.850000000000001
 11
6.349999999999999
 21
6.850000000000001
  0
LINE
  5
15B
100
AcDbEntity
  8
0
  6
ByLayer
 62
  256
370
   -1
100
AcDbLine
 10
6.349999999999999
 20
6.850000000000001
 11
6.349999999999999
 21
-2.95
  0
LINE
  5
15C
100
AcDbEntity
  8
0
  6
ByLayer
 62
  256
370
   -1
100
AcDbLine
 10
6.349999999999999
 20
-2.95
 11
9.489999999999998
 21
-2.95
  0
ENDSEC
  0
SECTION
  2
OBJECTS
  0
DICTIONARY
  5
C
330
0
100
AcDbDictionary
281
    1
  3
ACAD_GROUP
350
D
  0
DICTIONARY
  5
D
330
C
100
AcDbDictionary
281
    1
  0
ENDSEC
  0
EOF
