G04 #@! TF.FileFunction,Copper,L1,Top,Signal*
%FSLAX46Y46*%
G04 Gerber Fmt 4.6, Leading zero omitted, Abs format (unit mm)*
G04 Created by KiCad (PCBNEW no-vcs-found-product) date Thu Sep 29 09:32:32 2016*
%MOMM*%
%LPD*%
G01*
G04 APERTURE LIST*
%ADD10C,0.100000*%
%ADD11R,0.600000X2.000000*%
%ADD12R,1.500000X0.600000*%
%ADD13R,1.750000X0.450000*%
%ADD14R,1.300000X1.500000*%
%ADD15R,1.500000X1.300000*%
%ADD16R,1.500000X1.250000*%
%ADD17R,2.500000X2.000000*%
%ADD18R,1.250000X1.500000*%
%ADD19C,1.590000*%
%ADD20O,2.700000X1.700000*%
%ADD21O,1.650000X1.100000*%
%ADD22C,1.400000*%
%ADD23R,0.750000X0.250000*%
%ADD24O,1.800000X1.800000*%
%ADD25C,1.000000*%
%ADD26C,0.900000*%
%ADD27C,0.500000*%
%ADD28C,0.400000*%
%ADD29C,0.250000*%
%ADD30C,0.050000*%
G04 APERTURE END LIST*
D10*
D11*
X143845000Y-79850000D03*
X145115000Y-79850000D03*
X146385000Y-79850000D03*
X157815000Y-79850000D03*
X159085000Y-79850000D03*
X160355000Y-79850000D03*
X160355000Y-70450000D03*
X159085000Y-70450000D03*
X157815000Y-70450000D03*
X146385000Y-70450000D03*
X145115000Y-70450000D03*
X143845000Y-70450000D03*
D12*
X155550000Y-103295000D03*
X155550000Y-102025000D03*
X155550000Y-100755000D03*
X155550000Y-99485000D03*
X155550000Y-98215000D03*
X155550000Y-96945000D03*
X155550000Y-95675000D03*
X155550000Y-94405000D03*
X146250000Y-94405000D03*
X146250000Y-95675000D03*
X146250000Y-96945000D03*
X146250000Y-98215000D03*
X146250000Y-99485000D03*
X146250000Y-100755000D03*
X146250000Y-102025000D03*
X146250000Y-103295000D03*
D13*
X161900000Y-98125000D03*
X161900000Y-98775000D03*
X161900000Y-99425000D03*
X161900000Y-100075000D03*
X161900000Y-100725000D03*
X161900000Y-101375000D03*
X161900000Y-102025000D03*
X161900000Y-102675000D03*
X161900000Y-103325000D03*
X161900000Y-103975000D03*
X161900000Y-104625000D03*
X161900000Y-105275000D03*
X161900000Y-105925000D03*
X161900000Y-106575000D03*
X169100000Y-106575000D03*
X169100000Y-105925000D03*
X169100000Y-105275000D03*
X169100000Y-104625000D03*
X169100000Y-103975000D03*
X169100000Y-103325000D03*
X169100000Y-102675000D03*
X169100000Y-102025000D03*
X169100000Y-101375000D03*
X169100000Y-100725000D03*
X169100000Y-100075000D03*
X169100000Y-99425000D03*
X169100000Y-98775000D03*
X169100000Y-98125000D03*
D14*
X166600000Y-83700000D03*
X166600000Y-81000000D03*
X154400000Y-86100000D03*
X154400000Y-83400000D03*
D15*
X173650000Y-88850000D03*
X176350000Y-88850000D03*
X173650000Y-97450000D03*
X176350000Y-97450000D03*
D14*
X171200000Y-116900000D03*
X171200000Y-114200000D03*
D16*
X162850000Y-83750000D03*
X160350000Y-83750000D03*
X157850000Y-86750000D03*
X160350000Y-86750000D03*
D17*
X139300000Y-78950000D03*
X139300000Y-74950000D03*
D18*
X140500000Y-104300000D03*
X140500000Y-101800000D03*
X143300000Y-104300000D03*
X143300000Y-101800000D03*
D16*
X172450000Y-104450000D03*
X174950000Y-104450000D03*
D18*
X158550000Y-104550000D03*
X158550000Y-102050000D03*
X175450000Y-114300000D03*
X175450000Y-116800000D03*
X166700000Y-116800000D03*
X166700000Y-114300000D03*
D17*
X161450000Y-117300000D03*
X161450000Y-113300000D03*
D19*
X119360000Y-86970000D03*
X116820000Y-88240000D03*
X119360000Y-89510000D03*
X116820000Y-90780000D03*
X119360000Y-92050000D03*
X116820000Y-93320000D03*
D20*
X189250000Y-102904000D03*
D21*
X183925000Y-104954000D03*
X183925000Y-106554000D03*
X185675000Y-105754000D03*
X185675000Y-107354000D03*
X183925000Y-108154000D03*
D20*
X189250000Y-110204000D03*
D22*
X187100000Y-86328000D03*
X187100000Y-88868000D03*
X187100000Y-94881000D03*
X187100000Y-97421000D03*
D23*
X126250000Y-98960000D03*
X126250000Y-99460000D03*
X126250000Y-99960000D03*
X126250000Y-100460000D03*
X123150000Y-98960000D03*
X123150000Y-99460000D03*
X123150000Y-100460000D03*
X123150000Y-99960000D03*
X126250000Y-106760000D03*
X126250000Y-107260000D03*
X126250000Y-107760000D03*
X126250000Y-108260000D03*
X123150000Y-106760000D03*
X123150000Y-107260000D03*
X123150000Y-108260000D03*
X123150000Y-107760000D03*
D24*
X109100000Y-108760000D03*
X109100000Y-106220000D03*
X111640000Y-108760000D03*
X111640000Y-106220000D03*
D14*
X136300000Y-108860000D03*
X136300000Y-106160000D03*
X133100000Y-100760000D03*
X133100000Y-98060000D03*
X133200000Y-106160000D03*
X133200000Y-108860000D03*
X130200000Y-98060000D03*
X130200000Y-100760000D03*
X130000000Y-106160000D03*
X130000000Y-108860000D03*
D25*
X178380000Y-65910000D03*
X108180000Y-121920000D03*
D26*
X178080000Y-83630000D03*
X117550000Y-108210000D03*
X124850000Y-101910000D03*
X140650000Y-92840000D03*
X180910000Y-100750000D03*
X179990000Y-97410000D03*
X178050000Y-102025000D03*
X179990000Y-88860000D03*
X178700000Y-105650000D03*
X153300000Y-108450000D03*
X160050000Y-108400000D03*
X127250000Y-86450000D03*
X127250000Y-110910000D03*
X127250000Y-101860000D03*
X125750000Y-89550000D03*
X118300000Y-106760000D03*
X121550000Y-100460000D03*
D27*
X166700000Y-116800000D02*
X166800000Y-116900000D01*
X166800000Y-116900000D02*
X171200000Y-116900000D01*
X161450000Y-117300000D02*
X161950000Y-116800000D01*
X161950000Y-116800000D02*
X166700000Y-116800000D01*
X139300000Y-78950000D02*
X137500000Y-78950000D01*
X173650000Y-70600000D02*
X173650000Y-88850000D01*
X168800000Y-65750000D02*
X173650000Y-70600000D01*
X138700000Y-65750000D02*
X168800000Y-65750000D01*
X136650000Y-67800000D02*
X138700000Y-65750000D01*
X136650000Y-78100000D02*
X136650000Y-67800000D01*
X137500000Y-78950000D02*
X136650000Y-78100000D01*
D28*
X165175000Y-100075000D02*
X165500000Y-99750000D01*
X165500000Y-99750000D02*
X165550000Y-99750000D01*
X161900000Y-100075000D02*
X165175000Y-100075000D01*
X165175000Y-100075000D02*
X165550000Y-100450000D01*
X165950000Y-103325000D02*
X165550000Y-103725000D01*
X169100000Y-103325000D02*
X165950000Y-103325000D01*
X165950000Y-103325000D02*
X165925000Y-103325000D01*
X165925000Y-103325000D02*
X165550000Y-102950000D01*
X158550000Y-111550000D02*
X159550000Y-110550000D01*
X159550000Y-110550000D02*
X164400000Y-110550000D01*
X164400000Y-110550000D02*
X165550000Y-109400000D01*
X165550000Y-109400000D02*
X165550000Y-103725000D01*
X167400000Y-88850000D02*
X173650000Y-88850000D01*
X165550000Y-90700000D02*
X167400000Y-88850000D01*
X165550000Y-99750000D02*
X165550000Y-91200000D01*
X165550000Y-91200000D02*
X165550000Y-90700000D01*
X165550000Y-103725000D02*
X165550000Y-102950000D01*
X165550000Y-102950000D02*
X165550000Y-100450000D01*
X165550000Y-100450000D02*
X165550000Y-99750000D01*
D27*
X161450000Y-117300000D02*
X159700000Y-117300000D01*
X158550000Y-116150000D02*
X158550000Y-112850000D01*
X158550000Y-112850000D02*
X158550000Y-112100000D01*
X158550000Y-112100000D02*
X158550000Y-111550000D01*
X158550000Y-111550000D02*
X158550000Y-111350000D01*
X158550000Y-111350000D02*
X158550000Y-104550000D01*
X159700000Y-117300000D02*
X158550000Y-116150000D01*
X155550000Y-103295000D02*
X156805000Y-104550000D01*
X156805000Y-104550000D02*
X158550000Y-104550000D01*
X171100000Y-116800000D02*
X171200000Y-116900000D01*
X173650000Y-88850000D02*
X173650000Y-97450000D01*
X143845000Y-81850000D02*
X143345000Y-82350000D01*
X143845000Y-81850000D02*
X144345000Y-82350000D01*
X143845000Y-79850000D02*
X143845000Y-81850000D01*
X143845000Y-81850000D02*
X143845000Y-82350000D01*
X139300000Y-78950000D02*
X139300000Y-81050000D01*
X140600000Y-82350000D02*
X143345000Y-82350000D01*
X139300000Y-81050000D02*
X140600000Y-82350000D01*
X145115000Y-81835000D02*
X145115000Y-79850000D01*
X144345000Y-82350000D02*
X144600000Y-82350000D01*
X144600000Y-82350000D02*
X145115000Y-81835000D01*
X143345000Y-82350000D02*
X143845000Y-82350000D01*
X143845000Y-82350000D02*
X144345000Y-82350000D01*
D28*
X189250000Y-102904000D02*
X189250000Y-84890000D01*
X187990000Y-83630000D02*
X178080000Y-83630000D01*
X189250000Y-84890000D02*
X187990000Y-83630000D01*
D29*
X169100000Y-102675000D02*
X170405000Y-102675000D01*
X170375000Y-104625000D02*
X169100000Y-104625000D01*
X170660000Y-104340000D02*
X170375000Y-104625000D01*
X170660000Y-102930000D02*
X170660000Y-104340000D01*
X170405000Y-102675000D02*
X170660000Y-102930000D01*
X169100000Y-102675000D02*
X167725000Y-102675000D01*
X167550000Y-102500000D02*
X167550000Y-99900000D01*
X167725000Y-102675000D02*
X167550000Y-102500000D01*
X169100000Y-99425000D02*
X167775000Y-99425000D01*
X167725000Y-100075000D02*
X169100000Y-100075000D01*
X167550000Y-99900000D02*
X167725000Y-100075000D01*
X167550000Y-99650000D02*
X167550000Y-99900000D01*
X167775000Y-99425000D02*
X167550000Y-99650000D01*
X169100000Y-104625000D02*
X167525000Y-104625000D01*
X161900000Y-102025000D02*
X163525000Y-102025000D01*
X163525000Y-102025000D02*
X163550000Y-102050000D01*
X161900000Y-102025000D02*
X158575000Y-102025000D01*
X158575000Y-102025000D02*
X158550000Y-102050000D01*
D27*
X184200000Y-108554000D02*
X178454000Y-114300000D01*
X178454000Y-114300000D02*
X175450000Y-114300000D01*
X184200000Y-108554000D02*
X184200000Y-108154000D01*
X171200000Y-114200000D02*
X171300000Y-114300000D01*
X171300000Y-114300000D02*
X175450000Y-114300000D01*
D28*
X169100000Y-105275000D02*
X171625000Y-105275000D01*
X171625000Y-105275000D02*
X172450000Y-104450000D01*
D29*
X138500000Y-104940000D02*
X139140000Y-104300000D01*
X139140000Y-104300000D02*
X140500000Y-104300000D01*
X117550000Y-108260000D02*
X123150000Y-108260000D01*
D27*
X117550000Y-108210000D02*
X117550000Y-108260000D01*
D29*
X124150000Y-100460000D02*
X123150000Y-100460000D01*
X124850000Y-101910000D02*
X124850000Y-101160000D01*
X124850000Y-101160000D02*
X124150000Y-100460000D01*
D27*
X146250000Y-103295000D02*
X148855000Y-103295000D01*
X166600000Y-86900000D02*
X166600000Y-83700000D01*
X161400000Y-92100000D02*
X166600000Y-86900000D01*
X153000000Y-92100000D02*
X161400000Y-92100000D01*
X150500000Y-94600000D02*
X153000000Y-92100000D01*
X150500000Y-101650000D02*
X150500000Y-94600000D01*
X148855000Y-103295000D02*
X150500000Y-101650000D01*
D29*
X123150000Y-100460000D02*
X123500000Y-100460000D01*
X138250000Y-106160000D02*
X138500000Y-105910000D01*
X136300000Y-106160000D02*
X138250000Y-106160000D01*
X138250000Y-106160000D02*
X138500000Y-106410000D01*
X123150000Y-108260000D02*
X123150000Y-110510000D01*
X123150000Y-110510000D02*
X125050000Y-112410000D01*
X125050000Y-112410000D02*
X136600000Y-112410000D01*
X136600000Y-112410000D02*
X138500000Y-110510000D01*
X138500000Y-110510000D02*
X138500000Y-106410000D01*
X138500000Y-105910000D02*
X138500000Y-104940000D01*
X138500000Y-106410000D02*
X138500000Y-105910000D01*
D27*
X143300000Y-104300000D02*
X140500000Y-104300000D01*
X146250000Y-103295000D02*
X145455000Y-103295000D01*
X144450000Y-104300000D02*
X143300000Y-104300000D01*
X145455000Y-103295000D02*
X144450000Y-104300000D01*
X162850000Y-83750000D02*
X166550000Y-83750000D01*
X166550000Y-83750000D02*
X166600000Y-83700000D01*
X160355000Y-79850000D02*
X160355000Y-81105000D01*
X160355000Y-81105000D02*
X162850000Y-83600000D01*
X162850000Y-83600000D02*
X162850000Y-83750000D01*
D28*
X146250000Y-94405000D02*
X141275000Y-94405000D01*
X140650000Y-93780000D02*
X140650000Y-92840000D01*
X141275000Y-94405000D02*
X140650000Y-93780000D01*
D27*
X146250000Y-94405000D02*
X148795000Y-94405000D01*
X160350000Y-88700000D02*
X160350000Y-86750000D01*
X158400000Y-90650000D02*
X160350000Y-88700000D01*
X152550000Y-90650000D02*
X158400000Y-90650000D01*
X148795000Y-94405000D02*
X152550000Y-90650000D01*
D29*
X126250000Y-98960000D02*
X126250000Y-97960000D01*
X128300000Y-98060000D02*
X130200000Y-98060000D01*
X127950000Y-97710000D02*
X128300000Y-98060000D01*
X126500000Y-97710000D02*
X127950000Y-97710000D01*
X126250000Y-97960000D02*
X126500000Y-97710000D01*
X126250000Y-106760000D02*
X126250000Y-106060000D01*
X128650000Y-106160000D02*
X130000000Y-106160000D01*
X128300000Y-105810000D02*
X128650000Y-106160000D01*
X126500000Y-105810000D02*
X128300000Y-105810000D01*
X126250000Y-106060000D02*
X126500000Y-105810000D01*
D27*
X143300000Y-101800000D02*
X143525000Y-102025000D01*
X160350000Y-83750000D02*
X159085000Y-82485000D01*
X159085000Y-82485000D02*
X159085000Y-79850000D01*
X160350000Y-86750000D02*
X160350000Y-83750000D01*
X154400000Y-86100000D02*
X155050000Y-86750000D01*
X155050000Y-86750000D02*
X157850000Y-86750000D01*
X157850000Y-86750000D02*
X157815000Y-86715000D01*
X157815000Y-86715000D02*
X157815000Y-79850000D01*
D28*
X169100000Y-101375000D02*
X171405000Y-101375000D01*
X172030000Y-100750000D02*
X180910000Y-100750000D01*
X171405000Y-101375000D02*
X172030000Y-100750000D01*
X179950000Y-97450000D02*
X176350000Y-97450000D01*
X179990000Y-97410000D02*
X179950000Y-97450000D01*
D27*
X176350000Y-97450000D02*
X176379000Y-97421000D01*
D28*
X169100000Y-102025000D02*
X178050000Y-102025000D01*
X176350000Y-88850000D02*
X179980000Y-88850000D01*
X179980000Y-88850000D02*
X179990000Y-88860000D01*
D27*
X176350000Y-88850000D02*
X176368000Y-88868000D01*
D28*
X184200000Y-106554000D02*
X184179000Y-106575000D01*
X184179000Y-106575000D02*
X169100000Y-106575000D01*
X169121000Y-106554000D02*
X169100000Y-106575000D01*
X178700000Y-105650000D02*
X178425000Y-105925000D01*
X178425000Y-105925000D02*
X169100000Y-105925000D01*
D27*
X154400000Y-83400000D02*
X154400000Y-78650000D01*
X159085000Y-73965000D02*
X159085000Y-70450000D01*
X154400000Y-78650000D02*
X159085000Y-73965000D01*
X157815000Y-70450000D02*
X157815000Y-68735000D01*
X166600000Y-69850000D02*
X166600000Y-81000000D01*
X164700000Y-67950000D02*
X166600000Y-69850000D01*
X158600000Y-67950000D02*
X164700000Y-67950000D01*
X157815000Y-68735000D02*
X158600000Y-67950000D01*
D28*
X155550000Y-96945000D02*
X158195000Y-96945000D01*
X159375000Y-98125000D02*
X161900000Y-98125000D01*
X158195000Y-96945000D02*
X159375000Y-98125000D01*
X161900000Y-100725000D02*
X155580000Y-100725000D01*
X155580000Y-100725000D02*
X155550000Y-100755000D01*
X155580000Y-100725000D02*
X155550000Y-100755000D01*
X161900000Y-105925000D02*
X160575000Y-105925000D01*
X153965000Y-99485000D02*
X153300000Y-100150000D01*
X153965000Y-99485000D02*
X155550000Y-99485000D01*
X153300000Y-108450000D02*
X153300000Y-100150000D01*
X160050000Y-106450000D02*
X160050000Y-108400000D01*
X160575000Y-105925000D02*
X160050000Y-106450000D01*
X157300000Y-98550000D02*
X156965000Y-98215000D01*
X157300000Y-99150000D02*
X157300000Y-98550000D01*
X155550000Y-99485000D02*
X156965000Y-99485000D01*
X156965000Y-98215000D02*
X155550000Y-98215000D01*
X156965000Y-99485000D02*
X157300000Y-99150000D01*
D27*
X127250000Y-86450000D02*
X139015000Y-98215000D01*
X139015000Y-98215000D02*
X146250000Y-98215000D01*
D29*
X127250000Y-110910000D02*
X125650000Y-110910000D01*
X125650000Y-110910000D02*
X125050000Y-110310000D01*
X125050000Y-110310000D02*
X125050000Y-108310000D01*
X125050000Y-108310000D02*
X125600000Y-107760000D01*
X125600000Y-107760000D02*
X126250000Y-107760000D01*
X126800000Y-100460000D02*
X126250000Y-100460000D01*
X127250000Y-101860000D02*
X127250000Y-100910000D01*
X127250000Y-100910000D02*
X126800000Y-100460000D01*
X120700000Y-96510000D02*
X125750000Y-91460000D01*
X125750000Y-91460000D02*
X125750000Y-89550000D01*
D27*
X128450000Y-89500000D02*
X138435000Y-99485000D01*
X138435000Y-99485000D02*
X146250000Y-99485000D01*
X125800000Y-89500000D02*
X128450000Y-89500000D01*
X125750000Y-89550000D02*
X125800000Y-89500000D01*
D29*
X123150000Y-106760000D02*
X121250000Y-106760000D01*
X120700000Y-106210000D02*
X120700000Y-99710000D01*
X121250000Y-106760000D02*
X120700000Y-106210000D01*
X120700000Y-98760000D02*
X120700000Y-99210000D01*
X120700000Y-96510000D02*
X120700000Y-98760000D01*
X120950000Y-99460000D02*
X120700000Y-99710000D01*
X120950000Y-99460000D02*
X120700000Y-99210000D01*
X123150000Y-99460000D02*
X120950000Y-99460000D01*
X120700000Y-99710000D02*
X120700000Y-99210000D01*
X136300000Y-108860000D02*
X134750000Y-110410000D01*
X127050000Y-108260000D02*
X126250000Y-108260000D01*
X129200000Y-110410000D02*
X127050000Y-108260000D01*
X134750000Y-110410000D02*
X129200000Y-110410000D01*
X133100000Y-100760000D02*
X133100000Y-101610000D01*
X127250000Y-99960000D02*
X126250000Y-99960000D01*
X129450000Y-102160000D02*
X127250000Y-99960000D01*
X132550000Y-102160000D02*
X129450000Y-102160000D01*
X133100000Y-101610000D02*
X132550000Y-102160000D01*
X133100000Y-98060000D02*
X131750000Y-96710000D01*
X122200000Y-97360000D02*
X122200000Y-98410000D01*
X122850000Y-96710000D02*
X122200000Y-97360000D01*
X131750000Y-96710000D02*
X122850000Y-96710000D01*
X123150000Y-98960000D02*
X122750000Y-98960000D01*
X122750000Y-98960000D02*
X122200000Y-98410000D01*
X123850000Y-107260000D02*
X126450000Y-104660000D01*
X123150000Y-107260000D02*
X123850000Y-107260000D01*
X133200000Y-105210000D02*
X133200000Y-106160000D01*
X132650000Y-104660000D02*
X133200000Y-105210000D01*
X126450000Y-104660000D02*
X132650000Y-104660000D01*
X118300000Y-106760000D02*
X119300000Y-107760000D01*
X123150000Y-107760000D02*
X119300000Y-107760000D01*
X126250000Y-107260000D02*
X127250000Y-107260000D01*
X128850000Y-108860000D02*
X130000000Y-108860000D01*
X127250000Y-107260000D02*
X128850000Y-108860000D01*
X126250000Y-107260000D02*
X125050000Y-107260000D01*
X124550000Y-107760000D02*
X123150000Y-107760000D01*
X125050000Y-107260000D02*
X124550000Y-107760000D01*
X122050000Y-99960000D02*
X121550000Y-100460000D01*
X123150000Y-99960000D02*
X122050000Y-99960000D01*
X126250000Y-99460000D02*
X127650000Y-99460000D01*
X128950000Y-100760000D02*
X130200000Y-100760000D01*
X127650000Y-99460000D02*
X128950000Y-100760000D01*
X126250000Y-99460000D02*
X125150000Y-99460000D01*
X124650000Y-99960000D02*
X123150000Y-99960000D01*
X125150000Y-99460000D02*
X124650000Y-99960000D01*
D30*
G36*
X128275000Y-80900000D02*
X128276903Y-80909567D01*
X128282322Y-80917678D01*
X136232322Y-88867678D01*
X136240433Y-88873097D01*
X136250000Y-88875000D01*
X148039644Y-88875000D01*
X150925000Y-91760356D01*
X150925000Y-93220406D01*
X150022703Y-94122703D01*
X149876381Y-94341688D01*
X149876381Y-94341689D01*
X149825000Y-94600000D01*
X149825000Y-101370406D01*
X148575406Y-102620000D01*
X147454721Y-102620000D01*
X147533000Y-102431021D01*
X147533000Y-102308250D01*
X147399750Y-102175000D01*
X146479000Y-102175000D01*
X146479000Y-102274000D01*
X146021000Y-102274000D01*
X146021000Y-102175000D01*
X145100250Y-102175000D01*
X144967000Y-102308250D01*
X144967000Y-102431021D01*
X145048145Y-102626920D01*
X145134295Y-102713071D01*
X144977703Y-102817703D01*
X144339591Y-103455815D01*
X144325341Y-103384173D01*
X144231408Y-103243592D01*
X144090827Y-103149659D01*
X143925000Y-103116674D01*
X142675000Y-103116674D01*
X142509173Y-103149659D01*
X142368592Y-103243592D01*
X142274659Y-103384173D01*
X142241674Y-103550000D01*
X142241674Y-103625000D01*
X141558326Y-103625000D01*
X141558326Y-103550000D01*
X141525341Y-103384173D01*
X141431408Y-103243592D01*
X141290827Y-103149659D01*
X141125000Y-103116674D01*
X139875000Y-103116674D01*
X139709173Y-103149659D01*
X139568592Y-103243592D01*
X139474659Y-103384173D01*
X139441674Y-103550000D01*
X139441674Y-103750000D01*
X139140005Y-103750000D01*
X139140000Y-103749999D01*
X138929524Y-103791866D01*
X138751091Y-103911091D01*
X138111091Y-104551091D01*
X137991866Y-104729524D01*
X137950000Y-104940000D01*
X137950000Y-105610000D01*
X137383326Y-105610000D01*
X137383326Y-105410000D01*
X137350341Y-105244173D01*
X137256408Y-105103592D01*
X137115827Y-105009659D01*
X136950000Y-104976674D01*
X135650000Y-104976674D01*
X135484173Y-105009659D01*
X135343592Y-105103592D01*
X135249659Y-105244173D01*
X135216674Y-105410000D01*
X135216674Y-106910000D01*
X135249659Y-107075827D01*
X135343592Y-107216408D01*
X135484173Y-107310341D01*
X135650000Y-107343326D01*
X136950000Y-107343326D01*
X137115827Y-107310341D01*
X137256408Y-107216408D01*
X137350341Y-107075827D01*
X137383326Y-106910000D01*
X137383326Y-106710000D01*
X137950000Y-106710000D01*
X137950000Y-110282182D01*
X136372182Y-111860000D01*
X125277818Y-111860000D01*
X123700000Y-110282182D01*
X123700000Y-108779212D01*
X123831408Y-108691408D01*
X123925341Y-108550827D01*
X123958326Y-108385000D01*
X123958326Y-108310000D01*
X124500000Y-108310000D01*
X124500000Y-110310000D01*
X124541866Y-110520476D01*
X124661091Y-110698909D01*
X125261091Y-111298909D01*
X125439524Y-111418134D01*
X125650000Y-111460000D01*
X126562683Y-111460000D01*
X126753705Y-111651356D01*
X127075188Y-111784848D01*
X127423285Y-111785151D01*
X127745000Y-111652221D01*
X127991356Y-111406295D01*
X128124848Y-111084812D01*
X128125151Y-110736715D01*
X127992221Y-110415000D01*
X127746295Y-110168644D01*
X127424812Y-110035152D01*
X127076715Y-110034849D01*
X126755000Y-110167779D01*
X126562443Y-110360000D01*
X125877818Y-110360000D01*
X125600000Y-110082182D01*
X125600000Y-108712394D01*
X125709173Y-108785341D01*
X125875000Y-108818326D01*
X126625000Y-108818326D01*
X126666858Y-108810000D01*
X126822182Y-108810000D01*
X128811091Y-110798909D01*
X128989524Y-110918134D01*
X129200000Y-110960000D01*
X134750000Y-110960000D01*
X134960476Y-110918134D01*
X135138909Y-110798909D01*
X135894492Y-110043326D01*
X136950000Y-110043326D01*
X137115827Y-110010341D01*
X137256408Y-109916408D01*
X137350341Y-109775827D01*
X137383326Y-109610000D01*
X137383326Y-108110000D01*
X137350341Y-107944173D01*
X137256408Y-107803592D01*
X137115827Y-107709659D01*
X136950000Y-107676674D01*
X135650000Y-107676674D01*
X135484173Y-107709659D01*
X135343592Y-107803592D01*
X135249659Y-107944173D01*
X135216674Y-108110000D01*
X135216674Y-109165508D01*
X134522182Y-109860000D01*
X134323362Y-109860000D01*
X134383000Y-109716020D01*
X134383000Y-109222250D01*
X134249750Y-109089000D01*
X133429000Y-109089000D01*
X133429000Y-109109000D01*
X132971000Y-109109000D01*
X132971000Y-109089000D01*
X132150250Y-109089000D01*
X132017000Y-109222250D01*
X132017000Y-109716020D01*
X132076638Y-109860000D01*
X130994099Y-109860000D01*
X131050341Y-109775827D01*
X131083326Y-109610000D01*
X131083326Y-108110000D01*
X131062238Y-108003980D01*
X132017000Y-108003980D01*
X132017000Y-108497750D01*
X132150250Y-108631000D01*
X132971000Y-108631000D01*
X132971000Y-107710250D01*
X133429000Y-107710250D01*
X133429000Y-108631000D01*
X134249750Y-108631000D01*
X134383000Y-108497750D01*
X134383000Y-108003980D01*
X134301856Y-107808080D01*
X134151920Y-107658145D01*
X133956021Y-107577000D01*
X133562250Y-107577000D01*
X133429000Y-107710250D01*
X132971000Y-107710250D01*
X132837750Y-107577000D01*
X132443979Y-107577000D01*
X132248080Y-107658145D01*
X132098144Y-107808080D01*
X132017000Y-108003980D01*
X131062238Y-108003980D01*
X131050341Y-107944173D01*
X130956408Y-107803592D01*
X130815827Y-107709659D01*
X130650000Y-107676674D01*
X129350000Y-107676674D01*
X129184173Y-107709659D01*
X129043592Y-107803592D01*
X128949659Y-107944173D01*
X128916674Y-108110000D01*
X128916674Y-108148856D01*
X127638909Y-106871091D01*
X127460476Y-106751866D01*
X127250000Y-106710000D01*
X127158000Y-106710000D01*
X127158000Y-106528979D01*
X127155213Y-106522250D01*
X128817000Y-106522250D01*
X128817000Y-107016020D01*
X128898144Y-107211920D01*
X129048080Y-107361855D01*
X129243979Y-107443000D01*
X129637750Y-107443000D01*
X129771000Y-107309750D01*
X129771000Y-106389000D01*
X130229000Y-106389000D01*
X130229000Y-107309750D01*
X130362250Y-107443000D01*
X130756021Y-107443000D01*
X130951920Y-107361855D01*
X131101856Y-107211920D01*
X131183000Y-107016020D01*
X131183000Y-106522250D01*
X131049750Y-106389000D01*
X130229000Y-106389000D01*
X129771000Y-106389000D01*
X128950250Y-106389000D01*
X128817000Y-106522250D01*
X127155213Y-106522250D01*
X127076855Y-106333080D01*
X126926920Y-106183144D01*
X126731020Y-106102000D01*
X126570750Y-106102000D01*
X126437500Y-106235250D01*
X126437500Y-106697500D01*
X126499000Y-106697500D01*
X126499000Y-106701674D01*
X126001000Y-106701674D01*
X126001000Y-106697500D01*
X126062500Y-106697500D01*
X126062500Y-106235250D01*
X125929250Y-106102000D01*
X125785818Y-106102000D01*
X126677818Y-105210000D01*
X128855928Y-105210000D01*
X128817000Y-105303980D01*
X128817000Y-105797750D01*
X128950250Y-105931000D01*
X129771000Y-105931000D01*
X129771000Y-105911000D01*
X130229000Y-105911000D01*
X130229000Y-105931000D01*
X131049750Y-105931000D01*
X131183000Y-105797750D01*
X131183000Y-105303980D01*
X131144072Y-105210000D01*
X132172493Y-105210000D01*
X132149659Y-105244173D01*
X132116674Y-105410000D01*
X132116674Y-106910000D01*
X132149659Y-107075827D01*
X132243592Y-107216408D01*
X132384173Y-107310341D01*
X132550000Y-107343326D01*
X133850000Y-107343326D01*
X134015827Y-107310341D01*
X134156408Y-107216408D01*
X134250341Y-107075827D01*
X134283326Y-106910000D01*
X134283326Y-105410000D01*
X134250341Y-105244173D01*
X134156408Y-105103592D01*
X134015827Y-105009659D01*
X133850000Y-104976674D01*
X133692866Y-104976674D01*
X133588909Y-104821091D01*
X133588906Y-104821089D01*
X133038909Y-104271091D01*
X132860476Y-104151866D01*
X132650000Y-104110000D01*
X126450000Y-104110000D01*
X126239524Y-104151866D01*
X126061091Y-104271091D01*
X123900374Y-106431808D01*
X123831408Y-106328592D01*
X123690827Y-106234659D01*
X123525000Y-106201674D01*
X122775000Y-106201674D01*
X122733142Y-106210000D01*
X121477817Y-106210000D01*
X121250000Y-105982182D01*
X121250000Y-101282865D01*
X121375188Y-101334848D01*
X121723285Y-101335151D01*
X122045000Y-101202221D01*
X122291356Y-100956295D01*
X122375902Y-100752687D01*
X122468592Y-100891408D01*
X122609173Y-100985341D01*
X122775000Y-101018326D01*
X123525000Y-101018326D01*
X123566858Y-101010000D01*
X123922182Y-101010000D01*
X124217361Y-101305178D01*
X124108644Y-101413705D01*
X123975152Y-101735188D01*
X123974849Y-102083285D01*
X124107779Y-102405000D01*
X124353705Y-102651356D01*
X124675188Y-102784848D01*
X125023285Y-102785151D01*
X125345000Y-102652221D01*
X125591356Y-102406295D01*
X125724848Y-102084812D01*
X125725151Y-101736715D01*
X125592221Y-101415000D01*
X125400000Y-101222443D01*
X125400000Y-101160000D01*
X125358134Y-100949524D01*
X125238909Y-100771091D01*
X125238906Y-100771089D01*
X124905720Y-100437903D01*
X125038909Y-100348909D01*
X125377818Y-100010000D01*
X125441674Y-100010000D01*
X125441674Y-100085000D01*
X125466538Y-100210000D01*
X125441674Y-100335000D01*
X125441674Y-100585000D01*
X125474659Y-100750827D01*
X125568592Y-100891408D01*
X125709173Y-100985341D01*
X125875000Y-101018326D01*
X126580508Y-101018326D01*
X126700000Y-101137818D01*
X126700000Y-101172683D01*
X126508644Y-101363705D01*
X126375152Y-101685188D01*
X126374849Y-102033285D01*
X126507779Y-102355000D01*
X126753705Y-102601356D01*
X127075188Y-102734848D01*
X127423285Y-102735151D01*
X127745000Y-102602221D01*
X127991356Y-102356295D01*
X128124848Y-102034812D01*
X128125151Y-101686715D01*
X128073224Y-101561042D01*
X129061091Y-102548909D01*
X129239524Y-102668134D01*
X129450000Y-102710000D01*
X132550000Y-102710000D01*
X132760476Y-102668134D01*
X132938909Y-102548909D01*
X133325567Y-102162250D01*
X139342000Y-102162250D01*
X139342000Y-102656020D01*
X139423144Y-102851920D01*
X139573080Y-103001855D01*
X139768979Y-103083000D01*
X140137750Y-103083000D01*
X140271000Y-102949750D01*
X140271000Y-102029000D01*
X140729000Y-102029000D01*
X140729000Y-102949750D01*
X140862250Y-103083000D01*
X141231021Y-103083000D01*
X141426920Y-103001855D01*
X141576856Y-102851920D01*
X141658000Y-102656020D01*
X141658000Y-102162250D01*
X142142000Y-102162250D01*
X142142000Y-102656020D01*
X142223144Y-102851920D01*
X142373080Y-103001855D01*
X142568979Y-103083000D01*
X142937750Y-103083000D01*
X143071000Y-102949750D01*
X143071000Y-102029000D01*
X143529000Y-102029000D01*
X143529000Y-102949750D01*
X143662250Y-103083000D01*
X144031021Y-103083000D01*
X144226920Y-103001855D01*
X144376856Y-102851920D01*
X144458000Y-102656020D01*
X144458000Y-102162250D01*
X144324750Y-102029000D01*
X143529000Y-102029000D01*
X143071000Y-102029000D01*
X142275250Y-102029000D01*
X142142000Y-102162250D01*
X141658000Y-102162250D01*
X141524750Y-102029000D01*
X140729000Y-102029000D01*
X140271000Y-102029000D01*
X139475250Y-102029000D01*
X139342000Y-102162250D01*
X133325567Y-102162250D01*
X133488906Y-101998911D01*
X133488909Y-101998909D01*
X133526048Y-101943326D01*
X133750000Y-101943326D01*
X133915827Y-101910341D01*
X134056408Y-101816408D01*
X134150341Y-101675827D01*
X134183326Y-101510000D01*
X134183326Y-100943980D01*
X139342000Y-100943980D01*
X139342000Y-101437750D01*
X139475250Y-101571000D01*
X140271000Y-101571000D01*
X140271000Y-100650250D01*
X140729000Y-100650250D01*
X140729000Y-101571000D01*
X141524750Y-101571000D01*
X141658000Y-101437750D01*
X141658000Y-100943980D01*
X142142000Y-100943980D01*
X142142000Y-101437750D01*
X142275250Y-101571000D01*
X143071000Y-101571000D01*
X143071000Y-100650250D01*
X143529000Y-100650250D01*
X143529000Y-101571000D01*
X144324750Y-101571000D01*
X144458000Y-101437750D01*
X144458000Y-100943980D01*
X144376856Y-100748080D01*
X144226920Y-100598145D01*
X144031021Y-100517000D01*
X143662250Y-100517000D01*
X143529000Y-100650250D01*
X143071000Y-100650250D01*
X142937750Y-100517000D01*
X142568979Y-100517000D01*
X142373080Y-100598145D01*
X142223144Y-100748080D01*
X142142000Y-100943980D01*
X141658000Y-100943980D01*
X141576856Y-100748080D01*
X141426920Y-100598145D01*
X141231021Y-100517000D01*
X140862250Y-100517000D01*
X140729000Y-100650250D01*
X140271000Y-100650250D01*
X140137750Y-100517000D01*
X139768979Y-100517000D01*
X139573080Y-100598145D01*
X139423144Y-100748080D01*
X139342000Y-100943980D01*
X134183326Y-100943980D01*
X134183326Y-100010000D01*
X134150341Y-99844173D01*
X134056408Y-99703592D01*
X133915827Y-99609659D01*
X133750000Y-99576674D01*
X132450000Y-99576674D01*
X132284173Y-99609659D01*
X132143592Y-99703592D01*
X132049659Y-99844173D01*
X132016674Y-100010000D01*
X132016674Y-101510000D01*
X132036565Y-101610000D01*
X131263435Y-101610000D01*
X131283326Y-101510000D01*
X131283326Y-100010000D01*
X131250341Y-99844173D01*
X131156408Y-99703592D01*
X131015827Y-99609659D01*
X130850000Y-99576674D01*
X129550000Y-99576674D01*
X129384173Y-99609659D01*
X129243592Y-99703592D01*
X129149659Y-99844173D01*
X129116674Y-100010000D01*
X129116674Y-100148857D01*
X128038909Y-99071091D01*
X127860476Y-98951866D01*
X127650000Y-98910000D01*
X127158000Y-98910000D01*
X127158000Y-98728979D01*
X127076855Y-98533080D01*
X126966026Y-98422250D01*
X129017000Y-98422250D01*
X129017000Y-98916020D01*
X129098144Y-99111920D01*
X129248080Y-99261855D01*
X129443979Y-99343000D01*
X129837750Y-99343000D01*
X129971000Y-99209750D01*
X129971000Y-98289000D01*
X130429000Y-98289000D01*
X130429000Y-99209750D01*
X130562250Y-99343000D01*
X130956021Y-99343000D01*
X131151920Y-99261855D01*
X131301856Y-99111920D01*
X131383000Y-98916020D01*
X131383000Y-98422250D01*
X131249750Y-98289000D01*
X130429000Y-98289000D01*
X129971000Y-98289000D01*
X129150250Y-98289000D01*
X129017000Y-98422250D01*
X126966026Y-98422250D01*
X126926920Y-98383144D01*
X126731020Y-98302000D01*
X126570750Y-98302000D01*
X126437500Y-98435250D01*
X126437500Y-98897500D01*
X126499000Y-98897500D01*
X126499000Y-98901674D01*
X126001000Y-98901674D01*
X126001000Y-98897500D01*
X126062500Y-98897500D01*
X126062500Y-98435250D01*
X125929250Y-98302000D01*
X125768980Y-98302000D01*
X125573080Y-98383144D01*
X125423145Y-98533080D01*
X125342000Y-98728979D01*
X125342000Y-98910000D01*
X125150005Y-98910000D01*
X125150000Y-98909999D01*
X124939524Y-98951866D01*
X124761091Y-99071091D01*
X124422182Y-99410000D01*
X123958326Y-99410000D01*
X123958326Y-99335000D01*
X123933462Y-99210000D01*
X123958326Y-99085000D01*
X123958326Y-98835000D01*
X123925341Y-98669173D01*
X123831408Y-98528592D01*
X123690827Y-98434659D01*
X123525000Y-98401674D01*
X122969491Y-98401674D01*
X122750000Y-98182182D01*
X122750000Y-97587818D01*
X123077818Y-97260000D01*
X129017000Y-97260000D01*
X129017000Y-97697750D01*
X129150250Y-97831000D01*
X129971000Y-97831000D01*
X129971000Y-97811000D01*
X130429000Y-97811000D01*
X130429000Y-97831000D01*
X131249750Y-97831000D01*
X131383000Y-97697750D01*
X131383000Y-97260000D01*
X131522182Y-97260000D01*
X132016674Y-97754492D01*
X132016674Y-98810000D01*
X132049659Y-98975827D01*
X132143592Y-99116408D01*
X132284173Y-99210341D01*
X132450000Y-99243326D01*
X133750000Y-99243326D01*
X133915827Y-99210341D01*
X134056408Y-99116408D01*
X134150341Y-98975827D01*
X134183326Y-98810000D01*
X134183326Y-97310000D01*
X134150341Y-97144173D01*
X134056408Y-97003592D01*
X133915827Y-96909659D01*
X133750000Y-96876674D01*
X132694492Y-96876674D01*
X132138909Y-96321091D01*
X131960476Y-96201866D01*
X131750000Y-96160000D01*
X122850005Y-96160000D01*
X122850000Y-96159999D01*
X122639524Y-96201866D01*
X122461091Y-96321091D01*
X121811091Y-96971091D01*
X121691866Y-97149524D01*
X121650000Y-97360000D01*
X121650000Y-98410000D01*
X121691866Y-98620476D01*
X121811091Y-98798909D01*
X121922182Y-98910000D01*
X121250000Y-98910000D01*
X121250000Y-96737818D01*
X126138906Y-91848911D01*
X126138909Y-91848909D01*
X126258134Y-91670476D01*
X126300000Y-91460000D01*
X126300000Y-90237317D01*
X126362426Y-90175000D01*
X128170406Y-90175000D01*
X137957703Y-99962297D01*
X138176689Y-100108619D01*
X138435000Y-100160000D01*
X145185969Y-100160000D01*
X145099659Y-100289173D01*
X145066674Y-100455000D01*
X145066674Y-101055000D01*
X145099659Y-101220827D01*
X145160036Y-101311188D01*
X145048145Y-101423080D01*
X144967000Y-101618979D01*
X144967000Y-101741750D01*
X145100250Y-101875000D01*
X146021000Y-101875000D01*
X146021000Y-101776000D01*
X146479000Y-101776000D01*
X146479000Y-101875000D01*
X147399750Y-101875000D01*
X147533000Y-101741750D01*
X147533000Y-101618979D01*
X147451855Y-101423080D01*
X147339964Y-101311188D01*
X147400341Y-101220827D01*
X147433326Y-101055000D01*
X147433326Y-100455000D01*
X147400341Y-100289173D01*
X147306408Y-100148592D01*
X147263617Y-100120000D01*
X147306408Y-100091408D01*
X147400341Y-99950827D01*
X147433326Y-99785000D01*
X147433326Y-99185000D01*
X147400341Y-99019173D01*
X147306408Y-98878592D01*
X147263617Y-98850000D01*
X147306408Y-98821408D01*
X147400341Y-98680827D01*
X147433326Y-98515000D01*
X147433326Y-97915000D01*
X147400341Y-97749173D01*
X147306408Y-97608592D01*
X147263617Y-97580000D01*
X147306408Y-97551408D01*
X147400341Y-97410827D01*
X147433326Y-97245000D01*
X147433326Y-96645000D01*
X147400341Y-96479173D01*
X147306408Y-96338592D01*
X147263617Y-96310000D01*
X147306408Y-96281408D01*
X147400341Y-96140827D01*
X147433326Y-95975000D01*
X147433326Y-95375000D01*
X147400341Y-95209173D01*
X147339964Y-95118812D01*
X147451855Y-95006920D01*
X147533000Y-94811021D01*
X147533000Y-94688250D01*
X147399750Y-94555000D01*
X146479000Y-94555000D01*
X146479000Y-94654000D01*
X146021000Y-94654000D01*
X146021000Y-94555000D01*
X145100250Y-94555000D01*
X144967000Y-94688250D01*
X144967000Y-94811021D01*
X145048145Y-95006920D01*
X145160036Y-95118812D01*
X145099659Y-95209173D01*
X145066674Y-95375000D01*
X145066674Y-95975000D01*
X145099659Y-96140827D01*
X145193592Y-96281408D01*
X145236383Y-96310000D01*
X145193592Y-96338592D01*
X145099659Y-96479173D01*
X145066674Y-96645000D01*
X145066674Y-97245000D01*
X145099659Y-97410827D01*
X145185969Y-97540000D01*
X139294594Y-97540000D01*
X135753573Y-93998979D01*
X144967000Y-93998979D01*
X144967000Y-94121750D01*
X145100250Y-94255000D01*
X146021000Y-94255000D01*
X146021000Y-93705250D01*
X146479000Y-93705250D01*
X146479000Y-94255000D01*
X147399750Y-94255000D01*
X147533000Y-94121750D01*
X147533000Y-93998979D01*
X147451855Y-93803080D01*
X147301920Y-93653144D01*
X147106020Y-93572000D01*
X146612250Y-93572000D01*
X146479000Y-93705250D01*
X146021000Y-93705250D01*
X145887750Y-93572000D01*
X145393980Y-93572000D01*
X145198080Y-93653144D01*
X145048145Y-93803080D01*
X144967000Y-93998979D01*
X135753573Y-93998979D01*
X128125069Y-86370475D01*
X128125151Y-86276715D01*
X127992221Y-85955000D01*
X127746295Y-85708644D01*
X127424812Y-85575152D01*
X127076715Y-85574849D01*
X126755000Y-85707779D01*
X126508644Y-85953705D01*
X126375152Y-86275188D01*
X126374849Y-86623285D01*
X126507779Y-86945000D01*
X126753705Y-87191356D01*
X127075188Y-87324848D01*
X127170337Y-87324931D01*
X128748922Y-88903516D01*
X128708312Y-88876381D01*
X128450000Y-88825000D01*
X126262622Y-88825000D01*
X126246295Y-88808644D01*
X125924812Y-88675152D01*
X125576715Y-88674849D01*
X125255000Y-88807779D01*
X125008644Y-89053705D01*
X124875152Y-89375188D01*
X124874849Y-89723285D01*
X125007779Y-90045000D01*
X125200000Y-90237557D01*
X125200000Y-91232183D01*
X120311091Y-96121091D01*
X120191866Y-96299524D01*
X120150000Y-96510000D01*
X120150000Y-106210000D01*
X120191866Y-106420476D01*
X120311091Y-106598909D01*
X120861089Y-107148906D01*
X120861091Y-107148909D01*
X120952520Y-107210000D01*
X119527817Y-107210000D01*
X119174916Y-106857098D01*
X119175151Y-106586715D01*
X119042221Y-106265000D01*
X118796295Y-106018644D01*
X118474812Y-105885152D01*
X118126715Y-105884849D01*
X117805000Y-106017779D01*
X117558644Y-106263705D01*
X117425152Y-106585188D01*
X117424849Y-106933285D01*
X117557779Y-107255000D01*
X117637715Y-107335076D01*
X117376715Y-107334849D01*
X117055000Y-107467779D01*
X116808644Y-107713705D01*
X116675152Y-108035188D01*
X116674849Y-108383285D01*
X116807779Y-108705000D01*
X117053705Y-108951356D01*
X117375188Y-109084848D01*
X117723285Y-109085151D01*
X118045000Y-108952221D01*
X118187470Y-108810000D01*
X122600000Y-108810000D01*
X122600000Y-110510000D01*
X122641866Y-110720476D01*
X122761091Y-110898909D01*
X124661091Y-112798909D01*
X124839524Y-112918134D01*
X125050000Y-112960001D01*
X125050005Y-112960000D01*
X136600000Y-112960000D01*
X136810476Y-112918134D01*
X136988909Y-112798909D01*
X138888909Y-110898909D01*
X139008134Y-110720476D01*
X139050001Y-110510000D01*
X139050000Y-110509995D01*
X139050000Y-105167818D01*
X139367818Y-104850000D01*
X139441674Y-104850000D01*
X139441674Y-105050000D01*
X139474659Y-105215827D01*
X139568592Y-105356408D01*
X139709173Y-105450341D01*
X139875000Y-105483326D01*
X141125000Y-105483326D01*
X141290827Y-105450341D01*
X141431408Y-105356408D01*
X141525341Y-105215827D01*
X141558326Y-105050000D01*
X141558326Y-104975000D01*
X142241674Y-104975000D01*
X142241674Y-105050000D01*
X142274659Y-105215827D01*
X142368592Y-105356408D01*
X142509173Y-105450341D01*
X142675000Y-105483326D01*
X143925000Y-105483326D01*
X144090827Y-105450341D01*
X144231408Y-105356408D01*
X144325341Y-105215827D01*
X144358326Y-105050000D01*
X144358326Y-104975000D01*
X144450000Y-104975000D01*
X144708312Y-104923619D01*
X144927297Y-104777297D01*
X145676268Y-104028326D01*
X147000000Y-104028326D01*
X147165827Y-103995341D01*
X147203753Y-103970000D01*
X148855000Y-103970000D01*
X149113312Y-103918619D01*
X149332297Y-103772297D01*
X150925000Y-102179594D01*
X150925000Y-113480000D01*
X142280000Y-113480000D01*
X142270433Y-113481903D01*
X142262322Y-113487322D01*
X142256903Y-113495433D01*
X142255000Y-113505000D01*
X142255000Y-123015000D01*
X142256903Y-123024567D01*
X142262322Y-123032678D01*
X142270433Y-123038097D01*
X142280000Y-123040000D01*
X150925000Y-123040000D01*
X150925000Y-123965000D01*
X142210000Y-123965000D01*
X142200433Y-123966903D01*
X142192322Y-123972322D01*
X142186903Y-123980433D01*
X142185000Y-123990000D01*
X142185000Y-132140000D01*
X142186903Y-132149567D01*
X142192322Y-132157678D01*
X142200433Y-132163097D01*
X142210000Y-132165000D01*
X150925000Y-132165000D01*
X150925000Y-132900000D01*
X114500000Y-132900000D01*
X114500000Y-125500000D01*
X114461940Y-125308658D01*
X114353553Y-125146447D01*
X114191342Y-125038060D01*
X114000000Y-125000000D01*
X105000000Y-125000000D01*
X105000000Y-122176461D01*
X106884775Y-122176461D01*
X107081512Y-122652600D01*
X107445483Y-123017208D01*
X107921278Y-123214775D01*
X108436461Y-123215225D01*
X108912600Y-123018488D01*
X109277208Y-122654517D01*
X109295590Y-122610246D01*
X117004580Y-122610246D01*
X117372986Y-123501858D01*
X118054554Y-124184617D01*
X118945521Y-124554579D01*
X119910246Y-124555420D01*
X120801858Y-124187014D01*
X121484617Y-123505446D01*
X121854579Y-122614479D01*
X121855420Y-121649754D01*
X121487014Y-120758142D01*
X120805446Y-120075383D01*
X119914479Y-119705421D01*
X118949754Y-119704580D01*
X118058142Y-120072986D01*
X117375383Y-120754554D01*
X117005421Y-121645521D01*
X117004580Y-122610246D01*
X109295590Y-122610246D01*
X109474775Y-122178722D01*
X109475225Y-121663539D01*
X109278488Y-121187400D01*
X108914517Y-120822792D01*
X108438722Y-120625225D01*
X107923539Y-120624775D01*
X107447400Y-120821512D01*
X107082792Y-121185483D01*
X106885225Y-121661278D01*
X106884775Y-122176461D01*
X105000000Y-122176461D01*
X105000000Y-113590013D01*
X125695000Y-113590013D01*
X125705000Y-132170013D01*
X125706903Y-132179567D01*
X125712322Y-132187678D01*
X125720433Y-132193097D01*
X125730000Y-132195000D01*
X141400000Y-132195000D01*
X141409567Y-132193097D01*
X141417678Y-132187678D01*
X141423097Y-132179567D01*
X141425000Y-132170000D01*
X141425000Y-113990000D01*
X141423097Y-113980433D01*
X141417678Y-113972322D01*
X141414277Y-113970050D01*
X141404993Y-113589390D01*
X141403097Y-113580433D01*
X141397678Y-113572322D01*
X141389567Y-113566903D01*
X141380000Y-113565000D01*
X125720000Y-113565000D01*
X125710420Y-113566908D01*
X125702313Y-113572332D01*
X125696898Y-113580445D01*
X125695000Y-113590013D01*
X105000000Y-113590013D01*
X105000000Y-106194042D01*
X107775000Y-106194042D01*
X107775000Y-106245958D01*
X107875860Y-106753014D01*
X108163084Y-107182874D01*
X108592944Y-107470098D01*
X108692998Y-107490000D01*
X108592944Y-107509902D01*
X108163084Y-107797126D01*
X107875860Y-108226986D01*
X107775000Y-108734042D01*
X107775000Y-108785958D01*
X107875860Y-109293014D01*
X108163084Y-109722874D01*
X108592944Y-110010098D01*
X109100000Y-110110958D01*
X109607056Y-110010098D01*
X110036916Y-109722874D01*
X110324140Y-109293014D01*
X110370000Y-109062461D01*
X110415860Y-109293014D01*
X110703084Y-109722874D01*
X111132944Y-110010098D01*
X111640000Y-110110958D01*
X112147056Y-110010098D01*
X112576916Y-109722874D01*
X112864140Y-109293014D01*
X112965000Y-108785958D01*
X112965000Y-108734042D01*
X112864140Y-108226986D01*
X112576916Y-107797126D01*
X112147056Y-107509902D01*
X112047002Y-107490000D01*
X112147056Y-107470098D01*
X112576916Y-107182874D01*
X112864140Y-106753014D01*
X112965000Y-106245958D01*
X112965000Y-106194042D01*
X112864140Y-105686986D01*
X112576916Y-105257126D01*
X112147056Y-104969902D01*
X111640000Y-104869042D01*
X111132944Y-104969902D01*
X110703084Y-105257126D01*
X110415860Y-105686986D01*
X110370000Y-105917539D01*
X110324140Y-105686986D01*
X110036916Y-105257126D01*
X109607056Y-104969902D01*
X109100000Y-104869042D01*
X108592944Y-104969902D01*
X108163084Y-105257126D01*
X107875860Y-105686986D01*
X107775000Y-106194042D01*
X105000000Y-106194042D01*
X105000000Y-95625981D01*
X108419645Y-95625981D01*
X108731081Y-96379715D01*
X109307252Y-96956892D01*
X110060441Y-97269643D01*
X110875981Y-97270355D01*
X111629715Y-96958919D01*
X112206892Y-96382748D01*
X112519643Y-95629559D01*
X112520355Y-94814019D01*
X112208919Y-94060285D01*
X111711112Y-93561608D01*
X115599789Y-93561608D01*
X115785131Y-94010172D01*
X116128023Y-94353662D01*
X116576262Y-94539788D01*
X117061608Y-94540211D01*
X117510172Y-94354869D01*
X117853662Y-94011977D01*
X118039788Y-93563738D01*
X118040211Y-93078392D01*
X118032536Y-93059816D01*
X118674039Y-93059816D01*
X118760859Y-93264245D01*
X119271137Y-93401098D01*
X119794944Y-93332258D01*
X119959141Y-93264245D01*
X120045961Y-93059816D01*
X119360000Y-92373855D01*
X118674039Y-93059816D01*
X118032536Y-93059816D01*
X117854869Y-92629828D01*
X117511977Y-92286338D01*
X117063738Y-92100212D01*
X116966793Y-92100128D01*
X117254944Y-92062258D01*
X117419141Y-91994245D01*
X117433201Y-91961137D01*
X118008902Y-91961137D01*
X118077742Y-92484944D01*
X118145755Y-92649141D01*
X118350184Y-92735961D01*
X119036145Y-92050000D01*
X119683855Y-92050000D01*
X120369816Y-92735961D01*
X120574245Y-92649141D01*
X120711098Y-92138863D01*
X120642258Y-91615056D01*
X120574245Y-91450859D01*
X120369816Y-91364039D01*
X119683855Y-92050000D01*
X119036145Y-92050000D01*
X118350184Y-91364039D01*
X118145755Y-91450859D01*
X118008902Y-91961137D01*
X117433201Y-91961137D01*
X117505961Y-91789816D01*
X116820000Y-91103855D01*
X116134039Y-91789816D01*
X116220859Y-91994245D01*
X116614514Y-92099820D01*
X116578392Y-92099789D01*
X116129828Y-92285131D01*
X115786338Y-92628023D01*
X115600212Y-93076262D01*
X115599789Y-93561608D01*
X111711112Y-93561608D01*
X111632748Y-93483108D01*
X110879559Y-93170357D01*
X110064019Y-93169645D01*
X109310285Y-93481081D01*
X108733108Y-94057252D01*
X108420357Y-94810441D01*
X108419645Y-95625981D01*
X105000000Y-95625981D01*
X105000000Y-90691137D01*
X115468902Y-90691137D01*
X115537742Y-91214944D01*
X115605755Y-91379141D01*
X115810184Y-91465961D01*
X116496145Y-90780000D01*
X117143855Y-90780000D01*
X117829816Y-91465961D01*
X118034245Y-91379141D01*
X118171098Y-90868863D01*
X118102258Y-90345056D01*
X118034245Y-90180859D01*
X117829816Y-90094039D01*
X117143855Y-90780000D01*
X116496145Y-90780000D01*
X115810184Y-90094039D01*
X115605755Y-90180859D01*
X115468902Y-90691137D01*
X105000000Y-90691137D01*
X105000000Y-88481608D01*
X115599789Y-88481608D01*
X115785131Y-88930172D01*
X116128023Y-89273662D01*
X116576262Y-89459788D01*
X116673207Y-89459872D01*
X116385056Y-89497742D01*
X116220859Y-89565755D01*
X116134039Y-89770184D01*
X116820000Y-90456145D01*
X117505961Y-89770184D01*
X117498072Y-89751608D01*
X118139789Y-89751608D01*
X118325131Y-90200172D01*
X118668023Y-90543662D01*
X119116262Y-90729788D01*
X119213207Y-90729872D01*
X118925056Y-90767742D01*
X118760859Y-90835755D01*
X118674039Y-91040184D01*
X119360000Y-91726145D01*
X120045961Y-91040184D01*
X119959141Y-90835755D01*
X119565486Y-90730180D01*
X119601608Y-90730211D01*
X120050172Y-90544869D01*
X120393662Y-90201977D01*
X120579788Y-89753738D01*
X120580211Y-89268392D01*
X120394869Y-88819828D01*
X120051977Y-88476338D01*
X119603738Y-88290212D01*
X119506793Y-88290128D01*
X119794944Y-88252258D01*
X119959141Y-88184245D01*
X120045961Y-87979816D01*
X119360000Y-87293855D01*
X118674039Y-87979816D01*
X118760859Y-88184245D01*
X119154514Y-88289820D01*
X119118392Y-88289789D01*
X118669828Y-88475131D01*
X118326338Y-88818023D01*
X118140212Y-89266262D01*
X118139789Y-89751608D01*
X117498072Y-89751608D01*
X117419141Y-89565755D01*
X117025486Y-89460180D01*
X117061608Y-89460211D01*
X117510172Y-89274869D01*
X117853662Y-88931977D01*
X118039788Y-88483738D01*
X118040211Y-87998392D01*
X117854869Y-87549828D01*
X117511977Y-87206338D01*
X117063738Y-87020212D01*
X116578392Y-87019789D01*
X116129828Y-87205131D01*
X115786338Y-87548023D01*
X115600212Y-87996262D01*
X115599789Y-88481608D01*
X105000000Y-88481608D01*
X105000000Y-85465981D01*
X108419645Y-85465981D01*
X108731081Y-86219715D01*
X109307252Y-86796892D01*
X110060441Y-87109643D01*
X110875981Y-87110355D01*
X111430731Y-86881137D01*
X118008902Y-86881137D01*
X118077742Y-87404944D01*
X118145755Y-87569141D01*
X118350184Y-87655961D01*
X119036145Y-86970000D01*
X119683855Y-86970000D01*
X120369816Y-87655961D01*
X120574245Y-87569141D01*
X120711098Y-87058863D01*
X120642258Y-86535056D01*
X120574245Y-86370859D01*
X120369816Y-86284039D01*
X119683855Y-86970000D01*
X119036145Y-86970000D01*
X118350184Y-86284039D01*
X118145755Y-86370859D01*
X118008902Y-86881137D01*
X111430731Y-86881137D01*
X111629715Y-86798919D01*
X112206892Y-86222748D01*
X112315917Y-85960184D01*
X118674039Y-85960184D01*
X119360000Y-86646145D01*
X120045961Y-85960184D01*
X119959141Y-85755755D01*
X119448863Y-85618902D01*
X118925056Y-85687742D01*
X118760859Y-85755755D01*
X118674039Y-85960184D01*
X112315917Y-85960184D01*
X112519643Y-85469559D01*
X112520355Y-84654019D01*
X112208919Y-83900285D01*
X111632748Y-83323108D01*
X110879559Y-83010357D01*
X110064019Y-83009645D01*
X109310285Y-83321081D01*
X108733108Y-83897252D01*
X108420357Y-84650441D01*
X108419645Y-85465981D01*
X105000000Y-85465981D01*
X105000000Y-74350246D01*
X117004580Y-74350246D01*
X117372986Y-75241858D01*
X118054554Y-75924617D01*
X118945521Y-76294579D01*
X119910246Y-76295420D01*
X120801858Y-75927014D01*
X121484617Y-75245446D01*
X121854579Y-74354479D01*
X121855420Y-73389754D01*
X121487014Y-72498142D01*
X120805446Y-71815383D01*
X119914479Y-71445421D01*
X118949754Y-71444580D01*
X118058142Y-71812986D01*
X117375383Y-72494554D01*
X117005421Y-73385521D01*
X117004580Y-74350246D01*
X105000000Y-74350246D01*
X105000000Y-71000000D01*
X114000000Y-71000000D01*
X114191342Y-70961940D01*
X114353553Y-70853553D01*
X114461940Y-70691342D01*
X114500000Y-70500000D01*
X114500000Y-63100000D01*
X128275000Y-63100000D01*
X128275000Y-80900000D01*
X128275000Y-80900000D01*
G37*
X128275000Y-80900000D02*
X128276903Y-80909567D01*
X128282322Y-80917678D01*
X136232322Y-88867678D01*
X136240433Y-88873097D01*
X136250000Y-88875000D01*
X148039644Y-88875000D01*
X150925000Y-91760356D01*
X150925000Y-93220406D01*
X150022703Y-94122703D01*
X149876381Y-94341688D01*
X149876381Y-94341689D01*
X149825000Y-94600000D01*
X149825000Y-101370406D01*
X148575406Y-102620000D01*
X147454721Y-102620000D01*
X147533000Y-102431021D01*
X147533000Y-102308250D01*
X147399750Y-102175000D01*
X146479000Y-102175000D01*
X146479000Y-102274000D01*
X146021000Y-102274000D01*
X146021000Y-102175000D01*
X145100250Y-102175000D01*
X144967000Y-102308250D01*
X144967000Y-102431021D01*
X145048145Y-102626920D01*
X145134295Y-102713071D01*
X144977703Y-102817703D01*
X144339591Y-103455815D01*
X144325341Y-103384173D01*
X144231408Y-103243592D01*
X144090827Y-103149659D01*
X143925000Y-103116674D01*
X142675000Y-103116674D01*
X142509173Y-103149659D01*
X142368592Y-103243592D01*
X142274659Y-103384173D01*
X142241674Y-103550000D01*
X142241674Y-103625000D01*
X141558326Y-103625000D01*
X141558326Y-103550000D01*
X141525341Y-103384173D01*
X141431408Y-103243592D01*
X141290827Y-103149659D01*
X141125000Y-103116674D01*
X139875000Y-103116674D01*
X139709173Y-103149659D01*
X139568592Y-103243592D01*
X139474659Y-103384173D01*
X139441674Y-103550000D01*
X139441674Y-103750000D01*
X139140005Y-103750000D01*
X139140000Y-103749999D01*
X138929524Y-103791866D01*
X138751091Y-103911091D01*
X138111091Y-104551091D01*
X137991866Y-104729524D01*
X137950000Y-104940000D01*
X137950000Y-105610000D01*
X137383326Y-105610000D01*
X137383326Y-105410000D01*
X137350341Y-105244173D01*
X137256408Y-105103592D01*
X137115827Y-105009659D01*
X136950000Y-104976674D01*
X135650000Y-104976674D01*
X135484173Y-105009659D01*
X135343592Y-105103592D01*
X135249659Y-105244173D01*
X135216674Y-105410000D01*
X135216674Y-106910000D01*
X135249659Y-107075827D01*
X135343592Y-107216408D01*
X135484173Y-107310341D01*
X135650000Y-107343326D01*
X136950000Y-107343326D01*
X137115827Y-107310341D01*
X137256408Y-107216408D01*
X137350341Y-107075827D01*
X137383326Y-106910000D01*
X137383326Y-106710000D01*
X137950000Y-106710000D01*
X137950000Y-110282182D01*
X136372182Y-111860000D01*
X125277818Y-111860000D01*
X123700000Y-110282182D01*
X123700000Y-108779212D01*
X123831408Y-108691408D01*
X123925341Y-108550827D01*
X123958326Y-108385000D01*
X123958326Y-108310000D01*
X124500000Y-108310000D01*
X124500000Y-110310000D01*
X124541866Y-110520476D01*
X124661091Y-110698909D01*
X125261091Y-111298909D01*
X125439524Y-111418134D01*
X125650000Y-111460000D01*
X126562683Y-111460000D01*
X126753705Y-111651356D01*
X127075188Y-111784848D01*
X127423285Y-111785151D01*
X127745000Y-111652221D01*
X127991356Y-111406295D01*
X128124848Y-111084812D01*
X128125151Y-110736715D01*
X127992221Y-110415000D01*
X127746295Y-110168644D01*
X127424812Y-110035152D01*
X127076715Y-110034849D01*
X126755000Y-110167779D01*
X126562443Y-110360000D01*
X125877818Y-110360000D01*
X125600000Y-110082182D01*
X125600000Y-108712394D01*
X125709173Y-108785341D01*
X125875000Y-108818326D01*
X126625000Y-108818326D01*
X126666858Y-108810000D01*
X126822182Y-108810000D01*
X128811091Y-110798909D01*
X128989524Y-110918134D01*
X129200000Y-110960000D01*
X134750000Y-110960000D01*
X134960476Y-110918134D01*
X135138909Y-110798909D01*
X135894492Y-110043326D01*
X136950000Y-110043326D01*
X137115827Y-110010341D01*
X137256408Y-109916408D01*
X137350341Y-109775827D01*
X137383326Y-109610000D01*
X137383326Y-108110000D01*
X137350341Y-107944173D01*
X137256408Y-107803592D01*
X137115827Y-107709659D01*
X136950000Y-107676674D01*
X135650000Y-107676674D01*
X135484173Y-107709659D01*
X135343592Y-107803592D01*
X135249659Y-107944173D01*
X135216674Y-108110000D01*
X135216674Y-109165508D01*
X134522182Y-109860000D01*
X134323362Y-109860000D01*
X134383000Y-109716020D01*
X134383000Y-109222250D01*
X134249750Y-109089000D01*
X133429000Y-109089000D01*
X133429000Y-109109000D01*
X132971000Y-109109000D01*
X132971000Y-109089000D01*
X132150250Y-109089000D01*
X132017000Y-109222250D01*
X132017000Y-109716020D01*
X132076638Y-109860000D01*
X130994099Y-109860000D01*
X131050341Y-109775827D01*
X131083326Y-109610000D01*
X131083326Y-108110000D01*
X131062238Y-108003980D01*
X132017000Y-108003980D01*
X132017000Y-108497750D01*
X132150250Y-108631000D01*
X132971000Y-108631000D01*
X132971000Y-107710250D01*
X133429000Y-107710250D01*
X133429000Y-108631000D01*
X134249750Y-108631000D01*
X134383000Y-108497750D01*
X134383000Y-108003980D01*
X134301856Y-107808080D01*
X134151920Y-107658145D01*
X133956021Y-107577000D01*
X133562250Y-107577000D01*
X133429000Y-107710250D01*
X132971000Y-107710250D01*
X132837750Y-107577000D01*
X132443979Y-107577000D01*
X132248080Y-107658145D01*
X132098144Y-107808080D01*
X132017000Y-108003980D01*
X131062238Y-108003980D01*
X131050341Y-107944173D01*
X130956408Y-107803592D01*
X130815827Y-107709659D01*
X130650000Y-107676674D01*
X129350000Y-107676674D01*
X129184173Y-107709659D01*
X129043592Y-107803592D01*
X128949659Y-107944173D01*
X128916674Y-108110000D01*
X128916674Y-108148856D01*
X127638909Y-106871091D01*
X127460476Y-106751866D01*
X127250000Y-106710000D01*
X127158000Y-106710000D01*
X127158000Y-106528979D01*
X127155213Y-106522250D01*
X128817000Y-106522250D01*
X128817000Y-107016020D01*
X128898144Y-107211920D01*
X129048080Y-107361855D01*
X129243979Y-107443000D01*
X129637750Y-107443000D01*
X129771000Y-107309750D01*
X129771000Y-106389000D01*
X130229000Y-106389000D01*
X130229000Y-107309750D01*
X130362250Y-107443000D01*
X130756021Y-107443000D01*
X130951920Y-107361855D01*
X131101856Y-107211920D01*
X131183000Y-107016020D01*
X131183000Y-106522250D01*
X131049750Y-106389000D01*
X130229000Y-106389000D01*
X129771000Y-106389000D01*
X128950250Y-106389000D01*
X128817000Y-106522250D01*
X127155213Y-106522250D01*
X127076855Y-106333080D01*
X126926920Y-106183144D01*
X126731020Y-106102000D01*
X126570750Y-106102000D01*
X126437500Y-106235250D01*
X126437500Y-106697500D01*
X126499000Y-106697500D01*
X126499000Y-106701674D01*
X126001000Y-106701674D01*
X126001000Y-106697500D01*
X126062500Y-106697500D01*
X126062500Y-106235250D01*
X125929250Y-106102000D01*
X125785818Y-106102000D01*
X126677818Y-105210000D01*
X128855928Y-105210000D01*
X128817000Y-105303980D01*
X128817000Y-105797750D01*
X128950250Y-105931000D01*
X129771000Y-105931000D01*
X129771000Y-105911000D01*
X130229000Y-105911000D01*
X130229000Y-105931000D01*
X131049750Y-105931000D01*
X131183000Y-105797750D01*
X131183000Y-105303980D01*
X131144072Y-105210000D01*
X132172493Y-105210000D01*
X132149659Y-105244173D01*
X132116674Y-105410000D01*
X132116674Y-106910000D01*
X132149659Y-107075827D01*
X132243592Y-107216408D01*
X132384173Y-107310341D01*
X132550000Y-107343326D01*
X133850000Y-107343326D01*
X134015827Y-107310341D01*
X134156408Y-107216408D01*
X134250341Y-107075827D01*
X134283326Y-106910000D01*
X134283326Y-105410000D01*
X134250341Y-105244173D01*
X134156408Y-105103592D01*
X134015827Y-105009659D01*
X133850000Y-104976674D01*
X133692866Y-104976674D01*
X133588909Y-104821091D01*
X133588906Y-104821089D01*
X133038909Y-104271091D01*
X132860476Y-104151866D01*
X132650000Y-104110000D01*
X126450000Y-104110000D01*
X126239524Y-104151866D01*
X126061091Y-104271091D01*
X123900374Y-106431808D01*
X123831408Y-106328592D01*
X123690827Y-106234659D01*
X123525000Y-106201674D01*
X122775000Y-106201674D01*
X122733142Y-106210000D01*
X121477817Y-106210000D01*
X121250000Y-105982182D01*
X121250000Y-101282865D01*
X121375188Y-101334848D01*
X121723285Y-101335151D01*
X122045000Y-101202221D01*
X122291356Y-100956295D01*
X122375902Y-100752687D01*
X122468592Y-100891408D01*
X122609173Y-100985341D01*
X122775000Y-101018326D01*
X123525000Y-101018326D01*
X123566858Y-101010000D01*
X123922182Y-101010000D01*
X124217361Y-101305178D01*
X124108644Y-101413705D01*
X123975152Y-101735188D01*
X123974849Y-102083285D01*
X124107779Y-102405000D01*
X124353705Y-102651356D01*
X124675188Y-102784848D01*
X125023285Y-102785151D01*
X125345000Y-102652221D01*
X125591356Y-102406295D01*
X125724848Y-102084812D01*
X125725151Y-101736715D01*
X125592221Y-101415000D01*
X125400000Y-101222443D01*
X125400000Y-101160000D01*
X125358134Y-100949524D01*
X125238909Y-100771091D01*
X125238906Y-100771089D01*
X124905720Y-100437903D01*
X125038909Y-100348909D01*
X125377818Y-100010000D01*
X125441674Y-100010000D01*
X125441674Y-100085000D01*
X125466538Y-100210000D01*
X125441674Y-100335000D01*
X125441674Y-100585000D01*
X125474659Y-100750827D01*
X125568592Y-100891408D01*
X125709173Y-100985341D01*
X125875000Y-101018326D01*
X126580508Y-101018326D01*
X126700000Y-101137818D01*
X126700000Y-101172683D01*
X126508644Y-101363705D01*
X126375152Y-101685188D01*
X126374849Y-102033285D01*
X126507779Y-102355000D01*
X126753705Y-102601356D01*
X127075188Y-102734848D01*
X127423285Y-102735151D01*
X127745000Y-102602221D01*
X127991356Y-102356295D01*
X128124848Y-102034812D01*
X128125151Y-101686715D01*
X128073224Y-101561042D01*
X129061091Y-102548909D01*
X129239524Y-102668134D01*
X129450000Y-102710000D01*
X132550000Y-102710000D01*
X132760476Y-102668134D01*
X132938909Y-102548909D01*
X133325567Y-102162250D01*
X139342000Y-102162250D01*
X139342000Y-102656020D01*
X139423144Y-102851920D01*
X139573080Y-103001855D01*
X139768979Y-103083000D01*
X140137750Y-103083000D01*
X140271000Y-102949750D01*
X140271000Y-102029000D01*
X140729000Y-102029000D01*
X140729000Y-102949750D01*
X140862250Y-103083000D01*
X141231021Y-103083000D01*
X141426920Y-103001855D01*
X141576856Y-102851920D01*
X141658000Y-102656020D01*
X141658000Y-102162250D01*
X142142000Y-102162250D01*
X142142000Y-102656020D01*
X142223144Y-102851920D01*
X142373080Y-103001855D01*
X142568979Y-103083000D01*
X142937750Y-103083000D01*
X143071000Y-102949750D01*
X143071000Y-102029000D01*
X143529000Y-102029000D01*
X143529000Y-102949750D01*
X143662250Y-103083000D01*
X144031021Y-103083000D01*
X144226920Y-103001855D01*
X144376856Y-102851920D01*
X144458000Y-102656020D01*
X144458000Y-102162250D01*
X144324750Y-102029000D01*
X143529000Y-102029000D01*
X143071000Y-102029000D01*
X142275250Y-102029000D01*
X142142000Y-102162250D01*
X141658000Y-102162250D01*
X141524750Y-102029000D01*
X140729000Y-102029000D01*
X140271000Y-102029000D01*
X139475250Y-102029000D01*
X139342000Y-102162250D01*
X133325567Y-102162250D01*
X133488906Y-101998911D01*
X133488909Y-101998909D01*
X133526048Y-101943326D01*
X133750000Y-101943326D01*
X133915827Y-101910341D01*
X134056408Y-101816408D01*
X134150341Y-101675827D01*
X134183326Y-101510000D01*
X134183326Y-100943980D01*
X139342000Y-100943980D01*
X139342000Y-101437750D01*
X139475250Y-101571000D01*
X140271000Y-101571000D01*
X140271000Y-100650250D01*
X140729000Y-100650250D01*
X140729000Y-101571000D01*
X141524750Y-101571000D01*
X141658000Y-101437750D01*
X141658000Y-100943980D01*
X142142000Y-100943980D01*
X142142000Y-101437750D01*
X142275250Y-101571000D01*
X143071000Y-101571000D01*
X143071000Y-100650250D01*
X143529000Y-100650250D01*
X143529000Y-101571000D01*
X144324750Y-101571000D01*
X144458000Y-101437750D01*
X144458000Y-100943980D01*
X144376856Y-100748080D01*
X144226920Y-100598145D01*
X144031021Y-100517000D01*
X143662250Y-100517000D01*
X143529000Y-100650250D01*
X143071000Y-100650250D01*
X142937750Y-100517000D01*
X142568979Y-100517000D01*
X142373080Y-100598145D01*
X142223144Y-100748080D01*
X142142000Y-100943980D01*
X141658000Y-100943980D01*
X141576856Y-100748080D01*
X141426920Y-100598145D01*
X141231021Y-100517000D01*
X140862250Y-100517000D01*
X140729000Y-100650250D01*
X140271000Y-100650250D01*
X140137750Y-100517000D01*
X139768979Y-100517000D01*
X139573080Y-100598145D01*
X139423144Y-100748080D01*
X139342000Y-100943980D01*
X134183326Y-100943980D01*
X134183326Y-100010000D01*
X134150341Y-99844173D01*
X134056408Y-99703592D01*
X133915827Y-99609659D01*
X133750000Y-99576674D01*
X132450000Y-99576674D01*
X132284173Y-99609659D01*
X132143592Y-99703592D01*
X132049659Y-99844173D01*
X132016674Y-100010000D01*
X132016674Y-101510000D01*
X132036565Y-101610000D01*
X131263435Y-101610000D01*
X131283326Y-101510000D01*
X131283326Y-100010000D01*
X131250341Y-99844173D01*
X131156408Y-99703592D01*
X131015827Y-99609659D01*
X130850000Y-99576674D01*
X129550000Y-99576674D01*
X129384173Y-99609659D01*
X129243592Y-99703592D01*
X129149659Y-99844173D01*
X129116674Y-100010000D01*
X129116674Y-100148857D01*
X128038909Y-99071091D01*
X127860476Y-98951866D01*
X127650000Y-98910000D01*
X127158000Y-98910000D01*
X127158000Y-98728979D01*
X127076855Y-98533080D01*
X126966026Y-98422250D01*
X129017000Y-98422250D01*
X129017000Y-98916020D01*
X129098144Y-99111920D01*
X129248080Y-99261855D01*
X129443979Y-99343000D01*
X129837750Y-99343000D01*
X129971000Y-99209750D01*
X129971000Y-98289000D01*
X130429000Y-98289000D01*
X130429000Y-99209750D01*
X130562250Y-99343000D01*
X130956021Y-99343000D01*
X131151920Y-99261855D01*
X131301856Y-99111920D01*
X131383000Y-98916020D01*
X131383000Y-98422250D01*
X131249750Y-98289000D01*
X130429000Y-98289000D01*
X129971000Y-98289000D01*
X129150250Y-98289000D01*
X129017000Y-98422250D01*
X126966026Y-98422250D01*
X126926920Y-98383144D01*
X126731020Y-98302000D01*
X126570750Y-98302000D01*
X126437500Y-98435250D01*
X126437500Y-98897500D01*
X126499000Y-98897500D01*
X126499000Y-98901674D01*
X126001000Y-98901674D01*
X126001000Y-98897500D01*
X126062500Y-98897500D01*
X126062500Y-98435250D01*
X125929250Y-98302000D01*
X125768980Y-98302000D01*
X125573080Y-98383144D01*
X125423145Y-98533080D01*
X125342000Y-98728979D01*
X125342000Y-98910000D01*
X125150005Y-98910000D01*
X125150000Y-98909999D01*
X124939524Y-98951866D01*
X124761091Y-99071091D01*
X124422182Y-99410000D01*
X123958326Y-99410000D01*
X123958326Y-99335000D01*
X123933462Y-99210000D01*
X123958326Y-99085000D01*
X123958326Y-98835000D01*
X123925341Y-98669173D01*
X123831408Y-98528592D01*
X123690827Y-98434659D01*
X123525000Y-98401674D01*
X122969491Y-98401674D01*
X122750000Y-98182182D01*
X122750000Y-97587818D01*
X123077818Y-97260000D01*
X129017000Y-97260000D01*
X129017000Y-97697750D01*
X129150250Y-97831000D01*
X129971000Y-97831000D01*
X129971000Y-97811000D01*
X130429000Y-97811000D01*
X130429000Y-97831000D01*
X131249750Y-97831000D01*
X131383000Y-97697750D01*
X131383000Y-97260000D01*
X131522182Y-97260000D01*
X132016674Y-97754492D01*
X132016674Y-98810000D01*
X132049659Y-98975827D01*
X132143592Y-99116408D01*
X132284173Y-99210341D01*
X132450000Y-99243326D01*
X133750000Y-99243326D01*
X133915827Y-99210341D01*
X134056408Y-99116408D01*
X134150341Y-98975827D01*
X134183326Y-98810000D01*
X134183326Y-97310000D01*
X134150341Y-97144173D01*
X134056408Y-97003592D01*
X133915827Y-96909659D01*
X133750000Y-96876674D01*
X132694492Y-96876674D01*
X132138909Y-96321091D01*
X131960476Y-96201866D01*
X131750000Y-96160000D01*
X122850005Y-96160000D01*
X122850000Y-96159999D01*
X122639524Y-96201866D01*
X122461091Y-96321091D01*
X121811091Y-96971091D01*
X121691866Y-97149524D01*
X121650000Y-97360000D01*
X121650000Y-98410000D01*
X121691866Y-98620476D01*
X121811091Y-98798909D01*
X121922182Y-98910000D01*
X121250000Y-98910000D01*
X121250000Y-96737818D01*
X126138906Y-91848911D01*
X126138909Y-91848909D01*
X126258134Y-91670476D01*
X126300000Y-91460000D01*
X126300000Y-90237317D01*
X126362426Y-90175000D01*
X128170406Y-90175000D01*
X137957703Y-99962297D01*
X138176689Y-100108619D01*
X138435000Y-100160000D01*
X145185969Y-100160000D01*
X145099659Y-100289173D01*
X145066674Y-100455000D01*
X145066674Y-101055000D01*
X145099659Y-101220827D01*
X145160036Y-101311188D01*
X145048145Y-101423080D01*
X144967000Y-101618979D01*
X144967000Y-101741750D01*
X145100250Y-101875000D01*
X146021000Y-101875000D01*
X146021000Y-101776000D01*
X146479000Y-101776000D01*
X146479000Y-101875000D01*
X147399750Y-101875000D01*
X147533000Y-101741750D01*
X147533000Y-101618979D01*
X147451855Y-101423080D01*
X147339964Y-101311188D01*
X147400341Y-101220827D01*
X147433326Y-101055000D01*
X147433326Y-100455000D01*
X147400341Y-100289173D01*
X147306408Y-100148592D01*
X147263617Y-100120000D01*
X147306408Y-100091408D01*
X147400341Y-99950827D01*
X147433326Y-99785000D01*
X147433326Y-99185000D01*
X147400341Y-99019173D01*
X147306408Y-98878592D01*
X147263617Y-98850000D01*
X147306408Y-98821408D01*
X147400341Y-98680827D01*
X147433326Y-98515000D01*
X147433326Y-97915000D01*
X147400341Y-97749173D01*
X147306408Y-97608592D01*
X147263617Y-97580000D01*
X147306408Y-97551408D01*
X147400341Y-97410827D01*
X147433326Y-97245000D01*
X147433326Y-96645000D01*
X147400341Y-96479173D01*
X147306408Y-96338592D01*
X147263617Y-96310000D01*
X147306408Y-96281408D01*
X147400341Y-96140827D01*
X147433326Y-95975000D01*
X147433326Y-95375000D01*
X147400341Y-95209173D01*
X147339964Y-95118812D01*
X147451855Y-95006920D01*
X147533000Y-94811021D01*
X147533000Y-94688250D01*
X147399750Y-94555000D01*
X146479000Y-94555000D01*
X146479000Y-94654000D01*
X146021000Y-94654000D01*
X146021000Y-94555000D01*
X145100250Y-94555000D01*
X144967000Y-94688250D01*
X144967000Y-94811021D01*
X145048145Y-95006920D01*
X145160036Y-95118812D01*
X145099659Y-95209173D01*
X145066674Y-95375000D01*
X145066674Y-95975000D01*
X145099659Y-96140827D01*
X145193592Y-96281408D01*
X145236383Y-96310000D01*
X145193592Y-96338592D01*
X145099659Y-96479173D01*
X145066674Y-96645000D01*
X145066674Y-97245000D01*
X145099659Y-97410827D01*
X145185969Y-97540000D01*
X139294594Y-97540000D01*
X135753573Y-93998979D01*
X144967000Y-93998979D01*
X144967000Y-94121750D01*
X145100250Y-94255000D01*
X146021000Y-94255000D01*
X146021000Y-93705250D01*
X146479000Y-93705250D01*
X146479000Y-94255000D01*
X147399750Y-94255000D01*
X147533000Y-94121750D01*
X147533000Y-93998979D01*
X147451855Y-93803080D01*
X147301920Y-93653144D01*
X147106020Y-93572000D01*
X146612250Y-93572000D01*
X146479000Y-93705250D01*
X146021000Y-93705250D01*
X145887750Y-93572000D01*
X145393980Y-93572000D01*
X145198080Y-93653144D01*
X145048145Y-93803080D01*
X144967000Y-93998979D01*
X135753573Y-93998979D01*
X128125069Y-86370475D01*
X128125151Y-86276715D01*
X127992221Y-85955000D01*
X127746295Y-85708644D01*
X127424812Y-85575152D01*
X127076715Y-85574849D01*
X126755000Y-85707779D01*
X126508644Y-85953705D01*
X126375152Y-86275188D01*
X126374849Y-86623285D01*
X126507779Y-86945000D01*
X126753705Y-87191356D01*
X127075188Y-87324848D01*
X127170337Y-87324931D01*
X128748922Y-88903516D01*
X128708312Y-88876381D01*
X128450000Y-88825000D01*
X126262622Y-88825000D01*
X126246295Y-88808644D01*
X125924812Y-88675152D01*
X125576715Y-88674849D01*
X125255000Y-88807779D01*
X125008644Y-89053705D01*
X124875152Y-89375188D01*
X124874849Y-89723285D01*
X125007779Y-90045000D01*
X125200000Y-90237557D01*
X125200000Y-91232183D01*
X120311091Y-96121091D01*
X120191866Y-96299524D01*
X120150000Y-96510000D01*
X120150000Y-106210000D01*
X120191866Y-106420476D01*
X120311091Y-106598909D01*
X120861089Y-107148906D01*
X120861091Y-107148909D01*
X120952520Y-107210000D01*
X119527817Y-107210000D01*
X119174916Y-106857098D01*
X119175151Y-106586715D01*
X119042221Y-106265000D01*
X118796295Y-106018644D01*
X118474812Y-105885152D01*
X118126715Y-105884849D01*
X117805000Y-106017779D01*
X117558644Y-106263705D01*
X117425152Y-106585188D01*
X117424849Y-106933285D01*
X117557779Y-107255000D01*
X117637715Y-107335076D01*
X117376715Y-107334849D01*
X117055000Y-107467779D01*
X116808644Y-107713705D01*
X116675152Y-108035188D01*
X116674849Y-108383285D01*
X116807779Y-108705000D01*
X117053705Y-108951356D01*
X117375188Y-109084848D01*
X117723285Y-109085151D01*
X118045000Y-108952221D01*
X118187470Y-108810000D01*
X122600000Y-108810000D01*
X122600000Y-110510000D01*
X122641866Y-110720476D01*
X122761091Y-110898909D01*
X124661091Y-112798909D01*
X124839524Y-112918134D01*
X125050000Y-112960001D01*
X125050005Y-112960000D01*
X136600000Y-112960000D01*
X136810476Y-112918134D01*
X136988909Y-112798909D01*
X138888909Y-110898909D01*
X139008134Y-110720476D01*
X139050001Y-110510000D01*
X139050000Y-110509995D01*
X139050000Y-105167818D01*
X139367818Y-104850000D01*
X139441674Y-104850000D01*
X139441674Y-105050000D01*
X139474659Y-105215827D01*
X139568592Y-105356408D01*
X139709173Y-105450341D01*
X139875000Y-105483326D01*
X141125000Y-105483326D01*
X141290827Y-105450341D01*
X141431408Y-105356408D01*
X141525341Y-105215827D01*
X141558326Y-105050000D01*
X141558326Y-104975000D01*
X142241674Y-104975000D01*
X142241674Y-105050000D01*
X142274659Y-105215827D01*
X142368592Y-105356408D01*
X142509173Y-105450341D01*
X142675000Y-105483326D01*
X143925000Y-105483326D01*
X144090827Y-105450341D01*
X144231408Y-105356408D01*
X144325341Y-105215827D01*
X144358326Y-105050000D01*
X144358326Y-104975000D01*
X144450000Y-104975000D01*
X144708312Y-104923619D01*
X144927297Y-104777297D01*
X145676268Y-104028326D01*
X147000000Y-104028326D01*
X147165827Y-103995341D01*
X147203753Y-103970000D01*
X148855000Y-103970000D01*
X149113312Y-103918619D01*
X149332297Y-103772297D01*
X150925000Y-102179594D01*
X150925000Y-113480000D01*
X142280000Y-113480000D01*
X142270433Y-113481903D01*
X142262322Y-113487322D01*
X142256903Y-113495433D01*
X142255000Y-113505000D01*
X142255000Y-123015000D01*
X142256903Y-123024567D01*
X142262322Y-123032678D01*
X142270433Y-123038097D01*
X142280000Y-123040000D01*
X150925000Y-123040000D01*
X150925000Y-123965000D01*
X142210000Y-123965000D01*
X142200433Y-123966903D01*
X142192322Y-123972322D01*
X142186903Y-123980433D01*
X142185000Y-123990000D01*
X142185000Y-132140000D01*
X142186903Y-132149567D01*
X142192322Y-132157678D01*
X142200433Y-132163097D01*
X142210000Y-132165000D01*
X150925000Y-132165000D01*
X150925000Y-132900000D01*
X114500000Y-132900000D01*
X114500000Y-125500000D01*
X114461940Y-125308658D01*
X114353553Y-125146447D01*
X114191342Y-125038060D01*
X114000000Y-125000000D01*
X105000000Y-125000000D01*
X105000000Y-122176461D01*
X106884775Y-122176461D01*
X107081512Y-122652600D01*
X107445483Y-123017208D01*
X107921278Y-123214775D01*
X108436461Y-123215225D01*
X108912600Y-123018488D01*
X109277208Y-122654517D01*
X109295590Y-122610246D01*
X117004580Y-122610246D01*
X117372986Y-123501858D01*
X118054554Y-124184617D01*
X118945521Y-124554579D01*
X119910246Y-124555420D01*
X120801858Y-124187014D01*
X121484617Y-123505446D01*
X121854579Y-122614479D01*
X121855420Y-121649754D01*
X121487014Y-120758142D01*
X120805446Y-120075383D01*
X119914479Y-119705421D01*
X118949754Y-119704580D01*
X118058142Y-120072986D01*
X117375383Y-120754554D01*
X117005421Y-121645521D01*
X117004580Y-122610246D01*
X109295590Y-122610246D01*
X109474775Y-122178722D01*
X109475225Y-121663539D01*
X109278488Y-121187400D01*
X108914517Y-120822792D01*
X108438722Y-120625225D01*
X107923539Y-120624775D01*
X107447400Y-120821512D01*
X107082792Y-121185483D01*
X106885225Y-121661278D01*
X106884775Y-122176461D01*
X105000000Y-122176461D01*
X105000000Y-113590013D01*
X125695000Y-113590013D01*
X125705000Y-132170013D01*
X125706903Y-132179567D01*
X125712322Y-132187678D01*
X125720433Y-132193097D01*
X125730000Y-132195000D01*
X141400000Y-132195000D01*
X141409567Y-132193097D01*
X141417678Y-132187678D01*
X141423097Y-132179567D01*
X141425000Y-132170000D01*
X141425000Y-113990000D01*
X141423097Y-113980433D01*
X141417678Y-113972322D01*
X141414277Y-113970050D01*
X141404993Y-113589390D01*
X141403097Y-113580433D01*
X141397678Y-113572322D01*
X141389567Y-113566903D01*
X141380000Y-113565000D01*
X125720000Y-113565000D01*
X125710420Y-113566908D01*
X125702313Y-113572332D01*
X125696898Y-113580445D01*
X125695000Y-113590013D01*
X105000000Y-113590013D01*
X105000000Y-106194042D01*
X107775000Y-106194042D01*
X107775000Y-106245958D01*
X107875860Y-106753014D01*
X108163084Y-107182874D01*
X108592944Y-107470098D01*
X108692998Y-107490000D01*
X108592944Y-107509902D01*
X108163084Y-107797126D01*
X107875860Y-108226986D01*
X107775000Y-108734042D01*
X107775000Y-108785958D01*
X107875860Y-109293014D01*
X108163084Y-109722874D01*
X108592944Y-110010098D01*
X109100000Y-110110958D01*
X109607056Y-110010098D01*
X110036916Y-109722874D01*
X110324140Y-109293014D01*
X110370000Y-109062461D01*
X110415860Y-109293014D01*
X110703084Y-109722874D01*
X111132944Y-110010098D01*
X111640000Y-110110958D01*
X112147056Y-110010098D01*
X112576916Y-109722874D01*
X112864140Y-109293014D01*
X112965000Y-108785958D01*
X112965000Y-108734042D01*
X112864140Y-108226986D01*
X112576916Y-107797126D01*
X112147056Y-107509902D01*
X112047002Y-107490000D01*
X112147056Y-107470098D01*
X112576916Y-107182874D01*
X112864140Y-106753014D01*
X112965000Y-106245958D01*
X112965000Y-106194042D01*
X112864140Y-105686986D01*
X112576916Y-105257126D01*
X112147056Y-104969902D01*
X111640000Y-104869042D01*
X111132944Y-104969902D01*
X110703084Y-105257126D01*
X110415860Y-105686986D01*
X110370000Y-105917539D01*
X110324140Y-105686986D01*
X110036916Y-105257126D01*
X109607056Y-104969902D01*
X109100000Y-104869042D01*
X108592944Y-104969902D01*
X108163084Y-105257126D01*
X107875860Y-105686986D01*
X107775000Y-106194042D01*
X105000000Y-106194042D01*
X105000000Y-95625981D01*
X108419645Y-95625981D01*
X108731081Y-96379715D01*
X109307252Y-96956892D01*
X110060441Y-97269643D01*
X110875981Y-97270355D01*
X111629715Y-96958919D01*
X112206892Y-96382748D01*
X112519643Y-95629559D01*
X112520355Y-94814019D01*
X112208919Y-94060285D01*
X111711112Y-93561608D01*
X115599789Y-93561608D01*
X115785131Y-94010172D01*
X116128023Y-94353662D01*
X116576262Y-94539788D01*
X117061608Y-94540211D01*
X117510172Y-94354869D01*
X117853662Y-94011977D01*
X118039788Y-93563738D01*
X118040211Y-93078392D01*
X118032536Y-93059816D01*
X118674039Y-93059816D01*
X118760859Y-93264245D01*
X119271137Y-93401098D01*
X119794944Y-93332258D01*
X119959141Y-93264245D01*
X120045961Y-93059816D01*
X119360000Y-92373855D01*
X118674039Y-93059816D01*
X118032536Y-93059816D01*
X117854869Y-92629828D01*
X117511977Y-92286338D01*
X117063738Y-92100212D01*
X116966793Y-92100128D01*
X117254944Y-92062258D01*
X117419141Y-91994245D01*
X117433201Y-91961137D01*
X118008902Y-91961137D01*
X118077742Y-92484944D01*
X118145755Y-92649141D01*
X118350184Y-92735961D01*
X119036145Y-92050000D01*
X119683855Y-92050000D01*
X120369816Y-92735961D01*
X120574245Y-92649141D01*
X120711098Y-92138863D01*
X120642258Y-91615056D01*
X120574245Y-91450859D01*
X120369816Y-91364039D01*
X119683855Y-92050000D01*
X119036145Y-92050000D01*
X118350184Y-91364039D01*
X118145755Y-91450859D01*
X118008902Y-91961137D01*
X117433201Y-91961137D01*
X117505961Y-91789816D01*
X116820000Y-91103855D01*
X116134039Y-91789816D01*
X116220859Y-91994245D01*
X116614514Y-92099820D01*
X116578392Y-92099789D01*
X116129828Y-92285131D01*
X115786338Y-92628023D01*
X115600212Y-93076262D01*
X115599789Y-93561608D01*
X111711112Y-93561608D01*
X111632748Y-93483108D01*
X110879559Y-93170357D01*
X110064019Y-93169645D01*
X109310285Y-93481081D01*
X108733108Y-94057252D01*
X108420357Y-94810441D01*
X108419645Y-95625981D01*
X105000000Y-95625981D01*
X105000000Y-90691137D01*
X115468902Y-90691137D01*
X115537742Y-91214944D01*
X115605755Y-91379141D01*
X115810184Y-91465961D01*
X116496145Y-90780000D01*
X117143855Y-90780000D01*
X117829816Y-91465961D01*
X118034245Y-91379141D01*
X118171098Y-90868863D01*
X118102258Y-90345056D01*
X118034245Y-90180859D01*
X117829816Y-90094039D01*
X117143855Y-90780000D01*
X116496145Y-90780000D01*
X115810184Y-90094039D01*
X115605755Y-90180859D01*
X115468902Y-90691137D01*
X105000000Y-90691137D01*
X105000000Y-88481608D01*
X115599789Y-88481608D01*
X115785131Y-88930172D01*
X116128023Y-89273662D01*
X116576262Y-89459788D01*
X116673207Y-89459872D01*
X116385056Y-89497742D01*
X116220859Y-89565755D01*
X116134039Y-89770184D01*
X116820000Y-90456145D01*
X117505961Y-89770184D01*
X117498072Y-89751608D01*
X118139789Y-89751608D01*
X118325131Y-90200172D01*
X118668023Y-90543662D01*
X119116262Y-90729788D01*
X119213207Y-90729872D01*
X118925056Y-90767742D01*
X118760859Y-90835755D01*
X118674039Y-91040184D01*
X119360000Y-91726145D01*
X120045961Y-91040184D01*
X119959141Y-90835755D01*
X119565486Y-90730180D01*
X119601608Y-90730211D01*
X120050172Y-90544869D01*
X120393662Y-90201977D01*
X120579788Y-89753738D01*
X120580211Y-89268392D01*
X120394869Y-88819828D01*
X120051977Y-88476338D01*
X119603738Y-88290212D01*
X119506793Y-88290128D01*
X119794944Y-88252258D01*
X119959141Y-88184245D01*
X120045961Y-87979816D01*
X119360000Y-87293855D01*
X118674039Y-87979816D01*
X118760859Y-88184245D01*
X119154514Y-88289820D01*
X119118392Y-88289789D01*
X118669828Y-88475131D01*
X118326338Y-88818023D01*
X118140212Y-89266262D01*
X118139789Y-89751608D01*
X117498072Y-89751608D01*
X117419141Y-89565755D01*
X117025486Y-89460180D01*
X117061608Y-89460211D01*
X117510172Y-89274869D01*
X117853662Y-88931977D01*
X118039788Y-88483738D01*
X118040211Y-87998392D01*
X117854869Y-87549828D01*
X117511977Y-87206338D01*
X117063738Y-87020212D01*
X116578392Y-87019789D01*
X116129828Y-87205131D01*
X115786338Y-87548023D01*
X115600212Y-87996262D01*
X115599789Y-88481608D01*
X105000000Y-88481608D01*
X105000000Y-85465981D01*
X108419645Y-85465981D01*
X108731081Y-86219715D01*
X109307252Y-86796892D01*
X110060441Y-87109643D01*
X110875981Y-87110355D01*
X111430731Y-86881137D01*
X118008902Y-86881137D01*
X118077742Y-87404944D01*
X118145755Y-87569141D01*
X118350184Y-87655961D01*
X119036145Y-86970000D01*
X119683855Y-86970000D01*
X120369816Y-87655961D01*
X120574245Y-87569141D01*
X120711098Y-87058863D01*
X120642258Y-86535056D01*
X120574245Y-86370859D01*
X120369816Y-86284039D01*
X119683855Y-86970000D01*
X119036145Y-86970000D01*
X118350184Y-86284039D01*
X118145755Y-86370859D01*
X118008902Y-86881137D01*
X111430731Y-86881137D01*
X111629715Y-86798919D01*
X112206892Y-86222748D01*
X112315917Y-85960184D01*
X118674039Y-85960184D01*
X119360000Y-86646145D01*
X120045961Y-85960184D01*
X119959141Y-85755755D01*
X119448863Y-85618902D01*
X118925056Y-85687742D01*
X118760859Y-85755755D01*
X118674039Y-85960184D01*
X112315917Y-85960184D01*
X112519643Y-85469559D01*
X112520355Y-84654019D01*
X112208919Y-83900285D01*
X111632748Y-83323108D01*
X110879559Y-83010357D01*
X110064019Y-83009645D01*
X109310285Y-83321081D01*
X108733108Y-83897252D01*
X108420357Y-84650441D01*
X108419645Y-85465981D01*
X105000000Y-85465981D01*
X105000000Y-74350246D01*
X117004580Y-74350246D01*
X117372986Y-75241858D01*
X118054554Y-75924617D01*
X118945521Y-76294579D01*
X119910246Y-76295420D01*
X120801858Y-75927014D01*
X121484617Y-75245446D01*
X121854579Y-74354479D01*
X121855420Y-73389754D01*
X121487014Y-72498142D01*
X120805446Y-71815383D01*
X119914479Y-71445421D01*
X118949754Y-71444580D01*
X118058142Y-71812986D01*
X117375383Y-72494554D01*
X117005421Y-73385521D01*
X117004580Y-74350246D01*
X105000000Y-74350246D01*
X105000000Y-71000000D01*
X114000000Y-71000000D01*
X114191342Y-70961940D01*
X114353553Y-70853553D01*
X114461940Y-70691342D01*
X114500000Y-70500000D01*
X114500000Y-63100000D01*
X128275000Y-63100000D01*
X128275000Y-80900000D01*
G36*
X181500000Y-70500000D02*
X181538060Y-70691342D01*
X181646447Y-70853553D01*
X181808658Y-70961940D01*
X182000000Y-71000000D01*
X191000000Y-71000000D01*
X191000000Y-102329862D01*
X190889857Y-102087999D01*
X190490820Y-101713909D01*
X189979000Y-101521000D01*
X189479000Y-101521000D01*
X189479000Y-102675000D01*
X189499000Y-102675000D01*
X189499000Y-103133000D01*
X189479000Y-103133000D01*
X189479000Y-104287000D01*
X189979000Y-104287000D01*
X190490820Y-104094091D01*
X190889857Y-103720001D01*
X191000000Y-103478138D01*
X191000000Y-109629862D01*
X190889857Y-109387999D01*
X190490820Y-109013909D01*
X189979000Y-108821000D01*
X189479000Y-108821000D01*
X189479000Y-109975000D01*
X189499000Y-109975000D01*
X189499000Y-110433000D01*
X189479000Y-110433000D01*
X189479000Y-111587000D01*
X189979000Y-111587000D01*
X190490820Y-111394091D01*
X190889857Y-111020001D01*
X191000000Y-110778138D01*
X191000000Y-125000000D01*
X182000000Y-125000000D01*
X181808658Y-125038060D01*
X181646447Y-125146447D01*
X181538060Y-125308658D01*
X181500000Y-125500000D01*
X181500000Y-132900000D01*
X151975000Y-132900000D01*
X151975000Y-132165000D01*
X173630000Y-132165000D01*
X173639567Y-132163097D01*
X173647678Y-132157678D01*
X173653097Y-132149567D01*
X173655000Y-132140000D01*
X173655000Y-123990000D01*
X173653097Y-123980433D01*
X173647678Y-123972322D01*
X173639567Y-123966903D01*
X173630000Y-123965000D01*
X151975000Y-123965000D01*
X151975000Y-123040000D01*
X156770000Y-123040000D01*
X156779567Y-123038097D01*
X156787678Y-123032678D01*
X156793097Y-123024567D01*
X156795000Y-123015000D01*
X156795000Y-119435246D01*
X183044580Y-119435246D01*
X183412986Y-120326858D01*
X184094554Y-121009617D01*
X184985521Y-121379579D01*
X185950246Y-121380420D01*
X186841858Y-121012014D01*
X187524617Y-120330446D01*
X187894579Y-119439479D01*
X187895420Y-118474754D01*
X187527014Y-117583142D01*
X186845446Y-116900383D01*
X185954479Y-116530421D01*
X184989754Y-116529580D01*
X184098142Y-116897986D01*
X183415383Y-117579554D01*
X183045421Y-118470521D01*
X183044580Y-119435246D01*
X156795000Y-119435246D01*
X156795000Y-113505000D01*
X156793097Y-113495433D01*
X156787678Y-113487322D01*
X156779567Y-113481903D01*
X156770000Y-113480000D01*
X151975000Y-113480000D01*
X151975000Y-94079594D01*
X152055615Y-93998979D01*
X154267000Y-93998979D01*
X154267000Y-94121750D01*
X154400250Y-94255000D01*
X155321000Y-94255000D01*
X155321000Y-93705250D01*
X155779000Y-93705250D01*
X155779000Y-94255000D01*
X156699750Y-94255000D01*
X156833000Y-94121750D01*
X156833000Y-93998979D01*
X156751855Y-93803080D01*
X156601920Y-93653144D01*
X156406020Y-93572000D01*
X155912250Y-93572000D01*
X155779000Y-93705250D01*
X155321000Y-93705250D01*
X155187750Y-93572000D01*
X154693980Y-93572000D01*
X154498080Y-93653144D01*
X154348145Y-93803080D01*
X154267000Y-93998979D01*
X152055615Y-93998979D01*
X153279594Y-92775000D01*
X161400000Y-92775000D01*
X161658312Y-92723619D01*
X161877297Y-92577297D01*
X167077297Y-87377297D01*
X167223619Y-87158311D01*
X167275000Y-86900000D01*
X167275000Y-84878353D01*
X167415827Y-84850341D01*
X167556408Y-84756408D01*
X167650341Y-84615827D01*
X167683326Y-84450000D01*
X167683326Y-82950000D01*
X167650341Y-82784173D01*
X167556408Y-82643592D01*
X167415827Y-82549659D01*
X167250000Y-82516674D01*
X165950000Y-82516674D01*
X165784173Y-82549659D01*
X165643592Y-82643592D01*
X165549659Y-82784173D01*
X165516674Y-82950000D01*
X165516674Y-83075000D01*
X164023380Y-83075000D01*
X164000341Y-82959173D01*
X163906408Y-82818592D01*
X163765827Y-82724659D01*
X163600000Y-82691674D01*
X162896268Y-82691674D01*
X161082730Y-80878136D01*
X161088326Y-80850000D01*
X161088326Y-78850000D01*
X161055341Y-78684173D01*
X160961408Y-78543592D01*
X160820827Y-78449659D01*
X160655000Y-78416674D01*
X160055000Y-78416674D01*
X159889173Y-78449659D01*
X159748592Y-78543592D01*
X159720000Y-78586383D01*
X159691408Y-78543592D01*
X159550827Y-78449659D01*
X159385000Y-78416674D01*
X158785000Y-78416674D01*
X158619173Y-78449659D01*
X158478592Y-78543592D01*
X158450000Y-78586383D01*
X158421408Y-78543592D01*
X158280827Y-78449659D01*
X158115000Y-78416674D01*
X157515000Y-78416674D01*
X157349173Y-78449659D01*
X157208592Y-78543592D01*
X157114659Y-78684173D01*
X157081674Y-78850000D01*
X157081674Y-80850000D01*
X157114659Y-81015827D01*
X157140000Y-81053753D01*
X157140000Y-85691674D01*
X157100000Y-85691674D01*
X156934173Y-85724659D01*
X156793592Y-85818592D01*
X156699659Y-85959173D01*
X156676620Y-86075000D01*
X155483326Y-86075000D01*
X155483326Y-85350000D01*
X155450341Y-85184173D01*
X155356408Y-85043592D01*
X155215827Y-84949659D01*
X155050000Y-84916674D01*
X153750000Y-84916674D01*
X153584173Y-84949659D01*
X153443592Y-85043592D01*
X153349659Y-85184173D01*
X153316674Y-85350000D01*
X153316674Y-86850000D01*
X153349659Y-87015827D01*
X153443592Y-87156408D01*
X153584173Y-87250341D01*
X153750000Y-87283326D01*
X154656556Y-87283326D01*
X154791688Y-87373619D01*
X155050000Y-87425000D01*
X156676620Y-87425000D01*
X156699659Y-87540827D01*
X156793592Y-87681408D01*
X156934173Y-87775341D01*
X157100000Y-87808326D01*
X158600000Y-87808326D01*
X158765827Y-87775341D01*
X158906408Y-87681408D01*
X159000341Y-87540827D01*
X159033326Y-87375000D01*
X159033326Y-86125000D01*
X159000341Y-85959173D01*
X158906408Y-85818592D01*
X158765827Y-85724659D01*
X158600000Y-85691674D01*
X158490000Y-85691674D01*
X158490000Y-82786143D01*
X158607703Y-82962297D01*
X159166674Y-83521268D01*
X159166674Y-84375000D01*
X159199659Y-84540827D01*
X159293592Y-84681408D01*
X159434173Y-84775341D01*
X159600000Y-84808326D01*
X159675000Y-84808326D01*
X159675000Y-85691674D01*
X159600000Y-85691674D01*
X159434173Y-85724659D01*
X159293592Y-85818592D01*
X159199659Y-85959173D01*
X159166674Y-86125000D01*
X159166674Y-87375000D01*
X159199659Y-87540827D01*
X159293592Y-87681408D01*
X159434173Y-87775341D01*
X159600000Y-87808326D01*
X159675000Y-87808326D01*
X159675000Y-88420406D01*
X158120406Y-89975000D01*
X152550000Y-89975000D01*
X152291688Y-90026381D01*
X152072703Y-90172703D01*
X151465381Y-90780025D01*
X148517678Y-87832322D01*
X148509567Y-87826903D01*
X148500000Y-87825000D01*
X136710356Y-87825000D01*
X129325000Y-80439644D01*
X129325000Y-67800000D01*
X135975000Y-67800000D01*
X135975000Y-78100000D01*
X136026381Y-78358312D01*
X136172703Y-78577297D01*
X137022703Y-79427297D01*
X137241689Y-79573619D01*
X137500000Y-79625000D01*
X137616674Y-79625000D01*
X137616674Y-79950000D01*
X137649659Y-80115827D01*
X137743592Y-80256408D01*
X137884173Y-80350341D01*
X138050000Y-80383326D01*
X138625000Y-80383326D01*
X138625000Y-81050000D01*
X138676381Y-81308312D01*
X138822703Y-81527297D01*
X140122703Y-82827297D01*
X140341688Y-82973619D01*
X140600000Y-83025000D01*
X144600000Y-83025000D01*
X144858312Y-82973619D01*
X145077297Y-82827297D01*
X145254594Y-82650000D01*
X153316674Y-82650000D01*
X153316674Y-84150000D01*
X153349659Y-84315827D01*
X153443592Y-84456408D01*
X153584173Y-84550341D01*
X153750000Y-84583326D01*
X155050000Y-84583326D01*
X155215827Y-84550341D01*
X155356408Y-84456408D01*
X155450341Y-84315827D01*
X155483326Y-84150000D01*
X155483326Y-82650000D01*
X155450341Y-82484173D01*
X155356408Y-82343592D01*
X155215827Y-82249659D01*
X155075000Y-82221647D01*
X155075000Y-78929594D01*
X159562297Y-74442297D01*
X159708619Y-74223311D01*
X159760000Y-73965000D01*
X159760000Y-71764031D01*
X159889173Y-71850341D01*
X160055000Y-71883326D01*
X160655000Y-71883326D01*
X160820827Y-71850341D01*
X160961408Y-71756408D01*
X161055341Y-71615827D01*
X161088326Y-71450000D01*
X161088326Y-69450000D01*
X161055341Y-69284173D01*
X160961408Y-69143592D01*
X160820827Y-69049659D01*
X160655000Y-69016674D01*
X160055000Y-69016674D01*
X159889173Y-69049659D01*
X159748592Y-69143592D01*
X159720000Y-69186383D01*
X159691408Y-69143592D01*
X159550827Y-69049659D01*
X159385000Y-69016674D01*
X158785000Y-69016674D01*
X158619173Y-69049659D01*
X158490000Y-69135969D01*
X158490000Y-69014594D01*
X158879594Y-68625000D01*
X164420406Y-68625000D01*
X165925000Y-70129594D01*
X165925000Y-79821647D01*
X165784173Y-79849659D01*
X165643592Y-79943592D01*
X165549659Y-80084173D01*
X165516674Y-80250000D01*
X165516674Y-81750000D01*
X165549659Y-81915827D01*
X165643592Y-82056408D01*
X165784173Y-82150341D01*
X165950000Y-82183326D01*
X167250000Y-82183326D01*
X167415827Y-82150341D01*
X167556408Y-82056408D01*
X167650341Y-81915827D01*
X167683326Y-81750000D01*
X167683326Y-80250000D01*
X167650341Y-80084173D01*
X167556408Y-79943592D01*
X167415827Y-79849659D01*
X167275000Y-79821647D01*
X167275000Y-69850000D01*
X167223619Y-69591689D01*
X167223619Y-69591688D01*
X167077297Y-69372703D01*
X165177297Y-67472703D01*
X164958312Y-67326381D01*
X164700000Y-67275000D01*
X158600000Y-67275000D01*
X158341688Y-67326381D01*
X158122703Y-67472703D01*
X157337703Y-68257703D01*
X157191381Y-68476688D01*
X157161880Y-68625000D01*
X157140000Y-68735000D01*
X157140000Y-69246247D01*
X157114659Y-69284173D01*
X157081674Y-69450000D01*
X157081674Y-71450000D01*
X157114659Y-71615827D01*
X157208592Y-71756408D01*
X157349173Y-71850341D01*
X157515000Y-71883326D01*
X158115000Y-71883326D01*
X158280827Y-71850341D01*
X158410000Y-71764031D01*
X158410000Y-73685406D01*
X153922703Y-78172703D01*
X153776381Y-78391688D01*
X153770661Y-78420446D01*
X153725000Y-78650000D01*
X153725000Y-82221647D01*
X153584173Y-82249659D01*
X153443592Y-82343592D01*
X153349659Y-82484173D01*
X153316674Y-82650000D01*
X145254594Y-82650000D01*
X145592297Y-82312297D01*
X145738619Y-82093312D01*
X145790000Y-81835000D01*
X145790000Y-81164031D01*
X145919173Y-81250341D01*
X146085000Y-81283326D01*
X146685000Y-81283326D01*
X146850827Y-81250341D01*
X146991408Y-81156408D01*
X147085341Y-81015827D01*
X147118326Y-80850000D01*
X147118326Y-78850000D01*
X147085341Y-78684173D01*
X146991408Y-78543592D01*
X146850827Y-78449659D01*
X146685000Y-78416674D01*
X146085000Y-78416674D01*
X145919173Y-78449659D01*
X145778592Y-78543592D01*
X145750000Y-78586383D01*
X145721408Y-78543592D01*
X145580827Y-78449659D01*
X145415000Y-78416674D01*
X144815000Y-78416674D01*
X144649173Y-78449659D01*
X144508592Y-78543592D01*
X144480000Y-78586383D01*
X144451408Y-78543592D01*
X144310827Y-78449659D01*
X144145000Y-78416674D01*
X143545000Y-78416674D01*
X143379173Y-78449659D01*
X143238592Y-78543592D01*
X143144659Y-78684173D01*
X143111674Y-78850000D01*
X143111674Y-80850000D01*
X143144659Y-81015827D01*
X143170000Y-81053753D01*
X143170000Y-81570406D01*
X143065406Y-81675000D01*
X140879594Y-81675000D01*
X139975000Y-80770406D01*
X139975000Y-80383326D01*
X140550000Y-80383326D01*
X140715827Y-80350341D01*
X140856408Y-80256408D01*
X140950341Y-80115827D01*
X140983326Y-79950000D01*
X140983326Y-77950000D01*
X140950341Y-77784173D01*
X140856408Y-77643592D01*
X140715827Y-77549659D01*
X140550000Y-77516674D01*
X138050000Y-77516674D01*
X137884173Y-77549659D01*
X137743592Y-77643592D01*
X137649659Y-77784173D01*
X137616674Y-77950000D01*
X137616674Y-78112080D01*
X137325000Y-77820406D01*
X137325000Y-75312250D01*
X137517000Y-75312250D01*
X137517000Y-76056020D01*
X137598144Y-76251920D01*
X137748080Y-76401855D01*
X137943979Y-76483000D01*
X138937750Y-76483000D01*
X139071000Y-76349750D01*
X139071000Y-75179000D01*
X139529000Y-75179000D01*
X139529000Y-76349750D01*
X139662250Y-76483000D01*
X140656021Y-76483000D01*
X140851920Y-76401855D01*
X141001856Y-76251920D01*
X141083000Y-76056020D01*
X141083000Y-75312250D01*
X140949750Y-75179000D01*
X139529000Y-75179000D01*
X139071000Y-75179000D01*
X137650250Y-75179000D01*
X137517000Y-75312250D01*
X137325000Y-75312250D01*
X137325000Y-73843980D01*
X137517000Y-73843980D01*
X137517000Y-74587750D01*
X137650250Y-74721000D01*
X139071000Y-74721000D01*
X139071000Y-73550250D01*
X139529000Y-73550250D01*
X139529000Y-74721000D01*
X140949750Y-74721000D01*
X141083000Y-74587750D01*
X141083000Y-73843980D01*
X141001856Y-73648080D01*
X140851920Y-73498145D01*
X140656021Y-73417000D01*
X139662250Y-73417000D01*
X139529000Y-73550250D01*
X139071000Y-73550250D01*
X138937750Y-73417000D01*
X137943979Y-73417000D01*
X137748080Y-73498145D01*
X137598144Y-73648080D01*
X137517000Y-73843980D01*
X137325000Y-73843980D01*
X137325000Y-69450000D01*
X143111674Y-69450000D01*
X143111674Y-71450000D01*
X143144659Y-71615827D01*
X143238592Y-71756408D01*
X143379173Y-71850341D01*
X143545000Y-71883326D01*
X144145000Y-71883326D01*
X144310827Y-71850341D01*
X144401188Y-71789964D01*
X144513080Y-71901855D01*
X144708979Y-71983000D01*
X144831750Y-71983000D01*
X144965000Y-71849750D01*
X144965000Y-70679000D01*
X145265000Y-70679000D01*
X145265000Y-71849750D01*
X145398250Y-71983000D01*
X145521021Y-71983000D01*
X145716920Y-71901855D01*
X145750000Y-71868775D01*
X145783080Y-71901855D01*
X145978979Y-71983000D01*
X146101750Y-71983000D01*
X146235000Y-71849750D01*
X146235000Y-70679000D01*
X146535000Y-70679000D01*
X146535000Y-71849750D01*
X146668250Y-71983000D01*
X146791021Y-71983000D01*
X146986920Y-71901855D01*
X147136856Y-71751920D01*
X147218000Y-71556020D01*
X147218000Y-70812250D01*
X147084750Y-70679000D01*
X146535000Y-70679000D01*
X146235000Y-70679000D01*
X145265000Y-70679000D01*
X144965000Y-70679000D01*
X144866000Y-70679000D01*
X144866000Y-70221000D01*
X144965000Y-70221000D01*
X144965000Y-69050250D01*
X145265000Y-69050250D01*
X145265000Y-70221000D01*
X146235000Y-70221000D01*
X146235000Y-69050250D01*
X146535000Y-69050250D01*
X146535000Y-70221000D01*
X147084750Y-70221000D01*
X147218000Y-70087750D01*
X147218000Y-69343980D01*
X147136856Y-69148080D01*
X146986920Y-68998145D01*
X146791021Y-68917000D01*
X146668250Y-68917000D01*
X146535000Y-69050250D01*
X146235000Y-69050250D01*
X146101750Y-68917000D01*
X145978979Y-68917000D01*
X145783080Y-68998145D01*
X145750000Y-69031225D01*
X145716920Y-68998145D01*
X145521021Y-68917000D01*
X145398250Y-68917000D01*
X145265000Y-69050250D01*
X144965000Y-69050250D01*
X144831750Y-68917000D01*
X144708979Y-68917000D01*
X144513080Y-68998145D01*
X144401188Y-69110036D01*
X144310827Y-69049659D01*
X144145000Y-69016674D01*
X143545000Y-69016674D01*
X143379173Y-69049659D01*
X143238592Y-69143592D01*
X143144659Y-69284173D01*
X143111674Y-69450000D01*
X137325000Y-69450000D01*
X137325000Y-68079594D01*
X138979594Y-66425000D01*
X168520406Y-66425000D01*
X172975000Y-70879594D01*
X172975000Y-87766674D01*
X172900000Y-87766674D01*
X172734173Y-87799659D01*
X172593592Y-87893592D01*
X172499659Y-88034173D01*
X172466674Y-88200000D01*
X172466674Y-88225000D01*
X167400000Y-88225000D01*
X167160822Y-88272575D01*
X166958058Y-88408058D01*
X165108058Y-90258058D01*
X164972575Y-90460823D01*
X164925000Y-90700000D01*
X164925000Y-99441117D01*
X164916117Y-99450000D01*
X163208326Y-99450000D01*
X163208326Y-99200000D01*
X163188435Y-99100000D01*
X163208326Y-99000000D01*
X163208326Y-98550000D01*
X163188435Y-98450000D01*
X163208326Y-98350000D01*
X163208326Y-97900000D01*
X163175341Y-97734173D01*
X163081408Y-97593592D01*
X162940827Y-97499659D01*
X162775000Y-97466674D01*
X161025000Y-97466674D01*
X160859173Y-97499659D01*
X160858663Y-97500000D01*
X159633884Y-97500000D01*
X158636942Y-96503058D01*
X158434177Y-96367575D01*
X158195000Y-96320000D01*
X156578583Y-96320000D01*
X156563617Y-96310000D01*
X156606408Y-96281408D01*
X156700341Y-96140827D01*
X156733326Y-95975000D01*
X156733326Y-95375000D01*
X156700341Y-95209173D01*
X156639964Y-95118812D01*
X156751855Y-95006920D01*
X156833000Y-94811021D01*
X156833000Y-94688250D01*
X156699750Y-94555000D01*
X155779000Y-94555000D01*
X155779000Y-94654000D01*
X155321000Y-94654000D01*
X155321000Y-94555000D01*
X154400250Y-94555000D01*
X154267000Y-94688250D01*
X154267000Y-94811021D01*
X154348145Y-95006920D01*
X154460036Y-95118812D01*
X154399659Y-95209173D01*
X154366674Y-95375000D01*
X154366674Y-95975000D01*
X154399659Y-96140827D01*
X154493592Y-96281408D01*
X154536383Y-96310000D01*
X154493592Y-96338592D01*
X154399659Y-96479173D01*
X154366674Y-96645000D01*
X154366674Y-97245000D01*
X154399659Y-97410827D01*
X154493592Y-97551408D01*
X154536383Y-97580000D01*
X154493592Y-97608592D01*
X154399659Y-97749173D01*
X154366674Y-97915000D01*
X154366674Y-98515000D01*
X154399659Y-98680827D01*
X154493592Y-98821408D01*
X154536383Y-98850000D01*
X154521417Y-98860000D01*
X153965000Y-98860000D01*
X153725823Y-98907575D01*
X153523058Y-99043058D01*
X152858058Y-99708058D01*
X152722575Y-99910823D01*
X152675000Y-100150000D01*
X152675000Y-107837552D01*
X152558644Y-107953705D01*
X152425152Y-108275188D01*
X152424849Y-108623285D01*
X152557779Y-108945000D01*
X152803705Y-109191356D01*
X153125188Y-109324848D01*
X153473285Y-109325151D01*
X153795000Y-109192221D01*
X154041356Y-108946295D01*
X154174848Y-108624812D01*
X154175151Y-108276715D01*
X154042221Y-107955000D01*
X153925000Y-107837574D01*
X153925000Y-100408884D01*
X154223884Y-100110000D01*
X154521417Y-100110000D01*
X154536383Y-100120000D01*
X154493592Y-100148592D01*
X154399659Y-100289173D01*
X154366674Y-100455000D01*
X154366674Y-101055000D01*
X154399659Y-101220827D01*
X154460036Y-101311188D01*
X154348145Y-101423080D01*
X154267000Y-101618979D01*
X154267000Y-101741750D01*
X154400250Y-101875000D01*
X155321000Y-101875000D01*
X155321000Y-101776000D01*
X155779000Y-101776000D01*
X155779000Y-101875000D01*
X156699750Y-101875000D01*
X156833000Y-101741750D01*
X156833000Y-101618979D01*
X156751855Y-101423080D01*
X156678775Y-101350000D01*
X157392000Y-101350000D01*
X157392000Y-101687750D01*
X157525250Y-101821000D01*
X158321000Y-101821000D01*
X158321000Y-101801000D01*
X158779000Y-101801000D01*
X158779000Y-101821000D01*
X159574750Y-101821000D01*
X159708000Y-101687750D01*
X159708000Y-101350000D01*
X160591674Y-101350000D01*
X160591674Y-101479551D01*
X160573145Y-101498080D01*
X160492000Y-101693979D01*
X160492000Y-101779250D01*
X160625250Y-101912500D01*
X160727709Y-101912500D01*
X160859173Y-102000341D01*
X160983142Y-102025000D01*
X160859173Y-102049659D01*
X160727709Y-102137500D01*
X160625250Y-102137500D01*
X160492000Y-102270750D01*
X160492000Y-102356021D01*
X160573145Y-102551920D01*
X160591674Y-102570449D01*
X160591674Y-102900000D01*
X160611565Y-103000000D01*
X160591674Y-103100000D01*
X160591674Y-103550000D01*
X160611565Y-103650000D01*
X160591674Y-103750000D01*
X160591674Y-104200000D01*
X160611565Y-104300000D01*
X160591674Y-104400000D01*
X160591674Y-104850000D01*
X160611565Y-104950000D01*
X160591674Y-105050000D01*
X160591674Y-105300000D01*
X160575000Y-105300000D01*
X160335822Y-105347575D01*
X160133058Y-105483058D01*
X159608058Y-106008058D01*
X159472575Y-106210823D01*
X159425000Y-106450000D01*
X159425000Y-107787552D01*
X159308644Y-107903705D01*
X159225000Y-108105141D01*
X159225000Y-105723380D01*
X159340827Y-105700341D01*
X159481408Y-105606408D01*
X159575341Y-105465827D01*
X159608326Y-105300000D01*
X159608326Y-103800000D01*
X159575341Y-103634173D01*
X159481408Y-103493592D01*
X159340827Y-103399659D01*
X159175000Y-103366674D01*
X157925000Y-103366674D01*
X157759173Y-103399659D01*
X157618592Y-103493592D01*
X157524659Y-103634173D01*
X157491674Y-103800000D01*
X157491674Y-103875000D01*
X157084594Y-103875000D01*
X156733326Y-103523732D01*
X156733326Y-102995000D01*
X156700341Y-102829173D01*
X156639964Y-102738812D01*
X156751855Y-102626920D01*
X156833000Y-102431021D01*
X156833000Y-102412250D01*
X157392000Y-102412250D01*
X157392000Y-102906020D01*
X157473144Y-103101920D01*
X157623080Y-103251855D01*
X157818979Y-103333000D01*
X158187750Y-103333000D01*
X158321000Y-103199750D01*
X158321000Y-102279000D01*
X158779000Y-102279000D01*
X158779000Y-103199750D01*
X158912250Y-103333000D01*
X159281021Y-103333000D01*
X159476920Y-103251855D01*
X159626856Y-103101920D01*
X159708000Y-102906020D01*
X159708000Y-102412250D01*
X159574750Y-102279000D01*
X158779000Y-102279000D01*
X158321000Y-102279000D01*
X157525250Y-102279000D01*
X157392000Y-102412250D01*
X156833000Y-102412250D01*
X156833000Y-102308250D01*
X156699750Y-102175000D01*
X155779000Y-102175000D01*
X155779000Y-102274000D01*
X155321000Y-102274000D01*
X155321000Y-102175000D01*
X154400250Y-102175000D01*
X154267000Y-102308250D01*
X154267000Y-102431021D01*
X154348145Y-102626920D01*
X154460036Y-102738812D01*
X154399659Y-102829173D01*
X154366674Y-102995000D01*
X154366674Y-103595000D01*
X154399659Y-103760827D01*
X154493592Y-103901408D01*
X154634173Y-103995341D01*
X154800000Y-104028326D01*
X155328732Y-104028326D01*
X156327703Y-105027297D01*
X156546688Y-105173619D01*
X156805000Y-105225000D01*
X157491674Y-105225000D01*
X157491674Y-105300000D01*
X157524659Y-105465827D01*
X157618592Y-105606408D01*
X157759173Y-105700341D01*
X157875000Y-105723380D01*
X157875000Y-116150000D01*
X157926381Y-116408312D01*
X158072703Y-116627297D01*
X159222703Y-117777297D01*
X159441689Y-117923619D01*
X159700000Y-117975000D01*
X159766674Y-117975000D01*
X159766674Y-118300000D01*
X159799659Y-118465827D01*
X159893592Y-118606408D01*
X160034173Y-118700341D01*
X160200000Y-118733326D01*
X162700000Y-118733326D01*
X162865827Y-118700341D01*
X163006408Y-118606408D01*
X163100341Y-118465827D01*
X163133326Y-118300000D01*
X163133326Y-117475000D01*
X165641674Y-117475000D01*
X165641674Y-117550000D01*
X165674659Y-117715827D01*
X165768592Y-117856408D01*
X165909173Y-117950341D01*
X166075000Y-117983326D01*
X167325000Y-117983326D01*
X167490827Y-117950341D01*
X167631408Y-117856408D01*
X167725341Y-117715827D01*
X167753353Y-117575000D01*
X170116674Y-117575000D01*
X170116674Y-117650000D01*
X170149659Y-117815827D01*
X170243592Y-117956408D01*
X170384173Y-118050341D01*
X170550000Y-118083326D01*
X171850000Y-118083326D01*
X172015827Y-118050341D01*
X172156408Y-117956408D01*
X172250341Y-117815827D01*
X172283326Y-117650000D01*
X172283326Y-117162250D01*
X174292000Y-117162250D01*
X174292000Y-117656020D01*
X174373144Y-117851920D01*
X174523080Y-118001855D01*
X174718979Y-118083000D01*
X175087750Y-118083000D01*
X175221000Y-117949750D01*
X175221000Y-117029000D01*
X175679000Y-117029000D01*
X175679000Y-117949750D01*
X175812250Y-118083000D01*
X176181021Y-118083000D01*
X176376920Y-118001855D01*
X176526856Y-117851920D01*
X176608000Y-117656020D01*
X176608000Y-117162250D01*
X176474750Y-117029000D01*
X175679000Y-117029000D01*
X175221000Y-117029000D01*
X174425250Y-117029000D01*
X174292000Y-117162250D01*
X172283326Y-117162250D01*
X172283326Y-116150000D01*
X172250341Y-115984173D01*
X172223485Y-115943980D01*
X174292000Y-115943980D01*
X174292000Y-116437750D01*
X174425250Y-116571000D01*
X175221000Y-116571000D01*
X175221000Y-115650250D01*
X175679000Y-115650250D01*
X175679000Y-116571000D01*
X176474750Y-116571000D01*
X176608000Y-116437750D01*
X176608000Y-115943980D01*
X176526856Y-115748080D01*
X176376920Y-115598145D01*
X176181021Y-115517000D01*
X175812250Y-115517000D01*
X175679000Y-115650250D01*
X175221000Y-115650250D01*
X175087750Y-115517000D01*
X174718979Y-115517000D01*
X174523080Y-115598145D01*
X174373144Y-115748080D01*
X174292000Y-115943980D01*
X172223485Y-115943980D01*
X172156408Y-115843592D01*
X172015827Y-115749659D01*
X171850000Y-115716674D01*
X170550000Y-115716674D01*
X170384173Y-115749659D01*
X170243592Y-115843592D01*
X170149659Y-115984173D01*
X170116674Y-116150000D01*
X170116674Y-116225000D01*
X167758326Y-116225000D01*
X167758326Y-116050000D01*
X167725341Y-115884173D01*
X167631408Y-115743592D01*
X167490827Y-115649659D01*
X167325000Y-115616674D01*
X166075000Y-115616674D01*
X165909173Y-115649659D01*
X165768592Y-115743592D01*
X165674659Y-115884173D01*
X165641674Y-116050000D01*
X165641674Y-116125000D01*
X163094212Y-116125000D01*
X163006408Y-115993592D01*
X162865827Y-115899659D01*
X162700000Y-115866674D01*
X160200000Y-115866674D01*
X160034173Y-115899659D01*
X159893592Y-115993592D01*
X159799659Y-116134173D01*
X159766674Y-116300000D01*
X159766674Y-116412080D01*
X159225000Y-115870406D01*
X159225000Y-113662250D01*
X159667000Y-113662250D01*
X159667000Y-114406020D01*
X159748144Y-114601920D01*
X159898080Y-114751855D01*
X160093979Y-114833000D01*
X161087750Y-114833000D01*
X161221000Y-114699750D01*
X161221000Y-113529000D01*
X161679000Y-113529000D01*
X161679000Y-114699750D01*
X161812250Y-114833000D01*
X162806021Y-114833000D01*
X163001920Y-114751855D01*
X163091525Y-114662250D01*
X165542000Y-114662250D01*
X165542000Y-115156020D01*
X165623144Y-115351920D01*
X165773080Y-115501855D01*
X165968979Y-115583000D01*
X166337750Y-115583000D01*
X166471000Y-115449750D01*
X166471000Y-114529000D01*
X166929000Y-114529000D01*
X166929000Y-115449750D01*
X167062250Y-115583000D01*
X167431021Y-115583000D01*
X167626920Y-115501855D01*
X167776856Y-115351920D01*
X167858000Y-115156020D01*
X167858000Y-114662250D01*
X167724750Y-114529000D01*
X166929000Y-114529000D01*
X166471000Y-114529000D01*
X165675250Y-114529000D01*
X165542000Y-114662250D01*
X163091525Y-114662250D01*
X163151856Y-114601920D01*
X163233000Y-114406020D01*
X163233000Y-113662250D01*
X163099750Y-113529000D01*
X161679000Y-113529000D01*
X161221000Y-113529000D01*
X159800250Y-113529000D01*
X159667000Y-113662250D01*
X159225000Y-113662250D01*
X159225000Y-113443980D01*
X165542000Y-113443980D01*
X165542000Y-113937750D01*
X165675250Y-114071000D01*
X166471000Y-114071000D01*
X166471000Y-113150250D01*
X166929000Y-113150250D01*
X166929000Y-114071000D01*
X167724750Y-114071000D01*
X167858000Y-113937750D01*
X167858000Y-113443980D01*
X167776856Y-113248080D01*
X167626920Y-113098145D01*
X167431021Y-113017000D01*
X167062250Y-113017000D01*
X166929000Y-113150250D01*
X166471000Y-113150250D01*
X166337750Y-113017000D01*
X165968979Y-113017000D01*
X165773080Y-113098145D01*
X165623144Y-113248080D01*
X165542000Y-113443980D01*
X159225000Y-113443980D01*
X159225000Y-112193980D01*
X159667000Y-112193980D01*
X159667000Y-112937750D01*
X159800250Y-113071000D01*
X161221000Y-113071000D01*
X161221000Y-111900250D01*
X161679000Y-111900250D01*
X161679000Y-113071000D01*
X163099750Y-113071000D01*
X163233000Y-112937750D01*
X163233000Y-112193980D01*
X163151856Y-111998080D01*
X163001920Y-111848145D01*
X162806021Y-111767000D01*
X161812250Y-111767000D01*
X161679000Y-111900250D01*
X161221000Y-111900250D01*
X161087750Y-111767000D01*
X160093979Y-111767000D01*
X159898080Y-111848145D01*
X159748144Y-111998080D01*
X159667000Y-112193980D01*
X159225000Y-112193980D01*
X159225000Y-111758884D01*
X159808883Y-111175000D01*
X164400000Y-111175000D01*
X164639177Y-111127425D01*
X164841942Y-110991942D01*
X164841943Y-110991941D01*
X165991939Y-109841944D01*
X165991942Y-109841942D01*
X166127425Y-109639177D01*
X166133229Y-109610000D01*
X166175001Y-109400000D01*
X166175000Y-109399995D01*
X166175000Y-103983884D01*
X166208883Y-103950000D01*
X167791674Y-103950000D01*
X167791674Y-104079551D01*
X167773145Y-104098080D01*
X167692000Y-104293979D01*
X167692000Y-104379250D01*
X167825250Y-104512500D01*
X167927709Y-104512500D01*
X168059173Y-104600341D01*
X168183142Y-104625000D01*
X168059173Y-104649659D01*
X167927709Y-104737500D01*
X167825250Y-104737500D01*
X167692000Y-104870750D01*
X167692000Y-104956021D01*
X167773145Y-105151920D01*
X167791674Y-105170449D01*
X167791674Y-105500000D01*
X167811565Y-105600000D01*
X167791674Y-105700000D01*
X167791674Y-106150000D01*
X167811565Y-106250000D01*
X167791674Y-106350000D01*
X167791674Y-106800000D01*
X167824659Y-106965827D01*
X167918592Y-107106408D01*
X168059173Y-107200341D01*
X168225000Y-107233326D01*
X169975000Y-107233326D01*
X170140827Y-107200341D01*
X170141337Y-107200000D01*
X182907064Y-107200000D01*
X182936082Y-107243429D01*
X183101563Y-107354000D01*
X182936082Y-107464571D01*
X182724728Y-107780884D01*
X182650511Y-108154000D01*
X182724728Y-108527116D01*
X182936082Y-108843429D01*
X182948008Y-108851398D01*
X178174406Y-113625000D01*
X176508326Y-113625000D01*
X176508326Y-113550000D01*
X176475341Y-113384173D01*
X176381408Y-113243592D01*
X176240827Y-113149659D01*
X176075000Y-113116674D01*
X174825000Y-113116674D01*
X174659173Y-113149659D01*
X174518592Y-113243592D01*
X174424659Y-113384173D01*
X174391674Y-113550000D01*
X174391674Y-113625000D01*
X172283326Y-113625000D01*
X172283326Y-113450000D01*
X172250341Y-113284173D01*
X172156408Y-113143592D01*
X172015827Y-113049659D01*
X171850000Y-113016674D01*
X170550000Y-113016674D01*
X170384173Y-113049659D01*
X170243592Y-113143592D01*
X170149659Y-113284173D01*
X170116674Y-113450000D01*
X170116674Y-114950000D01*
X170149659Y-115115827D01*
X170243592Y-115256408D01*
X170384173Y-115350341D01*
X170550000Y-115383326D01*
X171850000Y-115383326D01*
X172015827Y-115350341D01*
X172156408Y-115256408D01*
X172250341Y-115115827D01*
X172278353Y-114975000D01*
X174391674Y-114975000D01*
X174391674Y-115050000D01*
X174424659Y-115215827D01*
X174518592Y-115356408D01*
X174659173Y-115450341D01*
X174825000Y-115483326D01*
X176075000Y-115483326D01*
X176240827Y-115450341D01*
X176381408Y-115356408D01*
X176475341Y-115215827D01*
X176508326Y-115050000D01*
X176508326Y-114975000D01*
X178454000Y-114975000D01*
X178712312Y-114923619D01*
X178931297Y-114777297D01*
X183065051Y-110643543D01*
X187438706Y-110643543D01*
X187610143Y-111020001D01*
X188009180Y-111394091D01*
X188521000Y-111587000D01*
X189021000Y-111587000D01*
X189021000Y-110433000D01*
X187521410Y-110433000D01*
X187438706Y-110643543D01*
X183065051Y-110643543D01*
X183944137Y-109764457D01*
X187438706Y-109764457D01*
X187521410Y-109975000D01*
X189021000Y-109975000D01*
X189021000Y-108821000D01*
X188521000Y-108821000D01*
X188009180Y-109013909D01*
X187610143Y-109387999D01*
X187438706Y-109764457D01*
X183944137Y-109764457D01*
X184677297Y-109031297D01*
X184713224Y-108977529D01*
X184913918Y-108843429D01*
X185125272Y-108527116D01*
X185172704Y-108288659D01*
X185375511Y-108329000D01*
X185974489Y-108329000D01*
X186347605Y-108254783D01*
X186663918Y-108043429D01*
X186875272Y-107727116D01*
X186949489Y-107354000D01*
X186875272Y-106980884D01*
X186663918Y-106664571D01*
X186498437Y-106554000D01*
X186663918Y-106443429D01*
X186875272Y-106127116D01*
X186949489Y-105754000D01*
X186875272Y-105380884D01*
X186663918Y-105064571D01*
X186347605Y-104853217D01*
X185974489Y-104779000D01*
X185375511Y-104779000D01*
X185283000Y-104797401D01*
X185283000Y-104724998D01*
X185121730Y-104724998D01*
X185209656Y-104562232D01*
X185053049Y-104277364D01*
X184729177Y-104002422D01*
X184324743Y-103872349D01*
X184154000Y-103999402D01*
X184154000Y-104725000D01*
X184174000Y-104725000D01*
X184174000Y-105183000D01*
X184154000Y-105183000D01*
X184154000Y-105203000D01*
X183696000Y-105203000D01*
X183696000Y-105183000D01*
X182728271Y-105183000D01*
X182640344Y-105345768D01*
X182796951Y-105630636D01*
X183012427Y-105813559D01*
X182936082Y-105864571D01*
X182879000Y-105950000D01*
X179522865Y-105950000D01*
X179574848Y-105824812D01*
X179575151Y-105476715D01*
X179442221Y-105155000D01*
X179196295Y-104908644D01*
X178874812Y-104775152D01*
X178526715Y-104774849D01*
X178205000Y-104907779D01*
X177958644Y-105153705D01*
X177897897Y-105300000D01*
X176183717Y-105300000D01*
X176233000Y-105181021D01*
X176233000Y-104812250D01*
X176099750Y-104679000D01*
X175179000Y-104679000D01*
X175179000Y-104699000D01*
X174721000Y-104699000D01*
X174721000Y-104679000D01*
X173800250Y-104679000D01*
X173667000Y-104812250D01*
X173667000Y-105181021D01*
X173716283Y-105300000D01*
X173560803Y-105300000D01*
X173600341Y-105240827D01*
X173633326Y-105075000D01*
X173633326Y-104562232D01*
X182640344Y-104562232D01*
X182728271Y-104725000D01*
X183696000Y-104725000D01*
X183696000Y-103999402D01*
X183525257Y-103872349D01*
X183120823Y-104002422D01*
X182796951Y-104277364D01*
X182640344Y-104562232D01*
X173633326Y-104562232D01*
X173633326Y-103825000D01*
X173612238Y-103718979D01*
X173667000Y-103718979D01*
X173667000Y-104087750D01*
X173800250Y-104221000D01*
X174721000Y-104221000D01*
X174721000Y-103425250D01*
X175179000Y-103425250D01*
X175179000Y-104221000D01*
X176099750Y-104221000D01*
X176233000Y-104087750D01*
X176233000Y-103718979D01*
X176151855Y-103523080D01*
X176001920Y-103373144D01*
X175930457Y-103343543D01*
X187438706Y-103343543D01*
X187610143Y-103720001D01*
X188009180Y-104094091D01*
X188521000Y-104287000D01*
X189021000Y-104287000D01*
X189021000Y-103133000D01*
X187521410Y-103133000D01*
X187438706Y-103343543D01*
X175930457Y-103343543D01*
X175806020Y-103292000D01*
X175312250Y-103292000D01*
X175179000Y-103425250D01*
X174721000Y-103425250D01*
X174587750Y-103292000D01*
X174093980Y-103292000D01*
X173898080Y-103373144D01*
X173748145Y-103523080D01*
X173667000Y-103718979D01*
X173612238Y-103718979D01*
X173600341Y-103659173D01*
X173506408Y-103518592D01*
X173365827Y-103424659D01*
X173200000Y-103391674D01*
X171700000Y-103391674D01*
X171534173Y-103424659D01*
X171393592Y-103518592D01*
X171299659Y-103659173D01*
X171266674Y-103825000D01*
X171266674Y-104650000D01*
X170141337Y-104650000D01*
X170140827Y-104649659D01*
X170016858Y-104625000D01*
X170140827Y-104600341D01*
X170272291Y-104512500D01*
X170374750Y-104512500D01*
X170508000Y-104379250D01*
X170508000Y-104293979D01*
X170426855Y-104098080D01*
X170408326Y-104079551D01*
X170408326Y-103750000D01*
X170388435Y-103650000D01*
X170408326Y-103550000D01*
X170408326Y-103220449D01*
X170426855Y-103201920D01*
X170508000Y-103006021D01*
X170508000Y-102920750D01*
X170374750Y-102787500D01*
X170272291Y-102787500D01*
X170140827Y-102699659D01*
X170016858Y-102675000D01*
X170140827Y-102650341D01*
X170141337Y-102650000D01*
X177437552Y-102650000D01*
X177553705Y-102766356D01*
X177875188Y-102899848D01*
X178223285Y-102900151D01*
X178545000Y-102767221D01*
X178791356Y-102521295D01*
X178814957Y-102464457D01*
X187438706Y-102464457D01*
X187521410Y-102675000D01*
X189021000Y-102675000D01*
X189021000Y-101521000D01*
X188521000Y-101521000D01*
X188009180Y-101713909D01*
X187610143Y-102087999D01*
X187438706Y-102464457D01*
X178814957Y-102464457D01*
X178924848Y-102199812D01*
X178925151Y-101851715D01*
X178792221Y-101530000D01*
X178637492Y-101375000D01*
X180297552Y-101375000D01*
X180413705Y-101491356D01*
X180735188Y-101624848D01*
X181083285Y-101625151D01*
X181405000Y-101492221D01*
X181651356Y-101246295D01*
X181784848Y-100924812D01*
X181785151Y-100576715D01*
X181652221Y-100255000D01*
X181406295Y-100008644D01*
X181084812Y-99875152D01*
X180736715Y-99874849D01*
X180415000Y-100007779D01*
X180297574Y-100125000D01*
X172030000Y-100125000D01*
X171790823Y-100172575D01*
X171588058Y-100308058D01*
X171588056Y-100308061D01*
X171146116Y-100750000D01*
X170408326Y-100750000D01*
X170408326Y-100620449D01*
X170426855Y-100601920D01*
X170508000Y-100406021D01*
X170508000Y-100320750D01*
X170374750Y-100187500D01*
X170272291Y-100187500D01*
X170194937Y-100135814D01*
X170276920Y-100101856D01*
X170426855Y-99951920D01*
X170456218Y-99881032D01*
X170508000Y-99829250D01*
X170508000Y-99670750D01*
X170456218Y-99618968D01*
X170426855Y-99548080D01*
X170276920Y-99398144D01*
X170194937Y-99364186D01*
X170272291Y-99312500D01*
X170374750Y-99312500D01*
X170508000Y-99179250D01*
X170508000Y-99093979D01*
X170426855Y-98898080D01*
X170408326Y-98879551D01*
X170408326Y-98550000D01*
X170388435Y-98450000D01*
X170408326Y-98350000D01*
X170408326Y-97900000D01*
X170375341Y-97734173D01*
X170281408Y-97593592D01*
X170140827Y-97499659D01*
X169975000Y-97466674D01*
X168225000Y-97466674D01*
X168059173Y-97499659D01*
X167918592Y-97593592D01*
X167824659Y-97734173D01*
X167791674Y-97900000D01*
X167791674Y-98350000D01*
X167811565Y-98450000D01*
X167791674Y-98550000D01*
X167791674Y-98879551D01*
X167773145Y-98898080D01*
X167692000Y-99093979D01*
X167692000Y-99179250D01*
X167825250Y-99312500D01*
X167927709Y-99312500D01*
X168005063Y-99364186D01*
X167923080Y-99398144D01*
X167773145Y-99548080D01*
X167743782Y-99618968D01*
X167692000Y-99670750D01*
X167692000Y-99829250D01*
X167743782Y-99881032D01*
X167773145Y-99951920D01*
X167923080Y-100101856D01*
X168005063Y-100135814D01*
X167927709Y-100187500D01*
X167825250Y-100187500D01*
X167692000Y-100320750D01*
X167692000Y-100406021D01*
X167773145Y-100601920D01*
X167791674Y-100620449D01*
X167791674Y-100950000D01*
X167811565Y-101050000D01*
X167791674Y-101150000D01*
X167791674Y-101600000D01*
X167811565Y-101700000D01*
X167791674Y-101800000D01*
X167791674Y-102129551D01*
X167773145Y-102148080D01*
X167692000Y-102343979D01*
X167692000Y-102429250D01*
X167825250Y-102562500D01*
X167927709Y-102562500D01*
X168059173Y-102650341D01*
X168183142Y-102675000D01*
X168059173Y-102699659D01*
X168058663Y-102700000D01*
X166183884Y-102700000D01*
X166175000Y-102691116D01*
X166175000Y-90958884D01*
X167658884Y-89475000D01*
X172466674Y-89475000D01*
X172466674Y-89500000D01*
X172499659Y-89665827D01*
X172593592Y-89806408D01*
X172734173Y-89900341D01*
X172900000Y-89933326D01*
X172975000Y-89933326D01*
X172975000Y-96366674D01*
X172900000Y-96366674D01*
X172734173Y-96399659D01*
X172593592Y-96493592D01*
X172499659Y-96634173D01*
X172466674Y-96800000D01*
X172466674Y-98100000D01*
X172499659Y-98265827D01*
X172593592Y-98406408D01*
X172734173Y-98500341D01*
X172900000Y-98533326D01*
X174400000Y-98533326D01*
X174565827Y-98500341D01*
X174706408Y-98406408D01*
X174800341Y-98265827D01*
X174833326Y-98100000D01*
X174833326Y-96800000D01*
X175166674Y-96800000D01*
X175166674Y-98100000D01*
X175199659Y-98265827D01*
X175293592Y-98406408D01*
X175434173Y-98500341D01*
X175600000Y-98533326D01*
X177100000Y-98533326D01*
X177265827Y-98500341D01*
X177406408Y-98406408D01*
X177500341Y-98265827D01*
X177533326Y-98100000D01*
X177533326Y-98075000D01*
X179417482Y-98075000D01*
X179493705Y-98151356D01*
X179815188Y-98284848D01*
X180163285Y-98285151D01*
X180485000Y-98152221D01*
X180731356Y-97906295D01*
X180840356Y-97643795D01*
X185974805Y-97643795D01*
X186145715Y-98057429D01*
X186461907Y-98374172D01*
X186875242Y-98545804D01*
X187322795Y-98546195D01*
X187736429Y-98375285D01*
X188053172Y-98059093D01*
X188224804Y-97645758D01*
X188225195Y-97198205D01*
X188054285Y-96784571D01*
X187738093Y-96467828D01*
X187324758Y-96296196D01*
X186877205Y-96295805D01*
X186463571Y-96466715D01*
X186146828Y-96782907D01*
X185975196Y-97196242D01*
X185974805Y-97643795D01*
X180840356Y-97643795D01*
X180864848Y-97584812D01*
X180865151Y-97236715D01*
X180732221Y-96915000D01*
X180486295Y-96668644D01*
X180164812Y-96535152D01*
X179816715Y-96534849D01*
X179495000Y-96667779D01*
X179337504Y-96825000D01*
X177533326Y-96825000D01*
X177533326Y-96800000D01*
X177500341Y-96634173D01*
X177406408Y-96493592D01*
X177265827Y-96399659D01*
X177100000Y-96366674D01*
X175600000Y-96366674D01*
X175434173Y-96399659D01*
X175293592Y-96493592D01*
X175199659Y-96634173D01*
X175166674Y-96800000D01*
X174833326Y-96800000D01*
X174800341Y-96634173D01*
X174706408Y-96493592D01*
X174565827Y-96399659D01*
X174400000Y-96366674D01*
X174325000Y-96366674D01*
X174325000Y-95103795D01*
X185974805Y-95103795D01*
X186145715Y-95517429D01*
X186461907Y-95834172D01*
X186875242Y-96005804D01*
X187322795Y-96006195D01*
X187736429Y-95835285D01*
X188053172Y-95519093D01*
X188224804Y-95105758D01*
X188225195Y-94658205D01*
X188054285Y-94244571D01*
X187738093Y-93927828D01*
X187324758Y-93756196D01*
X186877205Y-93755805D01*
X186463571Y-93926715D01*
X186146828Y-94242907D01*
X185975196Y-94656242D01*
X185974805Y-95103795D01*
X174325000Y-95103795D01*
X174325000Y-89933326D01*
X174400000Y-89933326D01*
X174565827Y-89900341D01*
X174706408Y-89806408D01*
X174800341Y-89665827D01*
X174833326Y-89500000D01*
X174833326Y-88200000D01*
X175166674Y-88200000D01*
X175166674Y-89500000D01*
X175199659Y-89665827D01*
X175293592Y-89806408D01*
X175434173Y-89900341D01*
X175600000Y-89933326D01*
X177100000Y-89933326D01*
X177265827Y-89900341D01*
X177406408Y-89806408D01*
X177500341Y-89665827D01*
X177533326Y-89500000D01*
X177533326Y-89475000D01*
X179367570Y-89475000D01*
X179493705Y-89601356D01*
X179815188Y-89734848D01*
X180163285Y-89735151D01*
X180485000Y-89602221D01*
X180731356Y-89356295D01*
X180841601Y-89090795D01*
X185974805Y-89090795D01*
X186145715Y-89504429D01*
X186461907Y-89821172D01*
X186875242Y-89992804D01*
X187322795Y-89993195D01*
X187736429Y-89822285D01*
X188053172Y-89506093D01*
X188224804Y-89092758D01*
X188225195Y-88645205D01*
X188054285Y-88231571D01*
X187738093Y-87914828D01*
X187324758Y-87743196D01*
X186877205Y-87742805D01*
X186463571Y-87913715D01*
X186146828Y-88229907D01*
X185975196Y-88643242D01*
X185974805Y-89090795D01*
X180841601Y-89090795D01*
X180864848Y-89034812D01*
X180865151Y-88686715D01*
X180732221Y-88365000D01*
X180486295Y-88118644D01*
X180164812Y-87985152D01*
X179816715Y-87984849D01*
X179495000Y-88117779D01*
X179387592Y-88225000D01*
X177533326Y-88225000D01*
X177533326Y-88200000D01*
X177500341Y-88034173D01*
X177406408Y-87893592D01*
X177265827Y-87799659D01*
X177100000Y-87766674D01*
X175600000Y-87766674D01*
X175434173Y-87799659D01*
X175293592Y-87893592D01*
X175199659Y-88034173D01*
X175166674Y-88200000D01*
X174833326Y-88200000D01*
X174800341Y-88034173D01*
X174706408Y-87893592D01*
X174565827Y-87799659D01*
X174400000Y-87766674D01*
X174325000Y-87766674D01*
X174325000Y-86550795D01*
X185974805Y-86550795D01*
X186145715Y-86964429D01*
X186461907Y-87281172D01*
X186875242Y-87452804D01*
X187322795Y-87453195D01*
X187736429Y-87282285D01*
X188053172Y-86966093D01*
X188224804Y-86552758D01*
X188225195Y-86105205D01*
X188054285Y-85691571D01*
X187738093Y-85374828D01*
X187324758Y-85203196D01*
X186877205Y-85202805D01*
X186463571Y-85373715D01*
X186146828Y-85689907D01*
X185975196Y-86103242D01*
X185974805Y-86550795D01*
X174325000Y-86550795D01*
X174325000Y-77525246D01*
X183044580Y-77525246D01*
X183412986Y-78416858D01*
X184094554Y-79099617D01*
X184985521Y-79469579D01*
X185950246Y-79470420D01*
X186841858Y-79102014D01*
X187524617Y-78420446D01*
X187894579Y-77529479D01*
X187895420Y-76564754D01*
X187527014Y-75673142D01*
X186845446Y-74990383D01*
X185954479Y-74620421D01*
X184989754Y-74619580D01*
X184098142Y-74987986D01*
X183415383Y-75669554D01*
X183045421Y-76560521D01*
X183044580Y-77525246D01*
X174325000Y-77525246D01*
X174325000Y-70600000D01*
X174273619Y-70341689D01*
X174273619Y-70341688D01*
X174127297Y-70122703D01*
X170171055Y-66166461D01*
X177084775Y-66166461D01*
X177281512Y-66642600D01*
X177645483Y-67007208D01*
X178121278Y-67204775D01*
X178636461Y-67205225D01*
X179112600Y-67008488D01*
X179477208Y-66644517D01*
X179674775Y-66168722D01*
X179675225Y-65653539D01*
X179478488Y-65177400D01*
X179114517Y-64812792D01*
X178638722Y-64615225D01*
X178123539Y-64614775D01*
X177647400Y-64811512D01*
X177282792Y-65175483D01*
X177085225Y-65651278D01*
X177084775Y-66166461D01*
X170171055Y-66166461D01*
X169277297Y-65272703D01*
X169058312Y-65126381D01*
X168800000Y-65075000D01*
X138700000Y-65075000D01*
X138441688Y-65126381D01*
X138222703Y-65272703D01*
X136172703Y-67322703D01*
X136026381Y-67541688D01*
X136026381Y-67541689D01*
X135975000Y-67800000D01*
X129325000Y-67800000D01*
X129325000Y-63100000D01*
X181500000Y-63100000D01*
X181500000Y-70500000D01*
X181500000Y-70500000D01*
G37*
X181500000Y-70500000D02*
X181538060Y-70691342D01*
X181646447Y-70853553D01*
X181808658Y-70961940D01*
X182000000Y-71000000D01*
X191000000Y-71000000D01*
X191000000Y-102329862D01*
X190889857Y-102087999D01*
X190490820Y-101713909D01*
X189979000Y-101521000D01*
X189479000Y-101521000D01*
X189479000Y-102675000D01*
X189499000Y-102675000D01*
X189499000Y-103133000D01*
X189479000Y-103133000D01*
X189479000Y-104287000D01*
X189979000Y-104287000D01*
X190490820Y-104094091D01*
X190889857Y-103720001D01*
X191000000Y-103478138D01*
X191000000Y-109629862D01*
X190889857Y-109387999D01*
X190490820Y-109013909D01*
X189979000Y-108821000D01*
X189479000Y-108821000D01*
X189479000Y-109975000D01*
X189499000Y-109975000D01*
X189499000Y-110433000D01*
X189479000Y-110433000D01*
X189479000Y-111587000D01*
X189979000Y-111587000D01*
X190490820Y-111394091D01*
X190889857Y-111020001D01*
X191000000Y-110778138D01*
X191000000Y-125000000D01*
X182000000Y-125000000D01*
X181808658Y-125038060D01*
X181646447Y-125146447D01*
X181538060Y-125308658D01*
X181500000Y-125500000D01*
X181500000Y-132900000D01*
X151975000Y-132900000D01*
X151975000Y-132165000D01*
X173630000Y-132165000D01*
X173639567Y-132163097D01*
X173647678Y-132157678D01*
X173653097Y-132149567D01*
X173655000Y-132140000D01*
X173655000Y-123990000D01*
X173653097Y-123980433D01*
X173647678Y-123972322D01*
X173639567Y-123966903D01*
X173630000Y-123965000D01*
X151975000Y-123965000D01*
X151975000Y-123040000D01*
X156770000Y-123040000D01*
X156779567Y-123038097D01*
X156787678Y-123032678D01*
X156793097Y-123024567D01*
X156795000Y-123015000D01*
X156795000Y-119435246D01*
X183044580Y-119435246D01*
X183412986Y-120326858D01*
X184094554Y-121009617D01*
X184985521Y-121379579D01*
X185950246Y-121380420D01*
X186841858Y-121012014D01*
X187524617Y-120330446D01*
X187894579Y-119439479D01*
X187895420Y-118474754D01*
X187527014Y-117583142D01*
X186845446Y-116900383D01*
X185954479Y-116530421D01*
X184989754Y-116529580D01*
X184098142Y-116897986D01*
X183415383Y-117579554D01*
X183045421Y-118470521D01*
X183044580Y-119435246D01*
X156795000Y-119435246D01*
X156795000Y-113505000D01*
X156793097Y-113495433D01*
X156787678Y-113487322D01*
X156779567Y-113481903D01*
X156770000Y-113480000D01*
X151975000Y-113480000D01*
X151975000Y-94079594D01*
X152055615Y-93998979D01*
X154267000Y-93998979D01*
X154267000Y-94121750D01*
X154400250Y-94255000D01*
X155321000Y-94255000D01*
X155321000Y-93705250D01*
X155779000Y-93705250D01*
X155779000Y-94255000D01*
X156699750Y-94255000D01*
X156833000Y-94121750D01*
X156833000Y-93998979D01*
X156751855Y-93803080D01*
X156601920Y-93653144D01*
X156406020Y-93572000D01*
X155912250Y-93572000D01*
X155779000Y-93705250D01*
X155321000Y-93705250D01*
X155187750Y-93572000D01*
X154693980Y-93572000D01*
X154498080Y-93653144D01*
X154348145Y-93803080D01*
X154267000Y-93998979D01*
X152055615Y-93998979D01*
X153279594Y-92775000D01*
X161400000Y-92775000D01*
X161658312Y-92723619D01*
X161877297Y-92577297D01*
X167077297Y-87377297D01*
X167223619Y-87158311D01*
X167275000Y-86900000D01*
X167275000Y-84878353D01*
X167415827Y-84850341D01*
X167556408Y-84756408D01*
X167650341Y-84615827D01*
X167683326Y-84450000D01*
X167683326Y-82950000D01*
X167650341Y-82784173D01*
X167556408Y-82643592D01*
X167415827Y-82549659D01*
X167250000Y-82516674D01*
X165950000Y-82516674D01*
X165784173Y-82549659D01*
X165643592Y-82643592D01*
X165549659Y-82784173D01*
X165516674Y-82950000D01*
X165516674Y-83075000D01*
X164023380Y-83075000D01*
X164000341Y-82959173D01*
X163906408Y-82818592D01*
X163765827Y-82724659D01*
X163600000Y-82691674D01*
X162896268Y-82691674D01*
X161082730Y-80878136D01*
X161088326Y-80850000D01*
X161088326Y-78850000D01*
X161055341Y-78684173D01*
X160961408Y-78543592D01*
X160820827Y-78449659D01*
X160655000Y-78416674D01*
X160055000Y-78416674D01*
X159889173Y-78449659D01*
X159748592Y-78543592D01*
X159720000Y-78586383D01*
X159691408Y-78543592D01*
X159550827Y-78449659D01*
X159385000Y-78416674D01*
X158785000Y-78416674D01*
X158619173Y-78449659D01*
X158478592Y-78543592D01*
X158450000Y-78586383D01*
X158421408Y-78543592D01*
X158280827Y-78449659D01*
X158115000Y-78416674D01*
X157515000Y-78416674D01*
X157349173Y-78449659D01*
X157208592Y-78543592D01*
X157114659Y-78684173D01*
X157081674Y-78850000D01*
X157081674Y-80850000D01*
X157114659Y-81015827D01*
X157140000Y-81053753D01*
X157140000Y-85691674D01*
X157100000Y-85691674D01*
X156934173Y-85724659D01*
X156793592Y-85818592D01*
X156699659Y-85959173D01*
X156676620Y-86075000D01*
X155483326Y-86075000D01*
X155483326Y-85350000D01*
X155450341Y-85184173D01*
X155356408Y-85043592D01*
X155215827Y-84949659D01*
X155050000Y-84916674D01*
X153750000Y-84916674D01*
X153584173Y-84949659D01*
X153443592Y-85043592D01*
X153349659Y-85184173D01*
X153316674Y-85350000D01*
X153316674Y-86850000D01*
X153349659Y-87015827D01*
X153443592Y-87156408D01*
X153584173Y-87250341D01*
X153750000Y-87283326D01*
X154656556Y-87283326D01*
X154791688Y-87373619D01*
X155050000Y-87425000D01*
X156676620Y-87425000D01*
X156699659Y-87540827D01*
X156793592Y-87681408D01*
X156934173Y-87775341D01*
X157100000Y-87808326D01*
X158600000Y-87808326D01*
X158765827Y-87775341D01*
X158906408Y-87681408D01*
X159000341Y-87540827D01*
X159033326Y-87375000D01*
X159033326Y-86125000D01*
X159000341Y-85959173D01*
X158906408Y-85818592D01*
X158765827Y-85724659D01*
X158600000Y-85691674D01*
X158490000Y-85691674D01*
X158490000Y-82786143D01*
X158607703Y-82962297D01*
X159166674Y-83521268D01*
X159166674Y-84375000D01*
X159199659Y-84540827D01*
X159293592Y-84681408D01*
X159434173Y-84775341D01*
X159600000Y-84808326D01*
X159675000Y-84808326D01*
X159675000Y-85691674D01*
X159600000Y-85691674D01*
X159434173Y-85724659D01*
X159293592Y-85818592D01*
X159199659Y-85959173D01*
X159166674Y-86125000D01*
X159166674Y-87375000D01*
X159199659Y-87540827D01*
X159293592Y-87681408D01*
X159434173Y-87775341D01*
X159600000Y-87808326D01*
X159675000Y-87808326D01*
X159675000Y-88420406D01*
X158120406Y-89975000D01*
X152550000Y-89975000D01*
X152291688Y-90026381D01*
X152072703Y-90172703D01*
X151465381Y-90780025D01*
X148517678Y-87832322D01*
X148509567Y-87826903D01*
X148500000Y-87825000D01*
X136710356Y-87825000D01*
X129325000Y-80439644D01*
X129325000Y-67800000D01*
X135975000Y-67800000D01*
X135975000Y-78100000D01*
X136026381Y-78358312D01*
X136172703Y-78577297D01*
X137022703Y-79427297D01*
X137241689Y-79573619D01*
X137500000Y-79625000D01*
X137616674Y-79625000D01*
X137616674Y-79950000D01*
X137649659Y-80115827D01*
X137743592Y-80256408D01*
X137884173Y-80350341D01*
X138050000Y-80383326D01*
X138625000Y-80383326D01*
X138625000Y-81050000D01*
X138676381Y-81308312D01*
X138822703Y-81527297D01*
X140122703Y-82827297D01*
X140341688Y-82973619D01*
X140600000Y-83025000D01*
X144600000Y-83025000D01*
X144858312Y-82973619D01*
X145077297Y-82827297D01*
X145254594Y-82650000D01*
X153316674Y-82650000D01*
X153316674Y-84150000D01*
X153349659Y-84315827D01*
X153443592Y-84456408D01*
X153584173Y-84550341D01*
X153750000Y-84583326D01*
X155050000Y-84583326D01*
X155215827Y-84550341D01*
X155356408Y-84456408D01*
X155450341Y-84315827D01*
X155483326Y-84150000D01*
X155483326Y-82650000D01*
X155450341Y-82484173D01*
X155356408Y-82343592D01*
X155215827Y-82249659D01*
X155075000Y-82221647D01*
X155075000Y-78929594D01*
X159562297Y-74442297D01*
X159708619Y-74223311D01*
X159760000Y-73965000D01*
X159760000Y-71764031D01*
X159889173Y-71850341D01*
X160055000Y-71883326D01*
X160655000Y-71883326D01*
X160820827Y-71850341D01*
X160961408Y-71756408D01*
X161055341Y-71615827D01*
X161088326Y-71450000D01*
X161088326Y-69450000D01*
X161055341Y-69284173D01*
X160961408Y-69143592D01*
X160820827Y-69049659D01*
X160655000Y-69016674D01*
X160055000Y-69016674D01*
X159889173Y-69049659D01*
X159748592Y-69143592D01*
X159720000Y-69186383D01*
X159691408Y-69143592D01*
X159550827Y-69049659D01*
X159385000Y-69016674D01*
X158785000Y-69016674D01*
X158619173Y-69049659D01*
X158490000Y-69135969D01*
X158490000Y-69014594D01*
X158879594Y-68625000D01*
X164420406Y-68625000D01*
X165925000Y-70129594D01*
X165925000Y-79821647D01*
X165784173Y-79849659D01*
X165643592Y-79943592D01*
X165549659Y-80084173D01*
X165516674Y-80250000D01*
X165516674Y-81750000D01*
X165549659Y-81915827D01*
X165643592Y-82056408D01*
X165784173Y-82150341D01*
X165950000Y-82183326D01*
X167250000Y-82183326D01*
X167415827Y-82150341D01*
X167556408Y-82056408D01*
X167650341Y-81915827D01*
X167683326Y-81750000D01*
X167683326Y-80250000D01*
X167650341Y-80084173D01*
X167556408Y-79943592D01*
X167415827Y-79849659D01*
X167275000Y-79821647D01*
X167275000Y-69850000D01*
X167223619Y-69591689D01*
X167223619Y-69591688D01*
X167077297Y-69372703D01*
X165177297Y-67472703D01*
X164958312Y-67326381D01*
X164700000Y-67275000D01*
X158600000Y-67275000D01*
X158341688Y-67326381D01*
X158122703Y-67472703D01*
X157337703Y-68257703D01*
X157191381Y-68476688D01*
X157161880Y-68625000D01*
X157140000Y-68735000D01*
X157140000Y-69246247D01*
X157114659Y-69284173D01*
X157081674Y-69450000D01*
X157081674Y-71450000D01*
X157114659Y-71615827D01*
X157208592Y-71756408D01*
X157349173Y-71850341D01*
X157515000Y-71883326D01*
X158115000Y-71883326D01*
X158280827Y-71850341D01*
X158410000Y-71764031D01*
X158410000Y-73685406D01*
X153922703Y-78172703D01*
X153776381Y-78391688D01*
X153770661Y-78420446D01*
X153725000Y-78650000D01*
X153725000Y-82221647D01*
X153584173Y-82249659D01*
X153443592Y-82343592D01*
X153349659Y-82484173D01*
X153316674Y-82650000D01*
X145254594Y-82650000D01*
X145592297Y-82312297D01*
X145738619Y-82093312D01*
X145790000Y-81835000D01*
X145790000Y-81164031D01*
X145919173Y-81250341D01*
X146085000Y-81283326D01*
X146685000Y-81283326D01*
X146850827Y-81250341D01*
X146991408Y-81156408D01*
X147085341Y-81015827D01*
X147118326Y-80850000D01*
X147118326Y-78850000D01*
X147085341Y-78684173D01*
X146991408Y-78543592D01*
X146850827Y-78449659D01*
X146685000Y-78416674D01*
X146085000Y-78416674D01*
X145919173Y-78449659D01*
X145778592Y-78543592D01*
X145750000Y-78586383D01*
X145721408Y-78543592D01*
X145580827Y-78449659D01*
X145415000Y-78416674D01*
X144815000Y-78416674D01*
X144649173Y-78449659D01*
X144508592Y-78543592D01*
X144480000Y-78586383D01*
X144451408Y-78543592D01*
X144310827Y-78449659D01*
X144145000Y-78416674D01*
X143545000Y-78416674D01*
X143379173Y-78449659D01*
X143238592Y-78543592D01*
X143144659Y-78684173D01*
X143111674Y-78850000D01*
X143111674Y-80850000D01*
X143144659Y-81015827D01*
X143170000Y-81053753D01*
X143170000Y-81570406D01*
X143065406Y-81675000D01*
X140879594Y-81675000D01*
X139975000Y-80770406D01*
X139975000Y-80383326D01*
X140550000Y-80383326D01*
X140715827Y-80350341D01*
X140856408Y-80256408D01*
X140950341Y-80115827D01*
X140983326Y-79950000D01*
X140983326Y-77950000D01*
X140950341Y-77784173D01*
X140856408Y-77643592D01*
X140715827Y-77549659D01*
X140550000Y-77516674D01*
X138050000Y-77516674D01*
X137884173Y-77549659D01*
X137743592Y-77643592D01*
X137649659Y-77784173D01*
X137616674Y-77950000D01*
X137616674Y-78112080D01*
X137325000Y-77820406D01*
X137325000Y-75312250D01*
X137517000Y-75312250D01*
X137517000Y-76056020D01*
X137598144Y-76251920D01*
X137748080Y-76401855D01*
X137943979Y-76483000D01*
X138937750Y-76483000D01*
X139071000Y-76349750D01*
X139071000Y-75179000D01*
X139529000Y-75179000D01*
X139529000Y-76349750D01*
X139662250Y-76483000D01*
X140656021Y-76483000D01*
X140851920Y-76401855D01*
X141001856Y-76251920D01*
X141083000Y-76056020D01*
X141083000Y-75312250D01*
X140949750Y-75179000D01*
X139529000Y-75179000D01*
X139071000Y-75179000D01*
X137650250Y-75179000D01*
X137517000Y-75312250D01*
X137325000Y-75312250D01*
X137325000Y-73843980D01*
X137517000Y-73843980D01*
X137517000Y-74587750D01*
X137650250Y-74721000D01*
X139071000Y-74721000D01*
X139071000Y-73550250D01*
X139529000Y-73550250D01*
X139529000Y-74721000D01*
X140949750Y-74721000D01*
X141083000Y-74587750D01*
X141083000Y-73843980D01*
X141001856Y-73648080D01*
X140851920Y-73498145D01*
X140656021Y-73417000D01*
X139662250Y-73417000D01*
X139529000Y-73550250D01*
X139071000Y-73550250D01*
X138937750Y-73417000D01*
X137943979Y-73417000D01*
X137748080Y-73498145D01*
X137598144Y-73648080D01*
X137517000Y-73843980D01*
X137325000Y-73843980D01*
X137325000Y-69450000D01*
X143111674Y-69450000D01*
X143111674Y-71450000D01*
X143144659Y-71615827D01*
X143238592Y-71756408D01*
X143379173Y-71850341D01*
X143545000Y-71883326D01*
X144145000Y-71883326D01*
X144310827Y-71850341D01*
X144401188Y-71789964D01*
X144513080Y-71901855D01*
X144708979Y-71983000D01*
X144831750Y-71983000D01*
X144965000Y-71849750D01*
X144965000Y-70679000D01*
X145265000Y-70679000D01*
X145265000Y-71849750D01*
X145398250Y-71983000D01*
X145521021Y-71983000D01*
X145716920Y-71901855D01*
X145750000Y-71868775D01*
X145783080Y-71901855D01*
X145978979Y-71983000D01*
X146101750Y-71983000D01*
X146235000Y-71849750D01*
X146235000Y-70679000D01*
X146535000Y-70679000D01*
X146535000Y-71849750D01*
X146668250Y-71983000D01*
X146791021Y-71983000D01*
X146986920Y-71901855D01*
X147136856Y-71751920D01*
X147218000Y-71556020D01*
X147218000Y-70812250D01*
X147084750Y-70679000D01*
X146535000Y-70679000D01*
X146235000Y-70679000D01*
X145265000Y-70679000D01*
X144965000Y-70679000D01*
X144866000Y-70679000D01*
X144866000Y-70221000D01*
X144965000Y-70221000D01*
X144965000Y-69050250D01*
X145265000Y-69050250D01*
X145265000Y-70221000D01*
X146235000Y-70221000D01*
X146235000Y-69050250D01*
X146535000Y-69050250D01*
X146535000Y-70221000D01*
X147084750Y-70221000D01*
X147218000Y-70087750D01*
X147218000Y-69343980D01*
X147136856Y-69148080D01*
X146986920Y-68998145D01*
X146791021Y-68917000D01*
X146668250Y-68917000D01*
X146535000Y-69050250D01*
X146235000Y-69050250D01*
X146101750Y-68917000D01*
X145978979Y-68917000D01*
X145783080Y-68998145D01*
X145750000Y-69031225D01*
X145716920Y-68998145D01*
X145521021Y-68917000D01*
X145398250Y-68917000D01*
X145265000Y-69050250D01*
X144965000Y-69050250D01*
X144831750Y-68917000D01*
X144708979Y-68917000D01*
X144513080Y-68998145D01*
X144401188Y-69110036D01*
X144310827Y-69049659D01*
X144145000Y-69016674D01*
X143545000Y-69016674D01*
X143379173Y-69049659D01*
X143238592Y-69143592D01*
X143144659Y-69284173D01*
X143111674Y-69450000D01*
X137325000Y-69450000D01*
X137325000Y-68079594D01*
X138979594Y-66425000D01*
X168520406Y-66425000D01*
X172975000Y-70879594D01*
X172975000Y-87766674D01*
X172900000Y-87766674D01*
X172734173Y-87799659D01*
X172593592Y-87893592D01*
X172499659Y-88034173D01*
X172466674Y-88200000D01*
X172466674Y-88225000D01*
X167400000Y-88225000D01*
X167160822Y-88272575D01*
X166958058Y-88408058D01*
X165108058Y-90258058D01*
X164972575Y-90460823D01*
X164925000Y-90700000D01*
X164925000Y-99441117D01*
X164916117Y-99450000D01*
X163208326Y-99450000D01*
X163208326Y-99200000D01*
X163188435Y-99100000D01*
X163208326Y-99000000D01*
X163208326Y-98550000D01*
X163188435Y-98450000D01*
X163208326Y-98350000D01*
X163208326Y-97900000D01*
X163175341Y-97734173D01*
X163081408Y-97593592D01*
X162940827Y-97499659D01*
X162775000Y-97466674D01*
X161025000Y-97466674D01*
X160859173Y-97499659D01*
X160858663Y-97500000D01*
X159633884Y-97500000D01*
X158636942Y-96503058D01*
X158434177Y-96367575D01*
X158195000Y-96320000D01*
X156578583Y-96320000D01*
X156563617Y-96310000D01*
X156606408Y-96281408D01*
X156700341Y-96140827D01*
X156733326Y-95975000D01*
X156733326Y-95375000D01*
X156700341Y-95209173D01*
X156639964Y-95118812D01*
X156751855Y-95006920D01*
X156833000Y-94811021D01*
X156833000Y-94688250D01*
X156699750Y-94555000D01*
X155779000Y-94555000D01*
X155779000Y-94654000D01*
X155321000Y-94654000D01*
X155321000Y-94555000D01*
X154400250Y-94555000D01*
X154267000Y-94688250D01*
X154267000Y-94811021D01*
X154348145Y-95006920D01*
X154460036Y-95118812D01*
X154399659Y-95209173D01*
X154366674Y-95375000D01*
X154366674Y-95975000D01*
X154399659Y-96140827D01*
X154493592Y-96281408D01*
X154536383Y-96310000D01*
X154493592Y-96338592D01*
X154399659Y-96479173D01*
X154366674Y-96645000D01*
X154366674Y-97245000D01*
X154399659Y-97410827D01*
X154493592Y-97551408D01*
X154536383Y-97580000D01*
X154493592Y-97608592D01*
X154399659Y-97749173D01*
X154366674Y-97915000D01*
X154366674Y-98515000D01*
X154399659Y-98680827D01*
X154493592Y-98821408D01*
X154536383Y-98850000D01*
X154521417Y-98860000D01*
X153965000Y-98860000D01*
X153725823Y-98907575D01*
X153523058Y-99043058D01*
X152858058Y-99708058D01*
X152722575Y-99910823D01*
X152675000Y-100150000D01*
X152675000Y-107837552D01*
X152558644Y-107953705D01*
X152425152Y-108275188D01*
X152424849Y-108623285D01*
X152557779Y-108945000D01*
X152803705Y-109191356D01*
X153125188Y-109324848D01*
X153473285Y-109325151D01*
X153795000Y-109192221D01*
X154041356Y-108946295D01*
X154174848Y-108624812D01*
X154175151Y-108276715D01*
X154042221Y-107955000D01*
X153925000Y-107837574D01*
X153925000Y-100408884D01*
X154223884Y-100110000D01*
X154521417Y-100110000D01*
X154536383Y-100120000D01*
X154493592Y-100148592D01*
X154399659Y-100289173D01*
X154366674Y-100455000D01*
X154366674Y-101055000D01*
X154399659Y-101220827D01*
X154460036Y-101311188D01*
X154348145Y-101423080D01*
X154267000Y-101618979D01*
X154267000Y-101741750D01*
X154400250Y-101875000D01*
X155321000Y-101875000D01*
X155321000Y-101776000D01*
X155779000Y-101776000D01*
X155779000Y-101875000D01*
X156699750Y-101875000D01*
X156833000Y-101741750D01*
X156833000Y-101618979D01*
X156751855Y-101423080D01*
X156678775Y-101350000D01*
X157392000Y-101350000D01*
X157392000Y-101687750D01*
X157525250Y-101821000D01*
X158321000Y-101821000D01*
X158321000Y-101801000D01*
X158779000Y-101801000D01*
X158779000Y-101821000D01*
X159574750Y-101821000D01*
X159708000Y-101687750D01*
X159708000Y-101350000D01*
X160591674Y-101350000D01*
X160591674Y-101479551D01*
X160573145Y-101498080D01*
X160492000Y-101693979D01*
X160492000Y-101779250D01*
X160625250Y-101912500D01*
X160727709Y-101912500D01*
X160859173Y-102000341D01*
X160983142Y-102025000D01*
X160859173Y-102049659D01*
X160727709Y-102137500D01*
X160625250Y-102137500D01*
X160492000Y-102270750D01*
X160492000Y-102356021D01*
X160573145Y-102551920D01*
X160591674Y-102570449D01*
X160591674Y-102900000D01*
X160611565Y-103000000D01*
X160591674Y-103100000D01*
X160591674Y-103550000D01*
X160611565Y-103650000D01*
X160591674Y-103750000D01*
X160591674Y-104200000D01*
X160611565Y-104300000D01*
X160591674Y-104400000D01*
X160591674Y-104850000D01*
X160611565Y-104950000D01*
X160591674Y-105050000D01*
X160591674Y-105300000D01*
X160575000Y-105300000D01*
X160335822Y-105347575D01*
X160133058Y-105483058D01*
X159608058Y-106008058D01*
X159472575Y-106210823D01*
X159425000Y-106450000D01*
X159425000Y-107787552D01*
X159308644Y-107903705D01*
X159225000Y-108105141D01*
X159225000Y-105723380D01*
X159340827Y-105700341D01*
X159481408Y-105606408D01*
X159575341Y-105465827D01*
X159608326Y-105300000D01*
X159608326Y-103800000D01*
X159575341Y-103634173D01*
X159481408Y-103493592D01*
X159340827Y-103399659D01*
X159175000Y-103366674D01*
X157925000Y-103366674D01*
X157759173Y-103399659D01*
X157618592Y-103493592D01*
X157524659Y-103634173D01*
X157491674Y-103800000D01*
X157491674Y-103875000D01*
X157084594Y-103875000D01*
X156733326Y-103523732D01*
X156733326Y-102995000D01*
X156700341Y-102829173D01*
X156639964Y-102738812D01*
X156751855Y-102626920D01*
X156833000Y-102431021D01*
X156833000Y-102412250D01*
X157392000Y-102412250D01*
X157392000Y-102906020D01*
X157473144Y-103101920D01*
X157623080Y-103251855D01*
X157818979Y-103333000D01*
X158187750Y-103333000D01*
X158321000Y-103199750D01*
X158321000Y-102279000D01*
X158779000Y-102279000D01*
X158779000Y-103199750D01*
X158912250Y-103333000D01*
X159281021Y-103333000D01*
X159476920Y-103251855D01*
X159626856Y-103101920D01*
X159708000Y-102906020D01*
X159708000Y-102412250D01*
X159574750Y-102279000D01*
X158779000Y-102279000D01*
X158321000Y-102279000D01*
X157525250Y-102279000D01*
X157392000Y-102412250D01*
X156833000Y-102412250D01*
X156833000Y-102308250D01*
X156699750Y-102175000D01*
X155779000Y-102175000D01*
X155779000Y-102274000D01*
X155321000Y-102274000D01*
X155321000Y-102175000D01*
X154400250Y-102175000D01*
X154267000Y-102308250D01*
X154267000Y-102431021D01*
X154348145Y-102626920D01*
X154460036Y-102738812D01*
X154399659Y-102829173D01*
X154366674Y-102995000D01*
X154366674Y-103595000D01*
X154399659Y-103760827D01*
X154493592Y-103901408D01*
X154634173Y-103995341D01*
X154800000Y-104028326D01*
X155328732Y-104028326D01*
X156327703Y-105027297D01*
X156546688Y-105173619D01*
X156805000Y-105225000D01*
X157491674Y-105225000D01*
X157491674Y-105300000D01*
X157524659Y-105465827D01*
X157618592Y-105606408D01*
X157759173Y-105700341D01*
X157875000Y-105723380D01*
X157875000Y-116150000D01*
X157926381Y-116408312D01*
X158072703Y-116627297D01*
X159222703Y-117777297D01*
X159441689Y-117923619D01*
X159700000Y-117975000D01*
X159766674Y-117975000D01*
X159766674Y-118300000D01*
X159799659Y-118465827D01*
X159893592Y-118606408D01*
X160034173Y-118700341D01*
X160200000Y-118733326D01*
X162700000Y-118733326D01*
X162865827Y-118700341D01*
X163006408Y-118606408D01*
X163100341Y-118465827D01*
X163133326Y-118300000D01*
X163133326Y-117475000D01*
X165641674Y-117475000D01*
X165641674Y-117550000D01*
X165674659Y-117715827D01*
X165768592Y-117856408D01*
X165909173Y-117950341D01*
X166075000Y-117983326D01*
X167325000Y-117983326D01*
X167490827Y-117950341D01*
X167631408Y-117856408D01*
X167725341Y-117715827D01*
X167753353Y-117575000D01*
X170116674Y-117575000D01*
X170116674Y-117650000D01*
X170149659Y-117815827D01*
X170243592Y-117956408D01*
X170384173Y-118050341D01*
X170550000Y-118083326D01*
X171850000Y-118083326D01*
X172015827Y-118050341D01*
X172156408Y-117956408D01*
X172250341Y-117815827D01*
X172283326Y-117650000D01*
X172283326Y-117162250D01*
X174292000Y-117162250D01*
X174292000Y-117656020D01*
X174373144Y-117851920D01*
X174523080Y-118001855D01*
X174718979Y-118083000D01*
X175087750Y-118083000D01*
X175221000Y-117949750D01*
X175221000Y-117029000D01*
X175679000Y-117029000D01*
X175679000Y-117949750D01*
X175812250Y-118083000D01*
X176181021Y-118083000D01*
X176376920Y-118001855D01*
X176526856Y-117851920D01*
X176608000Y-117656020D01*
X176608000Y-117162250D01*
X176474750Y-117029000D01*
X175679000Y-117029000D01*
X175221000Y-117029000D01*
X174425250Y-117029000D01*
X174292000Y-117162250D01*
X172283326Y-117162250D01*
X172283326Y-116150000D01*
X172250341Y-115984173D01*
X172223485Y-115943980D01*
X174292000Y-115943980D01*
X174292000Y-116437750D01*
X174425250Y-116571000D01*
X175221000Y-116571000D01*
X175221000Y-115650250D01*
X175679000Y-115650250D01*
X175679000Y-116571000D01*
X176474750Y-116571000D01*
X176608000Y-116437750D01*
X176608000Y-115943980D01*
X176526856Y-115748080D01*
X176376920Y-115598145D01*
X176181021Y-115517000D01*
X175812250Y-115517000D01*
X175679000Y-115650250D01*
X175221000Y-115650250D01*
X175087750Y-115517000D01*
X174718979Y-115517000D01*
X174523080Y-115598145D01*
X174373144Y-115748080D01*
X174292000Y-115943980D01*
X172223485Y-115943980D01*
X172156408Y-115843592D01*
X172015827Y-115749659D01*
X171850000Y-115716674D01*
X170550000Y-115716674D01*
X170384173Y-115749659D01*
X170243592Y-115843592D01*
X170149659Y-115984173D01*
X170116674Y-116150000D01*
X170116674Y-116225000D01*
X167758326Y-116225000D01*
X167758326Y-116050000D01*
X167725341Y-115884173D01*
X167631408Y-115743592D01*
X167490827Y-115649659D01*
X167325000Y-115616674D01*
X166075000Y-115616674D01*
X165909173Y-115649659D01*
X165768592Y-115743592D01*
X165674659Y-115884173D01*
X165641674Y-116050000D01*
X165641674Y-116125000D01*
X163094212Y-116125000D01*
X163006408Y-115993592D01*
X162865827Y-115899659D01*
X162700000Y-115866674D01*
X160200000Y-115866674D01*
X160034173Y-115899659D01*
X159893592Y-115993592D01*
X159799659Y-116134173D01*
X159766674Y-116300000D01*
X159766674Y-116412080D01*
X159225000Y-115870406D01*
X159225000Y-113662250D01*
X159667000Y-113662250D01*
X159667000Y-114406020D01*
X159748144Y-114601920D01*
X159898080Y-114751855D01*
X160093979Y-114833000D01*
X161087750Y-114833000D01*
X161221000Y-114699750D01*
X161221000Y-113529000D01*
X161679000Y-113529000D01*
X161679000Y-114699750D01*
X161812250Y-114833000D01*
X162806021Y-114833000D01*
X163001920Y-114751855D01*
X163091525Y-114662250D01*
X165542000Y-114662250D01*
X165542000Y-115156020D01*
X165623144Y-115351920D01*
X165773080Y-115501855D01*
X165968979Y-115583000D01*
X166337750Y-115583000D01*
X166471000Y-115449750D01*
X166471000Y-114529000D01*
X166929000Y-114529000D01*
X166929000Y-115449750D01*
X167062250Y-115583000D01*
X167431021Y-115583000D01*
X167626920Y-115501855D01*
X167776856Y-115351920D01*
X167858000Y-115156020D01*
X167858000Y-114662250D01*
X167724750Y-114529000D01*
X166929000Y-114529000D01*
X166471000Y-114529000D01*
X165675250Y-114529000D01*
X165542000Y-114662250D01*
X163091525Y-114662250D01*
X163151856Y-114601920D01*
X163233000Y-114406020D01*
X163233000Y-113662250D01*
X163099750Y-113529000D01*
X161679000Y-113529000D01*
X161221000Y-113529000D01*
X159800250Y-113529000D01*
X159667000Y-113662250D01*
X159225000Y-113662250D01*
X159225000Y-113443980D01*
X165542000Y-113443980D01*
X165542000Y-113937750D01*
X165675250Y-114071000D01*
X166471000Y-114071000D01*
X166471000Y-113150250D01*
X166929000Y-113150250D01*
X166929000Y-114071000D01*
X167724750Y-114071000D01*
X167858000Y-113937750D01*
X167858000Y-113443980D01*
X167776856Y-113248080D01*
X167626920Y-113098145D01*
X167431021Y-113017000D01*
X167062250Y-113017000D01*
X166929000Y-113150250D01*
X166471000Y-113150250D01*
X166337750Y-113017000D01*
X165968979Y-113017000D01*
X165773080Y-113098145D01*
X165623144Y-113248080D01*
X165542000Y-113443980D01*
X159225000Y-113443980D01*
X159225000Y-112193980D01*
X159667000Y-112193980D01*
X159667000Y-112937750D01*
X159800250Y-113071000D01*
X161221000Y-113071000D01*
X161221000Y-111900250D01*
X161679000Y-111900250D01*
X161679000Y-113071000D01*
X163099750Y-113071000D01*
X163233000Y-112937750D01*
X163233000Y-112193980D01*
X163151856Y-111998080D01*
X163001920Y-111848145D01*
X162806021Y-111767000D01*
X161812250Y-111767000D01*
X161679000Y-111900250D01*
X161221000Y-111900250D01*
X161087750Y-111767000D01*
X160093979Y-111767000D01*
X159898080Y-111848145D01*
X159748144Y-111998080D01*
X159667000Y-112193980D01*
X159225000Y-112193980D01*
X159225000Y-111758884D01*
X159808883Y-111175000D01*
X164400000Y-111175000D01*
X164639177Y-111127425D01*
X164841942Y-110991942D01*
X164841943Y-110991941D01*
X165991939Y-109841944D01*
X165991942Y-109841942D01*
X166127425Y-109639177D01*
X166133229Y-109610000D01*
X166175001Y-109400000D01*
X166175000Y-109399995D01*
X166175000Y-103983884D01*
X166208883Y-103950000D01*
X167791674Y-103950000D01*
X167791674Y-104079551D01*
X167773145Y-104098080D01*
X167692000Y-104293979D01*
X167692000Y-104379250D01*
X167825250Y-104512500D01*
X167927709Y-104512500D01*
X168059173Y-104600341D01*
X168183142Y-104625000D01*
X168059173Y-104649659D01*
X167927709Y-104737500D01*
X167825250Y-104737500D01*
X167692000Y-104870750D01*
X167692000Y-104956021D01*
X167773145Y-105151920D01*
X167791674Y-105170449D01*
X167791674Y-105500000D01*
X167811565Y-105600000D01*
X167791674Y-105700000D01*
X167791674Y-106150000D01*
X167811565Y-106250000D01*
X167791674Y-106350000D01*
X167791674Y-106800000D01*
X167824659Y-106965827D01*
X167918592Y-107106408D01*
X168059173Y-107200341D01*
X168225000Y-107233326D01*
X169975000Y-107233326D01*
X170140827Y-107200341D01*
X170141337Y-107200000D01*
X182907064Y-107200000D01*
X182936082Y-107243429D01*
X183101563Y-107354000D01*
X182936082Y-107464571D01*
X182724728Y-107780884D01*
X182650511Y-108154000D01*
X182724728Y-108527116D01*
X182936082Y-108843429D01*
X182948008Y-108851398D01*
X178174406Y-113625000D01*
X176508326Y-113625000D01*
X176508326Y-113550000D01*
X176475341Y-113384173D01*
X176381408Y-113243592D01*
X176240827Y-113149659D01*
X176075000Y-113116674D01*
X174825000Y-113116674D01*
X174659173Y-113149659D01*
X174518592Y-113243592D01*
X174424659Y-113384173D01*
X174391674Y-113550000D01*
X174391674Y-113625000D01*
X172283326Y-113625000D01*
X172283326Y-113450000D01*
X172250341Y-113284173D01*
X172156408Y-113143592D01*
X172015827Y-113049659D01*
X171850000Y-113016674D01*
X170550000Y-113016674D01*
X170384173Y-113049659D01*
X170243592Y-113143592D01*
X170149659Y-113284173D01*
X170116674Y-113450000D01*
X170116674Y-114950000D01*
X170149659Y-115115827D01*
X170243592Y-115256408D01*
X170384173Y-115350341D01*
X170550000Y-115383326D01*
X171850000Y-115383326D01*
X172015827Y-115350341D01*
X172156408Y-115256408D01*
X172250341Y-115115827D01*
X172278353Y-114975000D01*
X174391674Y-114975000D01*
X174391674Y-115050000D01*
X174424659Y-115215827D01*
X174518592Y-115356408D01*
X174659173Y-115450341D01*
X174825000Y-115483326D01*
X176075000Y-115483326D01*
X176240827Y-115450341D01*
X176381408Y-115356408D01*
X176475341Y-115215827D01*
X176508326Y-115050000D01*
X176508326Y-114975000D01*
X178454000Y-114975000D01*
X178712312Y-114923619D01*
X178931297Y-114777297D01*
X183065051Y-110643543D01*
X187438706Y-110643543D01*
X187610143Y-111020001D01*
X188009180Y-111394091D01*
X188521000Y-111587000D01*
X189021000Y-111587000D01*
X189021000Y-110433000D01*
X187521410Y-110433000D01*
X187438706Y-110643543D01*
X183065051Y-110643543D01*
X183944137Y-109764457D01*
X187438706Y-109764457D01*
X187521410Y-109975000D01*
X189021000Y-109975000D01*
X189021000Y-108821000D01*
X188521000Y-108821000D01*
X188009180Y-109013909D01*
X187610143Y-109387999D01*
X187438706Y-109764457D01*
X183944137Y-109764457D01*
X184677297Y-109031297D01*
X184713224Y-108977529D01*
X184913918Y-108843429D01*
X185125272Y-108527116D01*
X185172704Y-108288659D01*
X185375511Y-108329000D01*
X185974489Y-108329000D01*
X186347605Y-108254783D01*
X186663918Y-108043429D01*
X186875272Y-107727116D01*
X186949489Y-107354000D01*
X186875272Y-106980884D01*
X186663918Y-106664571D01*
X186498437Y-106554000D01*
X186663918Y-106443429D01*
X186875272Y-106127116D01*
X186949489Y-105754000D01*
X186875272Y-105380884D01*
X186663918Y-105064571D01*
X186347605Y-104853217D01*
X185974489Y-104779000D01*
X185375511Y-104779000D01*
X185283000Y-104797401D01*
X185283000Y-104724998D01*
X185121730Y-104724998D01*
X185209656Y-104562232D01*
X185053049Y-104277364D01*
X184729177Y-104002422D01*
X184324743Y-103872349D01*
X184154000Y-103999402D01*
X184154000Y-104725000D01*
X184174000Y-104725000D01*
X184174000Y-105183000D01*
X184154000Y-105183000D01*
X184154000Y-105203000D01*
X183696000Y-105203000D01*
X183696000Y-105183000D01*
X182728271Y-105183000D01*
X182640344Y-105345768D01*
X182796951Y-105630636D01*
X183012427Y-105813559D01*
X182936082Y-105864571D01*
X182879000Y-105950000D01*
X179522865Y-105950000D01*
X179574848Y-105824812D01*
X179575151Y-105476715D01*
X179442221Y-105155000D01*
X179196295Y-104908644D01*
X178874812Y-104775152D01*
X178526715Y-104774849D01*
X178205000Y-104907779D01*
X177958644Y-105153705D01*
X177897897Y-105300000D01*
X176183717Y-105300000D01*
X176233000Y-105181021D01*
X176233000Y-104812250D01*
X176099750Y-104679000D01*
X175179000Y-104679000D01*
X175179000Y-104699000D01*
X174721000Y-104699000D01*
X174721000Y-104679000D01*
X173800250Y-104679000D01*
X173667000Y-104812250D01*
X173667000Y-105181021D01*
X173716283Y-105300000D01*
X173560803Y-105300000D01*
X173600341Y-105240827D01*
X173633326Y-105075000D01*
X173633326Y-104562232D01*
X182640344Y-104562232D01*
X182728271Y-104725000D01*
X183696000Y-104725000D01*
X183696000Y-103999402D01*
X183525257Y-103872349D01*
X183120823Y-104002422D01*
X182796951Y-104277364D01*
X182640344Y-104562232D01*
X173633326Y-104562232D01*
X173633326Y-103825000D01*
X173612238Y-103718979D01*
X173667000Y-103718979D01*
X173667000Y-104087750D01*
X173800250Y-104221000D01*
X174721000Y-104221000D01*
X174721000Y-103425250D01*
X175179000Y-103425250D01*
X175179000Y-104221000D01*
X176099750Y-104221000D01*
X176233000Y-104087750D01*
X176233000Y-103718979D01*
X176151855Y-103523080D01*
X176001920Y-103373144D01*
X175930457Y-103343543D01*
X187438706Y-103343543D01*
X187610143Y-103720001D01*
X188009180Y-104094091D01*
X188521000Y-104287000D01*
X189021000Y-104287000D01*
X189021000Y-103133000D01*
X187521410Y-103133000D01*
X187438706Y-103343543D01*
X175930457Y-103343543D01*
X175806020Y-103292000D01*
X175312250Y-103292000D01*
X175179000Y-103425250D01*
X174721000Y-103425250D01*
X174587750Y-103292000D01*
X174093980Y-103292000D01*
X173898080Y-103373144D01*
X173748145Y-103523080D01*
X173667000Y-103718979D01*
X173612238Y-103718979D01*
X173600341Y-103659173D01*
X173506408Y-103518592D01*
X173365827Y-103424659D01*
X173200000Y-103391674D01*
X171700000Y-103391674D01*
X171534173Y-103424659D01*
X171393592Y-103518592D01*
X171299659Y-103659173D01*
X171266674Y-103825000D01*
X171266674Y-104650000D01*
X170141337Y-104650000D01*
X170140827Y-104649659D01*
X170016858Y-104625000D01*
X170140827Y-104600341D01*
X170272291Y-104512500D01*
X170374750Y-104512500D01*
X170508000Y-104379250D01*
X170508000Y-104293979D01*
X170426855Y-104098080D01*
X170408326Y-104079551D01*
X170408326Y-103750000D01*
X170388435Y-103650000D01*
X170408326Y-103550000D01*
X170408326Y-103220449D01*
X170426855Y-103201920D01*
X170508000Y-103006021D01*
X170508000Y-102920750D01*
X170374750Y-102787500D01*
X170272291Y-102787500D01*
X170140827Y-102699659D01*
X170016858Y-102675000D01*
X170140827Y-102650341D01*
X170141337Y-102650000D01*
X177437552Y-102650000D01*
X177553705Y-102766356D01*
X177875188Y-102899848D01*
X178223285Y-102900151D01*
X178545000Y-102767221D01*
X178791356Y-102521295D01*
X178814957Y-102464457D01*
X187438706Y-102464457D01*
X187521410Y-102675000D01*
X189021000Y-102675000D01*
X189021000Y-101521000D01*
X188521000Y-101521000D01*
X188009180Y-101713909D01*
X187610143Y-102087999D01*
X187438706Y-102464457D01*
X178814957Y-102464457D01*
X178924848Y-102199812D01*
X178925151Y-101851715D01*
X178792221Y-101530000D01*
X178637492Y-101375000D01*
X180297552Y-101375000D01*
X180413705Y-101491356D01*
X180735188Y-101624848D01*
X181083285Y-101625151D01*
X181405000Y-101492221D01*
X181651356Y-101246295D01*
X181784848Y-100924812D01*
X181785151Y-100576715D01*
X181652221Y-100255000D01*
X181406295Y-100008644D01*
X181084812Y-99875152D01*
X180736715Y-99874849D01*
X180415000Y-100007779D01*
X180297574Y-100125000D01*
X172030000Y-100125000D01*
X171790823Y-100172575D01*
X171588058Y-100308058D01*
X171588056Y-100308061D01*
X171146116Y-100750000D01*
X170408326Y-100750000D01*
X170408326Y-100620449D01*
X170426855Y-100601920D01*
X170508000Y-100406021D01*
X170508000Y-100320750D01*
X170374750Y-100187500D01*
X170272291Y-100187500D01*
X170194937Y-100135814D01*
X170276920Y-100101856D01*
X170426855Y-99951920D01*
X170456218Y-99881032D01*
X170508000Y-99829250D01*
X170508000Y-99670750D01*
X170456218Y-99618968D01*
X170426855Y-99548080D01*
X170276920Y-99398144D01*
X170194937Y-99364186D01*
X170272291Y-99312500D01*
X170374750Y-99312500D01*
X170508000Y-99179250D01*
X170508000Y-99093979D01*
X170426855Y-98898080D01*
X170408326Y-98879551D01*
X170408326Y-98550000D01*
X170388435Y-98450000D01*
X170408326Y-98350000D01*
X170408326Y-97900000D01*
X170375341Y-97734173D01*
X170281408Y-97593592D01*
X170140827Y-97499659D01*
X169975000Y-97466674D01*
X168225000Y-97466674D01*
X168059173Y-97499659D01*
X167918592Y-97593592D01*
X167824659Y-97734173D01*
X167791674Y-97900000D01*
X167791674Y-98350000D01*
X167811565Y-98450000D01*
X167791674Y-98550000D01*
X167791674Y-98879551D01*
X167773145Y-98898080D01*
X167692000Y-99093979D01*
X167692000Y-99179250D01*
X167825250Y-99312500D01*
X167927709Y-99312500D01*
X168005063Y-99364186D01*
X167923080Y-99398144D01*
X167773145Y-99548080D01*
X167743782Y-99618968D01*
X167692000Y-99670750D01*
X167692000Y-99829250D01*
X167743782Y-99881032D01*
X167773145Y-99951920D01*
X167923080Y-100101856D01*
X168005063Y-100135814D01*
X167927709Y-100187500D01*
X167825250Y-100187500D01*
X167692000Y-100320750D01*
X167692000Y-100406021D01*
X167773145Y-100601920D01*
X167791674Y-100620449D01*
X167791674Y-100950000D01*
X167811565Y-101050000D01*
X167791674Y-101150000D01*
X167791674Y-101600000D01*
X167811565Y-101700000D01*
X167791674Y-101800000D01*
X167791674Y-102129551D01*
X167773145Y-102148080D01*
X167692000Y-102343979D01*
X167692000Y-102429250D01*
X167825250Y-102562500D01*
X167927709Y-102562500D01*
X168059173Y-102650341D01*
X168183142Y-102675000D01*
X168059173Y-102699659D01*
X168058663Y-102700000D01*
X166183884Y-102700000D01*
X166175000Y-102691116D01*
X166175000Y-90958884D01*
X167658884Y-89475000D01*
X172466674Y-89475000D01*
X172466674Y-89500000D01*
X172499659Y-89665827D01*
X172593592Y-89806408D01*
X172734173Y-89900341D01*
X172900000Y-89933326D01*
X172975000Y-89933326D01*
X172975000Y-96366674D01*
X172900000Y-96366674D01*
X172734173Y-96399659D01*
X172593592Y-96493592D01*
X172499659Y-96634173D01*
X172466674Y-96800000D01*
X172466674Y-98100000D01*
X172499659Y-98265827D01*
X172593592Y-98406408D01*
X172734173Y-98500341D01*
X172900000Y-98533326D01*
X174400000Y-98533326D01*
X174565827Y-98500341D01*
X174706408Y-98406408D01*
X174800341Y-98265827D01*
X174833326Y-98100000D01*
X174833326Y-96800000D01*
X175166674Y-96800000D01*
X175166674Y-98100000D01*
X175199659Y-98265827D01*
X175293592Y-98406408D01*
X175434173Y-98500341D01*
X175600000Y-98533326D01*
X177100000Y-98533326D01*
X177265827Y-98500341D01*
X177406408Y-98406408D01*
X177500341Y-98265827D01*
X177533326Y-98100000D01*
X177533326Y-98075000D01*
X179417482Y-98075000D01*
X179493705Y-98151356D01*
X179815188Y-98284848D01*
X180163285Y-98285151D01*
X180485000Y-98152221D01*
X180731356Y-97906295D01*
X180840356Y-97643795D01*
X185974805Y-97643795D01*
X186145715Y-98057429D01*
X186461907Y-98374172D01*
X186875242Y-98545804D01*
X187322795Y-98546195D01*
X187736429Y-98375285D01*
X188053172Y-98059093D01*
X188224804Y-97645758D01*
X188225195Y-97198205D01*
X188054285Y-96784571D01*
X187738093Y-96467828D01*
X187324758Y-96296196D01*
X186877205Y-96295805D01*
X186463571Y-96466715D01*
X186146828Y-96782907D01*
X185975196Y-97196242D01*
X185974805Y-97643795D01*
X180840356Y-97643795D01*
X180864848Y-97584812D01*
X180865151Y-97236715D01*
X180732221Y-96915000D01*
X180486295Y-96668644D01*
X180164812Y-96535152D01*
X179816715Y-96534849D01*
X179495000Y-96667779D01*
X179337504Y-96825000D01*
X177533326Y-96825000D01*
X177533326Y-96800000D01*
X177500341Y-96634173D01*
X177406408Y-96493592D01*
X177265827Y-96399659D01*
X177100000Y-96366674D01*
X175600000Y-96366674D01*
X175434173Y-96399659D01*
X175293592Y-96493592D01*
X175199659Y-96634173D01*
X175166674Y-96800000D01*
X174833326Y-96800000D01*
X174800341Y-96634173D01*
X174706408Y-96493592D01*
X174565827Y-96399659D01*
X174400000Y-96366674D01*
X174325000Y-96366674D01*
X174325000Y-95103795D01*
X185974805Y-95103795D01*
X186145715Y-95517429D01*
X186461907Y-95834172D01*
X186875242Y-96005804D01*
X187322795Y-96006195D01*
X187736429Y-95835285D01*
X188053172Y-95519093D01*
X188224804Y-95105758D01*
X188225195Y-94658205D01*
X188054285Y-94244571D01*
X187738093Y-93927828D01*
X187324758Y-93756196D01*
X186877205Y-93755805D01*
X186463571Y-93926715D01*
X186146828Y-94242907D01*
X185975196Y-94656242D01*
X185974805Y-95103795D01*
X174325000Y-95103795D01*
X174325000Y-89933326D01*
X174400000Y-89933326D01*
X174565827Y-89900341D01*
X174706408Y-89806408D01*
X174800341Y-89665827D01*
X174833326Y-89500000D01*
X174833326Y-88200000D01*
X175166674Y-88200000D01*
X175166674Y-89500000D01*
X175199659Y-89665827D01*
X175293592Y-89806408D01*
X175434173Y-89900341D01*
X175600000Y-89933326D01*
X177100000Y-89933326D01*
X177265827Y-89900341D01*
X177406408Y-89806408D01*
X177500341Y-89665827D01*
X177533326Y-89500000D01*
X177533326Y-89475000D01*
X179367570Y-89475000D01*
X179493705Y-89601356D01*
X179815188Y-89734848D01*
X180163285Y-89735151D01*
X180485000Y-89602221D01*
X180731356Y-89356295D01*
X180841601Y-89090795D01*
X185974805Y-89090795D01*
X186145715Y-89504429D01*
X186461907Y-89821172D01*
X186875242Y-89992804D01*
X187322795Y-89993195D01*
X187736429Y-89822285D01*
X188053172Y-89506093D01*
X188224804Y-89092758D01*
X188225195Y-88645205D01*
X188054285Y-88231571D01*
X187738093Y-87914828D01*
X187324758Y-87743196D01*
X186877205Y-87742805D01*
X186463571Y-87913715D01*
X186146828Y-88229907D01*
X185975196Y-88643242D01*
X185974805Y-89090795D01*
X180841601Y-89090795D01*
X180864848Y-89034812D01*
X180865151Y-88686715D01*
X180732221Y-88365000D01*
X180486295Y-88118644D01*
X180164812Y-87985152D01*
X179816715Y-87984849D01*
X179495000Y-88117779D01*
X179387592Y-88225000D01*
X177533326Y-88225000D01*
X177533326Y-88200000D01*
X177500341Y-88034173D01*
X177406408Y-87893592D01*
X177265827Y-87799659D01*
X177100000Y-87766674D01*
X175600000Y-87766674D01*
X175434173Y-87799659D01*
X175293592Y-87893592D01*
X175199659Y-88034173D01*
X175166674Y-88200000D01*
X174833326Y-88200000D01*
X174800341Y-88034173D01*
X174706408Y-87893592D01*
X174565827Y-87799659D01*
X174400000Y-87766674D01*
X174325000Y-87766674D01*
X174325000Y-86550795D01*
X185974805Y-86550795D01*
X186145715Y-86964429D01*
X186461907Y-87281172D01*
X186875242Y-87452804D01*
X187322795Y-87453195D01*
X187736429Y-87282285D01*
X188053172Y-86966093D01*
X188224804Y-86552758D01*
X188225195Y-86105205D01*
X188054285Y-85691571D01*
X187738093Y-85374828D01*
X187324758Y-85203196D01*
X186877205Y-85202805D01*
X186463571Y-85373715D01*
X186146828Y-85689907D01*
X185975196Y-86103242D01*
X185974805Y-86550795D01*
X174325000Y-86550795D01*
X174325000Y-77525246D01*
X183044580Y-77525246D01*
X183412986Y-78416858D01*
X184094554Y-79099617D01*
X184985521Y-79469579D01*
X185950246Y-79470420D01*
X186841858Y-79102014D01*
X187524617Y-78420446D01*
X187894579Y-77529479D01*
X187895420Y-76564754D01*
X187527014Y-75673142D01*
X186845446Y-74990383D01*
X185954479Y-74620421D01*
X184989754Y-74619580D01*
X184098142Y-74987986D01*
X183415383Y-75669554D01*
X183045421Y-76560521D01*
X183044580Y-77525246D01*
X174325000Y-77525246D01*
X174325000Y-70600000D01*
X174273619Y-70341689D01*
X174273619Y-70341688D01*
X174127297Y-70122703D01*
X170171055Y-66166461D01*
X177084775Y-66166461D01*
X177281512Y-66642600D01*
X177645483Y-67007208D01*
X178121278Y-67204775D01*
X178636461Y-67205225D01*
X179112600Y-67008488D01*
X179477208Y-66644517D01*
X179674775Y-66168722D01*
X179675225Y-65653539D01*
X179478488Y-65177400D01*
X179114517Y-64812792D01*
X178638722Y-64615225D01*
X178123539Y-64614775D01*
X177647400Y-64811512D01*
X177282792Y-65175483D01*
X177085225Y-65651278D01*
X177084775Y-66166461D01*
X170171055Y-66166461D01*
X169277297Y-65272703D01*
X169058312Y-65126381D01*
X168800000Y-65075000D01*
X138700000Y-65075000D01*
X138441688Y-65126381D01*
X138222703Y-65272703D01*
X136172703Y-67322703D01*
X136026381Y-67541688D01*
X136026381Y-67541689D01*
X135975000Y-67800000D01*
X129325000Y-67800000D01*
X129325000Y-63100000D01*
X181500000Y-63100000D01*
X181500000Y-70500000D01*
G36*
X164925000Y-100708884D02*
X164925000Y-109141117D01*
X164141116Y-109925000D01*
X159550005Y-109925000D01*
X159550000Y-109924999D01*
X159310823Y-109972575D01*
X159225000Y-110029920D01*
X159225000Y-108694660D01*
X159307779Y-108895000D01*
X159553705Y-109141356D01*
X159875188Y-109274848D01*
X160223285Y-109275151D01*
X160545000Y-109142221D01*
X160791356Y-108896295D01*
X160924848Y-108574812D01*
X160925151Y-108226715D01*
X160792221Y-107905000D01*
X160675000Y-107787574D01*
X160675000Y-107041168D01*
X160718592Y-107106408D01*
X160859173Y-107200341D01*
X161025000Y-107233326D01*
X162775000Y-107233326D01*
X162940827Y-107200341D01*
X163081408Y-107106408D01*
X163175341Y-106965827D01*
X163208326Y-106800000D01*
X163208326Y-106350000D01*
X163188435Y-106250000D01*
X163208326Y-106150000D01*
X163208326Y-105700000D01*
X163188435Y-105600000D01*
X163208326Y-105500000D01*
X163208326Y-105050000D01*
X163188435Y-104950000D01*
X163208326Y-104850000D01*
X163208326Y-104400000D01*
X163188435Y-104300000D01*
X163208326Y-104200000D01*
X163208326Y-103750000D01*
X163188435Y-103650000D01*
X163208326Y-103550000D01*
X163208326Y-103100000D01*
X163188435Y-103000000D01*
X163208326Y-102900000D01*
X163208326Y-102570449D01*
X163226855Y-102551920D01*
X163308000Y-102356021D01*
X163308000Y-102270750D01*
X163174750Y-102137500D01*
X163072291Y-102137500D01*
X162940827Y-102049659D01*
X162816858Y-102025000D01*
X162940827Y-102000341D01*
X163072291Y-101912500D01*
X163174750Y-101912500D01*
X163308000Y-101779250D01*
X163308000Y-101693979D01*
X163226855Y-101498080D01*
X163208326Y-101479551D01*
X163208326Y-101150000D01*
X163188435Y-101050000D01*
X163208326Y-100950000D01*
X163208326Y-100700000D01*
X164916116Y-100700000D01*
X164925000Y-100708884D01*
X164925000Y-100708884D01*
G37*
X164925000Y-100708884D02*
X164925000Y-109141117D01*
X164141116Y-109925000D01*
X159550005Y-109925000D01*
X159550000Y-109924999D01*
X159310823Y-109972575D01*
X159225000Y-110029920D01*
X159225000Y-108694660D01*
X159307779Y-108895000D01*
X159553705Y-109141356D01*
X159875188Y-109274848D01*
X160223285Y-109275151D01*
X160545000Y-109142221D01*
X160791356Y-108896295D01*
X160924848Y-108574812D01*
X160925151Y-108226715D01*
X160792221Y-107905000D01*
X160675000Y-107787574D01*
X160675000Y-107041168D01*
X160718592Y-107106408D01*
X160859173Y-107200341D01*
X161025000Y-107233326D01*
X162775000Y-107233326D01*
X162940827Y-107200341D01*
X163081408Y-107106408D01*
X163175341Y-106965827D01*
X163208326Y-106800000D01*
X163208326Y-106350000D01*
X163188435Y-106250000D01*
X163208326Y-106150000D01*
X163208326Y-105700000D01*
X163188435Y-105600000D01*
X163208326Y-105500000D01*
X163208326Y-105050000D01*
X163188435Y-104950000D01*
X163208326Y-104850000D01*
X163208326Y-104400000D01*
X163188435Y-104300000D01*
X163208326Y-104200000D01*
X163208326Y-103750000D01*
X163188435Y-103650000D01*
X163208326Y-103550000D01*
X163208326Y-103100000D01*
X163188435Y-103000000D01*
X163208326Y-102900000D01*
X163208326Y-102570449D01*
X163226855Y-102551920D01*
X163308000Y-102356021D01*
X163308000Y-102270750D01*
X163174750Y-102137500D01*
X163072291Y-102137500D01*
X162940827Y-102049659D01*
X162816858Y-102025000D01*
X162940827Y-102000341D01*
X163072291Y-101912500D01*
X163174750Y-101912500D01*
X163308000Y-101779250D01*
X163308000Y-101693979D01*
X163226855Y-101498080D01*
X163208326Y-101479551D01*
X163208326Y-101150000D01*
X163188435Y-101050000D01*
X163208326Y-100950000D01*
X163208326Y-100700000D01*
X164916116Y-100700000D01*
X164925000Y-100708884D01*
M02*
