G04 #@! TF.FileFunction,Other,Fab,Top*
%FSLAX46Y46*%
G04 Gerber Fmt 4.6, Leading zero omitted, Abs format (unit mm)*
G04 Created by KiCad (PCBNEW no-vcs-found-product) date Thu Sep 29 09:32:32 2016*
%MOMM*%
%LPD*%
G01*
G04 APERTURE LIST*
%ADD10C,0.100000*%
%ADD11C,0.150000*%
G04 APERTURE END LIST*
D10*
X119196666Y-68340000D02*
X118963333Y-68340000D01*
X118963333Y-68706666D02*
X118963333Y-68006666D01*
X119296666Y-68006666D01*
X119930000Y-68706666D02*
X119530000Y-68706666D01*
X119730000Y-68706666D02*
X119730000Y-68006666D01*
X119663333Y-68106666D01*
X119596666Y-68173333D01*
X119530000Y-68206666D01*
X179726666Y-77010000D02*
X179493333Y-77010000D01*
X179493333Y-77376666D02*
X179493333Y-76676666D01*
X179826666Y-76676666D01*
X180060000Y-76743333D02*
X180093333Y-76710000D01*
X180160000Y-76676666D01*
X180326666Y-76676666D01*
X180393333Y-76710000D01*
X180426666Y-76743333D01*
X180460000Y-76810000D01*
X180460000Y-76876666D01*
X180426666Y-76976666D01*
X180026666Y-77376666D01*
X180460000Y-77376666D01*
X119206666Y-127260000D02*
X118973333Y-127260000D01*
X118973333Y-127626666D02*
X118973333Y-126926666D01*
X119306666Y-126926666D01*
X119506666Y-126926666D02*
X119940000Y-126926666D01*
X119706666Y-127193333D01*
X119806666Y-127193333D01*
X119873333Y-127226666D01*
X119906666Y-127260000D01*
X119940000Y-127326666D01*
X119940000Y-127493333D01*
X119906666Y-127560000D01*
X119873333Y-127593333D01*
X119806666Y-127626666D01*
X119606666Y-127626666D01*
X119540000Y-127593333D01*
X119506666Y-127560000D01*
X180130000Y-119183333D02*
X180130000Y-119416666D01*
X180496666Y-119416666D02*
X179796666Y-119416666D01*
X179796666Y-119083333D01*
X180030000Y-118516666D02*
X180496666Y-118516666D01*
X179763333Y-118683333D02*
X180263333Y-118850000D01*
X180263333Y-118416666D01*
X167063333Y-63730000D02*
X166830000Y-63730000D01*
X166830000Y-64096666D02*
X166830000Y-63396666D01*
X167163333Y-63396666D01*
X167430000Y-64096666D02*
X167430000Y-63630000D01*
X167430000Y-63396666D02*
X167396666Y-63430000D01*
X167430000Y-63463333D01*
X167463333Y-63430000D01*
X167430000Y-63396666D01*
X167430000Y-63463333D01*
X168063333Y-64096666D02*
X168063333Y-63396666D01*
X168063333Y-64063333D02*
X167996666Y-64096666D01*
X167863333Y-64096666D01*
X167796666Y-64063333D01*
X167763333Y-64030000D01*
X167730000Y-63963333D01*
X167730000Y-63763333D01*
X167763333Y-63696666D01*
X167796666Y-63663333D01*
X167863333Y-63630000D01*
X167996666Y-63630000D01*
X168063333Y-63663333D01*
X168696666Y-63630000D02*
X168696666Y-64096666D01*
X168396666Y-63630000D02*
X168396666Y-63996666D01*
X168430000Y-64063333D01*
X168496666Y-64096666D01*
X168596666Y-64096666D01*
X168663333Y-64063333D01*
X168696666Y-64030000D01*
X169330000Y-64063333D02*
X169263333Y-64096666D01*
X169130000Y-64096666D01*
X169063333Y-64063333D01*
X169030000Y-64030000D01*
X168996666Y-63963333D01*
X168996666Y-63763333D01*
X169030000Y-63696666D01*
X169063333Y-63663333D01*
X169130000Y-63630000D01*
X169263333Y-63630000D01*
X169330000Y-63663333D01*
X169630000Y-64096666D02*
X169630000Y-63630000D01*
X169630000Y-63396666D02*
X169596666Y-63430000D01*
X169630000Y-63463333D01*
X169663333Y-63430000D01*
X169630000Y-63396666D01*
X169630000Y-63463333D01*
X170263333Y-64096666D02*
X170263333Y-63730000D01*
X170230000Y-63663333D01*
X170163333Y-63630000D01*
X170030000Y-63630000D01*
X169963333Y-63663333D01*
X170263333Y-64063333D02*
X170196666Y-64096666D01*
X170030000Y-64096666D01*
X169963333Y-64063333D01*
X169930000Y-63996666D01*
X169930000Y-63930000D01*
X169963333Y-63863333D01*
X170030000Y-63830000D01*
X170196666Y-63830000D01*
X170263333Y-63796666D01*
X170696666Y-64096666D02*
X170630000Y-64063333D01*
X170596666Y-63996666D01*
X170596666Y-63396666D01*
X170796666Y-64163333D02*
X171330000Y-64163333D01*
X171863333Y-64096666D02*
X171463333Y-64096666D01*
X171663333Y-64096666D02*
X171663333Y-63396666D01*
X171596666Y-63496666D01*
X171530000Y-63563333D01*
X171463333Y-63596666D01*
X172163333Y-64096666D02*
X172163333Y-63630000D01*
X172163333Y-63696666D02*
X172196666Y-63663333D01*
X172263333Y-63630000D01*
X172363333Y-63630000D01*
X172430000Y-63663333D01*
X172463333Y-63730000D01*
X172463333Y-64096666D01*
X172463333Y-63730000D02*
X172496666Y-63663333D01*
X172563333Y-63630000D01*
X172663333Y-63630000D01*
X172730000Y-63663333D01*
X172763333Y-63730000D01*
X172763333Y-64096666D01*
X173096666Y-64096666D02*
X173096666Y-63630000D01*
X173096666Y-63696666D02*
X173130000Y-63663333D01*
X173196666Y-63630000D01*
X173296666Y-63630000D01*
X173363333Y-63663333D01*
X173396666Y-63730000D01*
X173396666Y-64096666D01*
X173396666Y-63730000D02*
X173430000Y-63663333D01*
X173496666Y-63630000D01*
X173596666Y-63630000D01*
X173663333Y-63663333D01*
X173696666Y-63730000D01*
X173696666Y-64096666D01*
X173863333Y-64163333D02*
X174396666Y-64163333D01*
X174563333Y-64096666D02*
X174563333Y-63396666D01*
X174730000Y-63396666D01*
X174830000Y-63430000D01*
X174896666Y-63496666D01*
X174930000Y-63563333D01*
X174963333Y-63696666D01*
X174963333Y-63796666D01*
X174930000Y-63930000D01*
X174896666Y-63996666D01*
X174830000Y-64063333D01*
X174730000Y-64096666D01*
X174563333Y-64096666D01*
X175263333Y-64096666D02*
X175263333Y-63630000D01*
X175263333Y-63396666D02*
X175230000Y-63430000D01*
X175263333Y-63463333D01*
X175296666Y-63430000D01*
X175263333Y-63396666D01*
X175263333Y-63463333D01*
X175896666Y-64096666D02*
X175896666Y-63730000D01*
X175863333Y-63663333D01*
X175796666Y-63630000D01*
X175663333Y-63630000D01*
X175596666Y-63663333D01*
X175896666Y-64063333D02*
X175830000Y-64096666D01*
X175663333Y-64096666D01*
X175596666Y-64063333D01*
X175563333Y-63996666D01*
X175563333Y-63930000D01*
X175596666Y-63863333D01*
X175663333Y-63830000D01*
X175830000Y-63830000D01*
X175896666Y-63796666D01*
X176063333Y-64163333D02*
X176596666Y-64163333D01*
X176730000Y-63463333D02*
X176763333Y-63430000D01*
X176830000Y-63396666D01*
X176996666Y-63396666D01*
X177063333Y-63430000D01*
X177096666Y-63463333D01*
X177130000Y-63530000D01*
X177130000Y-63596666D01*
X177096666Y-63696666D01*
X176696666Y-64096666D01*
X177130000Y-64096666D01*
X177430000Y-64030000D02*
X177463333Y-64063333D01*
X177430000Y-64096666D01*
X177396666Y-64063333D01*
X177430000Y-64030000D01*
X177430000Y-64096666D01*
X178096666Y-63396666D02*
X177763333Y-63396666D01*
X177730000Y-63730000D01*
X177763333Y-63696666D01*
X177830000Y-63663333D01*
X177996666Y-63663333D01*
X178063333Y-63696666D01*
X178096666Y-63730000D01*
X178130000Y-63796666D01*
X178130000Y-63963333D01*
X178096666Y-64030000D01*
X178063333Y-64063333D01*
X177996666Y-64096666D01*
X177830000Y-64096666D01*
X177763333Y-64063333D01*
X177730000Y-64030000D01*
X178730000Y-63630000D02*
X178730000Y-64096666D01*
X178563333Y-63363333D02*
X178396666Y-63863333D01*
X178830000Y-63863333D01*
X179096666Y-64096666D02*
X179096666Y-63630000D01*
X179096666Y-63696666D02*
X179130000Y-63663333D01*
X179196666Y-63630000D01*
X179296666Y-63630000D01*
X179363333Y-63663333D01*
X179396666Y-63730000D01*
X179396666Y-64096666D01*
X179396666Y-63730000D02*
X179430000Y-63663333D01*
X179496666Y-63630000D01*
X179596666Y-63630000D01*
X179663333Y-63663333D01*
X179696666Y-63730000D01*
X179696666Y-64096666D01*
X180030000Y-64096666D02*
X180030000Y-63630000D01*
X180030000Y-63696666D02*
X180063333Y-63663333D01*
X180130000Y-63630000D01*
X180230000Y-63630000D01*
X180296666Y-63663333D01*
X180330000Y-63730000D01*
X180330000Y-64096666D01*
X180330000Y-63730000D02*
X180363333Y-63663333D01*
X180430000Y-63630000D01*
X180530000Y-63630000D01*
X180596666Y-63663333D01*
X180630000Y-63730000D01*
X180630000Y-64096666D01*
X180796666Y-64163333D02*
X181330000Y-64163333D01*
X181630000Y-63396666D02*
X181763333Y-63396666D01*
X181830000Y-63430000D01*
X181896666Y-63496666D01*
X181930000Y-63630000D01*
X181930000Y-63863333D01*
X181896666Y-63996666D01*
X181830000Y-64063333D01*
X181763333Y-64096666D01*
X181630000Y-64096666D01*
X181563333Y-64063333D01*
X181496666Y-63996666D01*
X181463333Y-63863333D01*
X181463333Y-63630000D01*
X181496666Y-63496666D01*
X181563333Y-63430000D01*
X181630000Y-63396666D01*
X182530000Y-63630000D02*
X182530000Y-64096666D01*
X182230000Y-63630000D02*
X182230000Y-63996666D01*
X182263333Y-64063333D01*
X182330000Y-64096666D01*
X182430000Y-64096666D01*
X182496666Y-64063333D01*
X182530000Y-64030000D01*
X182763333Y-63630000D02*
X183030000Y-63630000D01*
X182863333Y-63396666D02*
X182863333Y-63996666D01*
X182896666Y-64063333D01*
X182963333Y-64096666D01*
X183030000Y-64096666D01*
X183530000Y-64063333D02*
X183463333Y-64096666D01*
X183330000Y-64096666D01*
X183263333Y-64063333D01*
X183230000Y-63996666D01*
X183230000Y-63730000D01*
X183263333Y-63663333D01*
X183330000Y-63630000D01*
X183463333Y-63630000D01*
X183530000Y-63663333D01*
X183563333Y-63730000D01*
X183563333Y-63796666D01*
X183230000Y-63863333D01*
X183863333Y-64096666D02*
X183863333Y-63630000D01*
X183863333Y-63763333D02*
X183896666Y-63696666D01*
X183930000Y-63663333D01*
X183996666Y-63630000D01*
X184063333Y-63630000D01*
X184130000Y-64163333D02*
X184663333Y-64163333D01*
X185230000Y-64030000D02*
X185196666Y-64063333D01*
X185096666Y-64096666D01*
X185030000Y-64096666D01*
X184930000Y-64063333D01*
X184863333Y-63996666D01*
X184830000Y-63930000D01*
X184796666Y-63796666D01*
X184796666Y-63696666D01*
X184830000Y-63563333D01*
X184863333Y-63496666D01*
X184930000Y-63430000D01*
X185030000Y-63396666D01*
X185096666Y-63396666D01*
X185196666Y-63430000D01*
X185230000Y-63463333D01*
X185630000Y-64096666D02*
X185563333Y-64063333D01*
X185530000Y-64030000D01*
X185496666Y-63963333D01*
X185496666Y-63763333D01*
X185530000Y-63696666D01*
X185563333Y-63663333D01*
X185630000Y-63630000D01*
X185730000Y-63630000D01*
X185796666Y-63663333D01*
X185830000Y-63696666D01*
X185863333Y-63763333D01*
X185863333Y-63963333D01*
X185830000Y-64030000D01*
X185796666Y-64063333D01*
X185730000Y-64096666D01*
X185630000Y-64096666D01*
X186163333Y-63630000D02*
X186163333Y-64330000D01*
X186163333Y-63663333D02*
X186230000Y-63630000D01*
X186363333Y-63630000D01*
X186430000Y-63663333D01*
X186463333Y-63696666D01*
X186496666Y-63763333D01*
X186496666Y-63963333D01*
X186463333Y-64030000D01*
X186430000Y-64063333D01*
X186363333Y-64096666D01*
X186230000Y-64096666D01*
X186163333Y-64063333D01*
X186796666Y-63630000D02*
X186796666Y-64330000D01*
X186796666Y-63663333D02*
X186863333Y-63630000D01*
X186996666Y-63630000D01*
X187063333Y-63663333D01*
X187096666Y-63696666D01*
X187130000Y-63763333D01*
X187130000Y-63963333D01*
X187096666Y-64030000D01*
X187063333Y-64063333D01*
X186996666Y-64096666D01*
X186863333Y-64096666D01*
X186796666Y-64063333D01*
X187696666Y-64063333D02*
X187630000Y-64096666D01*
X187496666Y-64096666D01*
X187430000Y-64063333D01*
X187396666Y-63996666D01*
X187396666Y-63730000D01*
X187430000Y-63663333D01*
X187496666Y-63630000D01*
X187630000Y-63630000D01*
X187696666Y-63663333D01*
X187730000Y-63730000D01*
X187730000Y-63796666D01*
X187396666Y-63863333D01*
X188030000Y-64096666D02*
X188030000Y-63630000D01*
X188030000Y-63763333D02*
X188063333Y-63696666D01*
X188096666Y-63663333D01*
X188163333Y-63630000D01*
X188230000Y-63630000D01*
X188363333Y-63396666D02*
X188763333Y-63396666D01*
X188563333Y-64096666D02*
X188563333Y-63396666D01*
X189096666Y-64096666D02*
X189030000Y-64063333D01*
X188996666Y-64030000D01*
X188963333Y-63963333D01*
X188963333Y-63763333D01*
X188996666Y-63696666D01*
X189030000Y-63663333D01*
X189096666Y-63630000D01*
X189196666Y-63630000D01*
X189263333Y-63663333D01*
X189296666Y-63696666D01*
X189330000Y-63763333D01*
X189330000Y-63963333D01*
X189296666Y-64030000D01*
X189263333Y-64063333D01*
X189196666Y-64096666D01*
X189096666Y-64096666D01*
X189630000Y-63630000D02*
X189630000Y-64330000D01*
X189630000Y-63663333D02*
X189696666Y-63630000D01*
X189830000Y-63630000D01*
X189896666Y-63663333D01*
X189930000Y-63696666D01*
X189963333Y-63763333D01*
X189963333Y-63963333D01*
X189930000Y-64030000D01*
X189896666Y-64063333D01*
X189830000Y-64096666D01*
X189696666Y-64096666D01*
X189630000Y-64063333D01*
D11*
X90676190Y-124358571D02*
X90342857Y-124358571D01*
X90342857Y-124882380D02*
X90342857Y-123882380D01*
X90819047Y-123882380D01*
X91200000Y-124882380D02*
X91200000Y-124215714D01*
X91200000Y-123882380D02*
X91152380Y-123930000D01*
X91200000Y-123977619D01*
X91247619Y-123930000D01*
X91200000Y-123882380D01*
X91200000Y-123977619D01*
X92104761Y-124882380D02*
X92104761Y-123882380D01*
X92104761Y-124834761D02*
X92009523Y-124882380D01*
X91819047Y-124882380D01*
X91723809Y-124834761D01*
X91676190Y-124787142D01*
X91628571Y-124691904D01*
X91628571Y-124406190D01*
X91676190Y-124310952D01*
X91723809Y-124263333D01*
X91819047Y-124215714D01*
X92009523Y-124215714D01*
X92104761Y-124263333D01*
X93009523Y-124215714D02*
X93009523Y-124882380D01*
X92580952Y-124215714D02*
X92580952Y-124739523D01*
X92628571Y-124834761D01*
X92723809Y-124882380D01*
X92866666Y-124882380D01*
X92961904Y-124834761D01*
X93009523Y-124787142D01*
X93914285Y-124834761D02*
X93819047Y-124882380D01*
X93628571Y-124882380D01*
X93533333Y-124834761D01*
X93485714Y-124787142D01*
X93438095Y-124691904D01*
X93438095Y-124406190D01*
X93485714Y-124310952D01*
X93533333Y-124263333D01*
X93628571Y-124215714D01*
X93819047Y-124215714D01*
X93914285Y-124263333D01*
X94342857Y-124882380D02*
X94342857Y-124215714D01*
X94342857Y-123882380D02*
X94295238Y-123930000D01*
X94342857Y-123977619D01*
X94390476Y-123930000D01*
X94342857Y-123882380D01*
X94342857Y-123977619D01*
X95247619Y-124882380D02*
X95247619Y-124358571D01*
X95200000Y-124263333D01*
X95104761Y-124215714D01*
X94914285Y-124215714D01*
X94819047Y-124263333D01*
X95247619Y-124834761D02*
X95152380Y-124882380D01*
X94914285Y-124882380D01*
X94819047Y-124834761D01*
X94771428Y-124739523D01*
X94771428Y-124644285D01*
X94819047Y-124549047D01*
X94914285Y-124501428D01*
X95152380Y-124501428D01*
X95247619Y-124453809D01*
X95866666Y-124882380D02*
X95771428Y-124834761D01*
X95723809Y-124739523D01*
X95723809Y-123882380D01*
X96009523Y-124977619D02*
X96771428Y-124977619D01*
X97533333Y-124882380D02*
X96961904Y-124882380D01*
X97247619Y-124882380D02*
X97247619Y-123882380D01*
X97152380Y-124025238D01*
X97057142Y-124120476D01*
X96961904Y-124168095D01*
X97961904Y-124882380D02*
X97961904Y-124215714D01*
X97961904Y-124310952D02*
X98009523Y-124263333D01*
X98104761Y-124215714D01*
X98247619Y-124215714D01*
X98342857Y-124263333D01*
X98390476Y-124358571D01*
X98390476Y-124882380D01*
X98390476Y-124358571D02*
X98438095Y-124263333D01*
X98533333Y-124215714D01*
X98676190Y-124215714D01*
X98771428Y-124263333D01*
X98819047Y-124358571D01*
X98819047Y-124882380D01*
X99295238Y-124882380D02*
X99295238Y-124215714D01*
X99295238Y-124310952D02*
X99342857Y-124263333D01*
X99438095Y-124215714D01*
X99580952Y-124215714D01*
X99676190Y-124263333D01*
X99723809Y-124358571D01*
X99723809Y-124882380D01*
X99723809Y-124358571D02*
X99771428Y-124263333D01*
X99866666Y-124215714D01*
X100009523Y-124215714D01*
X100104761Y-124263333D01*
X100152380Y-124358571D01*
X100152380Y-124882380D01*
X100390476Y-124977619D02*
X101152380Y-124977619D01*
X101390476Y-124882380D02*
X101390476Y-123882380D01*
X101628571Y-123882380D01*
X101771428Y-123930000D01*
X101866666Y-124025238D01*
X101914285Y-124120476D01*
X101961904Y-124310952D01*
X101961904Y-124453809D01*
X101914285Y-124644285D01*
X101866666Y-124739523D01*
X101771428Y-124834761D01*
X101628571Y-124882380D01*
X101390476Y-124882380D01*
X102390476Y-124882380D02*
X102390476Y-124215714D01*
X102390476Y-123882380D02*
X102342857Y-123930000D01*
X102390476Y-123977619D01*
X102438095Y-123930000D01*
X102390476Y-123882380D01*
X102390476Y-123977619D01*
X103295238Y-124882380D02*
X103295238Y-124358571D01*
X103247619Y-124263333D01*
X103152380Y-124215714D01*
X102961904Y-124215714D01*
X102866666Y-124263333D01*
X103295238Y-124834761D02*
X103200000Y-124882380D01*
X102961904Y-124882380D01*
X102866666Y-124834761D01*
X102819047Y-124739523D01*
X102819047Y-124644285D01*
X102866666Y-124549047D01*
X102961904Y-124501428D01*
X103200000Y-124501428D01*
X103295238Y-124453809D01*
X103533333Y-124977619D02*
X104295238Y-124977619D01*
X104485714Y-123977619D02*
X104533333Y-123930000D01*
X104628571Y-123882380D01*
X104866666Y-123882380D01*
X104961904Y-123930000D01*
X105009523Y-123977619D01*
X105057142Y-124072857D01*
X105057142Y-124168095D01*
X105009523Y-124310952D01*
X104438095Y-124882380D01*
X105057142Y-124882380D01*
X105485714Y-124787142D02*
X105533333Y-124834761D01*
X105485714Y-124882380D01*
X105438095Y-124834761D01*
X105485714Y-124787142D01*
X105485714Y-124882380D01*
X106438095Y-123882380D02*
X105961904Y-123882380D01*
X105914285Y-124358571D01*
X105961904Y-124310952D01*
X106057142Y-124263333D01*
X106295238Y-124263333D01*
X106390476Y-124310952D01*
X106438095Y-124358571D01*
X106485714Y-124453809D01*
X106485714Y-124691904D01*
X106438095Y-124787142D01*
X106390476Y-124834761D01*
X106295238Y-124882380D01*
X106057142Y-124882380D01*
X105961904Y-124834761D01*
X105914285Y-124787142D01*
X107342857Y-124215714D02*
X107342857Y-124882380D01*
X107104761Y-123834761D02*
X106866666Y-124549047D01*
X107485714Y-124549047D01*
X107866666Y-124882380D02*
X107866666Y-124215714D01*
X107866666Y-124310952D02*
X107914285Y-124263333D01*
X108009523Y-124215714D01*
X108152380Y-124215714D01*
X108247619Y-124263333D01*
X108295238Y-124358571D01*
X108295238Y-124882380D01*
X108295238Y-124358571D02*
X108342857Y-124263333D01*
X108438095Y-124215714D01*
X108580952Y-124215714D01*
X108676190Y-124263333D01*
X108723809Y-124358571D01*
X108723809Y-124882380D01*
X109200000Y-124882380D02*
X109200000Y-124215714D01*
X109200000Y-124310952D02*
X109247619Y-124263333D01*
X109342857Y-124215714D01*
X109485714Y-124215714D01*
X109580952Y-124263333D01*
X109628571Y-124358571D01*
X109628571Y-124882380D01*
X109628571Y-124358571D02*
X109676190Y-124263333D01*
X109771428Y-124215714D01*
X109914285Y-124215714D01*
X110009523Y-124263333D01*
X110057142Y-124358571D01*
X110057142Y-124882380D01*
X110295238Y-124977619D02*
X111057142Y-124977619D01*
X111485714Y-123882380D02*
X111676190Y-123882380D01*
X111771428Y-123930000D01*
X111866666Y-124025238D01*
X111914285Y-124215714D01*
X111914285Y-124549047D01*
X111866666Y-124739523D01*
X111771428Y-124834761D01*
X111676190Y-124882380D01*
X111485714Y-124882380D01*
X111390476Y-124834761D01*
X111295238Y-124739523D01*
X111247619Y-124549047D01*
X111247619Y-124215714D01*
X111295238Y-124025238D01*
X111390476Y-123930000D01*
X111485714Y-123882380D01*
X112771428Y-124215714D02*
X112771428Y-124882380D01*
X112342857Y-124215714D02*
X112342857Y-124739523D01*
X112390476Y-124834761D01*
X112485714Y-124882380D01*
X112628571Y-124882380D01*
X112723809Y-124834761D01*
X112771428Y-124787142D01*
X113104761Y-124215714D02*
X113485714Y-124215714D01*
X113247619Y-123882380D02*
X113247619Y-124739523D01*
X113295238Y-124834761D01*
X113390476Y-124882380D01*
X113485714Y-124882380D01*
X114200000Y-124834761D02*
X114104761Y-124882380D01*
X113914285Y-124882380D01*
X113819047Y-124834761D01*
X113771428Y-124739523D01*
X113771428Y-124358571D01*
X113819047Y-124263333D01*
X113914285Y-124215714D01*
X114104761Y-124215714D01*
X114200000Y-124263333D01*
X114247619Y-124358571D01*
X114247619Y-124453809D01*
X113771428Y-124549047D01*
X114676190Y-124882380D02*
X114676190Y-124215714D01*
X114676190Y-124406190D02*
X114723809Y-124310952D01*
X114771428Y-124263333D01*
X114866666Y-124215714D01*
X114961904Y-124215714D01*
X115057142Y-124977619D02*
X115819047Y-124977619D01*
X116628571Y-124787142D02*
X116580952Y-124834761D01*
X116438095Y-124882380D01*
X116342857Y-124882380D01*
X116200000Y-124834761D01*
X116104761Y-124739523D01*
X116057142Y-124644285D01*
X116009523Y-124453809D01*
X116009523Y-124310952D01*
X116057142Y-124120476D01*
X116104761Y-124025238D01*
X116200000Y-123930000D01*
X116342857Y-123882380D01*
X116438095Y-123882380D01*
X116580952Y-123930000D01*
X116628571Y-123977619D01*
X117200000Y-124882380D02*
X117104761Y-124834761D01*
X117057142Y-124787142D01*
X117009523Y-124691904D01*
X117009523Y-124406190D01*
X117057142Y-124310952D01*
X117104761Y-124263333D01*
X117200000Y-124215714D01*
X117342857Y-124215714D01*
X117438095Y-124263333D01*
X117485714Y-124310952D01*
X117533333Y-124406190D01*
X117533333Y-124691904D01*
X117485714Y-124787142D01*
X117438095Y-124834761D01*
X117342857Y-124882380D01*
X117200000Y-124882380D01*
X117961904Y-124215714D02*
X117961904Y-125215714D01*
X117961904Y-124263333D02*
X118057142Y-124215714D01*
X118247619Y-124215714D01*
X118342857Y-124263333D01*
X118390476Y-124310952D01*
X118438095Y-124406190D01*
X118438095Y-124691904D01*
X118390476Y-124787142D01*
X118342857Y-124834761D01*
X118247619Y-124882380D01*
X118057142Y-124882380D01*
X117961904Y-124834761D01*
X118866666Y-124215714D02*
X118866666Y-125215714D01*
X118866666Y-124263333D02*
X118961904Y-124215714D01*
X119152380Y-124215714D01*
X119247619Y-124263333D01*
X119295238Y-124310952D01*
X119342857Y-124406190D01*
X119342857Y-124691904D01*
X119295238Y-124787142D01*
X119247619Y-124834761D01*
X119152380Y-124882380D01*
X118961904Y-124882380D01*
X118866666Y-124834761D01*
X120152380Y-124834761D02*
X120057142Y-124882380D01*
X119866666Y-124882380D01*
X119771428Y-124834761D01*
X119723809Y-124739523D01*
X119723809Y-124358571D01*
X119771428Y-124263333D01*
X119866666Y-124215714D01*
X120057142Y-124215714D01*
X120152380Y-124263333D01*
X120200000Y-124358571D01*
X120200000Y-124453809D01*
X119723809Y-124549047D01*
X120628571Y-124882380D02*
X120628571Y-124215714D01*
X120628571Y-124406190D02*
X120676190Y-124310952D01*
X120723809Y-124263333D01*
X120819047Y-124215714D01*
X120914285Y-124215714D01*
X121580952Y-124358571D02*
X121723809Y-124406190D01*
X121771428Y-124453809D01*
X121819047Y-124549047D01*
X121819047Y-124691904D01*
X121771428Y-124787142D01*
X121723809Y-124834761D01*
X121628571Y-124882380D01*
X121247619Y-124882380D01*
X121247619Y-123882380D01*
X121580952Y-123882380D01*
X121676190Y-123930000D01*
X121723809Y-123977619D01*
X121771428Y-124072857D01*
X121771428Y-124168095D01*
X121723809Y-124263333D01*
X121676190Y-124310952D01*
X121580952Y-124358571D01*
X121247619Y-124358571D01*
X122390476Y-124882380D02*
X122295238Y-124834761D01*
X122247619Y-124787142D01*
X122200000Y-124691904D01*
X122200000Y-124406190D01*
X122247619Y-124310952D01*
X122295238Y-124263333D01*
X122390476Y-124215714D01*
X122533333Y-124215714D01*
X122628571Y-124263333D01*
X122676190Y-124310952D01*
X122723809Y-124406190D01*
X122723809Y-124691904D01*
X122676190Y-124787142D01*
X122628571Y-124834761D01*
X122533333Y-124882380D01*
X122390476Y-124882380D01*
X123009523Y-124215714D02*
X123390476Y-124215714D01*
X123152380Y-123882380D02*
X123152380Y-124739523D01*
X123200000Y-124834761D01*
X123295238Y-124882380D01*
X123390476Y-124882380D01*
X123580952Y-124215714D02*
X123961904Y-124215714D01*
X123723809Y-123882380D02*
X123723809Y-124739523D01*
X123771428Y-124834761D01*
X123866666Y-124882380D01*
X123961904Y-124882380D01*
X124438095Y-124882380D02*
X124342857Y-124834761D01*
X124295238Y-124787142D01*
X124247619Y-124691904D01*
X124247619Y-124406190D01*
X124295238Y-124310952D01*
X124342857Y-124263333D01*
X124438095Y-124215714D01*
X124580952Y-124215714D01*
X124676190Y-124263333D01*
X124723809Y-124310952D01*
X124771428Y-124406190D01*
X124771428Y-124691904D01*
X124723809Y-124787142D01*
X124676190Y-124834761D01*
X124580952Y-124882380D01*
X124438095Y-124882380D01*
X125200000Y-124882380D02*
X125200000Y-124215714D01*
X125200000Y-124310952D02*
X125247619Y-124263333D01*
X125342857Y-124215714D01*
X125485714Y-124215714D01*
X125580952Y-124263333D01*
X125628571Y-124358571D01*
X125628571Y-124882380D01*
X125628571Y-124358571D02*
X125676190Y-124263333D01*
X125771428Y-124215714D01*
X125914285Y-124215714D01*
X126009523Y-124263333D01*
X126057142Y-124358571D01*
X126057142Y-124882380D01*
M02*
