G04 #@! TF.FileFunction,Other,User*
%FSLAX46Y46*%
G04 Gerber Fmt 4.6, Leading zero omitted, Abs format (unit mm)*
G04 Created by KiCad (PCBNEW no-vcs-found-product) date Thu Sep 29 09:32:32 2016*
%MOMM*%
%LPD*%
G01*
G04 APERTURE LIST*
%ADD10C,0.100000*%
%ADD11C,0.050000*%
G04 APERTURE END LIST*
D10*
D11*
X142800000Y-81100000D02*
X161400000Y-81100000D01*
X142800000Y-69200000D02*
X161400000Y-69200000D01*
X142800000Y-81100000D02*
X142800000Y-69200000D01*
X161400000Y-81100000D02*
X161400000Y-69200000D01*
X156550000Y-104350000D02*
X156550000Y-93350000D01*
X145250000Y-104350000D02*
X145250000Y-93350000D01*
X156550000Y-104350000D02*
X145250000Y-104350000D01*
X156550000Y-93350000D02*
X145250000Y-93350000D01*
X160750000Y-96850000D02*
X160750000Y-107850000D01*
X170250000Y-96850000D02*
X170250000Y-107850000D01*
X160750000Y-96850000D02*
X170250000Y-96850000D01*
X160750000Y-107850000D02*
X170250000Y-107850000D01*
X165600000Y-84750000D02*
X165600000Y-79950000D01*
X167600000Y-84750000D02*
X167600000Y-79950000D01*
X165600000Y-84750000D02*
X167600000Y-84750000D01*
X165600000Y-79950000D02*
X167600000Y-79950000D01*
X153400000Y-87150000D02*
X153400000Y-82350000D01*
X155400000Y-87150000D02*
X155400000Y-82350000D01*
X153400000Y-87150000D02*
X155400000Y-87150000D01*
X153400000Y-82350000D02*
X155400000Y-82350000D01*
X172600000Y-87850000D02*
X177400000Y-87850000D01*
X172600000Y-89850000D02*
X177400000Y-89850000D01*
X172600000Y-87850000D02*
X172600000Y-89850000D01*
X177400000Y-87850000D02*
X177400000Y-89850000D01*
X172600000Y-96450000D02*
X177400000Y-96450000D01*
X172600000Y-98450000D02*
X177400000Y-98450000D01*
X172600000Y-96450000D02*
X172600000Y-98450000D01*
X177400000Y-96450000D02*
X177400000Y-98450000D01*
X170200000Y-117950000D02*
X170200000Y-113150000D01*
X172200000Y-117950000D02*
X172200000Y-113150000D01*
X170200000Y-117950000D02*
X172200000Y-117950000D01*
X170200000Y-113150000D02*
X172200000Y-113150000D01*
X163900000Y-84750000D02*
X159300000Y-84750000D01*
X163900000Y-82750000D02*
X159300000Y-82750000D01*
X163900000Y-84750000D02*
X163900000Y-82750000D01*
X159300000Y-84750000D02*
X159300000Y-82750000D01*
X156800000Y-85750000D02*
X161400000Y-85750000D01*
X156800000Y-87750000D02*
X161400000Y-87750000D01*
X156800000Y-85750000D02*
X156800000Y-87750000D01*
X161400000Y-85750000D02*
X161400000Y-87750000D01*
X137700000Y-80250000D02*
X137700000Y-73650000D01*
X140900000Y-80250000D02*
X140900000Y-73650000D01*
X137700000Y-80250000D02*
X140900000Y-80250000D01*
X137700000Y-73650000D02*
X140900000Y-73650000D01*
X139500000Y-105350000D02*
X139500000Y-100750000D01*
X141500000Y-105350000D02*
X141500000Y-100750000D01*
X139500000Y-105350000D02*
X141500000Y-105350000D01*
X139500000Y-100750000D02*
X141500000Y-100750000D01*
X142300000Y-105350000D02*
X142300000Y-100750000D01*
X144300000Y-105350000D02*
X144300000Y-100750000D01*
X142300000Y-105350000D02*
X144300000Y-105350000D01*
X142300000Y-100750000D02*
X144300000Y-100750000D01*
X171400000Y-103450000D02*
X176000000Y-103450000D01*
X171400000Y-105450000D02*
X176000000Y-105450000D01*
X171400000Y-103450000D02*
X171400000Y-105450000D01*
X176000000Y-103450000D02*
X176000000Y-105450000D01*
X157550000Y-105600000D02*
X157550000Y-101000000D01*
X159550000Y-105600000D02*
X159550000Y-101000000D01*
X157550000Y-105600000D02*
X159550000Y-105600000D01*
X157550000Y-101000000D02*
X159550000Y-101000000D01*
X176450000Y-113250000D02*
X176450000Y-117850000D01*
X174450000Y-113250000D02*
X174450000Y-117850000D01*
X176450000Y-113250000D02*
X174450000Y-113250000D01*
X176450000Y-117850000D02*
X174450000Y-117850000D01*
X165700000Y-117850000D02*
X165700000Y-113250000D01*
X167700000Y-117850000D02*
X167700000Y-113250000D01*
X165700000Y-117850000D02*
X167700000Y-117850000D01*
X165700000Y-113250000D02*
X167700000Y-113250000D01*
X159850000Y-118600000D02*
X159850000Y-112000000D01*
X163050000Y-118600000D02*
X163050000Y-112000000D01*
X159850000Y-118600000D02*
X163050000Y-118600000D01*
X159850000Y-112000000D02*
X163050000Y-112000000D01*
X135300000Y-109910000D02*
X135300000Y-105110000D01*
X137300000Y-109910000D02*
X137300000Y-105110000D01*
X135300000Y-109910000D02*
X137300000Y-109910000D01*
X135300000Y-105110000D02*
X137300000Y-105110000D01*
X132100000Y-101810000D02*
X132100000Y-97010000D01*
X134100000Y-101810000D02*
X134100000Y-97010000D01*
X132100000Y-101810000D02*
X134100000Y-101810000D01*
X132100000Y-97010000D02*
X134100000Y-97010000D01*
X134200000Y-105110000D02*
X134200000Y-109910000D01*
X132200000Y-105110000D02*
X132200000Y-109910000D01*
X134200000Y-105110000D02*
X132200000Y-105110000D01*
X134200000Y-109910000D02*
X132200000Y-109910000D01*
X131200000Y-97010000D02*
X131200000Y-101810000D01*
X129200000Y-97010000D02*
X129200000Y-101810000D01*
X131200000Y-97010000D02*
X129200000Y-97010000D01*
X131200000Y-101810000D02*
X129200000Y-101810000D01*
X131000000Y-105110000D02*
X131000000Y-109910000D01*
X129000000Y-105110000D02*
X129000000Y-109910000D01*
X131000000Y-105110000D02*
X129000000Y-105110000D01*
X131000000Y-109910000D02*
X129000000Y-109910000D01*
X179930000Y-65910000D02*
G75*
G03X179930000Y-65910000I-1550000J0D01*
G01*
M02*
