M48
;DRILL file {KiCad no-vcs-found-product} date Thu Sep 29 09:32:41 2016
;FORMAT={-:-/ absolute / metric / decimal}
FMAT,2
METRIC,TZ
T1C0.600
T2C0.700
T3C0.890
T4C1.000
T5C1.100
T6C4.000
%
G90
G05
M71
T1
X117.55Y-108.21
X118.3Y-106.76
X121.55Y-100.46
X124.85Y-101.91
X125.75Y-89.55
X127.25Y-86.45
X127.25Y-101.86
X127.25Y-110.91
X140.65Y-92.84
X153.3Y-108.45
X160.05Y-108.4
X178.05Y-102.025
X178.08Y-83.63
X178.7Y-105.65
X179.99Y-88.86
X179.99Y-97.41
X180.91Y-100.75
T2
X184.2Y-104.954
X184.2Y-106.554
X184.2Y-108.154
X185.4Y-105.754
X185.4Y-107.354
T3
X116.82Y-88.24
X116.82Y-90.78
X116.82Y-93.32
X119.36Y-86.97
X119.36Y-89.51
X119.36Y-92.05
T4
X108.18Y-121.92
X178.38Y-65.91
X187.1Y-86.328
X187.1Y-88.868
X187.1Y-94.881
X187.1Y-97.421
T5
X109.1Y-106.22
X109.1Y-108.76
X111.64Y-106.22
X111.64Y-108.76
T6
X119.43Y-73.87
X119.43Y-122.13
X185.47Y-77.045
X185.47Y-118.955
T2
X188.65Y-102.904G85X189.85Y-102.904
G05
X188.65Y-110.204G85X189.85Y-110.204
G05
T0
M30
