G04 #@! TF.FileFunction,Soldermask,Top*
%FSLAX46Y46*%
G04 Gerber Fmt 4.6, Leading zero omitted, Abs format (unit mm)*
G04 Created by KiCad (PCBNEW no-vcs-found-product) date Thu Sep 29 09:32:32 2016*
%MOMM*%
%LPD*%
G01*
G04 APERTURE LIST*
%ADD10C,0.100000*%
%ADD11R,1.000000X2.400000*%
%ADD12R,1.900000X1.000000*%
%ADD13R,2.150000X0.850000*%
%ADD14R,1.700000X1.900000*%
%ADD15R,1.900000X1.700000*%
%ADD16R,1.900000X1.650000*%
%ADD17R,2.900000X2.400000*%
%ADD18R,1.650000X1.900000*%
%ADD19C,3.650000*%
%ADD20C,1.990000*%
%ADD21O,3.100000X2.100000*%
%ADD22O,2.050000X1.500000*%
%ADD23C,1.800000*%
%ADD24R,1.150000X0.650000*%
%ADD25O,2.200000X2.200000*%
%ADD26C,2.540000*%
G04 APERTURE END LIST*
D10*
D11*
X143845000Y-79850000D03*
X145115000Y-79850000D03*
X146385000Y-79850000D03*
X157815000Y-79850000D03*
X159085000Y-79850000D03*
X160355000Y-79850000D03*
X160355000Y-70450000D03*
X159085000Y-70450000D03*
X157815000Y-70450000D03*
X146385000Y-70450000D03*
X145115000Y-70450000D03*
X143845000Y-70450000D03*
D12*
X155550000Y-103295000D03*
X155550000Y-102025000D03*
X155550000Y-100755000D03*
X155550000Y-99485000D03*
X155550000Y-98215000D03*
X155550000Y-96945000D03*
X155550000Y-95675000D03*
X155550000Y-94405000D03*
X146250000Y-94405000D03*
X146250000Y-95675000D03*
X146250000Y-96945000D03*
X146250000Y-98215000D03*
X146250000Y-99485000D03*
X146250000Y-100755000D03*
X146250000Y-102025000D03*
X146250000Y-103295000D03*
D13*
X161900000Y-98125000D03*
X161900000Y-98775000D03*
X161900000Y-99425000D03*
X161900000Y-100075000D03*
X161900000Y-100725000D03*
X161900000Y-101375000D03*
X161900000Y-102025000D03*
X161900000Y-102675000D03*
X161900000Y-103325000D03*
X161900000Y-103975000D03*
X161900000Y-104625000D03*
X161900000Y-105275000D03*
X161900000Y-105925000D03*
X161900000Y-106575000D03*
X169100000Y-106575000D03*
X169100000Y-105925000D03*
X169100000Y-105275000D03*
X169100000Y-104625000D03*
X169100000Y-103975000D03*
X169100000Y-103325000D03*
X169100000Y-102675000D03*
X169100000Y-102025000D03*
X169100000Y-101375000D03*
X169100000Y-100725000D03*
X169100000Y-100075000D03*
X169100000Y-99425000D03*
X169100000Y-98775000D03*
X169100000Y-98125000D03*
D14*
X166600000Y-83700000D03*
X166600000Y-81000000D03*
X154400000Y-86100000D03*
X154400000Y-83400000D03*
D15*
X173650000Y-88850000D03*
X176350000Y-88850000D03*
X173650000Y-97450000D03*
X176350000Y-97450000D03*
D14*
X171200000Y-116900000D03*
X171200000Y-114200000D03*
D16*
X162850000Y-83750000D03*
X160350000Y-83750000D03*
X157850000Y-86750000D03*
X160350000Y-86750000D03*
D17*
X139300000Y-78950000D03*
X139300000Y-74950000D03*
D18*
X140500000Y-104300000D03*
X140500000Y-101800000D03*
X143300000Y-104300000D03*
X143300000Y-101800000D03*
D16*
X172450000Y-104450000D03*
X174950000Y-104450000D03*
D18*
X158550000Y-104550000D03*
X158550000Y-102050000D03*
X175450000Y-114300000D03*
X175450000Y-116800000D03*
X166700000Y-116800000D03*
X166700000Y-114300000D03*
D17*
X161450000Y-117300000D03*
X161450000Y-113300000D03*
D19*
X110470000Y-85060000D03*
D20*
X119360000Y-86970000D03*
X116820000Y-88240000D03*
X119360000Y-89510000D03*
X116820000Y-90780000D03*
X119360000Y-92050000D03*
X116820000Y-93320000D03*
D19*
X110470000Y-95220000D03*
D21*
X189250000Y-102904000D03*
D22*
X183925000Y-104954000D03*
X183925000Y-106554000D03*
X185675000Y-105754000D03*
X185675000Y-107354000D03*
X183925000Y-108154000D03*
D21*
X189250000Y-110204000D03*
D23*
X187100000Y-86328000D03*
X187100000Y-88868000D03*
X187100000Y-94881000D03*
X187100000Y-97421000D03*
D24*
X126250000Y-98960000D03*
X126250000Y-99460000D03*
X126250000Y-99960000D03*
X126250000Y-100460000D03*
X123150000Y-98960000D03*
X123150000Y-99460000D03*
X123150000Y-100460000D03*
X123150000Y-99960000D03*
X126250000Y-106760000D03*
X126250000Y-107260000D03*
X126250000Y-107760000D03*
X126250000Y-108260000D03*
X123150000Y-106760000D03*
X123150000Y-107260000D03*
X123150000Y-108260000D03*
X123150000Y-107760000D03*
D25*
X109100000Y-108760000D03*
X109100000Y-106220000D03*
X111640000Y-108760000D03*
X111640000Y-106220000D03*
D14*
X136300000Y-108860000D03*
X136300000Y-106160000D03*
X133100000Y-100760000D03*
X133100000Y-98060000D03*
X133200000Y-106160000D03*
X133200000Y-108860000D03*
X130200000Y-98060000D03*
X130200000Y-100760000D03*
X130000000Y-106160000D03*
X130000000Y-108860000D03*
D26*
X178380000Y-65910000D03*
X108180000Y-121920000D03*
M02*
